<?xml version="1.0" encoding="UTF-8" standalone="no"?>
<!-- Created with Inkscape (http://www.inkscape.org/) -->

<svg
   width="4in"
   height="4in"
   viewBox="0 0 101.6 101.6"
   version="1.1"
   id="svg5"
   inkscape:version="1.3.2 (091e20e, 2023-11-25, custom)"
   xml:space="preserve"
   sodipodi:docname="chat.svg"
   xmlns:inkscape="http://www.inkscape.org/namespaces/inkscape"
   xmlns:sodipodi="http://sodipodi.sourceforge.net/DTD/sodipodi-0.dtd"
   xmlns="http://www.w3.org/2000/svg"
   xmlns:svg="http://www.w3.org/2000/svg"><sodipodi:namedview
     id="namedview7"
     pagecolor="#ffffff"
     bordercolor="#000000"
     borderopacity="0.25"
     inkscape:showpageshadow="2"
     inkscape:pageopacity="0.0"
     inkscape:pagecheckerboard="false"
     inkscape:deskcolor="#d1d1d1"
     inkscape:document-units="mm"
     showgrid="false"
     inkscape:zoom="0.83784788"
     inkscape:cx="99.660096"
     inkscape:cy="253.02923"
     inkscape:window-width="1920"
     inkscape:window-height="1130"
     inkscape:window-x="-6"
     inkscape:window-y="-6"
     inkscape:window-maximized="1"
     inkscape:current-layer="layer1" /><defs
     id="defs2" /><g
     inkscape:label="Layer 1"
     inkscape:groupmode="layer"
     id="layer1"><path
       style="fill:#000000;stroke-width:1.15872"
       d="m 98.422564,97.241079 c -0.13107,-0.0347 -0.36342,-0.12639 -0.51634,-0.20378 -0.15292,-0.0774 -2.79817,-2.65492 -5.878345,-5.727872 -3.493702,-3.485503 -5.675019,-5.604389 -5.79891,-5.632936 -0.10922,-0.02517 -10.797488,-0.05418 -23.751692,-0.06446 l -23.553101,-0.0187 -0.595778,-0.173102 C 37.207865,85.094651 37.145806,85.071079 36.102251,84.574659 33.755787,83.458443 31.779702,81.166681 30.918786,78.563139 30.5044,77.309977 30.503843,77.303465 30.503843,73.717475 v -3.376076 l 16.44348,-0.03972 c 9.043914,-0.02184 16.481619,-0.0646 16.528233,-0.09499 0.04662,-0.03041 0.382821,-0.09265 0.747126,-0.138331 0.364304,-0.04568 0.772998,-0.116834 0.90821,-0.15812 0.135211,-0.04129 0.424572,-0.114759 0.643024,-0.163284 0.893619,-0.198485 1.115652,-0.259705 1.187584,-0.327446 0.04151,-0.03908 0.148747,-0.07128 0.238312,-0.07155 0.08957,-2.69e-4 0.265236,-0.05389 0.390379,-0.119155 0.125143,-0.06527 0.270901,-0.118666 0.323908,-0.118666 0.224294,0 2.042444,-0.836167 2.890777,-1.329469 0.320366,-0.186291 0.612723,-0.338711 0.649682,-0.338711 0.03696,0 0.114435,-0.04602 0.172171,-0.102269 0.05773,-0.05624 0.247956,-0.189163 0.422718,-0.295366 0.174762,-0.106208 0.353496,-0.221653 0.397185,-0.256552 0.0437,-0.0349 0.329665,-0.248163 0.635498,-0.473918 0.305832,-0.225756 0.573933,-0.43069 0.595778,-0.455409 0.02184,-0.02472 0.272072,-0.2392 0.55606,-0.476624 0.969139,-0.810232 2.391143,-2.345519 3.095554,-3.342159 0.538732,-0.762231 1.114612,-1.633001 1.114612,-1.685374 0,-0.03237 0.134541,-0.282916 0.298981,-0.55675 0.328942,-0.547776 0.555896,-1.014654 0.995014,-2.046905 0.06505,-0.152916 0.175854,-0.413293 0.246229,-0.578614 0.07037,-0.165321 0.127955,-0.368755 0.127955,-0.452075 0,-0.08332 0.033,-0.171883 0.07332,-0.196808 0.04032,-0.02492 0.09726,-0.161085 0.12651,-0.302578 0.02925,-0.141493 0.10732,-0.435993 0.173482,-0.654445 0.252394,-0.833325 0.279721,-0.93984 0.34331,-1.338141 0.03596,-0.225212 0.103172,-0.641828 0.14938,-0.925816 0.318858,-1.959788 0.322473,-2.11069 0.324108,-13.528346 l 0.0014,-10.072833 5.937923,0.02705 c 6.509838,0.02965 5.923358,-0.0083 7.488678,0.485076 1.22045,0.384704 2.70817,1.293957 3.74677,2.289918 1.4779,1.417222 2.394626,3.016725 2.974436,5.189749 0.14357,0.53806 0.14837,1.484307 0.14837,29.232855 v 28.676786 l -0.28597,0.43967 c -0.54052,0.83104 -1.13906,1.19114 -2.050916,1.23387 -0.33125,0.0155 -0.70952,-1.6e-4 -0.84059,-0.0349 z M 2.005099,71.845771 C 1.1913655,71.648583 0.71340635,71.304009 0.25580375,70.584654 L -3.75e-6,70.182525 V 41.505728 c 0,-27.466243 0.00609,-28.698591 0.1442644,-29.193136 0.2090274,-0.748137 0.3757384,-1.287869 0.4539212,-1.469586 0.037595,-0.08738 0.1418001,-0.32671 0.2315665,-0.531841 0.089767,-0.205133 0.1632117,-0.392173 0.1632117,-0.415647 0,-0.201493 1.20137375,-1.887052 1.77826175,-2.494949 0.378356,-0.398694 1.365265,-1.210029 1.832404,-1.506415 0.406494,-0.257908 1.638109,-0.889775 1.734322,-0.889775 0.03985,0 0.185085,-0.05047 0.32276,-0.112164 0.337513,-0.151244 0.943367,-0.334302 1.52131,-0.459662 0.702246,-0.152324 54.0266052,-0.152805 54.7321632,-4.94e-4 0.64485,0.139206 1.949358,0.566086 2.142617,0.701138 0.08617,0.06022 0.201089,0.109499 0.255354,0.109499 0.317098,0 2.252208,1.368458 2.937798,2.077533 1.047361,1.083237 2.02326,2.716566 2.437072,4.078843 0.446075,1.468489 0.409179,-0.411739 0.409179,20.85224 0,18.712544 -0.0054,19.442696 -0.148368,19.978434 -0.276024,1.034484 -0.368091,1.281759 -0.874445,2.34859 -0.555106,1.169547 -1.489777,2.349671 -2.654243,3.35127 -0.76224,0.655631 -2.223104,1.469669 -3.154534,1.757802 -0.262142,0.0811 -0.583863,0.182716 -0.714934,0.22583 -0.13107,0.04312 -0.667271,0.145118 -1.191556,0.226676 -0.914075,0.142192 -1.902594,0.148376 -24.056009,0.150492 l -23.102765,0.0022 -5.5321642,5.531064 c -3.04269,3.042085 -5.658243,5.609859 -5.812341,5.706166 -0.219579,0.137232 -1.25596,0.465359 -1.368902,0.433406 -0.01287,-0.0036 -0.229245,-0.0565 -0.4808408,-0.11747 z"
       id="path1" /></g></svg>
