<?xml version="1.0" encoding="UTF-8" standalone="no"?>
<svg
   height="4mm"
   viewBox="0 -960 604.72441 604.72441"
   width="4mm"
   version="1.1"
   id="svg1"
   sodipodi:docname="group.svg"
   inkscape:version="1.3.2 (091e20e, 2023-11-25, custom)"
   xmlns:inkscape="http://www.inkscape.org/namespaces/inkscape"
   xmlns:sodipodi="http://sodipodi.sourceforge.net/DTD/sodipodi-0.dtd"
   xmlns="http://www.w3.org/2000/svg"
   xmlns:svg="http://www.w3.org/2000/svg">
  <defs
     id="defs1" />
  <sodipodi:namedview
     id="namedview1"
     pagecolor="#ffffff"
     bordercolor="#000000"
     borderopacity="0.25"
     inkscape:showpageshadow="2"
     inkscape:pageopacity="0.0"
     inkscape:pagecheckerboard="0"
     inkscape:deskcolor="#d1d1d1"
     inkscape:zoom="37.916667"
     inkscape:cx="11.986813"
     inkscape:cy="7.7802197"
     inkscape:window-width="1920"
     inkscape:window-height="1130"
     inkscape:window-x="-6"
     inkscape:window-y="-6"
     inkscape:window-maximized="1"
     inkscape:current-layer="svg1"
     inkscape:document-units="mm" />
  <path
     d="m 0,-437.73802 v -76.96492 q 0,-23.36436 12.025769,-42.94918 12.025769,-19.58482 31.954187,-29.89263 42.605582,-21.30279 86.585534,-31.95418 43.97996,-10.6514 89.33429,-10.6514 45.35433,0 89.33428,10.6514 43.97996,10.65139 86.58554,31.95418 19.92842,10.30781 31.95419,29.89263 12.02577,19.58482 12.02577,42.94918 v 76.96492 z m 494.7745,0 v -82.46242 q 0,-30.23622 -16.83607,-58.06728 -16.83608,-27.83107 -47.75949,-47.75949 35.04653,4.12312 65.96994,14.08733 30.9234,9.96421 57.72369,24.39513 24.73872,13.74374 37.79527,30.57982 13.05655,16.83607 13.05655,36.76449 v 82.46242 z M 219.89978,-657.6378 q -45.35433,0 -77.65211,-32.29778 -32.29778,-32.29778 -32.29778,-77.65211 0,-45.35433 32.29778,-77.65211 32.29778,-32.29778 77.65211,-32.29778 45.35433,0 77.65211,32.29778 32.29778,32.29778 32.29778,77.65211 0,45.35433 -32.29778,77.65211 -32.29778,32.29778 -77.65211,32.29778 z M 494.7745,-767.58769 q 0,45.35433 -32.29778,77.65211 -32.29778,32.29778 -77.65211,32.29778 -7.55905,0 -19.24123,-1.71797 -11.68217,-1.71796 -19.24123,-3.77953 18.55405,-21.98997 28.51826,-48.79026 9.9642,-26.80028 9.9642,-55.66213 0,-28.86185 -9.9642,-55.66213 -9.96421,-26.80029 -28.51826,-48.79027 9.62062,-3.43593 19.24123,-4.46671 9.62062,-1.03078 19.24123,-1.03078 45.35433,0 77.65211,32.29778 32.29778,32.29778 32.29778,77.65211 z M 54.974945,-492.71297 H 384.82461 v -21.98997 q 0,-7.55906 -3.77952,-13.74374 -3.77953,-6.18468 -9.96421,-9.62062 -37.10809,-18.55404 -74.90336,-27.83106 -37.79528,-9.27702 -76.27774,-9.27702 -38.48246,0 -76.27774,9.27702 -37.79527,9.27702 -74.903359,27.83106 -6.184681,3.43594 -9.964209,9.62062 -3.779527,6.18468 -3.779527,13.74374 z M 219.89978,-712.61275 q 22.67716,0 38.82605,-16.14889 16.14889,-16.14889 16.14889,-38.82605 0,-22.67717 -16.14889,-38.82606 -16.14889,-16.14889 -38.82605,-16.14889 -22.67717,0 -38.82606,16.14889 -16.14889,16.14889 -16.14889,38.82606 0,22.67716 16.14889,38.82605 16.14889,16.14889 38.82606,16.14889 z m 0,219.89978 z m 0,-274.87472 z"
     id="path1"
     style="fill:#f0f0ff;fill-opacity:1;stroke-width:0.687187" />
</svg>
