<?xml version="1.0" encoding="UTF-8" standalone="no"?>
<!-- Created with Inkscape (http://www.inkscape.org/) -->

<svg
   width="91.416mm"
   height="25.458mm"
   viewBox="0 0 91.416 25.458"
   version="1.1"
   id="svg5"
   inkscape:version="1.3.2 (091e20e, 2023-11-25, custom)"
   sodipodi:docname="bolted.svg"
   xmlns:inkscape="http://www.inkscape.org/namespaces/inkscape"
   xmlns:sodipodi="http://sodipodi.sourceforge.net/DTD/sodipodi-0.dtd"
   xmlns="http://www.w3.org/2000/svg"
   xmlns:svg="http://www.w3.org/2000/svg">
  <sodipodi:namedview
     id="namedview7"
     pagecolor="#ffffff"
     bordercolor="#000000"
     borderopacity="0.25"
     inkscape:showpageshadow="2"
     inkscape:pageopacity="0.0"
     inkscape:pagecheckerboard="false"
     inkscape:deskcolor="#d1d1d1"
     inkscape:document-units="mm"
     showgrid="false"
     inkscape:zoom="1.6756958"
     inkscape:cx="96.974644"
     inkscape:cy="77.579715"
     inkscape:window-width="1920"
     inkscape:window-height="1130"
     inkscape:window-x="-6"
     inkscape:window-y="-6"
     inkscape:window-maximized="1"
     inkscape:current-layer="layer2" />
  <defs
     id="defs2">
    <clipPath
       clipPathUnits="userSpaceOnUse"
       id="clipEmfPath1">
      <path
         d="m 143.91278,1.4391278 -0.1599,0.4797093 -0.15991,0.6396123 -0.1599,0.4797093 -0.1599,0.6396123 -0.15991,0.4797093 -0.1599,0.6396124 -0.1599,0.4797092 -0.1599,0.6396124 -0.15991,0.4797093 -0.1599,0.6396123 -0.1599,0.4797093 -0.15991,0.6396123 -0.1599,0.4797093 -0.31981,1.2792247 -0.1599,0.4797095 -0.1599,0.639612 -0.15991,0.479709 -0.1599,0.639613 -0.1599,0.479709 -0.1599,0.639612 -0.15991,0.47971 -0.1599,0.639612 -0.1599,0.479709 -0.15991,0.639613 -0.1599,0.479709 -0.1599,0.639612 -0.15991,0.47971 -0.1599,0.639612 -0.1599,0.479709 -0.15991,0.639613 -0.1599,0.479709 -0.1599,0.639612 -0.1599,0.479709 -0.15991,0.639613 -0.1599,0.479709 -0.1599,0.639612 -0.15991,0.47971 -0.1599,0.639612 -0.1599,0.479709 -0.15991,0.639613 -0.1599,0.479709 -0.1599,0.639612 -0.15991,0.47971 -0.1599,0.639612 -0.1599,0.479709 -0.15991,0.639612 -0.1599,0.47971 -0.1599,0.639612 -0.1599,0.479709 -0.15991,0.639613 -0.1599,0.479709 -0.1599,0.639612 -0.15991,0.47971 -0.1599,0.639612 -0.1599,0.479709 -0.15991,0.639613 -0.1599,0.479709 -0.1599,0.639612 -0.15991,0.479709 -0.1599,0.639613 -0.1599,0.479709 -0.1599,0.639612 -0.15991,0.47971 -0.1599,0.639612 -0.1599,0.479709 -0.15991,0.639613 -0.1599,0.479709 -0.1599,0.639612 -0.15991,0.47971 -0.1599,0.639612 -0.1599,0.479709 -0.15991,0.639613 -0.1599,0.479709 -0.1599,0.639612 -0.1599,0.479709 -0.15991,0.639613 -0.1599,0.479709 -0.1599,0.639612 -0.15991,0.47971 -0.1599,0.639612 -0.1599,0.479709 -0.15991,0.639613 -0.1599,0.479709 -0.1599,0.639612 -0.15991,0.47971 -0.1599,0.639612 -0.1599,0.479709 -0.1599,0.639613 -0.15991,0.479709 -0.1599,0.639612 -0.1599,0.479709 -0.15991,0.639613 -0.1599,0.479709 -0.1599,0.639612 -0.15991,0.47971 -0.1599,0.639612 -0.1599,0.479709 -0.15991,0.639613 -0.1599,0.479709 -0.1599,0.639612 -0.1599,0.47971 -0.15991,0.639612 -0.1599,0.479709 -0.1599,0.639613 -0.15991,0.479709 -0.1599,0.639612 -0.1599,0.479709 -0.15991,0.639613 -0.1599,0.479709 -0.1599,0.639612 -0.15991,0.47971 -0.1599,0.639612 -0.1599,0.479709 -0.15991,0.639613 -0.1599,0.479709 -0.1599,0.639612 -0.1599,0.47971 -0.15991,0.639612 -0.1599,0.479709 -0.31981,1.279225 -0.1599,0.479709 -0.1599,0.639613 -0.15991,0.479709 -0.1599,0.639612 -0.1599,0.479709 -0.15991,0.639613 -0.1599,0.479709 -0.1599,0.639612 -0.1599,0.47971 -0.15991,0.639612 -0.1599,0.479709 -0.1599,0.639613 -0.15991,0.479709 -0.1599,0.639612 -0.1599,0.47971 -0.15991,0.639612 -0.1599,0.479709 -0.1599,0.639613 -0.15991,0.479709 -0.1599,0.639612 -0.1599,0.479709 -0.1599,0.639613 -0.15991,0.479709 -0.1599,0.639612 -0.1599,0.47971 -0.15991,0.639612 -0.1599,0.479709 -0.1599,0.639613 -0.15991,0.479709 -0.1599,0.639612 -0.1599,0.47971 -0.15991,0.639612 -0.1599,0.479709 -0.1599,0.639613 -0.1599,0.479709 -0.15991,0.639612 -0.1599,0.479709 -0.1599,0.639613 -0.15991,0.479709 -0.1599,0.639612 -0.1599,0.47971 -0.15991,0.639612 -0.1599,0.479709 -0.1599,0.639613 -0.15991,0.479709 -0.1599,0.639612 -0.1599,0.47971 -0.15991,0.639612 -0.1599,0.479709 -0.1599,0.639612 -0.1599,0.47971 -0.15991,0.639612 -0.1599,0.479709 -0.1599,0.639609 -0.15991,0.47971 -0.1599,0.63962 -0.1599,0.4797 -0.15991,0.63962 -0.1599,0.47971 -0.1599,0.63961 -0.15991,0.47971 -0.1599,0.63961 -0.1599,0.47971 -0.1599,0.63961 -0.15991,0.47971 -0.1599,0.63961 -0.1599,0.47971 -0.15991,0.63962 -0.1599,0.4797 -0.1599,0.63962 -0.15991,0.47971 -0.1599,0.63961 -0.1599,0.47971 -0.15991,0.63961 -0.1599,0.47971 -0.1599,0.63961 -0.1599,0.47971 -0.15991,0.63961 -0.1599,0.47971 -0.1599,0.63961 -0.15991,0.47971 -0.1599,0.63962 -0.1599,0.47971 -0.15991,0.63961 -0.1599,0.47971 -0.1599,0.63961 -0.15991,0.47971 -0.1599,0.63961 -0.1599,0.47971 -0.1599,0.63961 -0.15991,0.47971 -0.1599,0.63961 -0.1599,0.47971 -0.15991,0.63962 -0.1599,0.47971 -0.1599,0.63961 -0.15991,0.47971 -0.1599,0.63961 -0.1599,0.47971 -0.15991,0.63961 0.47971,0.1599 0.63962,0.15991 0.47971,0.1599 0.63961,0.1599 0.47971,0.15991 0.63961,0.1599 0.47971,0.1599 0.63961,0.15991 0.47971,0.1599 0.63961,0.1599 0.47971,0.15991 0.63961,0.1599 0.47971,0.1599 0.63962,0.1599 0.4797,0.15991 0.63962,0.1599 0.47971,0.1599 0.63961,0.15991 0.47971,0.1599 0.63961,0.1599 0.47971,0.15991 0.63961,0.1599 0.47971,0.1599 0.63961,0.15991 0.47971,0.1599 0.63962,0.1599 0.4797,0.1599 0.63962,0.15991 0.47971,0.1599 0.63961,0.1599 0.47971,0.15991 1.27922,0.3198 0.47971,0.15991 0.63961,0.1599 0.47971,0.1599 0.63962,0.15991 0.47971,0.1599 0.63961,0.1599 0.47971,0.1599 0.63961,0.15991 0.47971,0.1599 0.63961,0.1599 0.47971,0.15991 0.63961,0.1599 0.47971,0.1599 0.63961,0.15991 0.47971,0.1599 0.63962,0.1599 0.4797,0.15991 0.63962,0.1599 0.47971,0.1599 0.63961,0.1599 0.47971,0.15991 0.63961,0.1599 0.47971,0.1599 0.63961,0.15991 0.47971,0.1599 0.63961,0.1599 0.47971,0.15991 0.63962,0.1599 0.4797,0.1599 0.63962,0.15991 0.47971,0.1599 0.63961,0.1599 0.47971,0.1599 0.63961,0.15991 0.47971,0.1599 0.63961,0.1599 0.47971,0.15991 0.63961,0.1599 0.47971,0.1599 0.63962,0.15991 0.4797,0.1599 0.63962,0.1599 0.47971,0.15991 0.63961,0.1599 0.47971,0.1599 0.63961,0.15991 0.47971,0.1599 0.63961,0.1599 0.47971,0.1599 0.63961,0.15991 0.47971,0.1599 0.63961,0.1599 0.47971,0.15991 0.63962,0.1599 0.47971,0.1599 0.63961,0.15991 0.47971,0.1599 0.63961,0.1599 0.47971,0.15991 0.63961,0.1599 0.47971,0.1599 0.63961,0.1599 0.47971,0.15991 0.63961,0.1599 0.47971,0.1599 0.63962,0.15991 0.47971,0.1599 0.63961,0.1599 0.47971,0.15991 0.63961,0.1599 0.47971,0.1599 0.63961,0.15991 0.47971,0.1599 0.63961,0.1599 0.47971,0.1599 0.63961,0.15991 0.47971,0.1599 0.63962,0.1599 0.47971,0.15991 0.63961,0.1599 0.47971,0.1599 0.63961,0.15991 0.47971,0.1599 0.63961,0.1599 0.47971,0.15991 0.63961,0.1599 0.47971,0.1599 0.63961,0.1599 0.47971,0.15991 0.63962,0.1599 0.47971,0.1599 0.63961,0.15991 0.47971,0.1599 0.63961,0.1599 0.47971,0.15991 0.63961,0.1599 0.47971,0.1599 0.63961,0.15991 0.47971,0.1599 v -0.63961 l 0.1599,-0.47971 0.15991,-0.63962 0.1599,-0.4797 0.1599,-0.63962 0.15991,-0.47971 0.3198,-1.27922 0.15991,-0.47971 0.1599,-0.63961 0.1599,-0.47971 0.15991,-0.63961 0.1599,-0.47971 0.1599,-0.63962 0.1599,-0.4797 0.15991,-0.63962 0.1599,-0.47971 0.1599,-0.63961 0.15991,-0.47971 0.1599,-0.63961 0.1599,-0.47971 0.15991,-0.63961 0.1599,-0.47971 0.1599,-0.63961 0.15991,-0.47971 0.1599,-0.63962 0.1599,-0.4797 0.1599,-0.63962 0.15991,-0.47971 0.1599,-0.63961 0.1599,-0.47971 0.15991,-0.63961 0.1599,-0.47971 0.1599,-0.63961 0.15991,-0.47971 0.1599,-0.63961 0.1599,-0.47971 0.15991,-0.63962 0.1599,-0.4797 0.1599,-0.63962 0.15991,-0.47971 0.1599,-0.63961 0.1599,-0.47971 0.1599,-0.63961 0.15991,-0.47971 0.1599,-0.63961 0.1599,-0.47971 0.15991,-0.63961 0.1599,-0.47971 0.1599,-0.63961 0.15991,-0.47971 0.1599,-0.63962 0.1599,-0.47971 0.15991,-0.63961 0.1599,-0.47971 0.1599,-0.63961 0.1599,-0.47971 0.15991,-0.63961 0.1599,-0.47971 0.1599,-0.63961 0.15991,-0.47971 0.1599,-0.63961 0.1599,-0.47971 0.15991,-0.63962 0.1599,-0.47971 0.1599,-0.63961 0.15991,-0.47971 0.1599,-0.63961 0.1599,-0.47971 0.1599,-0.63961 0.15991,-0.47971 0.1599,-0.63961 0.1599,-0.47971 0.15991,-0.63961 0.1599,-0.47971 0.1599,-0.63962 0.15991,-0.47971 0.1599,-0.63961 0.1599,-0.47971 0.15991,-0.63961 0.1599,-0.47971 0.1599,-0.63961 0.1599,-0.47971 0.15991,-0.639612 0.1599,-0.47971 0.1599,-0.639612 0.15991,-0.479709 0.1599,-0.639613 0.1599,-0.479709 0.15991,-0.639612 0.1599,-0.47971 0.1599,-0.639612 0.15991,-0.479709 0.1599,-0.639613 0.1599,-0.479709 0.1599,-0.639612 0.15991,-0.479709 0.1599,-0.639613 0.1599,-0.479709 0.15991,-0.639612 0.1599,-0.47971 0.1599,-0.639612 0.15991,-0.479709 0.1599,-0.639613 0.1599,-0.479709 0.15991,-0.639612 0.1599,-0.47971 0.1599,-0.639612 0.15991,-0.479709 0.1599,-0.639613 0.1599,-0.479709 0.1599,-0.639612 0.15991,-0.479709 0.3198,-1.279225 0.15991,-0.479709 0.1599,-0.639613 0.1599,-0.479709 0.15991,-0.639612 0.1599,-0.47971 0.1599,-0.639612 0.15991,-0.479709 0.1599,-0.639613 0.1599,-0.479709 0.1599,-0.639612 0.15991,-0.47971 0.1599,-0.639612 0.1599,-0.479709 0.15991,-0.639613 0.1599,-0.479709 0.1599,-0.639612 0.15991,-0.479709 0.1599,-0.639613 0.1599,-0.479709 0.15991,-0.639612 0.1599,-0.47971 0.1599,-0.639612 0.1599,-0.479709 0.15991,-0.639613 0.1599,-0.479709 0.1599,-0.639612 0.15991,-0.47971 0.1599,-0.639612 0.1599,-0.479709 0.15991,-0.639612 0.1599,-0.47971 0.1599,-0.639612 0.15991,-0.479709 0.1599,-0.639613 0.1599,-0.479709 0.1599,-0.639612 0.15991,-0.47971 0.1599,-0.639612 0.1599,-0.479709 0.15991,-0.639613 0.1599,-0.479709 0.1599,-0.639612 0.15991,-0.47971 0.1599,-0.639612 0.1599,-0.479709 0.15991,-0.639612 0.1599,-0.47971 0.1599,-0.639612 0.15991,-0.479709 0.1599,-0.639613 0.1599,-0.479709 0.1599,-0.639612 0.15991,-0.47971 0.1599,-0.639612 0.1599,-0.479709 0.15991,-0.639613 0.1599,-0.479709 0.1599,-0.639612 0.15991,-0.479709 0.1599,-0.639613 0.1599,-0.479709 0.15991,-0.639612 0.1599,-0.47971 0.1599,-0.639612 0.1599,-0.479709 0.15991,-0.639613 0.1599,-0.479709 0.1599,-0.639612 0.15991,-0.47971 0.1599,-0.639612 0.1599,-0.479709 0.15991,-0.639613 0.1599,-0.479709 0.1599,-0.639612 0.15991,-0.479709 0.1599,-0.639613 0.1599,-0.479709 0.1599,-0.639612 0.15991,-0.47971 0.1599,-0.639612 0.1599,-0.479709 0.15991,-0.639613 0.1599,-0.479709 0.1599,-0.639612 0.15991,-0.47971 0.1599,-0.639612 0.1599,-0.479709 0.15991,-0.639613 0.1599,-0.479709 0.1599,-0.639612 0.1599,-0.479709 0.15991,-0.639613 0.1599,-0.479709 0.1599,-0.639612 0.15991,-0.47971 0.1599,-0.639612 0.1599,-0.479709 0.15991,-0.639613 0.1599,-0.479709 0.1599,-0.639612 0.15991,-0.47971 0.1599,-0.639612 0.1599,-0.479709 0.1599,-0.639613 0.15991,-0.479709 0.1599,-0.639612 0.1599,-0.479709 0.15991,-0.159904 -0.31981,-0.159903 -0.63961,-0.159903 -0.47971,-0.159903 -0.63961,-0.159903 -0.47971,-0.159903 -0.63961,-0.159903 -0.47971,-0.159903 -0.63962,-0.159903 -0.47971,-0.159903 -0.63961,-0.159903 -0.47971,-0.159904 -0.63961,-0.159903 -0.47971,-0.159903 -0.63961,-0.159903 -0.47971,-0.159903 -0.63961,-0.159903 -0.47971,-0.159903 -0.63961,-0.159903 -0.47971,-0.159903 -0.63962,-0.159903 -0.47971,-0.159903 -0.63961,-0.159903 -0.47971,-0.159904 -0.63961,-0.159903 -0.47971,-0.159903 -0.63961,-0.159903 -0.47971,-0.159903 -0.63961,-0.159903 -0.47971,-0.159903 -0.63961,-0.159903 -0.47971,-0.159903 -0.63962,-0.159903 -0.4797,-0.159903 -0.63962,-0.159904 -0.47971,-0.159903 -0.63961,-0.159903 -0.47971,-0.159903 -0.63961,-0.159903 -0.47971,-0.159903 -1.27922,-0.319806 -0.47971,-0.159903 -0.63962,-0.159903 -0.47971,-0.159903 -0.63961,-0.159904 -0.47971,-0.159903 -0.63961,-0.159903 -0.47971,-0.159903 -0.63961,-0.159903 -0.47971,-0.159903 -0.63961,-0.159903 -0.47971,-0.159903 -0.63961,-0.159903 -0.47971,-0.159903 -0.63962,-0.159903 -0.47971,-0.159904 -0.63961,-0.159903 -0.47971,-0.159903 -0.63961,-0.159903 -0.47971,-0.159903 -0.63961,-0.159903 -0.47971,-0.159903 -0.63961,-0.159903 -0.47971,-0.159903 -0.63961,-0.159903 -0.47971,-0.159903 -0.63962,-0.159904 -0.4797,-0.159903 -0.63962,-0.159903 -0.47971,-0.159903 -0.63961,-0.159903 -0.47971,-0.159903 -0.63961,-0.159903 -0.47971,-0.159903 -0.63961,-0.159903 -0.47971,-0.159903 -0.63961,-0.159903 -0.47971,-0.1599035 -0.63962,-0.1599031 -0.4797,-0.1599031 -0.63962,-0.159903 L 172.05572,9.2743792 171.41611,9.1144761 170.9364,8.954573 170.29679,8.7946699 169.81708,8.6347668 169.17747,8.4748637 168.69776,8.3149606 168.05815,8.1550575 167.57844,7.9951545 166.93882,7.8352514 166.45912,7.6753483 165.8195,7.5154452 165.33979,7.3555421 164.70018,7.195639 164.22047,7.0357359 163.58086,6.8758328 163.10115,6.7159297 162.46154,6.5560267 161.98183,6.3961236 161.34222,6.2362205 160.86251,6.0763174 160.2229,5.9164143 159.74319,5.7565112 159.10357,5.5966081 158.62386,5.436705 157.98425,5.2768019 157.50454,5.1168988 156.86493,4.9569958 156.38522,4.7970927 155.74561,4.6371896 155.2659,4.4772865 154.62629,4.3173834 154.14658,4.1574803 153.50697,3.9975772 153.02726,3.8376741 152.38764,3.677771 151.90793,3.517868 151.26832,3.3579649 150.78861,3.1980618 150.149,3.0381587 149.66929,2.8782556 149.02968,2.7183525 148.54997,2.5584494 147.91036,2.3985463 147.43065,2.2386432 146.79104,2.0787402 146.31133,1.9188371 145.67171,1.758934 145.192,1.5990309 144.55239,1.4391278 Z"
         id="path1" />
    </clipPath>
    <clipPath
       clipPathUnits="userSpaceOnUse"
       id="clipEmfPath2">
      <path
         d="m 144.07227,1.7597656 -0.16016,0.3183594 -0.16016,0.4804688 -0.1582,0.6386718 -0.16016,0.4804688 -0.16015,0.640625 -0.16016,0.4785156 -0.16016,0.640625 -0.16015,0.4785156 -0.16016,0.640625 -0.1582,0.4785156 -0.16016,0.640625 -0.16015,0.4785157 -0.16016,0.640625 -0.16016,0.4785156 -0.16015,0.640625 -0.16016,0.4804685 -0.16015,0.638672 -0.15821,0.480469 -0.16015,0.638672 -0.16016,0.480469 -0.16016,0.638671 -0.16015,0.480469 -0.16016,0.638672 -0.16016,0.480469 -0.16015,0.638672 -0.1582,0.480468 -0.16016,0.640625 -0.16016,0.478516 -0.16015,0.640625 -0.16016,0.478516 -0.16016,0.640625 -0.16015,0.478515 -0.16016,0.640625 -0.1582,0.478516 -0.16016,0.640625 -0.16015,0.480469 -0.16016,0.638671 -0.16016,0.480469 -0.16015,0.638672 -0.16016,0.480469 -0.1582,0.638672 -0.16016,0.480468 -0.16015,0.638672 -0.16016,0.480469 -0.16016,0.638672 -0.16015,0.480469 -0.16016,0.638672 -0.16016,0.480468 -0.1582,0.640625 -0.16016,0.478516 -0.16015,0.640625 -0.16016,0.478516 -0.16015,0.640625 -0.16016,0.478515 -0.16016,0.640625 -0.16015,0.478516 -0.15821,0.640625 -0.16015,0.480469 -0.16016,0.638671 -0.16015,0.480469 -0.16016,0.638672 -0.16016,0.480469 -0.16015,0.638672 -0.15821,0.480468 -0.16015,0.638672 -0.16016,0.480469 -0.16016,0.638672 -0.16015,0.480469 -0.16016,0.638672 -0.16015,0.480468 -0.31836,1.279297 -0.16016,0.480469 -0.16016,0.638672 -0.16015,0.480469 -0.16016,0.638671 -0.16015,0.480469 -0.16016,0.638672 -0.16016,0.480469 -0.1582,0.638672 -0.16016,0.480468 -0.16015,0.640625 -0.16016,0.478516 -0.16016,0.640625 -0.16015,0.478516 -0.16016,0.640625 -0.16015,0.478515 -0.15821,0.640625 -0.16015,0.478516 -0.16016,0.640625 -0.16016,0.478516 -0.16015,0.640625 -0.16016,0.480468 -0.16015,0.638672 -0.15821,0.480469 -0.16015,0.638672 -0.16016,0.480469 -0.16016,0.638671 -0.16015,0.480469 -0.16016,0.638672 -0.16015,0.480469 -0.16016,0.638672 -0.1582,0.480468 -0.16016,0.640625 -0.16016,0.478516 -0.16015,0.640625 -0.16016,0.478516 -0.16016,0.640625 -0.16015,0.478515 -0.16016,0.640625 -0.1582,0.478516 -0.16016,0.640625 -0.16015,0.480469 -0.16016,0.638672 -0.16016,0.480468 -0.16015,0.638672 L 125.36328,67 l -0.1582,0.638672 -0.16016,0.480469 -0.16015,0.638671 -0.16016,0.480469 -0.16016,0.638672 -0.16015,0.480469 -0.16016,0.638672 -0.16016,0.480468 -0.1582,0.640625 -0.16015,0.478516 -0.16016,0.640625 -0.16016,0.478516 -0.16015,0.640625 -0.16016,0.478515 -0.16016,0.640625 -0.16015,0.478516 -0.15821,0.640625 -0.16015,0.480469 -0.16016,0.638672 -0.16015,0.480468 -0.16016,0.638672 -0.16016,0.480469 -0.16015,0.638672 -0.16016,0.480469 -0.1582,0.638671 -0.16016,0.480469 -0.16015,0.638672 -0.16016,0.480469 -0.16016,0.638672 -0.16015,0.480468 -0.16016,0.640625 -0.1582,0.478516 -0.16016,0.640625 -0.16016,0.478516 -0.16015,0.640625 -0.16016,0.478515 -0.16015,0.640625 -0.16016,0.478516 -0.16016,0.640625 -0.1582,0.480469 -0.16016,0.638672 -0.16015,0.480468 -0.16016,0.638672 -0.16015,0.480469 -0.16016,0.638672 -0.16016,0.480469 -0.16015,0.638671 -0.15821,0.480469 -0.16015,0.638672 -0.16016,0.480469 -0.16016,0.638672 -0.16015,0.480468 -0.16016,0.640625 -0.16015,0.478516 -0.15821,0.640625 -0.16015,0.478516 -0.16016,0.640625 -0.16016,0.478515 -0.16015,0.640626 -0.16016,0.47852 -0.16015,0.64062 -0.16016,0.48047 -0.1582,0.63867 -0.16016,0.48047 -0.16016,0.63867 -0.16015,0.48047 -0.16016,0.63867 -0.16016,0.48047 -0.32031,1.2793 -0.1582,0.47851 -0.16016,0.64063 -0.16015,0.48047 -0.16016,0.63867 -0.16016,0.48047 -0.16015,0.63867 -0.16016,0.48047 -0.16015,0.63867 -0.15821,0.48047 -0.16015,0.63867 -0.16016,0.48047 -0.16016,0.63867 -0.16015,0.48047 -0.16016,0.63867 -0.16016,0.48047 -0.1582,0.64063 -0.16015,0.47851 -0.16016,0.64063 -0.16016,0.47851 -0.16015,0.64063 -0.16016,0.47851 -0.16016,0.64063 -0.16015,0.47851 -0.15821,0.64063 -0.16015,0.48047 -0.16016,0.63867 -0.16015,0.48047 -0.16016,0.63867 -0.16016,0.48047 -0.16015,0.63867 -0.16016,0.48047 -0.1582,0.63867 -0.16016,0.48047 -0.16015,0.63867 -0.16016,0.48047 0.32031,0.16016 0.63867,0.16015 0.48047,0.16016 0.63867,0.1582 0.48047,0.16016 0.63867,0.16015 0.48047,0.16016 0.63868,0.16016 0.48046,0.16015 0.64063,0.16016 0.47851,0.16016 0.64063,0.1582 0.47852,0.16016 0.64062,0.16015 0.47852,0.16016 0.64062,0.16015 0.47852,0.16016 0.64062,0.16016 0.48047,0.16015 0.63867,0.15821 0.48047,0.16015 0.63867,0.16016 0.48047,0.16015 0.63867,0.16016 0.48047,0.16016 0.63867,0.16015 0.48047,0.15821 0.63867,0.16015 0.48047,0.16016 0.64063,0.16015 0.47851,0.16016 1.2793,0.32031 0.48047,0.16016 0.63867,0.1582 0.48047,0.16016 0.63867,0.16016 0.48047,0.16015 0.63867,0.16016 0.48047,0.16015 0.63867,0.16016 0.48047,0.16016 0.64063,0.1582 0.47851,0.16016 0.64063,0.16015 0.47851,0.16016 0.64063,0.16015 0.47851,0.16016 0.64063,0.16016 0.47851,0.16015 0.64063,0.15821 0.48047,0.16015 0.63867,0.16016 0.48047,0.16016 0.63867,0.16015 0.48047,0.16016 0.63867,0.16015 0.48047,0.15821 0.63867,0.16015 0.48047,0.16016 0.63867,0.16016 0.48047,0.16015 0.63867,0.16016 0.48047,0.16015 0.64063,0.16016 0.47851,0.1582 0.64063,0.16016 0.47851,0.16016 0.64063,0.16015 0.47851,0.16016 0.64063,0.16016 0.47851,0.16015 0.64063,0.16016 0.48047,0.1582 0.63867,0.16016 0.48047,0.16015 0.63867,0.16016 0.48047,0.16016 0.63867,0.16015 0.48047,0.16016 0.63867,0.1582 0.48047,0.16016 0.63867,0.16015 0.48047,0.16016 0.63867,0.16016 0.48047,0.16015 0.64063,0.16016 0.47851,0.16016 0.64063,0.1582 0.47851,0.16015 0.64063,0.16016 0.47851,0.16016 0.64063,0.16015 0.47851,0.16016 0.64063,0.16016 0.48047,0.16015 0.63867,0.15821 0.48047,0.16015 0.63867,0.16016 0.48047,0.16015 0.63867,0.16016 0.48047,0.16016 0.63867,0.16015 0.48047,0.16016 0.63867,0.1582 0.48047,0.16016 0.64063,0.16015 0.47851,0.16016 0.64063,0.16016 0.47851,0.16015 0.64063,0.16016 0.47851,0.1582 0.64063,0.16016 0.47851,0.16016 0.64063,0.16015 0.47851,0.16016 0.64063,0.16015 0.48047,0.16016 0.63867,0.16016 0.48047,0.1582 0.63867,0.16016 0.48047,0.16015 0.63867,0.16016 0.48047,0.16015 0.63867,0.16016 0.48047,0.16016 0.63867,0.16015 0.48047,0.15821 0.64063,0.16015 0.47851,0.16016 0.64063,0.16016 0.31836,0.10742 v -0.26758 l 0.16015,-0.63867 0.16016,-0.48047 0.16015,-0.63867 0.16016,-0.48047 0.16016,-0.64063 0.16015,-0.47851 0.15821,-0.64063 0.16015,-0.47851 0.16016,-0.64063 0.16016,-0.47851 0.16015,-0.64063 0.16016,-0.47851 0.16015,-0.64063 0.16016,-0.48047 0.1582,-0.63867 0.16016,-0.48047 0.16016,-0.63867 0.16015,-0.48047 0.16016,-0.63867 0.16015,-0.48047 0.16016,-0.63867 0.16016,-0.48047 0.1582,-0.63867 0.16016,-0.48047 0.16015,-0.63867 0.16016,-0.48047 0.16016,-0.64063 0.16015,-0.47851 0.16016,-0.64063 0.1582,-0.47851 0.16016,-0.64063 0.16015,-0.47851 0.16016,-0.64063 0.16016,-0.47851 0.16015,-0.64063 0.16016,-0.48047 0.16015,-0.63867 0.15821,-0.48047 0.16015,-0.63867 0.16016,-0.48047 0.16016,-0.63867 0.16015,-0.48047 0.16016,-0.63867 0.16016,-0.48047 0.16015,-0.63867 0.1582,-0.48047 0.16016,-0.63867 0.16016,-0.48047 0.16015,-0.64063 0.16016,-0.47851 0.16016,-0.64063 0.16015,-0.47851 0.15821,-0.64063 0.16015,-0.47851 0.16016,-0.64063 0.16015,-0.47851 0.16016,-0.64063 0.16016,-0.48047 0.16015,-0.63867 0.16016,-0.48047 0.1582,-0.63867 0.16016,-0.48047 0.16015,-0.63867 0.16016,-0.48047 0.16016,-0.63867 0.16015,-0.48047 0.16016,-0.63867 0.16016,-0.48047 0.1582,-0.63867 0.16016,-0.48047 0.16015,-0.64063 0.16016,-0.47851 0.16015,-0.64063 0.16016,-0.47851 0.16016,-0.64063 0.16015,-0.47851 0.15821,-0.64063 0.16015,-0.47851 0.16016,-0.64063 0.16015,-0.48047 0.16016,-0.63867 0.16016,-0.48047 0.16015,-0.63867 0.15821,-0.480469 0.32031,-1.279297 0.16016,-0.478516 0.16015,-0.640625 0.16016,-0.478516 0.16015,-0.640625 0.16016,-0.480468 0.1582,-0.638672 0.16016,-0.480469 0.16016,-0.638672 0.16015,-0.480469 0.16016,-0.638671 0.16015,-0.480469 0.16016,-0.638672 0.16016,-0.480469 0.1582,-0.638672 0.16016,-0.480468 0.16015,-0.638672 0.16016,-0.480469 0.16016,-0.640625 0.16015,-0.478516 0.16016,-0.640625 0.1582,-0.478515 0.16016,-0.640625 0.16015,-0.478516 0.16016,-0.640625 0.16016,-0.478516 0.16015,-0.640625 0.16016,-0.480468 0.16015,-0.638672 0.15821,-0.480469 0.16015,-0.638672 0.16016,-0.480469 0.16016,-0.638671 0.16015,-0.480469 0.16016,-0.638672 0.16016,-0.480469 0.16015,-0.638672 0.1582,-0.480468 0.16016,-0.638672 0.16016,-0.480469 0.16015,-0.640625 0.16016,-0.478516 0.16016,-0.640625 0.16015,-0.478515 0.16016,-0.640625 0.1582,-0.478516 0.16016,-0.640625 0.16015,-0.478516 0.16016,-0.640625 0.16016,-0.480468 0.16015,-0.638672 0.16016,-0.480469 0.1582,-0.638672 0.16016,-0.480469 0.16015,-0.638671 0.16016,-0.480469 L 204.83594,67 l 0.16015,-0.480469 0.16016,-0.638672 0.16016,-0.480468 0.1582,-0.638672 0.16016,-0.480469 0.16015,-0.640625 0.16016,-0.478516 0.16015,-0.640625 0.16016,-0.478515 0.16016,-0.640625 0.16015,-0.478516 0.15821,-0.640625 0.16015,-0.478516 0.16016,-0.640625 0.16015,-0.480468 0.16016,-0.638672 0.16016,-0.480469 0.16015,-0.638672 0.15821,-0.480469 0.16015,-0.638671 0.16016,-0.480469 0.16016,-0.638672 0.16015,-0.480469 0.16016,-0.638672 0.16015,-0.480468 0.16016,-0.640625 0.1582,-0.478516 0.16016,-0.640625 0.16016,-0.478516 0.16015,-0.640625 0.16016,-0.478515 0.16015,-0.640625 0.16016,-0.478516 0.16016,-0.640625 0.1582,-0.478516 0.16016,-0.640625 0.16015,-0.480468 0.16016,-0.638672 0.16016,-0.480469 0.16015,-0.638672 0.16016,-0.480469 0.16015,-0.638671 0.15821,-0.480469 0.16015,-0.638672 0.16016,-0.480469 0.16016,-0.638672 0.16015,-0.480468 0.16016,-0.640625 0.16015,-0.478516 0.15821,-0.640625 0.16015,-0.478516 0.16016,-0.640625 0.16016,-0.478515 0.16015,-0.640625 0.16016,-0.478516 0.16016,-0.640625 0.16015,-0.480469 0.1582,-0.638672 0.16016,-0.480468 0.16016,-0.638672 0.16015,-0.480469 0.16016,-0.638672 0.16016,-0.480469 0.16015,-0.638671 0.16016,-0.480469 0.1582,-0.638672 0.16016,-0.480469 0.16015,-0.638672 0.16016,-0.480468 0.16016,-0.640625 0.16015,-0.478516 0.16016,-0.640625 0.1582,-0.478516 0.16016,-0.640625 0.16015,-0.478515 0.16016,-0.640625 0.16016,-0.478516 0.16015,-0.640625 0.16016,-0.480469 0.0801,-0.08008 0.0391,-0.11914 -0.11914,-0.119141 -0.48047,-0.160156 -0.63867,-0.160157 -0.48047,-0.160156 -0.63867,-0.160156 -0.48047,-0.160156 -0.64063,-0.158203 -0.47851,-0.160157 -0.64063,-0.160156 -0.47851,-0.160156 -0.64063,-0.160156 -0.47851,-0.160157 -0.64063,-0.160156 -0.47851,-0.160156 -0.64063,-0.158203 -0.48047,-0.160157 -0.63867,-0.160156 -0.48047,-0.160156 -0.63867,-0.160156 -0.48047,-0.160157 -0.63867,-0.160156 -0.48047,-0.160156 -0.63867,-0.158203 -0.48047,-0.160156 -0.63867,-0.160157 -0.48047,-0.160156 -0.63867,-0.160156 -0.48047,-0.160156 -0.64063,-0.160157 -0.47851,-0.160156 -0.64063,-0.158203 -0.47851,-0.160156 -0.64063,-0.160157 -0.47851,-0.160156 -0.64063,-0.160156 -0.47851,-0.160156 -0.64063,-0.160157 -0.48047,-0.158203 -0.63867,-0.160156 -0.48047,-0.160156 -0.63867,-0.160156 -0.48047,-0.160157 -0.63867,-0.160156 -0.48047,-0.160156 -0.63867,-0.160156 -0.48047,-0.158203 -0.63867,-0.160157 -0.48047,-0.160156 -0.64062,-0.160156 -0.47852,-0.160156 -0.64063,-0.160157 -0.47851,-0.160156 -0.64063,-0.160156 -0.47851,-0.158203 -0.64063,-0.160157 -0.47851,-0.160156 -0.64063,-0.160156 -0.47851,-0.160156 -0.64063,-0.160157 -0.48047,-0.160156 -1.27929,-0.318359 -0.47852,-0.160156 -0.64062,-0.160157 -0.47852,-0.160156 -0.64062,-0.160156 -0.47852,-0.160156 -0.64063,-0.160157 -0.47851,-0.158203 -0.64063,-0.160156 -0.48046,-0.160156 -0.63868,-0.160157 -0.48047,-0.160156 -0.63867,-0.160156 -0.48047,-0.160156 -0.63867,-0.160157 -0.48047,-0.158203 -0.63867,-0.160156 -0.48047,-0.160156 L 173.17578,9.9140625 172.69531,9.7539063 172.05664,9.59375 171.57617,9.4335938 170.93555,9.2734375 170.45703,9.1152344 169.81641,8.9550781 169.33789,8.7949219 168.69727,8.6347656 168.21875,8.4746094 167.57812,8.3144531 167.09961,8.1542969 166.45898,7.9960937 165.97852,7.8359375 165.33984,7.6757812 164.85937,7.515625 164.2207,7.3554687 163.74023,7.1953125 163.10156,7.0351562 162.62109,6.875 161.98242,6.7167969 161.50195,6.5566406 160.86328,6.3964844 160.38281,6.2363281 159.74414,6.0761719 159.26367,5.9160156 158.62305,5.7558594 158.14453,5.5957031 157.50391,5.4375 157.02539,5.2773437 156.38477,5.1171875 155.90625,4.9570312 155.26562,4.796875 154.78711,4.6367187 154.14648,4.4765625 153.66602,4.3183594 153.02734,4.1582031 152.54687,3.9980469 151.9082,3.8378906 151.42773,3.6777344 150.78906,3.5175781 150.30859,3.3574219 149.66992,3.1972656 149.18945,3.0390625 148.55078,2.8789063 148.07031,2.71875 147.42969,2.5585938 146.95117,2.3984375 146.31055,2.2382813 145.83203,2.078125 145.19141,1.9179687 144.71289,1.7597656 Z"
         id="path2" />
    </clipPath>
    <pattern
       id="EMFhbasepattern"
       patternUnits="userSpaceOnUse"
       width="6"
       height="6"
       x="0"
       y="0" />
  </defs>
  <g
     inkscape:label="Layer 1"
     inkscape:groupmode="layer"
     id="layer1" />
  <g
     inkscape:groupmode="layer"
     id="layer2"
     inkscape:label="Layer 2">
    <text
       xml:space="preserve"
       style="font-style:italic;font-variant:normal;font-weight:700;font-size:31.7335px;line-height:125%;font-family:Impact;text-align:start;letter-spacing:0px;word-spacing:0px;text-anchor:start;fill:#000000;fill-opacity:1;stroke:none;stroke-width:0.264583"
       x="5.23313"
       y="25.086279"
       id="text4"
       transform="skewX(-14.600465)"><tspan
         sodipodi:role="line"
         x="5.23313"
         y="25.086279"
         id="tspan4"
         style="stroke-width:0.264583"><tspan
           dx="0"
           dy="0"
           style="font-style:italic;font-variant:normal;font-weight:700;font-size:31.7336px;font-family:Impact;fill:#000000;stroke-width:0.264583"
           id="tspan2">Bo  ted</tspan><tspan
           dx="0"
           dy="0"
           style="font-style:italic;font-variant:normal;font-weight:700;font-size:31.7336px;font-family:Impact;fill:#000000;stroke-width:0.264583"
           id="tspan3"> </tspan></tspan></text>
    <path
       style="fill:#00ffff;fill-opacity:1;fill-rule:nonzero;stroke:none"
       clip-path="url(#clipEmfPath2)"
       d="m 137.15687,124.34464 22.08662,-45.532405 -13.01212,-3.717747 23.54956,-50.775069 18.70484,0.125766 -20.20776,40.115687 13.01212,3.717747 z"
       id="path6"
       transform="matrix(0.28764083,0,0.00977197,0.25452008,-6.219893,-6.1743546)"
       sodipodi:nodetypes="cccccccc" />
  </g>
</svg>
