<?xml version="1.0" encoding="UTF-8"?>
<svg id="svg5" xmlns="http://www.w3.org/2000/svg" viewBox="0 0 848 848">
  <defs>
    <style>
      .cls-1, .cls-2, .cls-3, .cls-4, .cls-5 {
        fill-rule: evenodd;
      }

      .cls-1, .cls-2, .cls-3, .cls-6, .cls-7 {
        fill: #fff;
      }

      .cls-1, .cls-8, .cls-4, .cls-6 {
        stroke-width: 0px;
      }

      .cls-2 {
        stroke-width: 12px;
      }

      .cls-2, .cls-9, .cls-5 {
        stroke: #e5b753;
      }

      .cls-2, .cls-5 {
        stroke-miterlimit: 1.59;
      }

      .cls-9, .cls-3, .cls-10, .cls-7 {
        stroke-miterlimit: 6;
        stroke-width: 20px;
      }

      .cls-9, .cls-10 {
        fill: none;
      }

      .cls-3, .cls-10 {
        stroke: #77b388;
      }

      .cls-8, .cls-5 {
        fill: #e5b753;
      }

      .cls-4 {
        fill: #333b82;
      }

      .cls-5 {
        stroke-width: .53px;
      }

      .cls-7 {
        stroke: #333b82;
      }
    </style>
  </defs>
  <g id="g4130">
    <path id="path11684" class="cls-10" d="M10,424C10,195.4,195.4,10,424,10s414,185.4,414,414-185.4,414-414,414S10,652.6,10,424Z"/>
    <path id="path11686" class="cls-7" d="M28,424C28,205.3,205.3,28,424,28s396,177.3,396,396-177.3,396-396,396S28,642.7,28,424Z"/>
    <path id="path11688" class="cls-3" d="M171.2,424c0-139.2,112.8-252,252-252s252,112.8,252,252-112.8,252-252,252-252-112.8-252-252Z"/>
    <path id="path11736" class="cls-9" d="M99.2,424c0-178.9,145.1-324,324-324s324,145.1,324,324-145.1,324-324,324S99.2,602.9,99.2,424Z"/>
  </g>
  <g id="g5117">
    <g id="g5129">
      <g id="g5121">
        <rect id="rect11752" class="cls-6" x="723.08" y="351.03" width="47.3" height="124.3" transform="translate(-60.39 135.91) rotate(-10)"/>
        <rect id="rect11754" class="cls-6" x="720.66" y="453.79" width="36.8" height="47.3" transform="translate(140.56 1122.39) rotate(-80)"/>
      </g>
      <g id="g4032">
        <path id="path11756" class="cls-1" d="M83.67,347.8l46.57,8.2-16.93,96.1-46.57-8.2,16.93-96.1Z"/>
        <path id="path11758" class="cls-1" d="M62.77,437.18l46.57-8.2,10.95,62.12-46.57,8.2-10.95-62.12Z"/>
      </g>
    </g>
    <g id="g4055">
      <path id="rect11738" class="cls-6" d="M273.61,74.12h309.01v76.49h-309.01v-76.49Z"/>
      <path id="path11742" class="cls-1" d="M661.68,279.17l-107.16-153.03,51.67-36.17,107.16,153.04-51.67,36.17Z"/>
      <path id="path11746" class="cls-1" d="M294.89,127.8l-109.83,156.87-49.24-34.48,109.83-156.87,49.24,34.48Z"/>
    </g>
    <g id="g4037">
      <path id="rect11740" class="cls-6" d="M255.62,693.61h320.99v77.26H255.62v-77.26Z"/>
      <path id="rect11748" class="cls-6" d="M574.02,641.7l-83.66,58.58,49.64,70.91,83.66-58.58-49.64-70.91Z"/>
      <path id="rect11750" class="cls-6" d="M349.66,712.13l-87.07-61.46-49.93,70.7,87.07,61.46,49.93-70.7Z"/>
    </g>
  </g>
  <g id="g454">
    <g id="g428">
      <path id="path11772" class="cls-4" d="M272.69,664.8l9.34,5.32-23.87,41.86c-1.59,2.78-2.12,5.34-1.59,7.67.56,2.33,2.12,4.23,4.74,5.72,2.62,1.51,5.08,1.9,7.38,1.19,2.28-.71,4.23-2.46,5.82-5.27l23.87-41.86,9.31,5.32-23.71,41.59c-3.31,5.82-7.41,9.45-12.28,10.85-4.87,1.43-10.11.56-15.66-2.62-5.53-3.15-8.92-7.2-10.16-12.12-1.24-4.92-.21-10.29,3.1-16.09l23.71-41.57Z"/>
      <path id="path11776" class="cls-4" d="M313.17,687.13l10.11,3.73-20.16,54.27,24.45,9.05-3.57,9.63-24.45-9.05-5.32-1.98-4.74-1.75,23.68-63.9Z"/>
      <path id="path11780" class="cls-4" d="M344.44,699.14l40.43,8.7-2.17,10.03-14.95-3.2-12.17,56.59-10.5-2.25,12.17-56.59-14.98-3.23,2.17-10.05Z"/>
      <path id="path11784" class="cls-4" d="M386.91,707.48l10.77,1.16-7.3,67.76-10.77-1.16,7.3-67.76Z"/>
      <path id="path11788" class="cls-4" d="M404.98,710.47l11.3-.37,15.95,42.2,13.23-43.18,11.14-.37,2.3,68.1-9.9.34-1.53-45.98-11.01,36.33-7.41.24-13.26-34.21,1.51,44.69-10.03.34-2.3-68.13Z"/>
      <path id="path11792" class="cls-4" d="M485.41,720.87l-1.14,28.05,14.31-3.25-13.18-24.79ZM477.45,704.17l7.94-1.8,35.4,61.86-11.01,2.51-6.24-11.75-19.68,4.47-.53,13.31-11.06,2.51,5.19-71.12Z"/>
      <path id="path11796" class="cls-4" d="M500.94,699.04l38.42-15.24,3.78,9.55-14.21,5.64,21.35,53.82-9.97,3.97-21.35-53.82-14.26,5.66-3.76-9.58Z"/>
      <path id="path11800" class="cls-4" d="M539.76,683.51l4.13-2.38,5.19-3.02,22.91-13.28,5.19,8.92-22.94,13.28,9.45,16.32,19.68-11.4,5.19,8.92-19.68,11.4,9.21,15.9,22.97-13.31,5.16,8.92-22.97,13.31-5.16,2.99-4.13,2.41-34.18-58.98Z"/>
    </g>
    <g id="g418">
      <g id="g402">
        <path id="path11804" class="cls-4" d="M145.13,205.99c2.3-3.39,4.95-5.79,7.91-7.22,2.96-1.43,6.22-1.91,9.79-1.4s7.43,1.98,11.56,4.42l-6.19,9.05c-2.12-1.22-4.07-1.98-5.87-2.25-1.8-.29-3.41-.13-4.82.45-1.43.58-2.62,1.59-3.6,2.99-1.61,2.35-2.09,4.74-1.43,7.17.66,2.43,2.35,4.6,5.13,6.48l22.09,15.13c2.75,1.88,5.4,2.7,7.88,2.41,2.49-.26,4.55-1.59,6.16-3.94,1.46-2.14,1.88-4.37,1.24-6.69s-2.41-4.68-5.29-7.04l6.19-9.05c3.76,2.96,6.54,6.01,8.28,9.18s2.51,6.38,2.22,9.66c-.26,3.28-1.56,6.61-3.89,9.97-2.35,3.47-5.11,5.95-8.2,7.46-3.12,1.53-6.43,2.04-10,1.56-3.55-.48-7.17-1.98-10.82-4.47l-22.09-15.13c-3.68-2.51-6.4-5.34-8.12-8.49-1.75-3.15-2.46-6.43-2.14-9.9.29-3.41,1.64-6.88,4-10.35h0Z"/>
        <path id="path11808" class="cls-4" d="M190.22,168.05c-2.12,2.17-3.15,4.52-3.07,7.06.08,2.54,1.24,4.95,3.52,7.17l19.69,19.37c2.28,2.22,4.68,3.39,7.25,3.41,2.57.05,4.92-1.01,7.04-3.17,2.14-2.17,3.15-4.52,3.07-7.09s-1.27-4.97-3.55-7.17l-19.69-19.37c-2.25-2.25-4.66-3.41-7.22-3.47-2.57-.03-4.92,1.03-7.04,3.25ZM182.62,160.58c2.99-3.04,6.19-5.08,9.55-6.11,3.36-1.03,6.77-1.06,10.19-.08s6.64,2.96,9.74,5.98l19.84,19.53c3.04,2.99,5.08,6.22,6.14,9.6,1.03,3.41,1.06,6.8.11,10.19s-2.94,6.61-5.95,9.66c-2.99,3.04-6.16,5.05-9.55,6.09-3.39,1.03-6.8,1.06-10.21.08s-6.67-2.96-9.71-5.98l-19.84-19.53c-3.07-3.02-5.13-6.24-6.14-9.63-1.03-3.39-1.03-6.8-.08-10.19.98-3.36,2.96-6.59,5.93-9.6h0Z"/>
        <path id="path11812" class="cls-4" d="M227.92,135.34l11.01,15.69,9.79-6.85c1.77-1.24,2.8-2.8,3.04-4.66s-.29-3.73-1.64-5.66l-2.09-2.99c-1.38-1.96-2.99-3.17-4.84-3.62s-3.68-.03-5.48,1.22l-9.79,6.88ZM213.29,133.07l3.84-2.7,4.92-3.44,9.6-6.72c3.1-2.17,6.19-3.47,9.26-3.86,3.1-.4,5.98.05,8.73,1.38,2.73,1.32,5.16,3.49,7.25,6.48l2.28,3.25c2.12,3.02,3.33,6.06,3.65,9.13s-.24,5.98-1.64,8.73l-1.16,1.96,27.78,16.85-10.05,7.04-26.04-16.54-6.85,4.82,16.38,23.34-8.76,6.14-39.18-55.85Z"/>
        <path id="path11816" class="cls-4" d="M290.65,107.4l4.58,27.68,13.36-6.09-17.94-21.59ZM279.44,92.67l7.41-3.39,47.25,53.34-10.27,4.68-8.49-10.24-18.36,8.39,2.17,13.12-10.32,4.71-9.39-70.62Z"/>
        <path id="path11820" class="cls-4" d="M320.71,76.05l10.42-2.75,14.74,55.99,25.19-6.64,2.62,9.92-25.19,6.64-5.48,1.46-4.89,1.3-17.41-65.91Z"/>
      </g>
      <g id="g395">
        <path id="path11824" class="cls-4" d="M418.53,60.1c4.95-.08,9.05,1.08,12.3,3.44,3.28,2.35,5.53,5.85,6.8,10.5l-9.63,4.63c-.87-2.73-2.14-4.82-3.81-6.19-1.67-1.4-3.6-2.09-5.82-2.04-3.1.05-5.48.74-7.12,2.06s-2.46,3.2-2.43,5.61l.03,2.25c.03,2.09.63,3.73,1.83,4.87,1.19,1.16,2.75,2.06,4.66,2.73,1.93.66,3.97,1.32,6.16,1.98,2.04.61,4.07,1.27,6.11,2.01,2.04.74,3.92,1.75,5.61,2.99,1.69,1.27,3.04,2.94,4.1,5.03,1.03,2.09,1.59,4.79,1.64,8.12l.05,2.99c.08,5.82-1.67,10.35-5.29,13.6-3.6,3.25-8.78,4.92-15.5,5.03-3.7.05-7.01-.45-9.9-1.53s-5.29-2.73-7.17-4.89-3.25-4.84-4.13-8.02l10.05-4.55c.93,2.86,2.35,5.03,4.29,6.51s4.31,2.2,7.09,2.14c3.17-.05,5.64-.77,7.38-2.17,1.72-1.4,2.59-3.36,2.54-5.9l-.05-2.99c-.03-1.96-.58-3.52-1.67-4.63s-2.51-1.98-4.26-2.65-3.65-1.27-5.72-1.85c-2.09-.56-4.23-1.22-6.4-1.96-2.17-.74-4.15-1.77-5.95-3.04s-3.25-2.99-4.39-5.13-1.72-4.95-1.77-8.39l-.03-1.93c-.08-5.82,1.64-10.35,5.19-13.57,3.55-3.31,8.63-4.97,15.21-5.05h0Z"/>
        <path id="path11828" class="cls-4" d="M466.31,73.85l-3.39,20.93,11.56,1.85c2.14.34,3.97-.11,5.48-1.38,1.53-1.24,2.49-3.12,2.88-5.58l.69-4.58c.42-2.54.11-4.63-.93-6.32s-2.62-2.7-4.79-3.04l-11.51-1.88ZM457.37,62l5.24.85,5.37.87,11.43,1.85c3.68.58,6.75,1.83,9.23,3.73,2.49,1.88,4.23,4.29,5.27,7.22,1.03,2.91,1.24,6.24.66,9.92l-.87,5.5c-.58,3.65-1.83,6.67-3.73,9.08-1.9,2.41-4.31,4.13-7.25,5.13-2.91,1.01-6.22,1.22-9.92.61l-11.43-1.85-4.21,26.09-10.61-1.72,10.82-67.28Z"/>
        <path id="path11832" class="cls-4" d="M522.4,86.45l-6.43,18.07,11.27,4c2.06.74,3.92.66,5.58-.21,1.64-.87,2.88-2.41,3.65-4.63l1.22-3.44c.79-2.28.85-4.29.13-6.06-.71-1.77-2.12-3.02-4.15-3.73l-11.27-4ZM515.76,73.19l4.42,1.56,5.66,2.01,11.03,3.92c3.57,1.27,6.4,3.04,8.52,5.32s3.41,4.92,3.94,7.91c.5,2.99.16,6.22-1.08,9.66l-1.32,3.76c-1.22,3.47-2.99,6.22-5.32,8.26-2.3,2.04-5,3.28-8.07,3.73l-2.28.19,2.35,32.41-11.56-4.1-1.61-30.82-7.88-2.8-9.52,26.86-10.08-3.57,22.81-64.27Z"/>
        <path id="path11836" class="cls-4" d="M570.37,94.94l9.63,4.92-31.01,60.7-9.66-4.92,31.04-60.7Z"/>
        <path id="path11840" class="cls-4" d="M596.27,108.38l8.52,5.9-9.21,51.99,27.36-39.4,8.39,5.82-38.84,55.96-8.55-5.93,8.52-50.91-26.62,38.34-8.39-5.82,38.81-55.96Z"/>
        <path id="path11844" class="cls-4" d="M661.92,160.08c2.86,2.88,4.74,5.93,5.64,9.08.9,3.17.85,6.43-.19,9.76-1.03,3.33-3.04,6.72-6.09,10.16l-7.96-8.07c2.17-2.59,3.33-5.03,3.44-7.3s-.74-4.29-2.51-6.06c-2.04-2.12-4.37-3.1-6.93-2.94-2.59.16-5.05,1.4-7.38,3.7l-19.76,19.5c-2.09,2.06-3.12,4.34-3.1,6.8s1.08,4.76,3.17,6.91c2.09,2.06,4.39,3.1,6.93,3.04,2.54-.03,4.95-1.24,7.3-3.57l4.5-4.37-6.61-6.69,7.3-7.22,14.23,14.42-11.67,11.54c-3.12,3.07-6.4,5.13-9.84,6.19s-6.88,1.11-10.24.16c-3.39-.95-6.54-2.94-9.5-5.93-2.96-2.99-4.95-6.19-5.98-9.58-1.03-3.39-1.06-6.75-.08-10.08s2.96-6.48,5.9-9.39l19.76-19.5c3.15-3.12,6.46-5.21,9.92-6.27s6.88-1.11,10.29-.16c3.36.98,6.51,2.94,9.45,5.87h0Z"/>
        <path id="path11848" class="cls-4" d="M700.6,207.05c2.8,4.07,4.13,8.12,3.97,12.14s-1.8,7.86-4.97,11.46l-9.21-5.45c1.8-2.25,2.8-4.44,3.04-6.61s-.26-4.15-1.51-5.98c-1.75-2.54-3.65-4.15-5.66-4.79-2.04-.64-4.05-.26-6.03,1.08l-1.85,1.27c-1.72,1.19-2.73,2.59-3.04,4.23-.29,1.64-.19,3.41.32,5.4.5,1.96,1.11,4.05,1.77,6.22.63,2.04,1.22,4.1,1.72,6.19.53,2.12.71,4.21.61,6.32s-.74,4.18-1.9,6.19c-1.16,2.04-3.1,4-5.85,5.85l-2.46,1.69c-4.79,3.28-9.55,4.34-14.26,3.12-4.71-1.19-8.97-4.58-12.75-10.11-2.12-3.07-3.52-6.11-4.21-9.1-.71-3.02-.66-5.9.08-8.68.77-2.78,2.22-5.4,4.39-7.88l9.37,5.85c-1.88,2.35-2.88,4.74-3.04,7.17s.56,4.79,2.14,7.09c1.8,2.62,3.76,4.29,5.9,4.95s4.23.29,6.32-1.16l2.46-1.69c1.64-1.11,2.59-2.43,2.91-3.97s.26-3.2-.13-5.03c-.42-1.83-.95-3.76-1.64-5.79-.69-2.06-1.32-4.21-1.9-6.43-.58-2.22-.82-4.42-.77-6.64.05-2.2.69-4.37,1.85-6.51s3.17-4.18,6.01-6.11l1.59-1.08c4.79-3.28,9.52-4.37,14.18-3.2,4.63,1.27,8.84,4.58,12.57,10h0Z"/>
      </g>
    </g>
  </g>
  <g id="g386">
    <path id="path11690" class="cls-2" d="M329.86,422.87c0-51.36,42.15-93,94.11-93s94.11,41.65,94.11,93-42.15,93-94.11,93-94.11-41.62-94.11-93Z"/>
    <path id="path11696" class="cls-5" d="M405.24,333.25l19.13-125.99,19.13,125.99h-38.26Z"/>
    <path id="path11698" class="cls-5" d="M372.83,341.24l-16.7-97.08,51.86,83.74-35.16,13.34Z"/>
    <path id="path11700" class="cls-5" d="M346.35,360.66l-67.57-107.71,96.15,83.24-28.57,24.47Z"/>
    <path id="path11702" class="cls-5" d="M333.12,411.14l-125.94-26.06,128.14-11.06-2.2,37.12Z"/>
    <path id="path11704" class="cls-5" d="M332.91,386.72l-77.42-62.63,95.01,29.87-17.59,32.76Z"/>
    <path id="path11706" class="cls-5" d="M475.36,341.24l16.7-97.08-51.88,83.74,35.19,13.34Z"/>
    <path id="path11708" class="cls-5" d="M501.82,360.66l67.57-107.71-96.15,83.24,28.57,24.47Z"/>
    <path id="path11710" class="cls-5" d="M512.48,411.14l125.94-26.06-128.14-11.06,2.2,37.12Z"/>
    <path id="path11712" class="cls-5" d="M515.28,386.72l77.42-62.63-95.01,29.87,17.59,32.76Z"/>
    <path id="path11714" class="cls-5" d="M404.5,513.25l18.76,125.99,18.76-125.99h-37.52Z"/>
    <path id="path11716" class="cls-5" d="M371.83,504.81l-16.7,97.08,51.88-83.74-35.19-13.33Z"/>
    <path id="path11718" class="cls-5" d="M345.34,485.39l-67.57,107.71,96.15-83.24-28.57-24.47Z"/>
    <path id="path11720" class="cls-5" d="M334.68,434.9l-125.94,26.06,128.14,11.06-2.2-37.12Z"/>
    <path id="path11722" class="cls-5" d="M332.4,458.8l-77.42,62.65,95.01-29.87-17.59-32.78Z"/>
    <path id="path11724" class="cls-5" d="M474.35,504.81l16.7,97.08-51.86-83.74,35.16-13.33Z"/>
    <path id="path11726" class="cls-5" d="M500.84,485.39l67.57,107.71-96.15-83.24,28.57-24.47Z"/>
    <path id="path11728" class="cls-5" d="M513.04,434.9l125.94,26.06-128.14,11.06,2.2-37.12Z"/>
    <path id="path11730" class="cls-5" d="M514.28,459.3l77.42,62.63-94.99-29.85,17.57-32.78Z"/>
    <path id="path11732" class="cls-5" d="M518.51,404.5l97.5,18.36-97.5,18.36v-36.72Z"/>
    <path id="path11734" class="cls-5" d="M331,442l-97.5-18.36,97.5-18.36v36.72Z"/>
    <path id="path11694" class="cls-5" d="M348.99,423.26c0-41.01,33.58-74.24,75.01-74.24s75.01,33.23,75.01,74.24-33.58,74.24-75.01,74.24-75.01-33.26-75.01-74.24Z"/>
  </g>
  <g id="g4082">
    <path id="path1697" class="cls-8" d="M99.4,476.5c-1.9-.4-3-1.2-3.4-2.6-.3-1.1-1.3-8.5-1.7-12.8-.4-4.5-.4-20.4,0-24.7,1.5-15.6,4.1-25.5,9.2-35,.7-1.3,1.2-2.5,1.1-2.8l-.1-.5-2.3.1c-4.6.2-8.2,1.6-11.9,4.8-3,2.6-5.5,6.5-7.2,11.2-.5,1.3-1,2.5-1.1,2.6-.2.2-.8-2-1.2-4.3-1.7-10.3,2.1-19.8,9.3-23.5,1.4-.7,3.3-1.2,6.5-1.8,1.7-.3,1.8-.8.3-1.7-2.6-1.6-6.1-2.7-9.4-2.9-2.2-.1-5.2.3-8.7,1.4-1.1.3-2,.6-2,.5,0-.5,3.1-3.6,5.1-5.2,1.8-1.4,4.9-2.9,7.2-3.6,2.1-.6,5.7-.8,7.8-.5,3.2.5,5.4,1.3,8.3,3,1,.6,1.8,1,2,.9.3-.2-.3-1.8-1.4-3.7-.4-.8-.7-1.4-.6-1.4s.9.4,1.6.9c2.1,1.3,3.9,3.1,5.1,5.3.6,1,1.2,1.9,1.4,1.9s1.2-.3,2.4-.8c3.5-1.3,6.6-1.2,10.3.3,1.6.7,2.2,1.1,1.3,1.1-1.2,0-5,.9-6.4,1.4-1.6.7-3.2,1.8-3.2,2.3,0,.2.6.3,3,.2,4.7-.2,8.3.6,11.7,2.6,3.7,2.2,7.2,6.2,8.8,10.4.7,1.8,1.2,4.2.9,4.2-.1,0-1.3-.9-2.6-2s-3-2.4-3.7-2.9c-1.6-1.1-4.6-2.4-6.3-2.8-1.4-.3-3.1-.4-3.1-.2,0,.1,1.2,1.1,2.6,2.4,1.4,1.2,3.1,2.9,3.8,3.6,1.6,1.9,3.4,5.2,4.1,7.8.5,1.8.6,2.6.6,5.4,0,4.5-1,9.4-2.4,12-.6,1.1-.9.8-.9-.8,0-1.4-.8-6.2-1.3-8-1-3.4-3.6-7.5-6.9-11-2.6-2.7-3-2.4-1.9,1.4,1.5,5.5,1.1,10.1-1.5,14.9-2.2,4.1-6.2,7.8-11.6,10.7-.8.4-1.5.8-1.6.8s.5-1.1,1.2-2.5c2.7-4.9,3.6-8.3,3.6-14.3,0-3.5-.1-4.6-.6-7.4-.9-4.7-2.7-10-3.5-10-.4,0-2.1,2.5-3.4,5-4.2,8-6.5,19.1-6.5,32.3,0,11.3,1.5,21.4,4.6,31.7,1.1,3.5,1.1,4.1,0,5.3-.6.7-1.1,1-2.1,1.2-1.6.2-2.3.3-3.3.1h0Z"/>
    <path id="path2440" class="cls-8" d="M744,476.5c1.9-.4,3-1.2,3.4-2.6.3-1.1,1.3-8.5,1.7-12.8.4-4.5.4-20.4,0-24.7-1.5-15.6-4.1-25.5-9.2-35-.7-1.3-1.2-2.5-1.1-2.8l.1-.5,2.3.1c4.6.2,8.2,1.6,11.9,4.8,3,2.6,5.5,6.5,7.2,11.2.5,1.3,1,2.5,1.1,2.6.2.2.8-2,1.2-4.3,1.7-10.3-2.1-19.8-9.3-23.5-1.4-.7-3.3-1.2-6.5-1.8-1.7-.3-1.8-.8-.3-1.7,2.6-1.6,6.1-2.7,9.4-2.9,2.2-.1,5.2.3,8.7,1.4,1.1.3,2,.6,2,.5,0-.5-3.1-3.6-5.1-5.2-1.8-1.4-4.9-2.9-7.2-3.6-2.1-.6-5.7-.8-7.8-.5-3.2.5-5.4,1.3-8.3,3-1,.6-1.8,1-2,.9-.3-.2.3-1.8,1.4-3.7.4-.8.7-1.4.6-1.4s-.9.4-1.6.9c-2.1,1.3-3.9,3.1-5.1,5.3-.6,1-1.2,1.9-1.4,1.9s-1.2-.3-2.4-.8c-3.5-1.3-6.6-1.2-10.3.3-1.6.7-2.2,1.1-1.3,1.1,1.2,0,5,.9,6.4,1.4,1.6.7,3.2,1.8,3.2,2.3,0,.2-.6.3-3,.2-4.7-.2-8.3.6-11.7,2.6-3.7,2.2-7.2,6.2-8.8,10.4-.7,1.8-1.2,4.2-.9,4.2.1,0,1.3-.9,2.6-2s3-2.4,3.7-2.9c1.6-1.1,4.6-2.4,6.3-2.8,1.4-.3,3.1-.4,3.1-.2,0,.1-1.2,1.1-2.6,2.4-1.4,1.2-3.1,2.9-3.8,3.6-1.6,1.9-3.4,5.2-4.1,7.8-.5,1.8-.6,2.6-.6,5.4,0,4.5,1,9.4,2.4,12,.6,1.1.9.8.9-.8,0-1.4.8-6.2,1.3-8,1-3.4,3.6-7.5,6.9-11,2.6-2.7,3-2.4,1.9,1.4-1.5,5.5-1.1,10.1,1.5,14.9,2.2,4.1,6.2,7.8,11.6,10.7.8.4,1.5.8,1.6.8s-.5-1.1-1.2-2.5c-2.7-4.9-3.6-8.3-3.6-14.3,0-3.5.1-4.6.6-7.4.9-4.7,2.7-10,3.5-10,.4,0,2.1,2.5,3.4,5,4.2,8,6.5,19.1,6.5,32.3,0,11.3-1.5,21.4-4.6,31.7-1.1,3.5-1.1,4.1,0,5.3.6.7,1.1,1,2.1,1.2,1.6.2,2.3.3,3.3.1h0Z"/>
  </g>
</svg>