<?xml version="1.0" encoding="UTF-8" standalone="no"?>
<!-- Created with Inkscape (http://www.inkscape.org/) -->

<svg
   width="444.85501mm"
   height="340.94901mm"
   viewBox="0 0 444.85503 340.94901"
   version="1.1"
   id="svg5"
   inkscape:version="1.3.2 (091e20e, 2023-11-25, custom)"
   sodipodi:docname="Forevergreen.svg"
   xmlns:inkscape="http://www.inkscape.org/namespaces/inkscape"
   xmlns:sodipodi="http://sodipodi.sourceforge.net/DTD/sodipodi-0.dtd"
   xmlns="http://www.w3.org/2000/svg"
   xmlns:svg="http://www.w3.org/2000/svg">
  <sodipodi:namedview
     id="namedview7"
     pagecolor="#ffffff"
     bordercolor="#000000"
     borderopacity="0.25"
     inkscape:showpageshadow="2"
     inkscape:pageopacity="0.0"
     inkscape:pagecheckerboard="false"
     inkscape:deskcolor="#d1d1d1"
     inkscape:document-units="mm"
     showgrid="false"
     inkscape:zoom="0.29622396"
     inkscape:cx="359.52527"
     inkscape:cy="351.08571"
     inkscape:window-width="1920"
     inkscape:window-height="1130"
     inkscape:window-x="-6"
     inkscape:window-y="-6"
     inkscape:window-maximized="1"
     inkscape:current-layer="layer1" />
  <defs
     id="defs2" />
  <g
     inkscape:label="Layer 1"
     inkscape:groupmode="layer"
     id="layer1">
    <g
       transform="matrix(0.264524,0,0,0.26458323,-115.87447,-13.047222)"
       id="g50">
      <path
         d="m 615,651 c 0,-247.423 297.731,-448 665,-448 367.27,0 665,200.577 665,448 0,247.424 -297.73,448 -665,448 -367.269,0 -665,-200.576 -665,-448 z"
         stroke="#6f9b47"
         stroke-width="32"
         stroke-miterlimit="8"
         fill="#e0e6e6"
         fill-rule="evenodd"
         id="path1" />
      <path
         d="M 0,241.258 C 110.002,16.8829 76.5861,73.0159 101.492,0 c 9.893,53.195 11.069,82.8872 100.454,239.495 z"
         fill="#fd8664"
         fill-rule="evenodd"
         transform="matrix(-0.706848,0.707365,0.707365,0.706848,767.016,331.481)"
         id="path2" />
      <path
         d="M 0,276.395 C 0,123.746 67.4624,0 150.682,0 233.901,0 301.363,123.746 301.363,276.395 301.363,429.044 233.901,552.79 150.682,552.79 67.4624,552.79 0,429.044 0,276.395 Z"
         fill="#fd8664"
         fill-rule="evenodd"
         transform="matrix(-0.706848,0.707365,0.707365,0.706848,921.189,415.268)"
         id="path3" />
      <path
         d="m 1225.12,789.253 c 80.96,236.407 64.88,173.096 98.92,242.327 -44.62,-30.61 -66.46,-50.761 -240.42,-98.231 z"
         fill="#fd8664"
         fill-rule="evenodd"
         id="path4" />
      <path
         d="m 696.983,406.353 c 12.493,-12.503 160.868,122.068 339.357,300.382 137.61,137.48 254.01,275.134 289.62,330.505"
         stroke="#6f9b47"
         stroke-width="8"
         stroke-miterlimit="8"
         fill="none"
         fill-rule="evenodd"
         id="path5" />
      <path
         d="m 888.094,488.639 c 34.05,34.025 43.538,76.47 23.016,97.007"
         stroke="#6f9b47"
         stroke-width="8"
         stroke-miterlimit="8"
         fill="none"
         fill-rule="evenodd"
         id="path6" />
      <path
         d="M 3.60843,0.303542 C 78.8392,0.303542 136.217,32.616 136.217,72.85"
         stroke="#6f9b47"
         stroke-width="8"
         stroke-miterlimit="8"
         fill="none"
         fill-rule="evenodd"
         transform="matrix(0.707365,0.706848,0.706848,-0.707365,763.261,540.893)"
         id="path7" />
      <path
         d="m 1009.15,531.06 c 18.16,49.391 36.97,103.091 -4.21,144.302"
         stroke="#6f9b47"
         stroke-width="8"
         stroke-miterlimit="8"
         fill="none"
         fill-rule="evenodd"
         id="path8" />
      <path
         d="M 3.89928,0.987726 C 73.009,30.3997 147.197,63.251 147.197,140.778"
         stroke="#6f9b47"
         stroke-width="8"
         stroke-miterlimit="8"
         fill="none"
         fill-rule="evenodd"
         transform="matrix(0.707365,0.706848,0.706848,-0.707365,801.308,670.898)"
         id="path9" />
      <path
         d="M 2.73853,1.26909 C 51.2754,39.0592 103.379,81.2684 103.379,180.88"
         stroke="#6f9b47"
         stroke-width="8"
         stroke-miterlimit="8"
         fill="none"
         fill-rule="evenodd"
         transform="matrix(0.707365,0.706848,0.706848,-0.707365,895.256,815.391)"
         id="path10" />
      <path
         d="m 1154.55,656.649 c -6.08,28.035 -13.35,58.873 -58.31,103.867"
         stroke="#6f9b47"
         stroke-width="8"
         stroke-miterlimit="8"
         fill="none"
         fill-rule="evenodd"
         id="path11" />
      <path
         d="m 1231.39,817.163 c 6.24,6.232 -10.69,32.679 -37.68,59.691"
         stroke="#6f9b47"
         stroke-width="8"
         stroke-miterlimit="8"
         fill="none"
         fill-rule="evenodd"
         id="path12" />
      <path
         d="M 0.852454,0.473045 C 18.625,0.473045 32.1799,50.8294 32.1799,113.531"
         stroke="#6f9b47"
         stroke-width="8"
         stroke-miterlimit="8"
         fill="none"
         fill-rule="evenodd"
         transform="matrix(0.707365,0.706848,0.706848,-0.707365,1092.83,932.281)"
         id="path13" />
      <path
         d="m 1622.33,496.989 c 236.47,-80.788 173.14,-64.747 242.39,-98.741 -30.63,44.599 -50.8,66.419 -98.4,240.345 z"
         fill="#fabe0e"
         fill-rule="evenodd"
         id="path14" />
      <path
         d="m 1443.3,605.613 c 107.98,-107.899 243.2,-147.649 302.02,-88.782 58.82,58.866 18.98,194.056 -89,301.956 -107.98,107.899 -243.2,147.649 -302.02,88.782 -58.83,-58.866 -18.98,-194.056 89,-301.956 z"
         fill="#fabe0e"
         fill-rule="evenodd"
         id="path15" />
      <path
         d="M 0,241.258 C 110.002,16.8829 76.5861,73.0159 101.492,0 c 9.893,53.195 11.069,82.8872 100.454,239.495 z"
         fill="#fabe0e"
         fill-rule="evenodd"
         transform="matrix(0.706848,0.707365,0.707365,-0.706848,1164.22,954.761)"
         id="path16" />
      <path
         d="M 16.9361,3.3845 C 34.6106,3.3845 44.298,203.46 44.3269,455.756 44.3492,650.275 29.2563,829.914 15.2635,894.241"
         stroke="#6f9b47"
         stroke-width="8"
         stroke-miterlimit="8"
         fill="none"
         fill-rule="evenodd"
         transform="matrix(-0.706848,-0.707365,-0.707365,0.706848,1877.38,410.916)"
         id="path17" />
      <path
         d="m 2.30887,0.21904 c 48.13673,0 84.85043,23.31716 84.85043,52.35066"
         stroke="#6f9b47"
         stroke-width="8"
         stroke-miterlimit="8"
         fill="none"
         fill-rule="evenodd"
         transform="matrix(-0.707365,0.706848,0.706848,0.707365,1673.39,481.828)"
         id="path18" />
      <path
         d="m 1793.97,538.204 c -53.21,53.177 -116.64,70.878 -145.08,42.418"
         stroke="#6f9b47"
         stroke-width="8"
         stroke-miterlimit="8"
         fill="none"
         fill-rule="evenodd"
         id="path19" />
      <path
         d="M 2.69452,0.742249 C 50.4514,22.8445 101.718,47.5314 101.718,105.791"
         stroke="#6f9b47"
         stroke-width="8"
         stroke-miterlimit="8"
         fill="none"
         fill-rule="evenodd"
         transform="matrix(-0.707365,0.706848,0.706848,0.707365,1552.24,523.606)"
         id="path20" />
      <path
         d="m 1755.24,667.931 c -69.68,28.045 -145.38,57.247 -200.18,2.407"
         stroke="#6f9b47"
         stroke-width="8"
         stroke-miterlimit="8"
         fill="none"
         fill-rule="evenodd"
         id="path21" />
      <path
         d="m 1661.91,811.404 c -61.04,7.577 -127.74,14.549 -198.15,-55.913"
         stroke="#6f9b47"
         stroke-width="8"
         stroke-miterlimit="8"
         fill="none"
         fill-rule="evenodd"
         id="path22" />
      <path
         d="M 0.875354,0.810376 C 16.3899,24.9413 33.0444,51.894 33.0444,115.501"
         stroke="#6f9b47"
         stroke-width="8"
         stroke-miterlimit="8"
         fill="none"
         fill-rule="evenodd"
         transform="matrix(-0.707365,0.706848,0.706848,0.707365,1405.5,650.432)"
         id="path23" />
      <path
         d="M 0.422865,0.288101 C 9.23902,0.288101 15.963,30.9569 15.963,69.1444"
         stroke="#6f9b47"
         stroke-width="8"
         stroke-miterlimit="8"
         fill="none"
         fill-rule="evenodd"
         transform="matrix(-0.707365,0.706848,0.706848,0.707365,1328.71,811.636)"
         id="path24" />
      <path
         d="m 1466.23,927.525 c -12.57,12.562 -57.75,-13.477 -102.07,-57.83"
         stroke="#6f9b47"
         stroke-width="8"
         stroke-miterlimit="8"
         fill="none"
         fill-rule="evenodd"
         id="path25" />
      <path
         d="m 1173,447 c 124.19,-198.095 86.47,-148.536 114.59,-213 11.17,46.964 12.49,73.179 113.41,211.444 z"
         fill="#8ab661"
         fill-rule="evenodd"
         id="path26" />
      <path
         d="m 1116,627 c 0,-134.757 76.56,-244 171,-244 94.44,0 171,109.243 171,244 0,134.758 -76.56,244 -171,244 -94.44,0 -171,-109.242 -171,-244 z"
         fill="#8ab661"
         fill-rule="evenodd"
         id="path27" />
      <path
         d="M 0,213 C 124.193,14.9055 86.4666,64.4638 114.586,0 125.755,46.9644 127.083,73.1788 228,211.444 Z"
         fill="#8ab661"
         fill-rule="evenodd"
         transform="matrix(1,0,0,-1,1173,1019)"
         id="path28" />
      <path
         d="M 19.1037,2.98997 C 39.0402,2.98997 49.9674,179.743 50,402.629 50.0251,574.473 33.0006,733.172 17.2169,790"
         stroke="#6f9b47"
         stroke-width="8"
         stroke-miterlimit="8"
         fill="none"
         fill-rule="evenodd"
         transform="matrix(-1,0,0,1,1308,234)"
         id="path29" />
      <path
         d="M 2.03975,0.25 C 44.5658,0.25 77.0001,26.8629 77.0001,60"
         stroke="#6f9b47"
         stroke-width="8"
         stroke-miterlimit="8"
         fill="none"
         fill-rule="evenodd"
         transform="matrix(0,1,1,0,1201,406)"
         id="path30" />
      <path
         d="M 1343.65,366.179 C 1343.65,432.453 1306.84,483 1261,483"
         stroke="#6f9b47"
         stroke-width="8"
         stroke-miterlimit="8"
         fill="none"
         fill-rule="evenodd"
         id="path31" />
      <path
         d="M 2.38412,0.841941 C 44.6396,25.9128 90,53.9154 90,120"
         stroke="#6f9b47"
         stroke-width="8"
         stroke-miterlimit="8"
         fill="none"
         fill-rule="evenodd"
         transform="matrix(0,1,1,0,1138,508)"
         id="path32" />
      <path
         d="M 1415.88,471.444 C 1382.67,532.479 1345.56,598 1258,598"
         stroke="#6f9b47"
         stroke-width="8"
         stroke-miterlimit="8"
         fill="none"
         fill-rule="evenodd"
         id="path33" />
      <path
         d="M 1456.56,619.411 C 1413.73,662.136 1365.89,708 1253,708"
         stroke="#6f9b47"
         stroke-width="8"
         stroke-miterlimit="8"
         fill="none"
         fill-rule="evenodd"
         id="path34" />
      <path
         d="M 0.768214,0.919119 C 14.3838,28.2881 28.9999,58.8577 28.9999,131"
         stroke="#6f9b47"
         stroke-width="8"
         stroke-miterlimit="8"
         fill="none"
         fill-rule="evenodd"
         transform="matrix(0,1,1,0,1122,679)"
         id="path35" />
      <path
         d="M 0.370863,0.325 C 8.10285,0.325 14,34.9217 14,78"
         stroke="#6f9b47"
         stroke-width="8"
         stroke-miterlimit="8"
         fill="none"
         fill-rule="evenodd"
         transform="matrix(0,1,1,0,1190,827)"
         id="path36" />
      <path
         d="M 1392.47,813.742 C 1392.47,829.206 1335.69,841 1265,841"
         stroke="#6f9b47"
         stroke-width="8"
         stroke-miterlimit="8"
         fill="none"
         fill-rule="evenodd"
         id="path37" />
      <path
         d="m 696.024,179.583 61.993,-33.657 c 0.386,-0.24 0.675,-0.154 0.868,0.257 l 14.419,26.559 c 0.239,0.385 0.154,0.674 -0.258,0.867 l -34.028,18.475 c -0.21,0.11 -0.334,0.23 -0.373,0.362 -0.038,0.131 0,0.3 0.116,0.506 l 6.269,11.547 c 0.11,0.21 0.231,0.334 0.362,0.373 0.131,0.039 0.3,0 0.506,-0.115 l 34.31,-18.628 c 0.386,-0.239 0.675,-0.154 0.868,0.257 l 14.419,26.559 c 0.239,0.386 0.153,0.675 -0.258,0.868 l -34.309,18.627 c -0.411,0.193 -0.497,0.482 -0.257,0.868 l 15.879,29.247 c 0.115,0.207 0.154,0.375 0.115,0.506 -0.039,0.131 -0.163,0.252 -0.372,0.362 l -26.84,14.572 c -0.386,0.239 -0.675,0.154 -0.868,-0.258 L 695.767,180.45 c -0.24,-0.385 -0.154,-0.674 0.257,-0.867 z"
         fill="#6f9b47"
         fill-rule="evenodd"
         id="path38" />
      <text
         fill="#000000"
         fill-opacity="0"
         font-family="Arial, Arial_MSFontService, sans-serif"
         font-size="132.333px"
         x="695.63397"
         y="261.58499"
         id="text38">F</text>
      <path
         d="m 838.528,145.824 c -3.703,1.306 -6.159,3.232 -7.366,5.779 -1.207,2.547 -1.146,5.707 0.181,9.482 l 9.791,27.776 c 1.333,3.773 3.269,6.273 5.806,7.5 2.537,1.227 5.658,1.188 9.361,-0.117 7.551,-2.662 9.996,-7.767 7.336,-15.315 l -9.791,-27.776 c -2.661,-7.548 -7.767,-9.99 -15.318,-7.329 z m -10.526,-29.859 c 6.573,-2.32 12.744,-3.429 18.512,-3.325 5.767,0.104 11.103,1.451 16.007,4.042 9.949,5.138 17.291,14.422 22.026,27.855 l 8.408,23.851 c 4.735,13.433 4.839,25.269 0.31,35.51 -2.195,5.093 -5.507,9.489 -9.934,13.187 -4.428,3.698 -9.929,6.704 -16.505,9.018 -13.124,4.655 -24.581,4.398 -34.368,-0.771 -9.949,-5.137 -17.291,-14.422 -22.026,-27.854 l -8.408,-23.851 c -4.735,-13.433 -4.838,-25.269 -0.31,-35.51 2.189,-5.091 5.476,-9.478 9.859,-13.16 4.384,-3.683 9.86,-6.68 16.429,-8.992 z"
         fill="#6f9b47"
         fill-rule="evenodd"
         id="path39" />
      <text
         fill="#000000"
         fill-opacity="0"
         font-family="Arial, Arial_MSFontService, sans-serif"
         font-size="116.778px"
         x="798.39398"
         y="214.814"
         id="text39">o</text>
      <path
         d="m 935.055,119.752 c -0.231,0.052 -0.383,0.135 -0.455,0.252 -0.072,0.116 -0.079,0.289 -0.022,0.519 l 3.417,14.482 c 0.051,0.231 0.135,0.382 0.252,0.454 0.116,0.072 0.289,0.079 0.519,0.022 l 9.666,-2.281 c 1.01,-0.238 1.867,-0.646 2.571,-1.223 0.704,-0.577 1.274,-1.328 1.711,-2.253 0.873,-1.878 1.032,-3.997 0.474,-6.359 -0.261,-1.093 -0.648,-2.063 -1.16,-2.912 -0.512,-0.848 -1.126,-1.559 -1.841,-2.134 -0.859,-0.533 -1.734,-0.868 -2.623,-1.004 -0.889,-0.136 -1.837,-0.084 -2.843,0.157 z m -38.204,-23.3502 44.378,-10.471 c 10.762,-2.5667 20.055,-1.2544 27.878,3.9368 7.804,5.2223 13.157,13.9824 16.059,26.2814 3.287,14.047 1.586,25.408 -5.102,34.082 -0.132,0.12 -0.192,0.244 -0.179,0.371 0.012,0.127 0.069,0.224 0.17,0.289 l 26.395,33.883 c 0.3,0.45 0.16,0.759 -0.44,0.926 l -34.392,8.115 c -0.085,0.017 -0.196,0.009 -0.334,-0.023 -0.138,-0.033 -0.258,-0.08 -0.362,-0.141 l -20.883,-29.924 c -0.121,-0.136 -0.253,-0.228 -0.395,-0.277 -0.141,-0.049 -0.255,-0.063 -0.339,-0.043 l -3.742,0.883 c -0.231,0.051 -0.383,0.134 -0.455,0.251 -0.072,0.116 -0.079,0.289 -0.021,0.519 l 7.679,32.546 c 0.057,0.23 0.05,0.402 -0.021,0.519 -0.072,0.116 -0.224,0.2 -0.455,0.251 l -29.724,7.013 c -0.435,0.13 -0.692,-0.029 -0.77,-0.476 L 896.375,97.1713 c -0.13,-0.4348 0.028,-0.6914 0.476,-0.7695 z"
         fill="#6f9b47"
         fill-rule="evenodd"
         id="path40" />
      <text
         fill="#000000"
         fill-opacity="0"
         font-family="Arial, Arial_MSFontService, sans-serif"
         font-size="120.776px"
         x="896.33099"
         y="190.336"
         id="text40">r</text>
      <path
         d="m 999.358,73.5459 70.972,-11.0131 c 0.44,-0.0957 0.69,0.0823 0.73,0.5341 l 4.63,29.8632 c 0.1,0.4436 -0.08,0.687 -0.53,0.7302 l -39.53,6.1337 c -0.23,0.033 -0.39,0.1048 -0.47,0.215 -0.08,0.111 -0.1,0.283 -0.06,0.517 l 1.08,6.974 c 0.02,0.321 0.26,0.447 0.71,0.377 l 39.21,-6.084 c 0.23,-0.04 0.4,-0.019 0.51,0.061 0.11,0.081 0.18,0.238 0.22,0.472 l 4.66,30.022 c 0.09,0.444 -0.09,0.687 -0.54,0.73 l -39.21,6.085 c -0.45,0.069 -0.63,0.261 -0.56,0.573 l 1.21,7.765 c 0.03,0.235 0.1,0.393 0.21,0.474 0.11,0.081 0.28,0.101 0.52,0.062 l 39.21,-6.085 c 0.23,-0.04 0.4,-0.019 0.51,0.061 0.11,0.081 0.19,0.238 0.22,0.473 l 4.66,30.021 c 0.09,0.444 -0.08,0.687 -0.54,0.731 l -70.65,10.964 c -0.44,0.095 -0.69,-0.083 -0.73,-0.534 L 998.824,74.2762 c -0.096,-0.4436 0.082,-0.687 0.534,-0.7303 z"
         fill="#6f9b47"
         fill-rule="evenodd"
         id="path41" />
      <text
         fill="#000000"
         fill-opacity="0"
         font-family="Arial, Arial_MSFontService, sans-serif"
         font-size="121.719px"
         x="998.79901"
         y="169.01199"
         id="text41">e</text>
      <path
         d="m 1088.62,59.9305 33,-2.8321 c 0.09,-0.0074 0.2,0.0234 0.33,0.0924 0.13,0.069 0.25,0.1795 0.35,0.3315 l 21.18,65.2957 c 0.14,0.309 0.37,0.45 0.68,0.423 0.31,-0.026 0.51,-0.204 0.6,-0.532 l 9.74,-67.9504 c 0.11,-0.3303 0.31,-0.5081 0.6,-0.5334 l 32.04,-2.75 c 0.24,-0.0169 0.41,0.042 0.52,0.1767 0.11,0.1346 0.17,0.3233 0.19,0.566 l -24.49,113.2081 c -0.07,0.167 -0.17,0.296 -0.29,0.386 -0.12,0.091 -0.22,0.14 -0.31,0.147 l -30.45,2.613 c -0.45,0.039 -0.67,-0.102 -0.67,-0.423 L 1088.05,60.7827 c -0.18,-0.2285 -0.23,-0.4183 -0.14,-0.5695 0.08,-0.1512 0.32,-0.2454 0.71,-0.2827 z"
         fill="#6f9b47"
         fill-rule="evenodd"
         id="path42" />
      <text
         fill="#000000"
         fill-opacity="0"
         font-family="Arial, Arial_MSFontService, sans-serif"
         font-size="117.106px"
         x="1087.87"
         y="153.94"
         id="text42">v</text>
      <path
         d="m 1205.18,50.9497 71.8,-1.6332 c 0.45,-0.0368 0.67,0.1715 0.65,0.6251 l 0.69,30.2128 c 0.04,0.4523 -0.17,0.6703 -0.63,0.654 l -39.99,0.9096 c -0.23,0.002 -0.4,0.0526 -0.49,0.1516 -0.1,0.0991 -0.14,0.2672 -0.13,0.5043 l 0.16,7.0555 c -0.02,0.3213 0.2,0.4768 0.65,0.4665 l 39.67,-0.9023 c 0.24,-0.0088 0.4,0.034 0.5,0.1284 0.1,0.0943 0.15,0.2597 0.15,0.4963 l 0.69,30.3727 c 0.04,0.453 -0.17,0.671 -0.62,0.654 l -39.67,0.903 c -0.45,0.01 -0.66,0.175 -0.63,0.495 l 0.18,7.856 c 0,0.237 0.05,0.403 0.15,0.497 0.1,0.095 0.27,0.138 0.5,0.129 l 39.67,-0.902 c 0.24,-0.009 0.41,0.034 0.51,0.128 0.1,0.095 0.15,0.26 0.15,0.497 l 0.69,30.373 c 0.04,0.452 -0.17,0.67 -0.63,0.654 l -71.48,1.626 c -0.45,0.037 -0.67,-0.172 -0.65,-0.625 l -2.52,-110.6721 c -0.04,-0.4524 0.17,-0.6704 0.63,-0.6542 z"
         fill="#6f9b47"
         fill-rule="evenodd"
         id="path43" />
      <text
         fill="#000000"
         fill-opacity="0"
         font-family="Arial, Arial_MSFontService, sans-serif"
         font-size="113.593px"
         x="1204.55"
         y="148.70599"
         id="text43">e</text>
      <path
         d="m 1333.22,82.0571 c -0.24,-0.0121 -0.41,0.0284 -0.51,0.1215 -0.1,0.093 -0.15,0.2578 -0.16,0.4945 l -0.54,14.8699 c -0.02,0.2364 0.02,0.4046 0.12,0.5048 0.09,0.1002 0.26,0.1529 0.49,0.1583 l 9.93,0.3655 c 1.03,0.0382 1.97,-0.1276 2.8,-0.4972 0.83,-0.3697 1.58,-0.9425 2.25,-1.7185 1.34,-1.5784 2.05,-3.5801 2.14,-6.0051 0.04,-1.1227 -0.07,-2.161 -0.34,-3.1149 -0.27,-0.9539 -0.68,-1.8026 -1.21,-2.5462 -0.69,-0.7424 -1.44,-1.2972 -2.27,-1.6644 -0.82,-0.3671 -1.74,-0.568 -2.78,-0.6028 z m -30.64,-32.6496 45.56,1.6778 c 11.06,0.3806 19.67,4.1112 25.84,11.1918 6.14,7.1055 8.97,16.972 8.51,29.5996 -0.56,14.4163 -5.21,24.9183 -13.96,31.5073 -0.16,0.081 -0.25,0.185 -0.27,0.311 -0.03,0.126 0,0.233 0.08,0.323 l 16.47,39.673 c 0.17,0.513 -0.06,0.772 -0.67,0.776 l -35.32,-1.301 c -0.09,-0.006 -0.19,-0.044 -0.31,-0.112 -0.13,-0.067 -0.23,-0.145 -0.32,-0.231 L 1336,128.431 c -0.08,-0.163 -0.19,-0.287 -0.31,-0.372 -0.12,-0.084 -0.23,-0.128 -0.31,-0.131 l -3.85,-0.142 c -0.23,-0.012 -0.4,0.029 -0.5,0.122 -0.1,0.093 -0.16,0.257 -0.16,0.494 l -1.23,33.417 c -0.01,0.237 -0.06,0.402 -0.16,0.495 -0.1,0.093 -0.27,0.134 -0.5,0.121 l -30.52,-1.123 c -0.46,0.01 -0.66,-0.211 -0.62,-0.663 l 4.07,-110.6257 c -0.01,-0.4538 0.21,-0.659 0.67,-0.6158 z"
         fill="#6f9b47"
         fill-rule="evenodd"
         id="path44" />
      <text
         fill="#000000"
         fill-opacity="0"
         font-family="Arial, Arial_MSFontService, sans-serif"
         font-size="115.065px"
         x="1297.83"
         y="150.084"
         id="text44">r</text>
      <path
         d="m 1446.81,55.6573 c 13.08,1.3511 23.01,5.9989 29.78,13.9436 7.5,8.7922 10.59,20.5211 9.3,35.1871 -0.02,0.235 -0.09,0.397 -0.19,0.483 -0.11,0.087 -0.28,0.116 -0.51,0.089 l -30.39,-3.076 c -0.23,-0.02 -0.4,-0.083 -0.48,-0.189 -0.09,-0.106 -0.12,-0.277 -0.09,-0.512 l 0.13,-1.274 c 0.8,-7.9623 -2.78,-12.3464 -10.74,-13.1525 -2.23,-0.2228 -4.17,-0.1437 -5.8,0.2373 -1.63,0.3811 -2.94,1.0463 -3.92,1.9956 -0.91,0.9611 -1.65,2.3206 -2.23,4.0784 -0.58,1.7579 -0.99,3.8743 -1.24,6.3492 l -2.58,25.48 c -0.26,2.544 -0.28,4.721 -0.06,6.53 0.22,1.808 0.67,3.269 1.37,4.381 0.77,1.128 1.92,2.042 3.44,2.742 1.52,0.7 3.4,1.165 5.64,1.395 3.9,0.398 6.88,0.049 8.93,-1.046 2.06,-1.096 3.22,-2.956 3.48,-5.581 l 0.07,-0.637 -3.5,-0.354 c -0.45,-0.045 -0.65,-0.226 -0.59,-0.542 l 2.05,-20.224 c 0.02,-0.236 0.08,-0.397 0.19,-0.484 0.1,-0.086 0.27,-0.116 0.51,-0.089 l 34.84,3.527 c 0.24,0.02 0.4,0.084 0.48,0.19 0.09,0.106 0.12,0.276 0.09,0.511 l -2.05,20.225 c -0.36,3.576 -1.01,6.861 -1.94,9.855 -0.93,2.994 -2.12,5.74 -3.58,8.237 -3.1,4.963 -6.82,8.82 -11.14,11.57 -1.85,1.125 -3.78,2.162 -5.78,3.111 -2.85,1.158 -5.82,1.982 -8.93,2.471 -2.71,0.53 -5.43,0.857 -8.16,0.982 -2.73,0.126 -5.45,0.051 -8.16,-0.223 -6.85,-0.69 -12.85,-2.308 -17.99,-4.855 -5.15,-2.546 -9.46,-6.043 -12.94,-10.491 -6.69,-8.87 -9.32,-20.392 -7.92,-34.565 l 2.55,-25.1613 c 1.46,-14.1675 6.36,-24.927 14.68,-32.2786 4.3,-3.6593 9.23,-6.2208 14.78,-7.6846 5.55,-1.4637 11.75,-1.8475 18.6,-1.1512 z"
         fill="#6f9b47"
         fill-rule="evenodd"
         id="path45" />
      <text
         fill="#000000"
         fill-opacity="0"
         font-family="Arial, Arial_MSFontService, sans-serif"
         font-size="116.806px"
         x="1395.84"
         y="157.526"
         id="text45">G</text>
      <path
         d="m 1540.59,102.454 c -0.23,-0.044 -0.41,-0.027 -0.52,0.052 -0.11,0.078 -0.19,0.234 -0.22,0.468 l -2.58,14.656 c -0.04,0.232 -0.02,0.405 0.06,0.517 0.07,0.112 0.23,0.186 0.46,0.224 l 9.79,1.717 c 1.02,0.179 1.97,0.143 2.84,-0.11 0.88,-0.252 1.7,-0.718 2.46,-1.395 1.55,-1.381 2.53,-3.266 2.95,-5.656 0.19,-1.107 0.22,-2.152 0.08,-3.133 -0.14,-0.982 -0.42,-1.878 -0.85,-2.688 -0.58,-0.829 -1.25,-1.482 -2.01,-1.958 -0.77,-0.475 -1.66,-0.801 -2.68,-0.977 z m -25.9,-36.5266 44.91,7.8829 c 10.91,1.8866 18.93,6.758 24.07,14.6141 5.11,7.877 6.57,18.0386 4.39,30.4846 -2.52,14.205 -8.57,23.973 -18.13,29.306 -0.17,0.059 -0.28,0.149 -0.32,0.271 -0.03,0.122 -0.02,0.232 0.05,0.332 l 10.89,41.549 c 0.1,0.531 -0.16,0.757 -0.77,0.677 l -34.81,-6.11 c -0.08,-0.018 -0.18,-0.069 -0.29,-0.153 -0.12,-0.085 -0.21,-0.175 -0.28,-0.272 l -7.39,-35.735 c -0.06,-0.173 -0.14,-0.31 -0.25,-0.41 -0.11,-0.101 -0.21,-0.159 -0.3,-0.174 l -3.78,-0.665 c -0.24,-0.044 -0.41,-0.027 -0.52,0.052 -0.11,0.078 -0.19,0.234 -0.22,0.468 l -5.79,32.936 c -0.03,0.234 -0.11,0.39 -0.22,0.469 -0.11,0.078 -0.28,0.095 -0.52,0.051 l -30.08,-5.28 c -0.45,-0.052 -0.62,-0.299 -0.52,-0.741 l 19.14,-109.033 c 0.05,-0.4509 0.3,-0.6241 0.74,-0.5196 z"
         fill="#6f9b47"
         fill-rule="evenodd"
         id="path46" />
      <text
         fill="#000000"
         fill-opacity="0"
         font-family="Arial, Arial_MSFontService, sans-serif"
         font-size="125.162px"
         x="1494.78"
         y="175.41499"
         id="text46">r</text>
      <path
         d="m 1618.59,85.3151 69.46,18.2539 c 0.45,0.089 0.6,0.35 0.46,0.781 l -7.68,29.228 c -0.09,0.445 -0.35,0.597 -0.78,0.456 l -38.69,-10.166 c -0.23,-0.063 -0.4,-0.06 -0.52,0.009 -0.12,0.069 -0.2,0.219 -0.26,0.449 l -1.79,6.825 c -0.11,0.304 0.05,0.513 0.49,0.629 l 38.38,10.084 c 0.23,0.057 0.38,0.145 0.45,0.263 0.07,0.118 0.07,0.291 0.01,0.519 l -7.73,29.383 c -0.09,0.445 -0.35,0.597 -0.78,0.456 L 1631.24,162.4 c -0.44,-0.115 -0.69,-0.014 -0.75,0.303 l -1.99,7.599 c -0.07,0.229 -0.06,0.402 0,0.52 0.07,0.119 0.22,0.206 0.45,0.263 l 38.38,10.085 c 0.23,0.057 0.38,0.144 0.45,0.262 0.07,0.118 0.07,0.291 0.01,0.519 l -7.73,29.383 c -0.08,0.445 -0.35,0.597 -0.78,0.456 l -69.15,-18.172 c -0.44,-0.089 -0.6,-0.35 -0.46,-0.781 l 28.14,-107.0657 c 0.09,-0.445 0.35,-0.597 0.78,-0.4562 z"
         fill="#6f9b47"
         fill-rule="evenodd"
         id="path47" />
      <text
         fill="#000000"
         fill-opacity="0"
         font-family="Arial, Arial_MSFontService, sans-serif"
         font-size="126.577px"
         x="1589.62"
         y="196.019"
         id="text47">e</text>
      <path
         d="m 1716.43,112.374 67.13,25.528 c 0.43,0.136 0.55,0.411 0.37,0.825 l -10.74,28.247 c -0.14,0.433 -0.41,0.557 -0.83,0.371 l -37.39,-14.218 c -0.22,-0.087 -0.39,-0.102 -0.51,-0.046 -0.13,0.056 -0.23,0.195 -0.31,0.418 l -2.51,6.597 c -0.14,0.29 0,0.516 0.43,0.677 l 37.09,14.104 c 0.22,0.081 0.36,0.184 0.41,0.308 0.06,0.125 0.04,0.297 -0.04,0.517 l -10.8,28.397 c -0.14,0.433 -0.41,0.556 -0.83,0.37 l -37.09,-14.103 c -0.42,-0.161 -0.68,-0.087 -0.77,0.222 l -2.79,7.344 c -0.09,0.221 -0.1,0.394 -0.05,0.519 0.06,0.124 0.2,0.227 0.42,0.308 l 37.09,14.104 c 0.22,0.081 0.36,0.184 0.42,0.308 0.05,0.125 0.04,0.297 -0.05,0.517 l -10.8,28.397 c -0.13,0.433 -0.41,0.557 -0.82,0.371 l -66.83,-25.414 c -0.44,-0.136 -0.56,-0.411 -0.37,-0.825 l 39.34,-103.472 c 0.14,-0.433 0.41,-0.557 0.83,-0.371 z"
         fill="#6f9b47"
         fill-rule="evenodd"
         id="path48" />
      <text
         fill="#000000"
         fill-opacity="0"
         font-family="Arial, Arial_MSFontService, sans-serif"
         font-size="130.249px"
         x="1676.17"
         y="226.258"
         id="text48">e</text>
      <path
         d="m 1816.46,152.376 25.64,15.382 c 0.07,0.048 0.15,0.131 0.22,0.251 0.08,0.119 0.13,0.237 0.16,0.353 l -2,48.791 c 0.1,0.335 0.26,0.536 0.5,0.604 0.23,0.067 0.44,-0.033 0.62,-0.302 l 21.73,-36.215 c 0.21,-0.403 0.5,-0.476 0.88,-0.22 l 24.27,14.559 c 0.2,0.119 0.32,0.244 0.35,0.377 0.03,0.133 -0.01,0.3 -0.14,0.501 l -56.94,94.928 c -0.12,0.205 -0.25,0.324 -0.38,0.357 -0.13,0.033 -0.3,-0.013 -0.5,-0.137 l -24.54,-14.724 c -0.08,-0.047 -0.15,-0.131 -0.23,-0.25 -0.07,-0.12 -0.13,-0.237 -0.16,-0.353 l 1.98,-51.233 c 0.06,-0.329 -0.05,-0.55 -0.33,-0.662 -0.27,-0.113 -0.51,-0.039 -0.71,0.222 L 1784,262.741 c -0.12,0.205 -0.25,0.324 -0.38,0.357 -0.13,0.033 -0.3,-0.013 -0.5,-0.137 l -24.27,-14.559 c -0.4,-0.21 -0.47,-0.503 -0.22,-0.878 l 56.95,-94.928 c 0.21,-0.403 0.5,-0.476 0.88,-0.22 z"
         fill="#6f9b47"
         fill-rule="evenodd"
         id="path49" />
      <text
         fill="#000000"
         fill-opacity="0"
         font-family="Arial, Arial_MSFontService, sans-serif"
         font-size="139.525px"
         x="1758.48"
         y="274.31201"
         id="text49">n</text>
      <text
         font-family="Greenstyle-Personal-Use-Only, Greenstyle-Personal-Use-Only_MSFontService, sans-serif"
         font-weight="400"
         font-size="107px"
         transform="translate(430.666,1319)"
         id="text50">Healthy Eating Without The Cheating</text>
    </g>
  </g>
</svg>
