<?xml version="1.0" encoding="UTF-8" standalone="no"?>
<!-- Created with Inkscape (http://www.inkscape.org/) -->

<svg
   width="490.091mm"
   height="609.60602mm"
   viewBox="0 0 490.09102 609.60602"
   version="1.1"
   id="svg5"
   inkscape:version="1.2.2 (732a01da63, 2022-12-09)"
   xml:space="preserve"
   sodipodi:docname="jpt eng graphic.svg"
   inkscape:export-filename="Engineering Club back.png"
   inkscape:export-xdpi="96"
   inkscape:export-ydpi="96"
   xmlns:inkscape="http://www.inkscape.org/namespaces/inkscape"
   xmlns:sodipodi="http://sodipodi.sourceforge.net/DTD/sodipodi-0.dtd"
   xmlns="http://www.w3.org/2000/svg"
   xmlns:svg="http://www.w3.org/2000/svg"><sodipodi:namedview
     id="namedview7"
     pagecolor="#000000"
     bordercolor="#000000"
     borderopacity="0.25"
     inkscape:showpageshadow="2"
     inkscape:pageopacity="0"
     inkscape:pagecheckerboard="false"
     inkscape:deskcolor="#d1d1d1"
     inkscape:document-units="mm"
     showgrid="false"
     inkscape:zoom="4.7481457"
     inkscape:cx="966.69317"
     inkscape:cy="-23.061635"
     inkscape:window-width="1920"
     inkscape:window-height="1130"
     inkscape:window-x="-6"
     inkscape:window-y="-6"
     inkscape:window-maximized="1"
     inkscape:current-layer="g816"
     showguides="false" /><defs
     id="defs2"><inkscape:path-effect
       effect="fillet_chamfer"
       id="path-effect54696"
       is_visible="true"
       lpeversion="1"
       nodesatellites_param="F,0,0,1,0,0,0,1 @ F,0,0,1,0,0,0,1 @ F,0,0,1,0,0,0,1 @ F,0,0,1,0,0,0,1 @ F,0,0,1,0,0,0,1 @ F,0,0,1,0,0,0,1 @ F,0,0,1,0,6.4277317,0,1 @ F,0,0,1,0,5.0978806,0,1 @ F,0,0,1,0,0,0,1 @ F,0,0,1,0,0,0,1 @ F,0,0,1,0,0,0,1 @ F,0,0,1,0,0,0,1 @ F,0,0,1,0,0,0,1 @ F,0,0,1,0,0,0,1"
       unit="px"
       method="auto"
       mode="F"
       radius="0"
       chamfer_steps="1"
       flexible="false"
       use_knot_distance="true"
       apply_no_radius="true"
       apply_with_radius="true"
       only_selected="false"
       hide_knots="false" /><inkscape:path-effect
       effect="fillet_chamfer"
       id="path-effect54694"
       is_visible="true"
       lpeversion="1"
       nodesatellites_param="F,0,0,1,0,0,0,1 @ F,0,0,1,0,7.522912,0,1 @ F,0,0,1,0,7.522912,0,1 @ F,0,0,1,0,0,0,1 @ F,0,0,1,0,0,0,1 @ F,0,0,1,0,0,0,1 @ F,0,0,1,0,0,0,1 @ F,0,0,1,0,0,0,1 @ F,0,0,1,0,0,0,1 @ F,0,0,1,0,0,0,1 @ F,0,0,1,0,0,0,1 @ F,0,0,1,0,0,0,1 @ F,0,0,1,0,0,0,1 @ F,0,0,1,0,0,0,1 @ F,0,0,1,0,0,0,1 @ F,0,0,1,0,0,0,1"
       unit="px"
       method="auto"
       mode="F"
       radius="0"
       chamfer_steps="1"
       flexible="false"
       use_knot_distance="true"
       apply_no_radius="true"
       apply_with_radius="true"
       only_selected="false"
       hide_knots="false" /><inkscape:path-effect
       effect="fillet_chamfer"
       id="path-effect54690"
       is_visible="true"
       lpeversion="1"
       nodesatellites_param="F,0,0,1,0,0,0,1 @ F,0,0,1,0,0,0,1 @ F,0,0,1,0,0,0,1 @ F,0,0,1,0,0,0,1 @ F,0,0,1,0,0,0,1 @ F,0,0,1,0,0,0,1 @ F,0,0,1,0,0,0,1 @ F,0,0,1,0,6.7602005,0,1 @ F,0,0,1,0,0,0,1 @ F,0,0,1,0,7.5359613,0,1 @ F,0,0,1,0,0,0,1 @ F,0,0,1,0,0,0,1 @ F,0,0,1,0,0,0,1"
       unit="px"
       method="auto"
       mode="F"
       radius="0"
       chamfer_steps="1"
       flexible="false"
       use_knot_distance="true"
       apply_no_radius="true"
       apply_with_radius="true"
       only_selected="false"
       hide_knots="false" /><inkscape:path-effect
       effect="fillet_chamfer"
       id="path-effect54688"
       is_visible="true"
       lpeversion="1"
       nodesatellites_param="F,0,0,1,0,0,0,1 @ F,0,0,1,0,0,0,1 @ F,0,0,1,0,0,0,1 @ F,0,0,1,0,0,0,1 @ F,0,0,1,0,0,0,1 @ F,0,0,1,0,0,0,1 @ F,0,0,1,0,0,0,1 @ F,0,0,1,0,0,0,1 @ F,0,0,1,0,0,0,1 @ F,0,0,1,0,0,0,1 @ F,0,0,1,0,0,0,1 @ F,0,0,1,0,0,0,1 @ F,0,0,1,0,6.2690933,0,1 @ F,0,0,1,0,4.70182,0,1 @ F,0,0,1,0,0,0,1 @ F,0,0,1,0,0,0,1"
       unit="px"
       method="auto"
       mode="F"
       radius="0"
       chamfer_steps="1"
       flexible="false"
       use_knot_distance="true"
       apply_no_radius="true"
       apply_with_radius="true"
       only_selected="false"
       hide_knots="false" /><inkscape:path-effect
       effect="fillet_chamfer"
       id="path-effect54684"
       nodesatellites_param="F,0,0,1,0,0,0,1 @ F,0,0,1,0,0,0,1 @ F,0,0,1,0,0,0,1 @ F,0,0,1,0,0,0,1 @ F,0,0,1,0,0,0,1 @ F,0,0,1,0,0,0,1 @ F,0,0,1,0,13.742047,0,1 @ F,0,0,1,0,13.077109,0,1 @ F,0,0,1,0,0,0,1 @ F,0,0,1,0,0,0,1 @ F,0,0,1,0,0,0,1 @ F,0,0,1,0,0,0,1 @ F,0,0,1,0,11.824129,0,1 @ F,0,0,1,0,0,0,1"
       is_visible="true"
       lpeversion="1"
       unit="px"
       method="auto"
       mode="F"
       radius="0"
       chamfer_steps="1"
       flexible="false"
       use_knot_distance="true"
       apply_no_radius="true"
       apply_with_radius="true"
       only_selected="false"
       hide_knots="false" /><inkscape:path-effect
       effect="fillet_chamfer"
       id="path-effect54674"
       is_visible="true"
       lpeversion="1"
       nodesatellites_param="F,0,0,1,0,0,0,1 @ F,0,0,1,0,0,0,1 @ F,0,0,1,0,0,0,1 @ F,0,0,1,0,0,0,1 @ F,0,0,1,0,0,0,1 @ F,0,0,1,0,0,0,1 @ F,0,0,1,0,0,0,1 @ F,0,0,1,0,0,0,1 @ F,0,0,1,0,0,0,1 @ F,0,0,1,0,0,0,1 @ F,0,0,1,0,0,0,1 @ F,0,0,1,0,0,0,1 @ F,0,0,1,0,0,0,1 @ F,0,0,1,0,0,0,1 @ F,0,0,1,0,0,0,1 @ F,0,0,1,0,0,0,1 @ F,0,0,1,0,0,0,1 @ F,0,0,1,0,0,0,1 @ F,0,0,1,0,0,0,1 @ F,0,0,1,0,0,0,1 @ F,0,0,1,0,0,0,1 @ F,0,0,1,0,0,0,1 | F,0,0,1,0,0,0,1 @ F,0,0,1,0,0,0,1 @ F,0,0,1,0,0,0,1 @ F,0,0,1,0,0,0,1 @ F,0,0,1,0,0,0,1 @ F,0,0,1,0,0,0,1 @ F,0,0,1,0,0,0,1 @ F,0,0,1,0,0,0,1 @ F,0,0,1,0,0,0,1 @ F,0,0,1,0,0,0,1 @ F,0,0,1,0,0,0,1 | F,0,0,1,0,0,0,1 @ F,0,0,1,0,0,0,1 @ F,0,0,1,0,0,0,1 @ F,0,0,1,0,0,0,1 @ F,0,0,1,0,0,0,1 @ F,0,0,1,0,0,0,1 @ F,0,0,1,0,0,0,1 @ F,0,0,1,0,0,0,1 @ F,0,0,1,0,0,0,1 @ F,0,0,1,0,0,0,1 @ F,0,0,1,0,0,0,1 @ F,0,0,1,0,0,0,1 @ F,0,0,1,0,0,0,1 | F,0,0,1,0,0,0,1 @ F,0,0,1,0,0,0,1 @ F,0,0,1,0,0,0,1 @ F,0,0,1,0,0,0,1 @ F,0,0,1,0,0,0,1 @ F,0,0,1,0,0,0,1 @ F,0,0,1,0,0,0,1 @ F,0,0,1,0,0,0,1 @ F,0,0,1,0,0,0,1 | F,0,0,1,0,0,0,1 @ F,0,0,1,0,0,0,1 @ F,0,0,1,0,0,0,1 @ F,0,0,1,0,0,0,1 @ F,0,0,1,0,0,0,1 @ F,0,0,1,0,0,0,1 @ F,0,0,1,0,0,0,1 @ F,0,0,1,0,0,0,1 @ F,0,0,1,0,0,0,1 @ F,0,0,1,0,0,0,1 @ F,0,0,1,0,0,0,1 @ F,0,0,1,0,0,0,1 @ F,0,0,1,0,0,0,1 @ F,0,0,1,0,0,0,1 | F,0,0,1,0,0,0,1 @ F,0,0,1,0,0,0,1 @ F,0,0,1,0,0,0,1 @ F,0,0,1,0,0,0,1 @ F,0,0,1,0,0,0,1 @ F,0,0,1,0,0,0,1 @ F,0,0,1,0,0,0,1 @ F,0,0,1,0,0,0,1 @ F,0,0,1,0,0,0,1 @ F,0,0,1,0,0,0,1 @ F,0,0,1,0,0,0,1 @ F,0,0,1,0,0,0,1 @ F,0,0,1,0,0,0,1 @ F,0,0,1,0,0,0,1 @ F,0,0,1,0,0,0,1 @ F,0,0,1,0,0,0,1 | F,0,0,1,0,0,0,1 @ F,0,0,1,0,0,0,1 @ F,0,0,1,0,0,0,1 @ F,0,0,1,0,0,0,1 @ F,0,0,1,0,0,0,1 @ F,0,0,1,0,0,0,1 @ F,0,0,1,0,0,0,1 @ F,0,0,1,0,0,0,1 @ F,0,0,1,0,0,0,1 @ F,0,0,1,0,0,0,1 @ F,0,0,1,0,0,0,1"
       unit="px"
       method="auto"
       mode="F"
       radius="0"
       chamfer_steps="1"
       flexible="false"
       use_knot_distance="true"
       apply_no_radius="true"
       apply_with_radius="true"
       only_selected="false"
       hide_knots="false" /><inkscape:path-effect
       effect="fillet_chamfer"
       id="path-effect54668"
       is_visible="true"
       lpeversion="1"
       nodesatellites_param="F,0,0,1,0,0,0,1 @ F,0,0,1,0,0,0,1 @ F,0,0,1,0,0,0,1 @ F,0,0,1,0,0,0,1 @ F,0,0,1,0,0,0,1 @ F,0,0,1,0,0,0,1 @ F,0,0,1,0,0,0,1 @ F,0,0,1,0,0,0,1 @ F,0,0,1,0,0,0,1 @ F,0,0,1,0,0,0,1 @ F,0,0,1,0,0,0,1 @ F,0,0,1,0,0,0,1 @ F,0,0,1,0,0,0,1 @ F,0,0,1,0,0,0,1 @ F,0,0,1,0,0,0,1 @ F,0,0,1,0,0,0,1 @ F,0,0,1,0,0,0,1 @ F,0,0,1,0,0,0,1 @ F,0,0,1,0,0,0,1 @ F,0,0,1,0,0,0,1 @ F,0,0,1,0,0,0,1 @ F,0,0,1,0,0,0,1 | F,0,0,1,0,0,0,1 @ F,0,0,1,0,0,0,1 @ F,0,0,1,0,0,0,1 @ F,0,0,1,0,0,0,1 @ F,0,0,1,0,0,0,1 @ F,0,0,1,0,0,0,1 @ F,0,0,1,0,0,0,1 @ F,0,0,1,0,0,0,1 @ F,0,0,1,0,0,0,1 @ F,0,0,1,0,0,0,1 @ F,0,0,1,0,0,0,1 | F,0,0,1,0,0,0,1 @ F,0,0,1,0,0,0,1 @ F,0,0,1,0,0,0,1 @ F,0,0,1,0,0,0,1 @ F,0,0,1,0,0,0,1 @ F,0,0,1,0,0,0,1 @ F,0,0,1,0,0,0,1 @ F,0,0,1,0,0,0,1 @ F,0,0,1,0,0,0,1 @ F,0,0,1,0,0,0,1 @ F,0,0,1,0,0,0,1 @ F,0,0,1,0,0,0,1 @ F,0,0,1,0,0,0,1 | F,0,0,1,0,0,0,1 @ F,0,0,1,0,0,0,1 @ F,0,0,1,0,0,0,1 @ F,0,0,1,0,0,0,1 @ F,0,0,1,0,0,0,1 @ F,0,0,1,0,0,0,1 @ F,0,0,1,0,0,0,1 @ F,0,0,1,0,0,0,1 @ F,0,0,1,0,0,0,1 | F,0,0,1,0,0,0,1 @ F,0,0,1,0,0,0,1 @ F,0,0,1,0,0,0,1 @ F,0,0,1,0,0,0,1 @ F,0,0,1,0,0,0,1 @ F,0,0,1,0,0,0,1 @ F,0,0,1,0,0,0,1 @ F,0,0,1,0,0,0,1 @ F,0,0,1,0,0,0,1 @ F,0,0,1,0,0,0,1 @ F,0,0,1,0,0,0,1 @ F,0,0,1,0,0,0,1 @ F,0,0,1,0,0,0,1 @ F,0,0,1,0,0,0,1 | F,0,0,1,0,0,0,1 @ F,0,0,1,0,0,0,1 @ F,0,0,1,0,0,0,1 @ F,0,0,1,0,0,0,1 @ F,0,0,1,0,0,0,1 @ F,0,0,1,0,0,0,1 @ F,0,0,1,0,0,0,1 @ F,0,0,1,0,0,0,1 @ F,0,0,1,0,0,0,1 @ F,0,0,1,0,0,0,1 @ F,0,0,1,0,0,0,1 @ F,0,0,1,0,0,0,1 @ F,0,0,1,0,0,0,1 @ F,0,0,1,0,0,0,1 @ F,0,0,1,0,0,0,1 @ F,0,0,1,0,0,0,1 | F,0,0,1,0,0,0,1 @ F,0,0,1,0,0,0,1 @ F,0,0,1,0,0,0,1 @ F,0,0,1,0,0,0,1 @ F,0,0,1,0,0,0,1 @ F,0,0,1,0,0,0,1 @ F,0,0,1,0,0,0,1 @ F,0,0,1,0,0,0,1 @ F,0,0,1,0,0,0,1 @ F,0,0,1,0,0,0,1 @ F,0,0,1,0,0,0,1"
       unit="px"
       method="auto"
       mode="F"
       radius="0"
       chamfer_steps="1"
       flexible="false"
       use_knot_distance="true"
       apply_no_radius="true"
       apply_with_radius="true"
       only_selected="false"
       hide_knots="false" /><inkscape:path-effect
       effect="fillet_chamfer"
       id="path-effect54662"
       is_visible="true"
       lpeversion="1"
       nodesatellites_param="F,0,0,1,0,0,0,1 @ F,0,0,1,0,0,0,1 @ F,0,0,1,0,0,0,1 @ F,0,0,1,0,0,0,1 @ F,0,0,1,0,0,0,1 @ F,0,0,1,0,0,0,1 @ F,0,0,1,0,0,0,1 @ F,0,0,1,0,0,0,1 @ F,0,0,1,0,0,0,1 @ F,0,0,1,0,0,0,1 @ F,0,0,1,0,0,0,1 @ F,0,0,1,0,0,0,1 @ F,0,0,1,0,0,0,1 @ F,0,0,1,0,0,0,1 @ F,0,0,1,0,0,0,1 @ F,0,0,1,0,0,0,1 @ F,0,0,1,0,0,0,1 @ F,0,0,1,0,0,0,1 @ F,0,0,1,0,0,0,1 @ F,0,0,1,0,0,0,1 @ F,0,0,1,0,0,0,1 @ F,0,0,1,0,0,0,1 | F,0,0,1,0,0,0,1 @ F,0,0,1,0,0,0,1 @ F,0,0,1,0,0,0,1 @ F,0,0,1,0,0,0,1 @ F,0,0,1,0,0,0,1 @ F,0,0,1,0,0,0,1 @ F,0,0,1,0,0,0,1 @ F,0,0,1,0,0,0,1 @ F,0,0,1,0,0,0,1 @ F,0,0,1,0,0,0,1 @ F,0,0,1,0,0,0,1 | F,0,0,1,0,0,0,1 @ F,0,0,1,0,0,0,1 @ F,0,0,1,0,0,0,1 @ F,0,0,1,0,0,0,1 @ F,0,0,1,0,0,0,1 @ F,0,0,1,0,0,0,1 @ F,0,0,1,0,0,0,1 @ F,0,0,1,0,0,0,1 @ F,0,0,1,0,0,0,1 @ F,0,0,1,0,0,0,1 @ F,0,0,1,0,0,0,1 @ F,0,0,1,0,0,0,1 @ F,0,0,1,0,0,0,1 | F,0,0,1,0,0,0,1 @ F,0,0,1,0,0,0,1 @ F,0,0,1,0,0,0,1 @ F,0,0,1,0,0,0,1 @ F,0,0,1,0,0,0,1 @ F,0,0,1,0,0,0,1 @ F,0,0,1,0,0,0,1 @ F,0,0,1,0,0,0,1 @ F,0,0,1,0,0,0,1 | F,0,0,1,0,0,0,1 @ F,0,0,1,0,0,0,1 @ F,0,0,1,0,0,0,1 @ F,0,0,1,0,0,0,1 @ F,0,0,1,0,0,0,1 @ F,0,0,1,0,0,0,1 @ F,0,0,1,0,0,0,1 @ F,0,0,1,0,0,0,1 @ F,0,0,1,0,0,0,1 @ F,0,0,1,0,0,0,1 @ F,0,0,1,0,0,0,1 @ F,0,0,1,0,0,0,1 @ F,0,0,1,0,0,0,1 @ F,0,0,1,0,0,0,1 | F,0,0,1,0,0,0,1 @ F,0,0,1,0,0,0,1 @ F,0,0,1,0,0,0,1 @ F,0,0,1,0,0,0,1 @ F,0,0,1,0,0,0,1 @ F,0,0,1,0,0,0,1 @ F,0,0,1,0,0,0,1 @ F,0,0,1,0,0,0,1 @ F,0,0,1,0,0,0,1 @ F,0,0,1,0,0,0,1 @ F,0,0,1,0,0,0,1 @ F,0,0,1,0,0,0,1 @ F,0,0,1,0,0,0,1 @ F,0,0,1,0,0,0,1 @ F,0,0,1,0,0,0,1 @ F,0,0,1,0,0,0,1 | F,0,0,1,0,0,0,1 @ F,0,0,1,0,0,0,1 @ F,0,0,1,0,0,0,1 @ F,0,0,1,0,0,0,1 @ F,0,0,1,0,0,0,1 @ F,0,0,1,0,0,0,1 @ F,0,0,1,0,0,0,1 @ F,0,0,1,0,0,0,1 @ F,0,0,1,0,0,0,1 @ F,0,0,1,0,0,0,1 @ F,0,0,1,0,0,0,1"
       unit="px"
       method="auto"
       mode="F"
       radius="0"
       chamfer_steps="1"
       flexible="false"
       use_knot_distance="true"
       apply_no_radius="true"
       apply_with_radius="true"
       only_selected="false"
       hide_knots="false" /><inkscape:path-effect
       effect="fillet_chamfer"
       id="path-effect54656"
       is_visible="true"
       lpeversion="1"
       nodesatellites_param="F,0,0,1,0,0,0,1 @ F,0,0,1,0,0,0,1 @ F,0,0,1,0,0,0,1 @ F,0,0,1,0,0,0,1 @ F,0,0,1,0,0,0,1 @ F,0,0,1,0,0,0,1 @ F,0,0,1,0,0,0,1 @ F,0,0,1,0,0,0,1 @ F,0,0,1,0,0,0,1 @ F,0,0,1,0,0,0,1 @ F,0,0,1,0,0,0,1 @ F,0,0,1,0,0,0,1 @ F,0,0,1,0,0,0,1 @ F,0,0,1,0,0,0,1 @ F,0,0,1,0,0,0,1 @ F,0,0,1,0,0,0,1 @ F,0,0,1,0,0,0,1 @ F,0,0,1,0,0,0,1 @ F,0,0,1,0,0,0,1 @ F,0,0,1,0,0,0,1 @ F,0,0,1,0,0,0,1 @ F,0,0,1,0,0,0,1 | F,0,0,1,0,0,0,1 @ F,0,0,1,0,0,0,1 @ F,0,0,1,0,0,0,1 @ F,0,0,1,0,0,0,1 @ F,0,0,1,0,0,0,1 @ F,0,0,1,0,0,0,1 @ F,0,0,1,0,0,0,1 @ F,0,0,1,0,0,0,1 @ F,0,0,1,0,0,0,1 @ F,0,0,1,0,0,0,1 @ F,0,0,1,0,0,0,1 | F,0,0,1,0,0,0,1 @ F,0,0,1,0,0,0,1 @ F,0,0,1,0,0,0,1 @ F,0,0,1,0,0,0,1 @ F,0,0,1,0,0,0,1 @ F,0,0,1,0,0,0,1 @ F,0,0,1,0,0,0,1 @ F,0,0,1,0,0,0,1 @ F,0,0,1,0,0,0,1 @ F,0,0,1,0,0,0,1 @ F,0,0,1,0,0,0,1 @ F,0,0,1,0,0,0,1 @ F,0,0,1,0,0,0,1 | F,0,0,1,0,0,0,1 @ F,0,0,1,0,0,0,1 @ F,0,0,1,0,0,0,1 @ F,0,0,1,0,0,0,1 @ F,0,0,1,0,0,0,1 @ F,0,0,1,0,0,0,1 @ F,0,0,1,0,0,0,1 @ F,0,0,1,0,0,0,1 @ F,0,0,1,0,0,0,1 | F,0,0,1,0,0,0,1 @ F,0,0,1,0,0,0,1 @ F,0,0,1,0,0,0,1 @ F,0,0,1,0,0,0,1 @ F,0,0,1,0,0,0,1 @ F,0,0,1,0,0,0,1 @ F,0,0,1,0,0,0,1 @ F,0,0,1,0,0,0,1 @ F,0,0,1,0,0,0,1 @ F,0,0,1,0,0,0,1 @ F,0,0,1,0,0,0,1 @ F,0,0,1,0,0,0,1 @ F,0,0,1,0,0,0,1 @ F,0,0,1,0,0,0,1 | F,0,0,1,0,0,0,1 @ F,0,0,1,0,0,0,1 @ F,0,0,1,0,0,0,1 @ F,0,0,1,0,0,0,1 @ F,0,0,1,0,0,0,1 @ F,0,0,1,0,0,0,1 @ F,0,0,1,0,0,0,1 @ F,0,0,1,0,0,0,1 @ F,0,0,1,0,0,0,1 @ F,0,0,1,0,0,0,1 @ F,0,0,1,0,0,0,1 @ F,0,0,1,0,0,0,1 @ F,0,0,1,0,0,0,1 @ F,0,0,1,0,0,0,1 @ F,0,0,1,0,0,0,1 @ F,0,0,1,0,0,0,1 | F,0,0,1,0,0,0,1 @ F,0,0,1,0,0,0,1 @ F,0,0,1,0,0,0,1 @ F,0,0,1,0,0,0,1 @ F,0,0,1,0,0,0,1 @ F,0,0,1,0,0,0,1 @ F,0,0,1,0,0,0,1 @ F,0,0,1,0,0,0,1 @ F,0,0,1,0,0,0,1 @ F,0,0,1,0,0,0,1 @ F,0,0,1,0,0,0,1"
       unit="px"
       method="auto"
       mode="F"
       radius="0"
       chamfer_steps="1"
       flexible="false"
       use_knot_distance="true"
       apply_no_radius="true"
       apply_with_radius="true"
       only_selected="false"
       hide_knots="false" /><inkscape:path-effect
       effect="fillet_chamfer"
       id="path-effect54650"
       is_visible="true"
       lpeversion="1"
       nodesatellites_param="F,0,0,1,0,0,0,1 @ F,0,0,1,0,0,0,1 @ F,0,0,1,0,0,0,1 @ F,0,0,1,0,0,0,1 @ F,0,0,1,0,0,0,1 @ F,0,0,1,0,0,0,1 @ F,0,0,1,0,0,0,1 @ F,0,0,1,0,0,0,1 @ F,0,0,1,0,0,0,1 @ F,0,0,1,0,0,0,1 @ F,0,0,1,0,0,0,1 @ F,0,0,1,0,0,0,1 @ F,0,0,1,0,0,0,1 @ F,0,0,1,0,0,0,1 @ F,0,0,1,0,0,0,1 @ F,0,0,1,0,0,0,1 @ F,0,0,1,0,0,0,1 @ F,0,0,1,0,0,0,1 @ F,0,0,1,0,0,0,1 @ F,0,0,1,0,0,0,1 @ F,0,0,1,0,0,0,1 @ F,0,0,1,0,0,0,1 | F,0,0,1,0,0,0,1 @ F,0,0,1,0,0,0,1 @ F,0,0,1,0,0,0,1 @ F,0,0,1,0,0,0,1 @ F,0,0,1,0,0,0,1 @ F,0,0,1,0,0,0,1 @ F,0,0,1,0,0,0,1 @ F,0,0,1,0,0,0,1 @ F,0,0,1,0,0,0,1 @ F,0,0,1,0,0,0,1 @ F,0,0,1,0,0,0,1 | F,0,0,1,0,0,0,1 @ F,0,0,1,0,0,0,1 @ F,0,0,1,0,0,0,1 @ F,0,0,1,0,0,0,1 @ F,0,0,1,0,0,0,1 @ F,0,0,1,0,0,0,1 @ F,0,0,1,0,0,0,1 @ F,0,0,1,0,0,0,1 @ F,0,0,1,0,0,0,1 @ F,0,0,1,0,0,0,1 @ F,0,0,1,0,0,0,1 @ F,0,0,1,0,0,0,1 @ F,0,0,1,0,0,0,1 | F,0,0,1,0,0,0,1 @ F,0,0,1,0,0,0,1 @ F,0,0,1,0,0,0,1 @ F,0,0,1,0,0,0,1 @ F,0,0,1,0,0,0,1 @ F,0,0,1,0,0,0,1 @ F,0,0,1,0,0,0,1 @ F,0,0,1,0,0,0,1 @ F,0,0,1,0,0,0,1 | F,0,0,1,0,0,0,1 @ F,0,0,1,0,0,0,1 @ F,0,0,1,0,0,0,1 @ F,0,0,1,0,0,0,1 @ F,0,0,1,0,0,0,1 @ F,0,0,1,0,0,0,1 @ F,0,0,1,0,0,0,1 @ F,0,0,1,0,0,0,1 @ F,0,0,1,0,0,0,1 @ F,0,0,1,0,0,0,1 @ F,0,0,1,0,0,0,1 @ F,0,0,1,0,0,0,1 @ F,0,0,1,0,0,0,1 @ F,0,0,1,0,0,0,1 | F,0,0,1,0,0,0,1 @ F,0,0,1,0,0,0,1 @ F,0,0,1,0,0,0,1 @ F,0,0,1,0,0,0,1 @ F,0,0,1,0,0,0,1 @ F,0,0,1,0,0,0,1 @ F,0,0,1,0,0,0,1 @ F,0,0,1,0,0,0,1 @ F,0,0,1,0,0,0,1 @ F,0,0,1,0,0,0,1 @ F,0,0,1,0,0,0,1 @ F,0,0,1,0,0,0,1 @ F,0,0,1,0,0,0,1 @ F,0,0,1,0,0,0,1 @ F,0,0,1,0,0,0,1 @ F,0,0,1,0,0,0,1 | F,0,0,1,0,0,0,1 @ F,0,0,1,0,0,0,1 @ F,0,0,1,0,0,0,1 @ F,0,0,1,0,0,0,1 @ F,0,0,1,0,0,0,1 @ F,0,0,1,0,0,0,1 @ F,0,0,1,0,0,0,1 @ F,0,0,1,0,0,0,1 @ F,0,0,1,0,0,0,1 @ F,0,0,1,0,0,0,1 @ F,0,0,1,0,0,0,1"
       unit="px"
       method="auto"
       mode="F"
       radius="0"
       chamfer_steps="1"
       flexible="false"
       use_knot_distance="true"
       apply_no_radius="true"
       apply_with_radius="true"
       only_selected="false"
       hide_knots="false" /><inkscape:path-effect
       effect="fillet_chamfer"
       id="path-effect54644"
       is_visible="true"
       lpeversion="1"
       nodesatellites_param="F,0,0,1,0,0,0,1 @ F,0,0,1,0,0,0,1 @ F,0,0,1,0,0,0,1 @ F,0,0,1,0,0,0,1 @ F,0,0,1,0,0,0,1 @ F,0,0,1,0,0,0,1 @ F,0,0,1,0,0,0,1 @ F,0,0,1,0,0,0,1 @ F,0,0,1,0,0,0,1 @ F,0,0,1,0,0,0,1 @ F,0,0,1,0,0,0,1 @ F,0,0,1,0,0,0,1 @ F,0,0,1,0,0,0,1 @ F,0,0,1,0,0,0,1 @ F,0,0,1,0,0,0,1 @ F,0,0,1,0,0,0,1 @ F,0,0,1,0,0,0,1 @ F,0,0,1,0,0,0,1 @ F,0,0,1,0,0,0,1 @ F,0,0,1,0,0,0,1 @ F,0,0,1,0,0,0,1 @ F,0,0,1,0,0,0,1 | F,0,0,1,0,0,0,1 @ F,0,0,1,0,0,0,1 @ F,0,0,1,0,0,0,1 @ F,0,0,1,0,0,0,1 @ F,0,0,1,0,0,0,1 @ F,0,0,1,0,0,0,1 @ F,0,0,1,0,0,0,1 @ F,0,0,1,0,0,0,1 @ F,0,0,1,0,0,0,1 @ F,0,0,1,0,0,0,1 @ F,0,0,1,0,0,0,1 | F,0,0,1,0,0,0,1 @ F,0,0,1,0,0,0,1 @ F,0,0,1,0,0,0,1 @ F,0,0,1,0,0,0,1 @ F,0,0,1,0,0,0,1 @ F,0,0,1,0,0,0,1 @ F,0,0,1,0,0,0,1 @ F,0,0,1,0,0,0,1 @ F,0,0,1,0,0,0,1 @ F,0,0,1,0,0,0,1 @ F,0,0,1,0,0,0,1 @ F,0,0,1,0,0,0,1 @ F,0,0,1,0,0,0,1 | F,0,0,1,0,0,0,1 @ F,0,0,1,0,0,0,1 @ F,0,0,1,0,0,0,1 @ F,0,0,1,0,0,0,1 @ F,0,0,1,0,0,0,1 @ F,0,0,1,0,0,0,1 @ F,0,0,1,0,0,0,1 @ F,0,0,1,0,0,0,1 @ F,0,0,1,0,0,0,1 | F,0,0,1,0,0,0,1 @ F,0,0,1,0,0,0,1 @ F,0,0,1,0,0,0,1 @ F,0,0,1,0,0,0,1 @ F,0,0,1,0,0,0,1 @ F,0,0,1,0,0,0,1 @ F,0,0,1,0,0,0,1 @ F,0,0,1,0,0,0,1 @ F,0,0,1,0,0,0,1 @ F,0,0,1,0,0,0,1 @ F,0,0,1,0,0,0,1 @ F,0,0,1,0,0,0,1 @ F,0,0,1,0,0,0,1 @ F,0,0,1,0,0,0,1 | F,0,0,1,0,0,0,1 @ F,0,0,1,0,0,0,1 @ F,0,0,1,0,0,0,1 @ F,0,0,1,0,0,0,1 @ F,0,0,1,0,0,0,1 @ F,0,0,1,0,0,0,1 @ F,0,0,1,0,0,0,1 @ F,0,0,1,0,0,0,1 @ F,0,0,1,0,0,0,1 @ F,0,0,1,0,0,0,1 @ F,0,0,1,0,0,0,1 @ F,0,0,1,0,0,0,1 @ F,0,0,1,0,0,0,1 @ F,0,0,1,0,0,0,1 @ F,0,0,1,0,0,0,1 @ F,0,0,1,0,0,0,1 | F,0,0,1,0,0,0,1 @ F,0,0,1,0,0,0,1 @ F,0,0,1,0,0,0,1 @ F,0,0,1,0,0,0,1 @ F,0,0,1,0,0,0,1 @ F,0,0,1,0,0,0,1 @ F,0,0,1,0,0,0,1 @ F,0,0,1,0,0,0,1 @ F,0,0,1,0,0,0,1 @ F,0,0,1,0,0,0,1 @ F,0,0,1,0,0,0,1"
       unit="px"
       method="auto"
       mode="F"
       radius="0"
       chamfer_steps="1"
       flexible="false"
       use_knot_distance="true"
       apply_no_radius="true"
       apply_with_radius="true"
       only_selected="false"
       hide_knots="false" /><inkscape:path-effect
       effect="fillet_chamfer"
       id="path-effect54638"
       is_visible="true"
       lpeversion="1"
       nodesatellites_param="F,0,0,1,0,0,0,1 @ F,0,0,1,0,0,0,1 @ F,0,0,1,0,0,0,1 @ F,0,0,1,0,0,0,1 @ F,0,0,1,0,0,0,1 @ F,0,0,1,0,0,0,1 @ F,0,0,1,0,0,0,1 @ F,0,0,1,0,0,0,1 @ F,0,0,1,0,0,0,1 @ F,0,0,1,0,0,0,1 @ F,0,0,1,0,0,0,1 @ F,0,0,1,0,0,0,1 @ F,0,0,1,0,0,0,1 @ F,0,0,1,0,0,0,1 @ F,0,0,1,0,0,0,1 @ F,0,0,1,0,0,0,1 @ F,0,0,1,0,0,0,1 @ F,0,0,1,0,0,0,1 @ F,0,0,1,0,0,0,1 @ F,0,0,1,0,0,0,1 @ F,0,0,1,0,0,0,1 @ F,0,0,1,0,0,0,1 | F,0,0,1,0,0,0,1 @ F,0,0,1,0,0,0,1 @ F,0,0,1,0,0,0,1 @ F,0,0,1,0,0,0,1 @ F,0,0,1,0,0,0,1 @ F,0,0,1,0,0,0,1 @ F,0,0,1,0,0,0,1 @ F,0,0,1,0,0,0,1 @ F,0,0,1,0,0,0,1 @ F,0,0,1,0,0,0,1 @ F,0,0,1,0,0,0,1 | F,0,0,1,0,0,0,1 @ F,0,0,1,0,0,0,1 @ F,0,0,1,0,0,0,1 @ F,0,0,1,0,0,0,1 @ F,0,0,1,0,0,0,1 @ F,0,0,1,0,0,0,1 @ F,0,0,1,0,0,0,1 @ F,0,0,1,0,0,0,1 @ F,0,0,1,0,0,0,1 @ F,0,0,1,0,0,0,1 @ F,0,0,1,0,0,0,1 @ F,0,0,1,0,0,0,1 @ F,0,0,1,0,0,0,1 | F,0,0,1,0,0,0,1 @ F,0,0,1,0,0,0,1 @ F,0,0,1,0,0,0,1 @ F,0,0,1,0,0,0,1 @ F,0,0,1,0,0,0,1 @ F,0,0,1,0,0,0,1 @ F,0,0,1,0,0,0,1 @ F,0,0,1,0,0,0,1 @ F,0,0,1,0,0,0,1 | F,0,0,1,0,0,0,1 @ F,0,0,1,0,0,0,1 @ F,0,0,1,0,0,0,1 @ F,0,0,1,0,0,0,1 @ F,0,0,1,0,0,0,1 @ F,0,0,1,0,0,0,1 @ F,0,0,1,0,0,0,1 @ F,0,0,1,0,0,0,1 @ F,0,0,1,0,0,0,1 @ F,0,0,1,0,0,0,1 @ F,0,0,1,0,0,0,1 @ F,0,0,1,0,0,0,1 @ F,0,0,1,0,0,0,1 @ F,0,0,1,0,0,0,1 | F,0,0,1,0,0,0,1 @ F,0,0,1,0,0,0,1 @ F,0,0,1,0,0,0,1 @ F,0,0,1,0,0,0,1 @ F,0,0,1,0,0,0,1 @ F,0,0,1,0,0,0,1 @ F,0,0,1,0,0,0,1 @ F,0,0,1,0,0,0,1 @ F,0,0,1,0,0,0,1 @ F,0,0,1,0,0,0,1 @ F,0,0,1,0,0,0,1 @ F,0,0,1,0,0,0,1 @ F,0,0,1,0,0,0,1 @ F,0,0,1,0,0,0,1 @ F,0,0,1,0,0,0,1 @ F,0,0,1,0,0,0,1 | F,0,0,1,0,0,0,1 @ F,0,0,1,0,0,0,1 @ F,0,0,1,0,0,0,1 @ F,0,0,1,0,0,0,1 @ F,0,0,1,0,0,0,1 @ F,0,0,1,0,0,0,1 @ F,0,0,1,0,0,0,1 @ F,0,0,1,0,0,0,1 @ F,0,0,1,0,0,0,1 @ F,0,0,1,0,0,0,1 @ F,0,0,1,0,0,0,1"
       unit="px"
       method="auto"
       mode="F"
       radius="0"
       chamfer_steps="1"
       flexible="false"
       use_knot_distance="true"
       apply_no_radius="true"
       apply_with_radius="true"
       only_selected="false"
       hide_knots="false" /><inkscape:path-effect
       effect="fillet_chamfer"
       id="path-effect54614"
       is_visible="true"
       lpeversion="1"
       nodesatellites_param="F,0,0,1,0,0,0,1 @ F,0,0,1,0,0,0,1 @ F,0,0,1,0,0,0,1 @ F,0,0,1,0,0,0,1 @ F,0,0,1,0,0,0,1 @ F,0,0,1,0,0,0,1 @ F,0,0,1,0,0,0,1 @ F,0,0,1,0,0,0,1 @ F,0,0,1,0,0,0,1 @ F,0,0,1,0,0,0,1 @ F,0,0,1,0,0,0,1 @ F,0,0,1,0,0,0,1 @ F,0,0,1,0,0,0,1 @ F,0,0,1,0,0,0,1 @ F,0,0,1,0,0,0,1 @ F,0,0,1,0,0,0,1 @ F,0,0,1,0,0,0,1 @ F,0,0,1,0,0,0,1 @ F,0,0,1,0,0,0,1 @ F,0,0,1,0,0,0,1 @ F,0,0,1,0,0,0,1 @ F,0,0,1,0,0,0,1 | F,0,0,1,0,0,0,1 @ F,0,0,1,0,0,0,1 @ F,0,0,1,0,0,0,1 @ F,0,0,1,0,0,0,1 @ F,0,0,1,0,0,0,1 @ F,0,0,1,0,0,0,1 @ F,0,0,1,0,0,0,1 @ F,0,0,1,0,0,0,1 @ F,0,0,1,0,0,0,1 @ F,0,0,1,0,0,0,1 @ F,0,0,1,0,0,0,1 | F,0,0,1,0,0,0,1 @ F,0,0,1,0,0,0,1 @ F,0,0,1,0,0,0,1 @ F,0,0,1,0,0,0,1 @ F,0,0,1,0,0,0,1 @ F,0,0,1,0,0,0,1 @ F,0,0,1,0,0,0,1 @ F,0,0,1,0,0,0,1 @ F,0,0,1,0,0,0,1 @ F,0,0,1,0,0,0,1 @ F,0,0,1,0,0,0,1 @ F,0,0,1,0,0,0,1 @ F,0,0,1,0,0,0,1 | F,0,0,1,0,0,0,1 @ F,0,0,1,0,0,0,1 @ F,0,0,1,0,0,0,1 @ F,0,0,1,0,0,0,1 @ F,0,0,1,0,0,0,1 @ F,0,0,1,0,0,0,1 @ F,0,0,1,0,0,0,1 @ F,0,0,1,0,0,0,1 @ F,0,0,1,0,0,0,1 | F,0,0,1,0,0,0,1 @ F,0,0,1,0,0,0,1 @ F,0,0,1,0,0,0,1 @ F,0,0,1,0,0,0,1 @ F,0,0,1,0,0,0,1 @ F,0,0,1,0,0,0,1 @ F,0,0,1,0,0,0,1 @ F,0,0,1,0,0,0,1 @ F,0,0,1,0,0,0,1 @ F,0,0,1,0,0,0,1 @ F,0,0,1,0,0,0,1 @ F,0,0,1,0,0,0,1 @ F,0,0,1,0,0,0,1 @ F,0,0,1,0,0,0,1 | F,0,0,1,0,0,0,1 @ F,0,0,1,0,0,0,1 @ F,0,0,1,0,0,0,1 @ F,0,0,1,0,0,0,1 @ F,0,0,1,0,0,0,1 @ F,0,0,1,0,0,0,1 @ F,0,0,1,0,0,0,1 @ F,0,0,1,0,0,0,1 @ F,0,0,1,0,0,0,1 @ F,0,0,1,0,0,0,1 @ F,0,0,1,0,0,0,1 @ F,0,0,1,0,0,0,1 @ F,0,0,1,0,0,0,1 @ F,0,0,1,0,0,0,1 @ F,0,0,1,0,0,0,1 @ F,0,0,1,0,0,0,1 | F,0,0,1,0,0,0,1 @ F,0,0,1,0,0,0,1 @ F,0,0,1,0,0,0,1 @ F,0,0,1,0,0,0,1 @ F,0,0,1,0,0,0,1 @ F,0,0,1,0,0,0,1 @ F,0,0,1,0,0,0,1 @ F,0,0,1,0,0,0,1 @ F,0,0,1,0,0,0,1 @ F,0,0,1,0,0,0,1 @ F,0,0,1,0,0,0,1"
       unit="px"
       method="auto"
       mode="F"
       radius="0"
       chamfer_steps="1"
       flexible="false"
       use_knot_distance="true"
       apply_no_radius="true"
       apply_with_radius="true"
       only_selected="false"
       hide_knots="false" /><inkscape:path-effect
       effect="fillet_chamfer"
       id="path-effect54612"
       is_visible="true"
       lpeversion="1"
       nodesatellites_param="F,0,0,1,0,0,0,1 @ F,0,0,1,0,0,0,1 @ F,0,0,1,0,0,0,1 @ F,0,0,1,0,0,0,1 @ F,0,0,1,0,0,0,1 @ F,0,0,1,0,0,0,1 @ F,0,0,1,0,0,0,1 @ F,0,0,1,0,0,0,1 @ F,0,0,1,0,0,0,1 @ F,0,0,1,0,0,0,1 @ F,0,0,1,0,0,0,1 @ F,0,0,1,0,0,0,1 @ F,0,0,1,0,0,0,1 @ F,0,0,1,0,0,0,1 @ F,0,0,1,0,0,0,1 @ F,0,0,1,0,0,0,1 @ F,0,0,1,0,0,0,1 @ F,0,0,1,0,0,0,1 @ F,0,0,1,0,0,0,1 @ F,0,0,1,0,0,0,1 @ F,0,0,1,0,0,0,1 @ F,0,0,1,0,0,0,1 | F,0,0,1,0,0,0,1 @ F,0,0,1,0,0,0,1 @ F,0,0,1,0,0,0,1 @ F,0,0,1,0,0,0,1 @ F,0,0,1,0,0,0,1 @ F,0,0,1,0,0,0,1 @ F,0,0,1,0,0,0,1 @ F,0,0,1,0,0,0,1 @ F,0,0,1,0,0,0,1 @ F,0,0,1,0,0,0,1 @ F,0,0,1,0,0,0,1 | F,0,0,1,0,0,0,1 @ F,0,0,1,0,0,0,1 @ F,0,0,1,0,0,0,1 @ F,0,0,1,0,0,0,1 @ F,0,0,1,0,0,0,1 @ F,0,0,1,0,0,0,1 @ F,0,0,1,0,0,0,1 @ F,0,0,1,0,0,0,1 @ F,0,0,1,0,0,0,1 @ F,0,0,1,0,0,0,1 @ F,0,0,1,0,0,0,1 @ F,0,0,1,0,0,0,1 @ F,0,0,1,0,0,0,1 | F,0,0,1,0,0,0,1 @ F,0,0,1,0,0,0,1 @ F,0,0,1,0,0,0,1 @ F,0,0,1,0,0,0,1 @ F,0,0,1,0,0,0,1 @ F,0,0,1,0,0,0,1 @ F,0,0,1,0,0,0,1 @ F,0,0,1,0,0,0,1 @ F,0,0,1,0,0,0,1 | F,0,0,1,0,0,0,1 @ F,0,0,1,0,0,0,1 @ F,0,0,1,0,0,0,1 @ F,0,0,1,0,0,0,1 @ F,0,0,1,0,0,0,1 @ F,0,0,1,0,0,0,1 @ F,0,0,1,0,0,0,1 @ F,0,0,1,0,0,0,1 @ F,0,0,1,0,0,0,1 @ F,0,0,1,0,0,0,1 @ F,0,0,1,0,0,0,1 @ F,0,0,1,0,0,0,1 @ F,0,0,1,0,0,0,1 @ F,0,0,1,0,0,0,1 @ F,0,0,1,0,0,0,1 @ F,0,0,1,0,0,0,1 | F,0,0,1,0,0,0,1 @ F,0,0,1,0,0,0,1 @ F,0,0,1,0,0,0,1 @ F,0,0,1,0,0,0,1 @ F,0,0,1,0,0,0,1 @ F,0,0,1,0,0,0,1 @ F,0,0,1,0,0,0,1 @ F,0,0,1,0,0,0,1 @ F,0,0,1,0,0,0,1 @ F,0,0,1,0,0,0,1 @ F,0,0,1,0,0,0,1 @ F,0,0,1,0,0,0,1 @ F,0,0,1,0,0,0,1 @ F,0,0,1,0,0,0,1 @ F,0,0,1,0,0,0,1 @ F,0,0,1,0,0,0,1 | F,0,0,1,0,0,0,1 @ F,0,0,1,0,0,0,1 @ F,0,0,1,0,0,0,1 @ F,0,0,1,0,0,0,1 @ F,0,0,1,0,0,0,1 @ F,0,0,1,0,0,0,1 @ F,0,0,1,0,0,0,1 @ F,0,0,1,0,0,0,1 @ F,0,0,1,0,0,0,1 @ F,0,0,1,0,0,0,1 @ F,0,0,1,0,0,0,1"
       unit="px"
       method="auto"
       mode="F"
       radius="0"
       chamfer_steps="1"
       flexible="false"
       use_knot_distance="true"
       apply_no_radius="true"
       apply_with_radius="true"
       only_selected="false"
       hide_knots="false" /><clipPath
       clipPathUnits="userSpaceOnUse"
       id="clipPath9828"><path
         d="m 968,715 c 0,-172.313 139.69,-312 312,-312 172.31,0 312,139.687 312,312 0,172.313 -139.69,312 -312,312 -172.31,0 -312,-139.687 -312,-312 z"
         fill="#ffffff"
         fill-rule="evenodd"
         id="path9830"
         style="display:none;stroke-width:0.999999" /><path
         id="lpe_path-effect9832"
         style="stroke-width:0.999999"
         class="powerclip"
         d="M 869.833,312.833 H 1691.36 V 1133.17 H 869.833 Z M 968,715 c 0,172.313 139.69,312 312,312 172.31,0 312,-139.687 312,-312 0,-172.313 -139.69,-312 -312,-312 -172.31,0 -312,139.687 -312,312 z" /></clipPath><inkscape:path-effect
       effect="powerclip"
       id="path-effect9832"
       is_visible="true"
       lpeversion="1"
       inverse="true"
       flatten="false"
       hide_clip="false"
       message="Use fill-rule evenodd on &lt;b&gt;fill and stroke&lt;/b&gt; dialog if no flatten result after convert clip to paths." /><clipPath
       id="clip0"><path
         d="M 573.906,399.945 1603.4,17.2523 1986.09,1046.74 956.599,1429.44 Z"
         fill-rule="evenodd"
         clip-rule="evenodd"
         id="path9717" /></clipPath><clipPath
       id="clip1-6"><path
         d="M 573.906,399.945 1603.4,17.2523 1986.09,1046.74 956.599,1429.44 Z"
         fill-rule="evenodd"
         clip-rule="evenodd"
         id="path9720" /></clipPath><clipPath
       id="clip2"><path
         d="M 573.906,399.945 1603.4,17.2523 1986.09,1046.74 956.599,1429.44 Z"
         fill-rule="evenodd"
         clip-rule="evenodd"
         id="path9723" /></clipPath><clipPath
       clipPathUnits="userSpaceOnUse"
       id="clipPath9800"><path
         d="m 1016,715 c 0,-145.80299 118.2,-264 264,-264 145.8,0 264,118.19701 264,264 0,145.80299 -118.2,263.99999 -264,263.99999 -145.8,0 -264,-118.197 -264,-263.99999 z"
         fill="#ffffff"
         fill-rule="evenodd"
         id="path9802"
         style="display:none;stroke-width:0.999999" /><path
         id="lpe_path-effect9804"
         style="stroke-width:0.999999"
         class="powerclip"
         d="m 987,422 h 586 v 586 H 987 Z m 29,293 c 0,145.80299 118.2,263.99999 264,263.99999 145.8,0 264,-118.197 264,-263.99999 0,-145.80299 -118.2,-264 -264,-264 -145.8,0 -264,118.19701 -264,264 z" /></clipPath><inkscape:path-effect
       effect="powerclip"
       id="path-effect9804"
       is_visible="true"
       lpeversion="1"
       inverse="true"
       flatten="false"
       hide_clip="false"
       message="Use fill-rule evenodd on &lt;b&gt;fill and stroke&lt;/b&gt; dialog if no flatten result after convert clip to paths." /><clipPath
       id="clip1"><rect
         x="0"
         y="0"
         width="4160095"
         height="4225636"
         id="rect11348" /></clipPath><clipPath
       clipPathUnits="userSpaceOnUse"
       id="clipEmfPath1"><path
         d="M 0,0 H 134.75591 V 34.535433 H 0 Z"
         id="path44543" /></clipPath><pattern
       id="EMFhbasepattern"
       patternUnits="userSpaceOnUse"
       width="6"
       height="6"
       x="0"
       y="0" /><clipPath
       clipPathUnits="userSpaceOnUse"
       id="clipEmfPath1-8"><path
         d="M 0,0 H 142.20472 V 34.535433 H 0 Z"
         id="path47535" /></clipPath><pattern
       id="EMFhbasepattern-3"
       patternUnits="userSpaceOnUse"
       width="6"
       height="6"
       x="0"
       y="0" /></defs><g
     id="g31525"
     transform="translate(0.00761715,0.00622066)"><g
       inkscape:label="Layer 1"
       inkscape:groupmode="layer"
       id="layer1"><g
         transform="matrix(0.30974639,0,0,0.30974639,-465.8183,-65.892349)"
         id="g637"
         style="display:inline;overflow:hidden"><g
           id="g10007"
           inkscape:label="corner"
           sodipodi:insensitive="true"><rect
             x="3064.5"
             y="1848.5"
             width="16.9998"
             height="330"
             stroke="#1f498a"
             stroke-width="4.58333"
             stroke-miterlimit="8"
             fill="#1f498a"
             id="rect625" /><rect
             x="2751.5"
             y="2161.5"
             width="330"
             height="16.9998"
             stroke="#1f498a"
             stroke-width="4.58333"
             stroke-miterlimit="8"
             fill="#1f498a"
             id="rect627" /></g><g
           style="display:inline;overflow:hidden"
           id="g682"
           transform="translate(1381,81.000002)"
           inkscape:label="gear"><g
             transform="matrix(0.30314174,0,0,0.30358689,1143.7394,1711.0807)"
             id="g9762"
             style="display:inline"
             sodipodi:insensitive="true"><g
               id="g9826"
               clip-path="url(#clipPath9828)"
               style="display:inline"
               inkscape:path-effect="#path-effect9832"><g
                 id="g9734"
                 style="display:inline"><g
                   id="g9732"><g
                     id="g9730"><path
                       d="m 1280,866 c -78.65,0 -143,-64.35 -143,-143 0,-78.65 64.35,-143 143,-143 78.65,0 143,64.35 143,143 0,78.65 -64.35,143 -143,143 z m 321.75,-232.375 c -7.15,-26.217 -17.87,-51.242 -30.98,-73.883 l 29.79,-89.375 -67.93,-67.925 -89.37,29.791 C 1419.43,419.125 1394.4,408.4 1368.18,401.25 l -40.51,-83.417 h -95.34 l -41.71,83.417 c -26.21,7.15 -51.24,17.875 -73.88,30.983 l -89.37,-29.791 -67.928,67.925 29.791,89.375 C 976.125,583.575 965.4,608.6 958.25,634.817 l -83.417,40.516 v 95.334 l 83.417,41.708 c 7.15,26.217 17.875,51.242 30.983,73.883 l -29.791,89.375 67.928,67.927 89.37,-29.79 c 23.83,13.11 48.86,23.83 75.08,30.98 l 41.71,83.42 h 95.33 l 41.71,-83.42 c 26.21,-7.15 51.24,-17.87 73.88,-30.98 l 89.38,29.79 67.92,-67.927 -29.79,-89.375 c 13.11,-23.833 23.83,-48.858 30.98,-75.075 l 83.42,-41.708 v -95.333 z"
                       fill="#1f498a"
                       id="path9728"
                       inkscape:original-d="m 1280,866 c -78.65,0 -143,-64.35 -143,-143 0,-78.65 64.35,-143 143,-143 78.65,0 143,64.35 143,143 0,78.65 -64.35,143 -143,143 z m 321.75,-232.375 c -7.15,-26.217 -17.87,-51.242 -30.98,-73.883 l 29.79,-89.375 -67.93,-67.925 -89.37,29.791 C 1419.43,419.125 1394.4,408.4 1368.18,401.25 l -40.51,-83.417 h -95.34 l -41.71,83.417 c -26.21,7.15 -51.24,17.875 -73.88,30.983 l -89.37,-29.791 -67.928,67.925 29.791,89.375 C 976.125,583.575 965.4,608.6 958.25,634.817 l -83.417,40.516 v 95.334 l 83.417,41.708 c 7.15,26.217 17.875,51.242 30.983,73.883 l -29.791,89.375 67.928,67.927 89.37,-29.79 c 23.83,13.11 48.86,23.83 75.08,30.98 l 41.71,83.42 h 95.33 l 41.71,-83.42 c 26.21,-7.15 51.24,-17.87 73.88,-30.98 l 89.38,29.79 67.92,-67.927 -29.79,-89.375 c 13.11,-23.833 23.83,-48.858 30.98,-75.075 l 83.42,-41.708 v -95.333 z" /></g></g></g><g
                 clip-path="url(#clip0)"
                 id="g9742"
                 style="display:inline"><g
                   clip-path="url(#clip1-6)"
                   id="g9740"><g
                     clip-path="url(#clip2)"
                     id="g9738"><path
                       d="m 1327.83,852.031 c -70.77,26.31 -150.21,-10.073 -176.52,-80.85 -26.31,-70.778 10.07,-150.213 80.85,-176.523 70.78,-26.31 150.21,10.072 176.52,80.85 26.31,70.777 -10.07,150.213 -80.85,176.523 z m 211.82,-316.748 c -15.21,-21.201 -33.23,-40.133 -52.6,-56.123 l -3.09,-90.395 -83.85,-38.404 -70.46,56.707 c -25.84,-3.823 -51.94,-5.103 -77.93,-2.767 l -64.36,-61.514 -85.79,31.891 -9.63,89.02 c -21.2,15.204 -40.14,33.227 -56.13,52.597 l -90.391,3.088 -38.404,83.849 56.708,70.463 c -3.824,25.833 -5.104,51.94 -2.768,77.925 l -61.514,64.366 31.891,85.791 89.018,9.629 c 15.21,21.2 33.23,40.133 52.6,56.123 l 3.09,90.391 83.85,38.41 70.46,-56.71 c 25.83,3.82 51.94,5.1 77.92,2.77 l 65.44,61.11 85.79,-31.89 9.63,-89.018 c 21.2,-15.204 40.14,-33.227 56.13,-52.597 l 90.39,-3.089 38.4,-83.848 -56.7,-70.463 c 3.82,-25.833 5.1,-51.941 2.76,-77.925 l 61.12,-65.438 -31.89,-85.791 z"
                       fill="#1f498a"
                       id="path9736"
                       inkscape:original-d="m 1327.83,852.031 c -70.77,26.31 -150.21,-10.073 -176.52,-80.85 -26.31,-70.778 10.07,-150.213 80.85,-176.523 70.78,-26.31 150.21,10.072 176.52,80.85 26.31,70.777 -10.07,150.213 -80.85,176.523 z m 211.82,-316.748 c -15.21,-21.201 -33.23,-40.133 -52.6,-56.123 l -3.09,-90.395 -83.85,-38.404 -70.46,56.707 c -25.84,-3.823 -51.94,-5.103 -77.93,-2.767 l -64.36,-61.514 -85.79,31.891 -9.63,89.02 c -21.2,15.204 -40.14,33.227 -56.13,52.597 l -90.391,3.088 -38.404,83.849 56.708,70.463 c -3.824,25.833 -5.104,51.94 -2.768,77.925 l -61.514,64.366 31.891,85.791 89.018,9.629 c 15.21,21.2 33.23,40.133 52.6,56.123 l 3.09,90.391 83.85,38.41 70.46,-56.71 c 25.83,3.82 51.94,5.1 77.92,2.77 l 65.44,61.11 85.79,-31.89 9.63,-89.018 c 21.2,-15.204 40.14,-33.227 56.13,-52.597 l 90.39,-3.089 38.4,-83.848 -56.7,-70.463 c 3.82,-25.833 5.1,-51.941 2.76,-77.925 l 61.12,-65.438 -31.89,-85.791 z" /></g></g></g></g><path
               d="m 992,715 c 0,-159.058 128.94,-288 288,-288 159.06,0 288,128.942 288,288 0,159.058 -128.94,288 -288,288 -159.06,0 -288,-128.942 -288,-288 z"
               fill="#a0a0a0"
               fill-rule="evenodd"
               id="path9746"
               clip-path="url(#clipPath9800)"
               inkscape:path-effect="#path-effect9804"
               inkscape:original-d="m 992,715 c 0,-159.058 128.94,-288 288,-288 159.06,0 288,128.942 288,288 0,159.058 -128.94,288 -288,288 -159.06,0 -288,-128.942 -288,-288 z"
               sodipodi:insensitive="true"
               style="display:inline" /><g
               id="g9760"
               style="display:inline"><g
                 id="g9758"
                 style="display:inline"><g
                   id="g9756"
                   sodipodi:insensitive="true"
                   style="display:inline"><path
                     d="m 1154,859.2 c -2.8,2.8 -6.4,3.6 -10,2 -3.6,-1.6 -5.6,-4.8 -5.6,-8.4 0,-3.6 2.4,-7.2 5.6,-8.4 3.6,-1.6 7.2,-0.8 10,2 3.6,3.2 3.6,9.2 0,12.8 z m 282.4,-263.6 -32.4,32.4 -25.6,-6.8 -6.4,-25.2 32.4,-32.4 c -19.2,-7.2 -40.8,-2.8 -56,10.8 -15.2,14 -21.2,34.8 -16,54.8 l -204,204 c -7.2,6.8 -10,17.2 -7.6,26.8 2.4,9.6 10,17.2 19.6,19.6 9.6,2.4 19.6,-0.4 26.8,-7.6 l 204,-204 c 20,5.2 40.8,-0.8 54.8,-16 13.6,-15.2 18,-37.2 10.4,-56.4 z"
                     fill="#1f498a"
                     id="path9750" /><path
                     d="M 1434.8,833.2 1331.6,730 l -41.6,41.6 100,100 3.6,3.6 0.4,-0.4 c 11.6,8.4 27.6,6.8 37.6,-3.2 10,-10.4 11.2,-26.4 3.2,-38.4 z"
                     fill="#1f498a"
                     id="path9752" /><path
                     d="m 1178.4,607.2 0.4,-0.4 -10.4,-19.2 -34.4,-27.6 -14,14 27.6,34.4 19.2,10.4 0.4,-0.4 76.4,76.4 11.2,-11.2 z"
                     fill="#1f498a"
                     id="path9754" /></g></g></g></g></g><g
           aria-label="TARAVELLA"
           id="text585"
           style="font-weight:700;font-size:201.964px;font-family:Metropolis, Metropolis_MSFontService, sans-serif;display:inline;overflow:hidden;fill:#ffffff;stroke-width:0.999818"
           inkscape:label="taravella"><path
             d="m 1552.1443,1986.9169 h 29.8907 v -111.8881 h 43.2203 v -26.8612 H 1508.924 v 26.8612 h 43.2203 z"
             id="path2403" /><path
             d="m 1736.5374,1986.9169 h 33.5261 l -56.55,-138.7493 h -33.324 l -56.5499,138.7493 h 33.324 l 8.8864,-21.8121 h 61.801 z m -60.3872,-47.0576 20.6003,-50.693 20.6004,50.693 z"
             id="path2405" /><path
             d="m 1903.7635,1986.9169 -34.1319,-48.4714 c 18.9846,-6.6648 31.5064,-22.8219 31.5064,-43.4223 0,-27.4671 -22.2161,-46.8556 -52.3087,-46.8556 h -62.4069 v 138.7493 h 29.6887 v -45.038 h 22.0141 l 31.7084,45.038 z m -87.6524,-111.4842 h 29.4868 c 14.7434,0 24.8416,7.6747 24.8416,19.5905 0,11.9159 -10.0982,19.5906 -24.8416,19.5906 h -29.4868 z"
             id="path2407" /><path
             d="m 2025.1438,1986.9169 h 33.526 l -56.5499,-138.7493 h -33.3241 l -56.5499,138.7493 h 33.3241 l 8.8864,-21.8121 h 61.801 z m -60.3873,-47.0576 20.6004,-50.693 20.6003,50.693 z"
             id="path2409" /><path
             d="m 2159.4497,1848.1676 -39.7869,97.7506 -39.7869,-97.7506 h -33.526 l 56.5499,138.7493 h 33.3241 l 56.5499,-138.7493 z"
             id="path2411" /><path
             d="m 2315.9717,1875.0288 v -26.8612 h -106.8389 v 138.7493 h 106.8389 v -26.8612 h -76.9482 v -30.4966 h 69.6775 v -26.8612 h -69.6775 v -27.6691 z"
             id="path2413" /><path
             d="m 2367.4727,1960.0557 v -111.8881 h -29.8907 v 138.7493 h 98.9624 v -26.8612 z"
             id="path2415" /><path
             d="m 2484.6118,1960.0557 v -111.8881 h -29.8906 v 138.7493 h 98.9623 v -26.8612 z"
             id="path2417" /><path
             d="m 2674.6599,1986.9169 h 33.526 l -56.5499,-138.7493 h -33.3241 l -56.5499,138.7493 h 33.3241 l 8.8864,-21.8121 h 61.801 z m -60.3873,-47.0576 20.6004,-50.693 20.6003,50.693 z"
             id="path2419" /></g><g
           id="g54634"
           transform="matrix(0.82489537,0,0,0.82489537,363.87986,729.02955)"
           inkscape:label="logo sanc"
           style="display:inline"><g
             id="g54622"
             transform="matrix(0.95022588,0,0,0.95022588,-269.07286,-714.81216)"
             style="display:inline;overflow:hidden"
             inkscape:label="sanctuary"><path
               d="m 2897.8941,2576.041 v -80.456 l 5.0158,-11.4133 h -17.4916 l -36.3036,-60.7889 h 31.7093 l 30.6675,47.7606 32.0285,-47.7606 h 31.3078 l -49.1436,81.0227 v 71.4448 z"
               style="fill:#1f498a;fill-opacity:1;stroke-width:3.73839"
               id="path54616"
               sodipodi:nodetypes="cccccccccccc"
               inkscape:label="y" /><path
               d="m 2717.8316,2575.8503 v -152.4675 h 83.5969 c 23.6569,1.1035 29.2713,13.6339 27.9693,30.5446 v 46.81 c -0.5407,13.6893 -5.526,23.7126 -17.1939,28.6894 l 23.1994,46.4235 h -29.6375 l -24.3433,-46.4235 h -24.013 l 8.0718,-28.6894 h 16.3036 13.3745 a 6.2690933,6.2690933 135 0 0 6.2691,-6.2691 l 0,-35.8391 a 4.70182,4.70182 45 0 0 -4.7018,-4.7018 h -51.0171 v 121.9229 c 9.0052,-0.027 -27.878,0 -27.878,0 z"
               style="display:inline;overflow:hidden;fill:#1f498a;fill-opacity:1;stroke-width:3.73839"
               id="path54640"
               sodipodi:nodetypes="ccccccccccccccccc"
               inkscape:label="r"
               transform="translate(-3.6745053e-5)"
               inkscape:original-d="m 2717.8316,2575.8503 v -152.4675 h 83.5969 c 23.6569,1.1035 29.2713,13.6339 27.9693,30.5446 v 46.81 c -0.5407,13.6893 -5.526,23.7126 -17.1939,28.6894 l 23.1994,46.4235 h -29.6375 l -24.3433,-46.4235 h -24.013 l 8.0718,-28.6894 h 16.3036 19.6436 v -46.81 h -55.7189 v 121.9229 c 9.0052,-0.027 -27.878,0 -27.878,0 z"
               inkscape:path-effect="#path-effect54688" /><path
               d="m 1887.8746,2576.0969 v -99.7424 l 13.6592,-17.2868 h -29.0341 l 70.7364,-59.8833 75.2256,59.8833 h -18.3514 v 117.0292 h -27.7666 v -44.5604 h -30.5653 v 44.5604 z m 84.4691,-117.0292 h -55.644 v 44.9311 h 55.644 z"
               style="display:inline;fill:#1f498a;fill-opacity:1;stroke-width:12.8725"
               id="path54618"
               sodipodi:nodetypes="cccccccccccccccccc"
               inkscape:label="a" /><path
               d="m 2458.455,2575.8503 c -14.8498,-2.9491 -23.1209,-7.8951 -26.6329,-29.1493 v -62.5288 -60.7894 h 26.6329 v 60.7894 56.1011 a 6.4277317,6.4277317 45 0 0 6.4277,6.4277 h 40.0026 a 5.0978806,5.0978806 135 0 0 5.0979,-5.0979 v -57.4309 l 0.5791,-60.7894 h 26.6705 c 0,0 0.5185,28.6285 0.3212,60.7894 l -0.3212,62.5288 c -3.0684,22.9071 -9.3311,26.0983 -27.2496,29.1493 z"
               style="display:inline;overflow:hidden;fill:#1f498a;fill-opacity:1;stroke-width:3.73839"
               id="path54646"
               sodipodi:nodetypes="ccccccccccccccc"
               inkscape:label="u"
               inkscape:path-effect="#path-effect54696"
               inkscape:original-d="m 2458.455,2575.8503 c -14.8498,-2.9491 -23.1209,-7.8951 -26.6329,-29.1493 v -62.5288 -60.7894 h 26.6329 v 60.7894 62.5288 h 51.5282 v -62.5288 l 0.5791,-60.7894 h 26.6705 c 0,0 0.5185,28.6285 0.3212,60.7894 l -0.3212,62.5288 c -3.0684,22.9071 -9.3311,26.0983 -27.2496,29.1493 z"
               transform="translate(-3.6745053e-5)" /><path
               d="m 2336.2923,2576.043 v -107.142 l 11.4192,-16.5672 h -52.5263 v -28.951 h 110.0072 v 28.9515 l -40.5279,-5e-4 v 123.5165 z"
               style="display:inline;overflow:hidden;fill:#1f498a;fill-opacity:1;stroke-width:3.73839"
               id="path54652"
               sodipodi:nodetypes="cccccccccc"
               inkscape:label="t"
               transform="translate(-3.6745053e-5)" /><path
               d="m 2203.1275,2575.6565 c -15.9652,-0.069 -26.6727,-7.0851 -26.1394,-28.9555 v -94.3722 c -1.0068,-19.0648 8.2355,-28.2009 26.1394,-28.946 h 69.5266 l -9.0567,28.946 h -25.8225 c -9.4426,0.2033 -20.8144,0.1492 -27.8891,0.082 -3.7326,-0.035 -6.7583,2.9445 -6.7583,6.6781 v 40.7158 39.3602 a 7.5359613,7.5359613 45 0 0 7.536,7.536 h 31.1791 30.8115 v 29.1493 c -23.2476,0.6722 -69.5266,-0.1938 -69.5266,-0.1938 z"
               style="display:inline;overflow:hidden;fill:#1f498a;fill-opacity:1;stroke-width:3.73839"
               id="path54658"
               sodipodi:nodetypes="ccccccccsccccc"
               inkscape:label="c"
               transform="translate(-3.6745053e-5)"
               inkscape:path-effect="#path-effect54690"
               inkscape:original-d="m 2203.1275,2575.6565 c -15.9652,-0.069 -26.6727,-7.0851 -26.1394,-28.9555 v -94.3722 c -1.0068,-19.0648 8.2355,-28.2009 26.1394,-28.946 h 69.5266 l -9.0567,28.946 h -25.8225 c -14.9165,0.3212 -34.6474,0 -34.6474,0 v 47.476 46.8962 h 38.7151 30.8115 v 29.1493 c -23.2476,0.6722 -69.5266,-0.1938 -69.5266,-0.1938 z" /><path
               d="m 2034.6461,2575.8473 v -152.4645 h 27.4273 l 52.8306,91.7866 v -91.7866 h 28.5871 l -0.8623,152.4675 h -24.6147 l -55.2144,-91.6771 v 91.6771 h -28.1536 z"
               style="display:inline;overflow:hidden;fill:#1f498a;fill-opacity:1;stroke-width:3.73839"
               id="path54664"
               sodipodi:nodetypes="cccccccccccc"
               inkscape:label="n"
               transform="translate(-3.6745053e-5)" /><path
               d="m 2569.8282,2576.0969 v -99.7424 l 13.6593,-17.2868 h -29.0341 l 70.7364,-59.8833 75.2256,59.8833 h -18.3515 v 117.0292 h -27.7665 v -44.5604 h -30.5653 v 44.5604 z m 84.4692,-117.0292 h -55.644 v 44.9311 h 55.644 z"
               style="display:inline;fill:#1f498a;fill-opacity:1;stroke-width:12.8725"
               id="path54620"
               sodipodi:nodetypes="cccccccccccccccccc"
               inkscape:label="a" /><path
               d="m 1751.5968,2546.701 h 79.8332 v -32.422 h -60.5424 c -4.0647,1.9356 -24.9673,-7.3029 -26.8823,-28.9505 v -34.4486 c 2.5208,-14.5576 11.1989,-22.9579 23.738,-27.4971 h 79.8979 l -6.5038,27.4971 h -70.2498 v 34.4486 h 60.5424 c 14.624,3.7955 23.8051,13.4526 27.5627,28.9505 v 32.422 c -1.7794,17.1246 -12.4437,25.3643 -27.5627,29.1493 h -86.6117 z"
               style="display:inline;overflow:hidden;fill:#1f498a;fill-opacity:1;stroke-width:3.73839"
               id="path54670"
               sodipodi:nodetypes="ccccccccccccccccc"
               inkscape:label="s"
               transform="translate(-3.6745053e-5)" /></g><g
             id="g54632"
             transform="matrix(1.2315521,0,0,1.2315521,-238.62564,-739.95362)"
             inkscape:label="wind door #"
             style="display:inline;overflow:hidden"><path
               d="m 2470.0772,4228.6303 c -13.7462,-1.5517 -24.5799,-10.9815 -28.2987,-24.6318 -1.1722,-4.3032 -1.5436,-7.5268 -1.5311,-13.2903 0.017,-7.7831 1.1108,-13.2713 3.7486,-18.809 1.8041,-3.7875 3.6902,-6.4692 6.6114,-9.4002 4.6461,-4.6619 9.8844,-7.4077 16.9565,-8.8884 3.1329,-0.6561 11.0843,-0.6544 14.3422,0 6.4973,1.3109 11.9003,4.0432 16.3235,8.2549 6.3566,6.0526 9.9277,13.8814 10.8619,23.8129 1.3098,13.9229 -2.2494,25.706 -10.156,33.6237 -7.2872,7.2973 -17.5225,10.6047 -28.8583,9.3252 z m 9.3738,-14.1456 c 3.2504,-0.7197 6.7489,-2.9346 8.8888,-5.6278 3.189,-4.0128 4.7568,-9.0151 5.0666,-16.1645 0.2829,-6.5322 -0.5904,-11.388 -2.9027,-16.1386 -2.8308,-5.8162 -7.739,-9.1465 -14.2524,-9.6708 -9.3177,-0.7499 -16.6763,4.835 -19.1335,14.5217 -1.401,5.5229 -1.4458,13.3065 -0.1079,18.7442 1.6607,6.7495 5.8685,11.833 11.481,13.8703 3.0629,1.1117 7.2408,1.2892 10.9601,0.4655 z m 168.0418,14.1543 c -13.0625,-1.5615 -21.5765,-8.5232 -23.4313,-19.1591 -0.2211,-1.268 -0.402,-2.8851 -0.402,-3.5936 v -1.2882 h 7.4798 7.4799 l 0.3358,1.77 c 1.1315,5.9651 6.2933,9.3419 14.2799,9.3419 7.4371,0 12.415,-3.2088 12.9451,-8.3443 0.3625,-3.5123 -1.7778,-6.1163 -6.621,-8.0556 -1.0893,-0.4362 -5.4435,-1.6801 -9.6761,-2.7645 -4.2327,-1.0842 -8.7987,-2.4111 -10.147,-2.9488 -5.6548,-2.255 -9.8809,-5.4232 -11.9551,-8.9626 -2.5941,-4.4264 -2.9711,-11.4715 -0.9089,-16.983 1.3496,-3.6071 5.4661,-8.1853 9.3468,-10.3949 4.6544,-2.6501 9.4525,-3.9279 15.6502,-4.168 9.2349,-0.3576 16.3034,1.7606 22.1353,6.633 1.5023,1.2553 3.84,4.2635 4.7537,6.1174 1.1734,2.3806 2.313,6.805 2.313,8.9799 0,0.3637 -0.8857,0.4124 -7.5107,0.4124 h -7.5108 l -0.1799,-0.9923 c -0.6689,-3.6892 -3.3397,-6.3377 -7.6951,-7.6306 -1.8436,-0.5474 -7.1553,-0.6317 -9.1733,-0.1457 -2.9205,0.7033 -5.6802,2.5879 -6.7182,4.5877 -0.5915,1.1396 -0.7983,4.3326 -0.3657,5.6436 0.1827,0.5534 0.8024,1.5163 1.3771,2.1398 2.0848,2.2618 5.0963,3.4752 13.7009,5.5207 6.458,1.5351 9.9238,2.6831 13.1862,4.368 4.9746,2.5693 7.8466,5.3174 9.8544,9.4295 1.3442,2.7529 1.8695,5.289 1.8558,8.9597 -0.04,10.8638 -7.3042,18.5898 -19.7805,21.039 -3.3594,0.6596 -11.0405,0.9162 -14.6183,0.4886 z m -482.1545,-37.4633 c -5.7747,-20.1921 -10.4984,-36.8038 -10.4971,-36.915 0,-0.1112 3.8322,-0.1707 8.5132,-0.1323 l 8.5111,0.07 6.0724,25.5309 c 3.3399,14.042 6.1195,25.5825 6.177,25.6455 0.057,0.063 0.2137,0 0.347,-0.1323 0.1334,-0.1358 3.2552,-11.706 6.9376,-25.7116 l 6.6951,-25.4648 h 7.3323 7.3323 l 0.2462,0.8916 c 0.1353,0.4904 3.1338,11.9495 6.6632,25.4648 3.5295,13.5153 6.5177,24.6842 6.6407,24.82 0.1229,0.1359 0.303,0.1675 0.4002,0.07 0.097,-0.097 2.8999,-11.6307 6.2285,-25.6303 3.3286,-13.9995 6.0903,-25.492 6.1371,-25.5388 0.047,-0.047 3.896,-0.054 8.5536,-0.015 l 8.4687,0.07 -10.5066,36.7751 -10.5066,36.775 -7.7107,0.07 c -4.2408,0.039 -7.7106,0 -7.7106,-0.076 0,-0.4615 -13.8464,-47.659 -14.0417,-47.8631 -0.13,-0.1358 -0.3161,-0.1671 -0.4137,-0.07 -0.098,0.098 -3.2993,10.9238 -7.1149,24.0582 l -6.9377,23.8808 -7.6586,0.07 -7.6586,0.07 z m 99.0367,-0.2024 v -36.9074 h 7.8048 7.8047 v 36.9074 36.9074 h -7.8047 -7.8048 z m 28.5734,0 v -36.9117 l 6.9325,0.07 6.9324,0.071 15.8004,23.0175 c 8.6903,12.6596 15.9881,23.0559 16.2174,23.103 0.3769,0.077 0.4169,-2.1347 0.4169,-23.0836 v -23.1693 h 7.8048 7.8047 v 36.9074 36.9074 h -6.8273 -6.8273 l -16.0823,-23.282 c -8.8453,-12.8052 -16.1904,-23.2821 -16.3225,-23.2821 -0.1419,0 -0.2401,9.5198 -0.2401,23.2821 v 23.282 h -7.8048 -7.8048 z m 74.6085,0.01 v -36.9416 l 16.6016,0.1021 c 15.9102,0.098 16.7086,0.1262 19.1678,0.6803 14.4555,3.2568 23.2401,12.4816 26.0583,27.3641 0.6505,3.4358 0.6634,13.8396 0.021,17.2594 -2.9105,15.5007 -11.9969,24.7553 -27.3229,27.8286 -1.7619,0.3533 -4.8317,0.4432 -18.3214,0.5366 l -16.2048,0.1122 v -36.9416 z m 32.998,22.6831 c 9.5785,-2.6924 13.8275,-9.7038 13.8275,-22.8173 0,-11.0091 -3.2463,-17.9826 -9.8335,-21.1238 -3.9365,-1.8772 -7.4526,-2.4173 -15.7604,-2.4207 h -5.3575 v 23.5707 23.5708 l 7.6063,-0.1202 c 6.6023,-0.1042 7.8586,-0.191 9.5176,-0.6573 z m 136.5839,13.2303 c -0.1609,-0.5457 -4.9123,-17.1243 -10.5585,-36.8413 l -10.2658,-35.8491 8.4716,-0.07 c 4.6594,-0.038 8.5151,-0.026 8.5682,0.027 0.053,0.053 2.8266,11.5574 6.1632,25.565 3.3369,14.0078 6.1345,25.5362 6.2172,25.6189 0.083,0.083 0.2476,0.039 0.3663,-0.097 0.1188,-0.1358 3.1593,-11.4977 6.7567,-25.2487 3.5974,-13.7509 6.6017,-25.2101 6.6762,-25.4648 0.1249,-0.4266 0.714,-0.463 7.4935,-0.463 h 7.3579 l 0.2849,1.1245 c 0.1567,0.6184 3.1724,12.1669 6.7016,25.6632 4.3299,16.5581 6.528,24.5387 6.7585,24.5387 0.1879,0 0.3416,-0.065 0.3416,-0.1449 0,-0.1774 11.5525,-48.8008 11.9246,-50.1893 l 0.2659,-0.9922 h 8.456 c 5.9026,0 8.4561,0.087 8.4561,0.2871 0,0.1579 -4.7028,16.7011 -10.4506,36.7626 -5.7478,20.0616 -10.4504,36.5407 -10.4504,36.6203 0,0.08 -3.4488,0.1448 -7.6641,0.1448 h -7.664 l -0.6559,-2.1827 c -0.3609,-1.2005 -3.2303,-11.0524 -6.3768,-21.8931 -7.1859,-24.7592 -6.9774,-24.0766 -7.3531,-24.0717 -0.1887,0 -2.7464,8.4034 -6.3837,20.9671 -3.338,11.5297 -6.4798,22.362 -6.9817,24.0717 l -0.9128,3.1087 h -7.6251 -7.6251 z"
               style="display:inline;overflow:hidden;fill:#1f498a;fill-opacity:1;stroke-width:0.901854"
               id="path54624"
               inkscape:label="windows"
               transform="matrix(0.40650697,0,0,0.40650697,1413.0781,201.48063)" /><path
               d="m 2372.0461,1938.6987 c 0.2343,-0.6654 1.5305,-4.4043 2.8805,-8.3086 l 2.4546,-7.0986 h 2.2915 2.2916 l 2.8285,8.1741 c 1.5557,4.4958 2.8307,8.2347 2.8334,8.3087 0,0.1025 -0.4379,0.1344 -1.8629,0.1344 h -1.8677 l -0.6106,-1.8839 -0.6106,-1.8838 -3.0134,0.028 -3.0134,0.029 -0.6073,1.8553 -0.6073,1.8553 h -1.9064 -1.9064 z m 9.6693,-5.43 c 0,-0.1867 -1.9814,-6.159 -2.0434,-6.159 -0.061,0 -2.0437,5.9808 -2.0437,6.1642 0,0.041 0.9196,0.074 2.0436,0.074 1.1239,0 2.0435,-0.036 2.0435,-0.079 z m 8.0667,-1.6955 v -8.3355 h 1.5369 1.5369 l 3.5545,5.1837 c 1.955,2.8511 3.6108,5.2025 3.6795,5.2254 0.094,0.031 0.125,-1.2626 0.125,-5.1837 v -5.2254 h 1.7209 1.7208 v 8.3385 8.3384 l -1.5229,-0.03 -1.5229,-0.03 -3.5238,-5.0951 c -1.938,-2.8023 -3.5759,-5.1473 -3.6397,-5.211 -0.083,-0.083 -0.1159,1.3769 -0.1159,5.1219 v 5.2379 h -1.7747 -1.7746 z m 16.8861,0 v -8.3531 l 3.8451,0.046 c 4.1778,0.05 4.4781,0.087 5.9028,0.7269 2.1514,0.9663 3.6541,2.9368 4.141,5.4301 0.231,1.1829 0.1778,3.5588 -0.1056,4.7176 -0.5491,2.2454 -1.8951,3.9696 -3.8345,4.9118 -1.525,0.7409 -1.796,0.7777 -6.1037,0.8285 l -3.8451,0.045 z m 7.1127,5.17 c 1.664,-0.3526 2.6799,-1.2839 3.1748,-2.9103 0.2806,-0.9224 0.2801,-3.5987 0,-4.516 -0.5212,-1.7014 -1.6359,-2.6686 -3.4031,-2.9527 -0.3845,-0.062 -1.292,-0.1127 -2.0166,-0.1132 h -1.3174 v 5.324 5.324 h 1.4251 c 0.8065,0 1.7346,-0.068 2.1383,-0.153 z"
               style="display:inline;overflow:hidden;fill:#1f498a;fill-opacity:1;stroke-width:0.36663"
               id="path54626"
               inkscape:label="and" /><path
               d="m 2366.182,1975.0519 c -2.206,-0.2623 -3.3748,-0.5686 -4.8718,-1.2766 -3.6036,-1.7043 -6.2024,-4.8955 -7.2253,-8.8724 -0.7671,-2.9823 -0.8402,-6.6397 -0.1931,-9.6615 1.0945,-5.1117 4.5763,-9.0135 9.2524,-10.3686 2.1857,-0.6334 5.2503,-0.7731 7.3346,-0.3342 4.6244,0.9735 7.9842,3.7232 9.7947,8.0159 0.8602,2.0396 1.243,4.2352 1.2457,7.1435 0,3.9857 -0.7662,6.8482 -2.5704,9.5582 -2.1778,3.2713 -5.618,5.3015 -9.7569,5.7578 -0.9249,0.102 -2.3228,0.1196 -3.0099,0.038 z m 3.1447,-5.8023 c 1.9187,-0.3984 3.6387,-1.7878 4.5832,-3.7026 1.6146,-3.2729 1.6197,-8.5109 0.011,-11.7093 -1.3226,-2.6301 -3.4324,-3.9104 -6.4493,-3.9134 -2.1392,0 -3.5905,0.5722 -5.0107,1.9829 -1.708,1.6966 -2.5691,4.3264 -2.5673,7.8402 0,2.2057 0.3807,4.1087 1.1263,5.6465 1.5678,3.2338 4.5762,4.6302 8.3064,3.8557 z m 29.1048,5.8023 c -2.206,-0.2623 -3.3748,-0.5686 -4.8718,-1.2766 -3.6037,-1.7043 -6.2024,-4.8955 -7.2253,-8.8724 -0.7671,-2.9823 -0.8402,-6.6397 -0.1931,-9.6615 1.0945,-5.1117 4.5763,-9.0135 9.2524,-10.3686 2.1856,-0.6334 5.2503,-0.7731 7.3346,-0.3342 4.6243,0.9735 7.9842,3.7232 9.7946,8.0159 0.8602,2.0396 1.2431,4.2352 1.2457,7.1435 0,3.9857 -0.7661,6.8482 -2.5703,9.5582 -2.1778,3.2713 -5.618,5.3015 -9.7569,5.7578 -0.9249,0.102 -2.3228,0.1196 -3.0099,0.038 z m 3.1447,-5.8023 c 1.9187,-0.3984 3.6386,-1.7878 4.5832,-3.7026 1.6146,-3.2729 1.6197,-8.5109 0.011,-11.7093 -1.3226,-2.6301 -3.4325,-3.9104 -6.4494,-3.9134 -2.1392,0 -3.5905,0.5722 -5.0106,1.9829 -1.708,1.6966 -2.5692,4.3264 -2.5674,7.8402 0,2.2057 0.3808,4.1087 1.1263,5.6465 1.5679,3.2338 4.5762,4.6302 8.3064,3.8557 z m 52.7039,5.7506 c -3.1914,-0.381 -6.0581,-1.7575 -7.6165,-3.6572 -0.6059,-0.7386 -1.2881,-1.9757 -1.5616,-2.8317 -0.2138,-0.669 -0.5,-2.3077 -0.5,-2.8628 v -0.4159 h 3.0497 3.0497 l 0.1314,0.6676 c 0.4823,2.4515 2.5725,3.8505 5.7456,3.8455 1.8987,0 3.1334,-0.3655 4.2052,-1.2349 1.3344,-1.0822 1.4932,-3.3082 0.3101,-4.3469 -0.9569,-0.8401 -1.8955,-1.1948 -5.8494,-2.21 -3.2545,-0.8356 -3.9842,-1.0738 -5.2674,-1.7196 -2.4366,-1.2263 -3.8217,-2.7752 -4.3739,-4.8916 -0.2783,-1.0663 -0.2516,-3.1444 0.054,-4.2256 1.1887,-4.2012 5.4641,-6.8433 11.0782,-6.846 5.2116,0 9.1952,2.2417 10.6139,5.9795 0.2874,0.7574 0.5693,2.0788 0.576,2.7003 v 0.3494 h -3.0422 -3.0422 l -0.1278,-0.6181 c -0.2664,-1.2884 -1.2586,-2.2864 -2.7639,-2.7803 -0.7256,-0.238 -1.0615,-0.2833 -2.1499,-0.29 -1.8668,-0.011 -2.983,0.325 -3.9364,1.1864 -0.6998,0.6323 -0.8983,1.113 -0.8998,2.1795 0,0.8085 0.032,0.9643 0.2844,1.3526 0.7508,1.1539 1.8666,1.6677 5.6989,2.6246 1.6158,0.4034 3.2764,0.8522 3.6903,0.9974 3.1325,1.0987 5.1992,2.8252 6.1331,5.1238 0.3998,0.9839 0.6221,2.4615 0.5434,3.6119 -0.2956,4.3179 -3.3043,7.2722 -8.3244,8.1736 -1.1478,0.2061 -4.4713,0.2867 -5.7125,0.1385 z m -130.2912,-15.297 v -15.0028 h 6.1775 c 6.8253,0 7.6106,0.053 9.6519,0.6564 6.3161,1.8655 9.8453,7.5126 9.5014,15.2038 -0.3437,7.6906 -4.2721,12.4915 -11.356,13.878 -0.773,0.1513 -1.9195,0.1857 -7.4442,0.2231 l -6.5306,0.044 z m 13.3836,9.2037 c 1.3809,-0.3761 2.3437,-0.9079 3.2224,-1.7801 1.5341,-1.5228 2.2222,-3.4316 2.3829,-6.6104 0.2408,-4.7644 -1.149,-8.0479 -4.0084,-9.4699 -1.4711,-0.7316 -3.3526,-1.0026 -6.5956,-0.9498 l -1.9887,0.033 -0.028,9.5491 -0.028,9.5491 3.0912,-0.043 c 2.7575,-0.039 3.1839,-0.068 3.9511,-0.2773 z m 81.1074,-9.2104 v -14.9961 h 6.638 c 7.1838,0 7.8618,0.042 9.5162,0.5849 3.1996,1.0491 5.2463,3.174 6.1148,6.3481 0.3263,1.1925 0.3547,4.3341 0.05,5.4824 -0.6784,2.5537 -2.0983,4.3922 -4.2777,5.539 l -0.7227,0.3803 3.1657,5.7963 c 1.7412,3.188 3.1657,5.8114 3.1657,5.8299 0,0.018 -1.5813,0.021 -3.5141,0.01 l -3.5141,-0.028 -2.816,-5.2674 -2.816,-5.2674 -2.3235,-0.029 -2.3235,-0.029 v 5.3233 5.3233 h -3.1712 -3.1712 v -14.996 z m 12.4319,-0.9066 c 1.5697,-0.2977 2.5224,-0.953 3.1274,-2.1514 0.4036,-0.7993 0.4042,-0.8025 0.4029,-2.15 0,-1.1548 -0.037,-1.4378 -0.2476,-1.9624 -0.3377,-0.84 -1.0623,-1.6159 -1.8898,-2.0233 -1.0301,-0.507 -2.013,-0.6344 -4.9293,-0.6387 h -2.5531 v 4.515 4.5149 h 2.7803 c 1.5291,0 3.0183,-0.045 3.3092,-0.1003 z"
               style="display:inline;overflow:hidden;fill:#1f498a;fill-opacity:1;stroke-width:0.366437"
               id="path54628"
               inkscape:label="DOORS" /><path
               d="m 2486.7222,2008.5291 c -4.052,-0.6741 -6.8246,-3.6245 -7.8398,-8.3439 -0.5165,-2.4004 -0.5518,-5.7363 -0.089,-8.3103 0.5305,-2.9447 1.8421,-5.397 3.6717,-6.8639 1.7928,-1.4379 3.9183,-2.0735 6.5438,-1.957 6.1728,0.2729 9.7363,5.3732 9.4293,13.4959 -0.1684,4.4557 -1.3056,7.5487 -3.571,9.7141 -1.0888,1.0407 -2.273,1.6905 -3.8008,2.086 -1.0941,0.2831 -3.1978,0.3698 -4.3446,0.1791 z m 3.1963,-4.522 c 0.7275,-0.3328 1.2027,-0.7535 1.7109,-1.513 0.8672,-1.2968 1.2828,-2.8425 1.4328,-5.3289 0.1443,-2.3902 -0.093,-4.8404 -0.6111,-6.3503 -0.8463,-2.4599 -2.5371,-3.7519 -4.5017,-3.4406 -0.8946,0.1419 -1.4724,0.4427 -2.1209,1.104 -1.0089,1.0289 -1.6487,2.7092 -1.9008,4.9906 -0.1479,1.3406 -0.073,4.6815 0.1288,5.6964 0.5111,2.5793 1.397,4.0712 2.8622,4.8209 0.4748,0.2428 0.9185,0.3168 1.7206,0.2861 0.5965,-0.023 0.8772,-0.082 1.2792,-0.2652 z m -211.7392,4.3676 c -2.4784,-0.312 -4.7193,-1.609 -5.9988,-3.472 -0.6925,-1.0088 -1.4049,-2.8231 -1.4049,-3.5791 v -0.2073 h 2.5631 2.5632 l 0.1398,0.4112 c 0.34,0.9972 1.103,1.8287 1.9867,2.1656 0.7045,0.2684 1.9162,0.3295 2.678,0.1347 2.2344,-0.5705 3.5496,-2.9257 3.7796,-6.7681 0.065,-1.07 -0.011,-1.2531 -0.2865,-0.7092 -0.6581,1.2933 -2.4053,2.54 -4.2025,2.9987 -1.0362,0.2643 -2.6577,0.2687 -3.7324,0.011 -3.6527,-0.8802 -5.9545,-4.221 -5.7233,-8.3064 0.032,-0.5366 0.115,-1.2248 0.1882,-1.53 0.9163,-3.8195 4.1172,-6.2897 8.3809,-6.4678 3.0912,-0.1293 5.596,0.7525 7.4528,2.6235 2.1905,2.2071 3.2465,5.7679 3.0661,10.3396 -0.1932,4.8966 -1.7169,8.5553 -4.4262,10.6274 -1.8808,1.4386 -4.4027,2.0596 -7.0238,1.7294 z m 2.2609,-12.672 c 0.8711,-0.1388 1.6093,-0.5229 2.2467,-1.1686 0.8826,-0.8945 1.3002,-1.8844 1.3002,-3.0828 0,-2.1301 -1.5548,-3.9712 -3.591,-4.252 -2.0606,-0.2838 -3.9611,0.9 -4.5842,2.856 -0.3395,1.065 -0.2136,2.549 0.3019,3.5593 0.2342,0.4594 0.9611,1.2226 1.4777,1.5512 0.5109,0.3253 1.3112,0.5605 2.0951,0.6162 0.099,0.01 0.4369,-0.03 0.7536,-0.08 z m 20.7924,12.7152 c -2.9371,-0.3404 -5.0472,-1.4027 -6.4652,-3.2541 -0.7906,-1.0321 -1.2313,-2.14 -1.3721,-3.4491 l -0.066,-0.5984 h 2.5444 2.5443 l 0.057,0.3773 c 0.1858,1.2385 1.2516,2.3148 2.6678,2.6937 0.5225,0.14 1.6999,0.154 2.2511,0.027 1.331,-0.3069 2.421,-1.3107 2.8677,-2.6411 0.2441,-0.7274 0.2986,-1.952 0.1202,-2.7088 -0.3621,-1.5347 -1.4918,-2.7333 -2.9301,-3.1078 -0.7485,-0.1946 -1.819,-0.1761 -2.6208,0.047 -0.8407,0.2331 -1.3881,0.5312 -1.8748,1.0216 -0.2117,0.2129 -0.4646,0.3872 -0.5621,0.3872 -0.2964,0 -4.3815,-0.7577 -4.4489,-0.8251 -0.057,-0.057 0.983,-12.3254 1.0848,-12.8036 l 0.043,-0.1994 h 7.5793 7.5791 v 2.1272 2.1271 l -5.4292,0.024 -5.4291,0.023 -0.3138,3.0809 c -0.1725,1.6949 -0.2963,3.0812 -0.2751,3.0812 0.022,0 0.283,-0.2346 0.5818,-0.5215 0.6201,-0.5954 1.4871,-1.0668 2.5051,-1.3618 0.91,-0.2636 2.918,-0.2813 3.8826,-0.035 0.9181,0.2352 2.2973,0.942 3.0225,1.5492 1.1691,0.9785 2.1495,2.5713 2.5189,4.0923 0.3819,1.5715 0.3092,3.7742 -0.1709,5.169 -0.9076,2.6387 -3.1533,4.6564 -5.9889,5.3815 -1.1144,0.2852 -2.8629,0.4187 -3.9035,0.2978 z m 61.0024,0 c -2.8835,-0.2994 -5.1183,-1.2691 -6.6568,-2.8891 -0.7056,-0.743 -1.2922,-1.7818 -1.4976,-2.6532 -0.1728,-0.7334 -0.174,-2.1966 0,-2.875 0.5552,-2.1912 2.5387,-4.0984 4.7566,-4.5741 0.2363,-0.051 0.4298,-0.1248 0.4298,-0.1648 0,-0.041 -0.2696,-0.1551 -0.5987,-0.2556 -1.7988,-0.5505 -3.3154,-2.2083 -3.7014,-4.046 -0.7695,-3.6655 1.7168,-6.7678 6.2011,-7.7369 1.0858,-0.2347 3.7983,-0.2111 4.887,0.043 3.2644,0.7602 5.4866,2.7123 6.0183,5.2863 0.2616,1.2659 0.1037,2.4801 -0.4746,3.6496 -0.6398,1.2938 -1.859,2.3621 -3.1814,2.7874 -0.3511,0.1127 -0.6386,0.2361 -0.6386,0.2738 0,0.04 0.2096,0.1164 0.4657,0.1749 0.2558,0.059 0.8246,0.2786 1.2634,0.4896 2.3476,1.1285 3.6911,3.3263 3.5699,5.8385 -0.075,1.5279 -0.6327,2.7511 -1.7872,3.9101 -1.2939,1.2989 -3.1649,2.2086 -5.2851,2.5694 -0.8306,0.1417 -3.0775,0.2446 -3.7681,0.1727 z m 2.4559,-3.945 c 1.2147,-0.2526 2.3381,-1.1439 2.7277,-2.1638 0.1537,-0.4033 0.2029,-0.7138 0.2029,-1.2854 0,-1.0825 -0.2314,-1.6444 -0.9894,-2.4007 -0.8909,-0.8887 -1.7835,-1.2345 -3.186,-1.2345 -2.4819,0 -4.237,1.7024 -4.0678,3.9461 0.1129,1.4983 1.0761,2.6014 2.6791,3.0684 0.6203,0.1804 1.9335,0.2154 2.6335,0.071 z m -0.5777,-10.9798 c 0.8216,-0.1191 1.5445,-0.481 2.0699,-1.0365 0.6751,-0.7139 0.8346,-1.1334 0.8372,-2.2057 0,-0.7766 -0.027,-0.9486 -0.2321,-1.3875 -0.6287,-1.341 -2.1449,-2.0535 -3.9107,-1.8381 -1.2251,0.1495 -2.334,0.9596 -2.721,1.987 -0.1682,0.4468 -0.1939,0.6603 -0.1651,1.3715 0.032,0.7561 0.067,0.9007 0.3386,1.411 0.2112,0.394 0.4551,0.6868 0.7944,0.9532 0.6067,0.4763 1.2906,0.7171 2.3075,0.8119 0.075,0.01 0.3797,-0.024 0.6813,-0.069 z m 20.1639,14.8858 c -2.2241,-0.2794 -4.1464,-1.1978 -5.5234,-2.6391 -1.1494,-1.2029 -1.7389,-2.4548 -1.8976,-4.0287 l -0.062,-0.5984 h 2.5298 c 2.7356,0 2.6373,-0.018 2.6374,0.4725 0,0.633 0.9372,1.8498 1.7384,2.2578 1.2914,0.6579 3.0939,0.6171 4.313,-0.098 0.8589,-0.5035 1.6209,-1.6234 1.8476,-2.7154 0.1516,-0.7295 0.061,-2.1529 -0.1798,-2.7768 -0.4069,-1.0629 -1.3148,-1.9644 -2.4013,-2.385 -0.6678,-0.2584 -1.9651,-0.3197 -2.7687,-0.1309 -0.7858,0.1847 -1.5849,0.5952 -2.1043,1.0811 -0.2304,0.2155 -0.4946,0.3908 -0.5873,0.3889 -0.2656,-0.01 -4.3784,-0.7637 -4.4323,-0.818 -0.041,-0.041 0.8967,-10.9503 1.0768,-12.5452 l 0.053,-0.4653 h 7.5746 7.5746 v 2.128 2.1279 h -5.4031 -5.4034 l -0.051,0.3768 c -0.1243,0.9247 -0.5922,5.7588 -0.5606,5.7908 0.019,0.019 0.2769,-0.1994 0.5725,-0.4866 0.5869,-0.5708 1.6206,-1.1281 2.5551,-1.3778 1.3335,-0.3561 3.3677,-0.2412 4.7166,0.2663 2.4191,0.9108 4.2725,3.1822 4.7737,5.851 0.2038,1.0849 0.1427,3.1576 -0.1226,4.1457 -0.8334,3.1063 -3.3635,5.3721 -6.7546,6.0493 -0.8354,0.1669 -2.8517,0.2366 -3.7127,0.1281 z m 22.69,0 c -3.3212,-0.4114 -5.7353,-2.0478 -7.1664,-4.8574 -1.0296,-2.0221 -1.4316,-4.033 -1.4297,-7.1527 0,-2.6446 0.2806,-4.5608 0.9407,-6.4571 1.2383,-3.5568 3.4987,-5.7847 6.729,-6.6315 0.6985,-0.1831 0.989,-0.2076 2.4337,-0.2038 1.4794,0 1.7239,0.027 2.493,0.234 2.838,0.7653 4.9742,2.6652 5.8577,5.2096 0.1373,0.3954 0.4273,1.574 0.4273,1.7368 0,0.021 -1.1699,0.039 -2.5997,0.039 h -2.5992 l -0.1527,-0.4842 c -0.2643,-0.8387 -0.9901,-1.6143 -1.8748,-2.0036 -0.6335,-0.2786 -2.0544,-0.343 -2.8447,-0.1292 -1.452,0.3932 -2.4527,1.5093 -3.0982,3.4558 -0.3667,1.1053 -0.5904,2.5161 -0.5559,3.5058 l 0.026,0.7538 0.3414,-0.5322 c 0.8887,-1.3845 2.249,-2.3239 4.0557,-2.8017 0.9525,-0.2518 2.727,-0.2753 3.6586,-0.049 3.8604,0.9396 6.2296,4.4483 5.8282,8.6317 -0.1244,1.2962 -0.2997,1.9473 -0.81,3.009 -1.1622,2.4164 -3.3666,4.0711 -6.1216,4.5949 -0.9286,0.1763 -2.6592,0.2414 -3.5386,0.1322 z m 2.4953,-4.2488 c 1.7743,-0.5481 2.9131,-2.1789 2.9131,-4.17 0,-1.2892 -0.469,-2.4266 -1.3271,-3.2181 -2.7123,-2.5018 -7.0049,-0.5569 -7.0034,3.1734 0,0.439 0.041,0.9664 0.087,1.1722 0.323,1.3995 1.6717,2.8114 2.9788,3.1181 0.6287,0.1479 1.7464,0.1118 2.352,-0.078 z m -82.7385,1.8148 v -2.1722 h -5.9403 -5.9406 v -2.0417 -2.0419 l 5.1647,-8.1519 5.1647,-8.152 h 3.303 3.3025 v 8.0666 8.0665 l 1.5297,0.025 1.5294,0.025 0.025,2.1057 0.025,2.1058 h -1.5535 -1.5532 v 2.1725 2.1722 h -2.527 -2.5269 z m 0.09,-11.6597 c 0,-2.8772 -0.031,-5.2311 -0.068,-5.2309 -0.07,0 -6.4383,10.0342 -6.5432,10.3078 -0.056,0.1453 0.1412,0.1544 3.2751,0.1544 h 3.3345 z m 110.3028,11.9479 v -1.8842 l 4.7398,-4.3807 c 4.6707,-4.3167 5.6271,-5.2598 6.4836,-6.3943 1.9116,-2.531 1.1491,-5.528 -1.5925,-6.2578 -0.5388,-0.1437 -1.6233,-0.1579 -2.1832,-0.029 -0.941,0.2168 -1.835,0.8807 -2.2178,1.6472 -0.2596,0.5203 -0.4434,1.2198 -0.4448,1.6933 v 0.3768 h -2.5068 -2.507 l 0.062,-0.8341 c 0.2762,-3.7771 3.0046,-6.4787 7.1222,-7.0511 1.6652,-0.232 3.7302,-0.048 5.2881,0.4729 2.5163,0.8401 4.3509,2.7336 4.9281,5.0863 0.2159,0.8797 0.1916,2.521 -0.052,3.4344 -0.5322,2.0051 -2.0702,4.1068 -5.064,6.9208 -1.4639,1.3762 -4.788,4.6806 -4.788,4.76 0,0.038 2.3541,0.069 5.2315,0.069 h 5.2313 v 2.128 2.128 h -8.8667 -8.8669 z m 22.4307,1.8392 c 0,-0.041 3.8557,-7.6747 8.6545,-17.1385 0.8481,-1.6727 1.542,-3.0989 1.542,-3.1698 0,-0.1114 -0.812,-0.1287 -5.985,-0.1287 h -5.9851 v -2.1279 -2.128 h 8.7336 8.7337 v 2.1214 2.1218 l -5.1498,10.2473 -5.1496,10.2472 h -2.6974 c -1.4835,0 -2.6969,-0.02 -2.6969,-0.046 z m 54.086,-2.1274 v -2.1722 h -5.9405 -5.9405 v -2.0417 -2.0419 l 5.1647,-8.1519 5.1647,-8.152 h 3.3031 3.3027 v 8.0666 8.0665 l 1.5293,0.025 1.5298,0.025 0.025,2.1057 0.025,2.1058 h -1.5533 -1.5532 v 2.1725 2.1722 h -2.5269 -2.5271 z m 0.091,-11.6597 c 0,-2.8772 -0.03,-5.2311 -0.068,-5.2309 -0.07,0 -6.4385,10.0342 -6.5434,10.3078 -0.056,0.1453 0.1414,0.1544 3.2752,0.1544 h 3.3345 z m -175.1158,3.6353 v -2.0396 h 5.6746 5.6748 v 2.0396 2.0395 h -5.6748 -5.6746 z m 82.9028,0 v -2.0396 h 5.6305 5.6301 v 2.0396 2.0395 h -5.6301 -5.6305 z"
               style="display:inline;overflow:hidden;fill:#1f498a;fill-opacity:1;stroke-width:0.302244"
               id="path54630"
               inkscape:label="#" /></g></g></g></g><g
       style="display:inline;overflow:hidden"
       id="g816"
       transform="matrix(0.31173759,0,0,0.31173759,-0.01506922,-0.04302072)"
       inkscape:label="grid"><path
         style="fill:none;stroke:#fffeff;stroke-width:4.81174;stroke-dasharray:none;stroke-opacity:1"
         d="M 133.84181,0.14490206 134.83973,186.68749"
         id="path11868" /><path
         style="display:inline;overflow:hidden;fill:none;stroke:#fffeff;stroke-width:4.81174;stroke-dasharray:none;stroke-opacity:1"
         d="M 0.0311675,132.53312 262.58208,131.74056"
         id="path11868-7" /><path
         style="display:inline;overflow:hidden;fill:none;stroke:#fffeff;stroke-width:4.81174;stroke-dasharray:none;stroke-opacity:1"
         d="M 0.08249073,266.83583 80.285025,266.02595"
         id="path11868-7-8" /><path
         style="display:inline;overflow:hidden;fill:none;stroke:#fffeff;stroke-width:4.81174;stroke-dasharray:none;stroke-opacity:1"
         d="m 699.7911,132.52642 490.5122,-0.77916"
         id="path11868-7-7" /><path
         style="fill:none;stroke:#fffeff;stroke-width:4.81174;stroke-dasharray:none;stroke-opacity:1"
         d="m 134.22209,304.32421 0.23736,1152.32119"
         id="path12687" /><path
         style="display:inline;overflow:hidden;fill:none;stroke:#fffeff;stroke-width:4.81174;stroke-dasharray:none;stroke-opacity:1"
         d="M 265.84226,0.14759477 266.84018,186.69018"
         id="path11868-3" /><path
         style="display:inline;overflow:hidden;fill:none;stroke:#fffeff;stroke-width:4.81174;stroke-dasharray:none;stroke-opacity:1"
         d="m 266.21737,304.32761 0.2477,1098.97879"
         id="path12687-8" /><path
         style="display:inline;overflow:hidden;fill:none;stroke:#fffeff;stroke-width:4.81174;stroke-dasharray:none;stroke-opacity:1"
         d="M 397.70063,0.16629086 398.97942,123.83615"
         id="path11868-3-4" /><path
         style="display:inline;overflow:hidden;fill:none;stroke:#fffeff;stroke-width:4.81174;stroke-dasharray:none;stroke-opacity:1"
         d="M 529.69947,0.15509111 530.97826,123.82495"
         id="path11868-3-4-9" /><path
         style="display:inline;overflow:hidden;fill:none;stroke:#fffeff;stroke-width:4.81174;stroke-dasharray:none;stroke-opacity:1"
         d="M 661.70152,0.15509125 662.98032,123.82495"
         id="path11868-3-4-9-4" /><path
         style="display:inline;overflow:hidden;fill:none;stroke:#fffeff;stroke-width:4.81174;stroke-dasharray:none;stroke-opacity:1"
         d="M 793.77841,0.13553482 794.90117,154.60463"
         id="path11868-3-4-9-4-8" /><path
         style="display:inline;overflow:hidden;fill:none;stroke:#fffeff;stroke-width:4.81174;stroke-dasharray:none;stroke-opacity:1"
         d="M 925.89151,0.14736742 926.79214,218.20213"
         id="path11868-3-4-9-4-8-1" /><path
         style="display:inline;overflow:hidden;fill:none;stroke:#fffeff;stroke-width:4.81174;stroke-dasharray:none;stroke-opacity:1"
         d="M 1058.0071,0.14323757 1058.6744,332.88494"
         id="path11868-3-4-9-4-8-1-3" /><path
         style="display:inline;overflow:hidden;fill:none;stroke:#fffeff;stroke-width:4.81174;stroke-dasharray:none;stroke-opacity:1"
         d="m 395.50974,1237.8817 1.07664,165.4159"
         id="path12687-8-5" /><path
         style="fill:none;stroke:#fffeff;stroke-width:4.81174;stroke-dasharray:none;stroke-opacity:1"
         d="M 0.04833944,398.5436 H 322.86422"
         id="path12984" /><path
         style="display:inline;overflow:hidden;fill:none;stroke:#fffeff;stroke-width:4.81174;stroke-dasharray:none;stroke-opacity:1"
         d="M 0.04833944,530.54565 H 322.86422"
         id="path12984-8" /><path
         style="display:inline;overflow:hidden;fill:none;stroke:#fffeff;stroke-width:4.81174;stroke-dasharray:none;stroke-opacity:1"
         d="M 0.04833944,662.54448 H 334.60269"
         id="path12984-8-0" /><path
         style="display:inline;overflow:hidden;fill:none;stroke:#fffeff;stroke-width:4.81174;stroke-dasharray:none;stroke-opacity:1"
         d="M 0.04833944,794.54332 H 340.12668"
         id="path12984-8-4" /><path
         style="display:inline;overflow:hidden;fill:none;stroke:#fffeff;stroke-width:4.81174;stroke-dasharray:none;stroke-opacity:1"
         d="M 0.04833944,926.54537 H 304.22077"
         id="path12984-8-3" /><path
         style="display:inline;overflow:hidden;fill:none;stroke:#fffeff;stroke-width:4.81174;stroke-dasharray:none;stroke-opacity:1"
         d="M 0.04833944,1058.5442 H 336.67419"
         id="path12984-8-1" /><path
         style="display:inline;overflow:hidden;fill:none;stroke:#fffeff;stroke-width:4.81174;stroke-dasharray:none;stroke-opacity:1"
         d="M 0.04833944,1190.543 H 311.81625"
         id="path12984-8-8" /><path
         style="display:inline;overflow:hidden;fill:none;stroke:#fffeff;stroke-width:4.81174;stroke-dasharray:none;stroke-opacity:1"
         d="M 0.04833944,1322.5451 H 503.08424"
         id="path12984-8-7" /><path
         style="display:inline;overflow:hidden;fill:none;stroke:#fffeff;stroke-width:4.81174;stroke-dasharray:none;stroke-opacity:1"
         d="M 0.04833944,1454.5439 H 129.52474"
         id="path12984-8-48" /><path
         style="display:inline;overflow:hidden;fill:none;stroke:#fffeff;stroke-width:4.81174;stroke-dasharray:none;stroke-opacity:1"
         d="m 1188.5424,926.54537 h -62.0882"
         id="path13179" /><path
         style="display:inline;overflow:hidden;fill:none;stroke:#fffeff;stroke-width:4.81174;stroke-dasharray:none;stroke-opacity:1"
         d="m 1188.5424,1058.5442 h -68.7126"
         id="path13181" /><path
         style="display:inline;overflow:hidden;fill:none;stroke:#fffeff;stroke-width:4.81174;stroke-dasharray:none;stroke-opacity:1"
         d="m 1188.5424,1190.543 h -63.6386"
         id="path13183" /><path
         style="display:inline;overflow:hidden;fill:none;stroke:#fffeff;stroke-width:4.81174;stroke-dasharray:none;stroke-opacity:1"
         d="m 1189.89,397.75484 -82.423,0.8057"
         id="path13185" /><path
         style="fill:none;stroke:#fffeff;stroke-width:4.81174;stroke-dasharray:none;stroke-opacity:1"
         d="M 1189.9157,266.0242 H 1001.0726"
         id="path13187" /></g><g
       id="g6784"
       transform="matrix(-4.7857122,0,0,4.7857122,464.93311,23.891368)"
       inkscape:label="trojan head"
       style="display:inline;overflow:hidden"
       sodipodi:insensitive="true"><path
         style="fill:#1f498a;fill-opacity:1;stroke:none;stroke-width:5.68706"
         d="m 65.396664,290.28012 c 0,-0.61966 2.134281,-1.7661 4.742846,-2.54765 6.293132,-1.88547 14.639268,-9.7187 17.991759,-16.88611 5.097524,-10.89816 3.610007,-24.09979 -6.499234,-57.68033 -5.544107,-18.41622 -7.729374,-27.69942 -9.800694,-41.63417 l -1.571563,-10.57265 5.603266,-11.1658 c 3.081796,-6.1412 6.972004,-15.53282 8.644906,-20.87026 5.222031,-16.66105 9.529651,-26.36461 16.04444,-36.142492 20.12318,-30.202375 55.06409,-51.329796 98.25836,-59.413041 16.33192,-3.056306 51.53399,-2.782309 69.27582,0.539212 18.70747,3.502297 38.44725,9.392493 55.13499,16.451841 14.11303,5.970179 17.18866,7.780732 10.85367,6.389337 -6.43522,-1.413413 -21.54387,-0.890746 -25.8129,0.892968 -6.10445,2.550603 -13.43908,9.665254 -16.86914,16.363215 -4.37414,8.5415 -5.0199,22.3641 -1.49628,32.02798 2.17538,5.96617 2.35023,7.52818 1.16344,10.39333 -0.76818,1.85456 -1.66296,3.37193 -1.98839,3.37193 -0.32543,0 -3.69397,-3.38558 -7.48563,-7.52351 -3.79166,-4.13793 -7.23844,-7.51995 -7.65949,-7.5156 -0.42106,0.004 -2.00263,1.82443 -3.5146,4.04463 l -2.74904,4.03671 4.48524,5.33296 c 8.28563,9.85162 10.62612,13.82314 15.94633,27.05884 2.91259,7.24601 5.17137,13.28423 5.0195,13.41827 -0.15186,0.13403 -4.96384,-0.4567 -10.69328,-1.31273 l -10.41717,-1.55641 -7.88046,-8.69044 -7.88046,-8.69043 -9.01464,0.69516 -9.01466,0.69516 -6.29699,-5.12897 c -3.46335,-2.82094 -9.6633,-7.01867 -13.77767,-9.3283 -4.11436,-2.30962 -9.30366,-6.10814 -11.53178,-8.44114 -6.12226,-6.41048 -12.03705,-9.0103 -20.23779,-8.89543 -24.06396,0.33706 -30.46059,0.21975 -33.33595,-0.6114 -3.20296,-0.92583 -3.1764,-0.9631 4.05112,-5.68413 4.00137,-2.613704 10.52294,-5.99169 14.49237,-7.506637 7.40684,-2.826839 8.61325,-4.549754 5.80431,-8.289262 -1.33755,-1.780657 -2.03485,-1.719123 -9.23176,0.814653 -23.31593,8.208715 -43.45434,24.865416 -54.00619,44.669116 -5.0644,9.50485 -9.39286,23.98405 -9.39286,31.42017 v 4.4447 l 6.65541,-0.11539 c 10.55664,-0.18301 12.27174,-1.00211 13.18539,-6.29717 1.06732,-6.18563 5.34983,-17.3837 7.25175,-18.96215 1.42145,-1.1797 7.3276,-0.39703 21.15439,2.80334 1.38993,0.32171 2.89583,1.75565 3.34644,3.18653 0.45062,1.43089 2.0108,4.3607 3.46708,6.5107 l 2.64777,3.9091 -5.57627,4.40779 c -8.5674,6.77214 -15.10137,14.9968 -21.60896,27.20037 l -5.93709,11.13371 -1.80526,-8.49682 c -0.9929,-4.67323 -2.13882,-10.18958 -2.54649,-12.25855 l -0.74122,-3.76175 h -9.90583 -9.90583 l 0.71807,6.07668 c 0.39495,3.34218 2.01947,11.02484 3.61006,17.07258 1.59058,6.04775 2.90971,13.07933 2.93139,15.62575 0.0667,7.83148 0.79965,8.04032 11.43383,3.25783 8.583,-3.86001 9.47458,-4.55717 8.87631,-6.94085 -1.69633,-6.75874 7.76458,-25.49388 18.89988,-37.42681 l 7.00205,-7.50362 -0.70336,8.97034 c -0.39554,5.04457 -0.24911,8.9669 0.33458,8.96248 0.57087,-0.005 3.3818,-2.8871 6.24653,-6.40619 7.21279,-8.86034 11.52141,-12.01578 15.39574,-11.27516 l 3.12366,0.59713 0.0181,16.35892 c 0.0244,22.07418 2.2917,31.31143 8.19556,33.38975 0.83132,0.29265 5.67592,32.68427 5.67592,37.94999 0,1.61338 -1.3503,2.21557 -6.37592,2.84348 -7.10002,0.88709 -18.45799,4.01018 -25.34471,6.96901 l -4.52024,1.94209 0.74886,-10.21844 c 0.41187,-5.62014 1.08197,-14.40078 1.48911,-19.51251 l 0.74025,-9.29409 -3.33491,-1.5622 c -1.88428,-0.88268 -8.36961,-1.71647 -14.90953,-1.91685 l -11.57463,-0.35464 -10.91317,5.42361 -10.91317,5.4236 -2.06614,8.43151 c -5.43233,22.16824 -24.622602,45.43547 -39.072668,47.37363 -2.742145,0.3678 -4.746438,0.16088 -4.746438,-0.49002 z M 263.43863,102.27288 c 2.53807,-3.564393 2.54523,-3.668252 0.36818,-5.347771 -1.22108,-0.942032 -7.06942,-4.041983 -12.99629,-6.888781 -15.15986,-7.281598 -28.73874,-9.936812 -47.90952,-9.368232 -8.08613,0.239824 -15.01285,0.74684 -15.39272,1.126699 -0.37986,0.379861 -0.36485,1.988774 0.0333,3.575361 0.71775,2.859695 0.86122,2.889953 16.55019,3.490016 19.27433,0.737195 26.13931,2.463139 41.86908,10.526427 6.68435,3.426481 12.76897,6.295511 13.52138,6.375621 0.7524,0.0801 2.53276,-1.49009 3.95635,-3.48934 z"
         id="path4232"
         transform="scale(0.26458333)" /><path
         style="fill:#1f498a;fill-opacity:1;stroke:none;stroke-width:2.84353"
         d="M 70.643625,134.26572 C 73.506575,110.20075 83.004864,87.081538 99.780381,63.345715 111.87684,46.230327 131.40159,31.563883 156.25752,20.921669 198.27775,2.9304547 248.85201,-1.2676085 292.25943,9.6324367 c 13.2323,3.3227673 27.39302,8.8608373 39.39948,15.4086193 l 6.99051,3.812312 9.321,14.20995 c 5.12655,7.815473 9.23062,14.300332 9.12016,14.410798 -0.11047,0.110467 -2.63271,-1.339662 -5.60499,-3.222508 C 339.50026,46.659262 326.63192,40.662059 310.48947,35.145647 251.67304,15.046115 187.70572,17.110128 144.0712,40.515412 123.02111,51.806549 105.5637,68.01837 92.662012,88.25656 c -4.461779,6.998953 -11.558454,21.99801 -16.177249,34.19116 -2.360772,6.2322 -4.718255,12.09186 -5.238851,13.02146 l -0.946538,1.69019 z"
         id="path4234"
         transform="scale(0.26458333)" /><path
         style="fill:#1f498a;fill-opacity:1;stroke:none;stroke-width:2.84353"
         d="m 266.21651,355.27974 c 0,-0.61731 -0.97661,-2.77918 -2.17025,-4.80417 -3.0571,-5.18634 -9.75618,-11.19745 -17.83839,-16.00644 -3.69531,-2.19875 -6.93774,-4.40691 -7.20539,-4.90702 -0.26765,-0.50011 -0.65897,-3.10793 -0.86961,-5.79516 -0.3018,-3.85043 -0.1213,-6.17368 0.85172,-10.96255 1.22095,-6.00911 6.438,-22.26372 7.48024,-23.30595 0.29653,-0.29653 1.36977,-0.3567 2.38499,-0.13372 2.12845,0.46748 2.18975,0.01 -1.05274,7.85836 -3.68857,8.92818 -5.92197,20.00173 -4.83505,23.97291 0.38233,1.39689 1.39775,2.24516 5.19579,4.34049 7.81544,4.31168 15.02856,9.75983 22.22028,16.78322 3.74821,3.66047 6.8844,7.01309 6.9693,7.45024 0.10666,0.5492 -1.00821,1.03446 -3.60738,1.57019 -3.13424,0.646 -4.07552,1.13288 -5.64263,2.91865 -1.51032,1.72106 -1.88088,1.9222 -1.88088,1.02095 z"
         id="path4962"
         transform="scale(0.26458333)" /><path
         style="fill:#1f498a;fill-opacity:1;stroke:none;stroke-width:2.84353"
         d="m 183.46314,369.37541 c -0.75095,-1.35279 -3.01255,-5.01068 -5.02579,-8.12864 -2.01323,-3.11797 -3.66043,-5.78737 -3.66043,-5.932 0,-0.14463 5.2737,-0.26144 11.71932,-0.25956 17.74508,0.005 28.3045,2.07028 35.64297,6.97072 l 3.48588,2.32778 11.47005,0.34051 c 12.18603,0.36175 20.7927,-0.22806 27.77272,-1.90326 l 4.11585,-0.98781 0.30891,-2.30314 c 0.42551,-3.17237 1.834,-4.35153 6.09418,-5.10195 4.09458,-0.72124 3.51409,-1.08291 7.55141,4.70486 1.22119,1.75066 3.30009,5.33156 4.61978,7.95756 l 2.39943,4.77453 H 237.39296 184.8285 Z"
         id="path4964"
         transform="scale(0.26458333)" /><path
         style="fill:#1f498a;fill-opacity:1;stroke:none;stroke-width:2.84353"
         d="m 222.52228,358.74237 c -2.83643,-2.31049 -8.59646,-4.81112 -14.01742,-6.08547 -4.2628,-1.00208 -7.66078,-1.24201 -21.10731,-1.49035 l -16.02658,-0.29598 -4.75648,-6.09316 c -12.09063,-15.48839 -29.37742,-29.93818 -44.23734,-36.97739 -5.87295,-2.78205 -6.06833,-3.06722 -6.03796,-8.81284 0.0196,-3.71788 0.82395,-6.90521 3.53208,-13.99704 l 2.33389,-6.11183 4.1494,4.29393 c 9.79493,10.13609 31.25007,26.46828 47.86154,36.43338 2.71542,1.62896 7.924,4.37054 11.57463,6.09239 10.25906,4.83878 18.19496,10.47401 26.62993,18.90977 6.19851,6.19906 12.8061,14.59633 12.06171,15.32861 -0.12315,0.12113 -1.00519,-0.41618 -1.96009,-1.19402 z"
         id="path4966"
         transform="scale(0.26458333)" /><path
         style="fill:#1f498a;fill-opacity:1;stroke:none;stroke-width:2.84353"
         d="m 141.59546,137.42364 c -6.63178,-1.5256 -12.19754,-2.91359 -12.36837,-3.08442 -0.85761,-0.85761 12.60345,-20.80522 14.54171,-21.54901 0.4355,-0.16711 5.08349,0.10411 10.32887,0.60271 5.24538,0.49861 9.85466,0.90656 10.24283,0.90656 0.38817,0 -0.32098,1.23704 -1.57591,2.74897 -5.21446,6.28242 -7.2501,11.10441 -7.94025,18.80878 -0.22097,2.46684 -0.57488,4.45256 -0.78644,4.4127 -0.21157,-0.0399 -5.81067,-1.32068 -12.44244,-2.84629 z"
         id="path4968"
         transform="scale(0.26458333)" /><path
         style="fill:#1f498a;fill-opacity:1;stroke:none;stroke-width:2.84353"
         d="m 159.50378,176.51312 c 0.64145,-5.02698 3.11113,-13.19184 4.7872,-15.82666 0.44955,-0.7067 2.49412,0.32244 7.54475,3.79764 0.133,0.0915 -1.56433,2.0542 -3.77185,4.36151 -2.20752,2.30732 -5.10308,5.49727 -6.43458,7.08878 l -2.42091,2.89366 z"
         id="path4970"
         transform="scale(0.26458333)" /><path
         style="fill:#1f498a;fill-opacity:1;stroke:none;stroke-width:2.84353"
         d="m 124.43574,147.08062 c -0.005,-0.27276 0.42483,-2.29109 0.9544,-4.48517 0.75674,-3.13528 1.19034,-3.98925 2.02556,-3.98925 0.58448,0 1.05477,0.19533 1.04509,0.43405 -0.0263,0.64857 -4.01522,8.61671 -4.02505,8.04037 z"
         id="path4972"
         transform="scale(0.26458333)" /><path
         style="fill:#1f498a;fill-opacity:1;stroke:none;stroke-width:1.00534"
         d="m 214.13943,134.17465 c -0.23196,-1.96163 -0.77677,-4.49313 -1.32181,-6.14191 -0.30756,-0.93037 -0.51842,-1.73236 -0.46858,-1.7822 0.0498,-0.0498 0.37819,0.056 0.72967,0.2353 1.09463,0.55826 5.24283,3.34671 5.24283,3.52427 0,0.41175 -3.57468,5.13645 -3.88621,5.13645 -0.0995,0 -0.23269,-0.43736 -0.2959,-0.97191 z"
         id="path4976"
         transform="scale(0.26458333)" /><path
         style="fill:#1f498a;fill-opacity:1;stroke:none;stroke-width:1.00534"
         d="m 205.87135,161.78294 c -1.09002,-2.36484 -1.08079,-2.4971 0.26986,-3.86611 0.96753,-0.98069 1.14897,-1.09594 1.05811,-0.67213 -0.0603,0.28135 -0.17424,1.68848 -0.25315,3.12698 -0.0789,1.43849 -0.20937,2.65616 -0.28991,2.70594 -0.0805,0.0498 -0.43375,-0.53283 -0.78491,-1.29468 z"
         id="path4978"
         transform="scale(0.26458333)" /><path
         style="fill:#1f498a;fill-opacity:1;stroke:none;stroke-width:4.02136"
         d="m 107.21695,302.15121 c -2.47581,-0.82156 -6.25091,-1.70154 -8.389113,-1.95552 -3.922604,-0.46593 -5.457967,-1.87012 -2.046125,-1.87131 3.436698,-0.001 11.657348,-4.57448 14.779578,-8.22211 3.23928,-3.78437 3.52942,-3.8145 2.1155,-0.21964 -0.49841,1.26721 -1.14294,4.88213 -1.43229,8.03317 l -0.52608,5.72915 z"
         id="path4982"
         transform="scale(0.26458333)" /><path
         style="fill:#a0a0a0;fill-opacity:1;stroke:none;stroke-width:5.68706"
         d="M 60.584148,362.13744 C 50.003071,343.28299 33.251467,325.4425 14.429202,312.98231 l -7.6996843,-5.09713 21.7129363,-0.31561 c 16.802503,-0.24424 23.089705,0.0846 27.800735,1.45416 8.608275,2.50249 22.671791,12.25625 33.178128,23.0107 8.261377,8.45647 22.151563,27.30408 26.772923,36.32819 l 1.92644,3.76176 H 92.15474 66.188798 Z"
         id="path5191"
         transform="scale(0.26458333)" /><path
         style="fill:#a0a0a0;fill-opacity:1;stroke:none;stroke-width:5.68706"
         d="M 120.52234,361.99658 C 108.51871,341.09064 92.355681,324.52486 69.670119,309.87721 l -10.773565,-6.95628 15.403418,-0.81481 c 20.458037,-1.08218 32.450108,1.16764 47.838398,8.97489 18.36185,9.31589 38.62784,30.41534 52.79543,54.96669 l 3.5066,6.07668 h -26.05148 -26.05147 z"
         id="path5193"
         transform="scale(0.26458333)" /><path
         style="fill:#a0a0a0;fill-opacity:1;stroke:none;stroke-width:5.68706"
         d="m 175.31131,314.16825 c -15.67067,-9.55134 -26.09658,-17.24009 -39.77752,-29.33455 l -11.54503,-10.20624 2.11626,-5.36294 c 8.28137,-20.98633 15.58334,-37.91349 16.69046,-38.69122 1.44661,-1.01622 11.92614,-0.42367 13.08996,0.74015 0.40397,0.40397 -0.13176,10.1986 -1.1905,21.76585 -1.05874,11.56725 -1.70845,21.2479 -1.44381,21.51255 0.26465,0.26465 5.34644,-1.33421 11.29285,-3.55302 5.94642,-2.21881 15.23897,-4.89242 20.65011,-5.94136 5.41114,-1.04893 11.34576,-2.38124 13.18804,-2.96068 2.98462,-0.93874 4.3417,-0.35438 12.45455,5.3629 l 9.10495,6.41644 -10.24959,10.03974 c -11.0906,10.86354 -16.1776,18.69588 -19.48743,30.00439 -1.16427,3.97789 -2.39724,7.23326 -2.73994,7.23414 -0.34269,8.8e-4 -5.8117,-3.16089 -12.15336,-7.02615 z"
         id="path5195"
         transform="scale(0.26458333)" /><path
         style="fill:#a0a0a0;fill-opacity:1;stroke:none;stroke-width:5.68706"
         d="m 235.31685,360.54975 -7.17166,-0.57873 -4.48898,-6.94478 c -5.29911,-8.1981 -15.36279,-17.71625 -25.44066,-24.06158 -3.97878,-2.50516 -7.23414,-4.66255 -7.23414,-4.7942 0,-1.94694 4.50547,-14.32834 6.97902,-19.17894 3.4226,-6.71168 16.17472,-22.45915 19.09443,-23.57955 1.45506,-0.55836 1.58414,0.35386 0.84368,5.96222 -0.48082,3.64179 -0.82962,14.43431 -0.77512,23.98338 0.086,15.06946 0.44086,18.24073 2.68745,24.01736 1.4236,3.66047 3.01383,6.65541 3.53385,6.65541 0.52002,0 1.30982,-1.95322 1.75511,-4.34049 1.89574,-10.16322 16.37749,-50.87856 17.6456,-49.61045 0.27376,0.27376 -1.05548,5.36291 -2.95387,11.30922 -3.94629,12.36096 -5.4016,21.93289 -4.31113,28.35518 0.6679,3.93353 1.51865,4.87225 7.35407,8.11453 3.62934,2.01653 8.76665,5.53372 11.41626,7.81597 4.76476,4.10415 10.62163,13.97554 9.15946,15.43771 -1.13609,1.13609 -19.91929,2.09736 -28.09337,1.43774 z"
         id="path5197"
         transform="scale(0.26458333)" /><path
         style="fill:#a0a0a0;fill-opacity:1;stroke:none;stroke-width:5.68706"
         d="m 221.85853,329.24399 c -2.7048,-10.00868 -1.23961,-52.03158 1.81415,-52.03158 0.87633,0 8.40475,4.17362 15.59957,8.64812 0.14088,0.0876 -1.761,4.83807 -4.22638,10.55657 -2.46538,5.71851 -5.87899,15.06551 -7.5858,20.77112 -4.5766,15.29892 -4.67049,15.50097 -5.60154,12.05577 z"
         id="path5199"
         transform="scale(0.26458333)" /><path
         style="fill:#a0a0a0;fill-opacity:1;stroke:none;stroke-width:5.68706"
         d="m 293.99363,366.62963 c -8.0801,-15.3538 -21.48484,-29.36706 -39.2109,-40.99091 l -8.54011,-5.60018 14.90616,0.0299 c 12.34158,0.0247 16.21209,0.47509 22.49659,2.61756 19.09276,6.50897 35.31102,21.25347 49.60563,45.09791 l 2.6021,4.34049 h -19.4839 -19.4839 z"
         id="path5201"
         transform="scale(0.26458333)" /><path
         style="fill:#a0a0a0;fill-opacity:1;stroke:none;stroke-width:5.68706"
         d="m 334.76602,362.34821 c -7.12223,-11.34872 -19.4714,-24.97697 -29.38667,-32.43041 l -6.98325,-5.24941 h 9.79761 c 8.93171,0 10.53237,0.36759 18.1114,4.15923 12.48253,6.24475 26.40701,20.62383 38.84551,40.11374 l 2.03142,3.18302 -13.15458,-0.0227 -13.15458,-0.0227 z"
         id="path5203"
         transform="scale(0.26458333)" /><path
         style="fill:#a0a0a0;fill-opacity:1;stroke:none;stroke-width:2.01068"
         d="m 179.07732,159.96853 c -8.23238,-1.99194 -15.09861,-8.82336 -17.21999,-17.13268 -0.78589,-3.07828 -0.79283,-8.34337 -0.0149,-11.26692 2.25496,-8.4739 9.51803,-15.34095 18.13436,-17.14558 11.94785,-2.50238 24.212,5.287 27.28678,17.33077 1.30185,5.09928 0.61219,10.95842 -1.9046,16.18072 -1.73691,3.60406 -6.49371,8.30188 -10.28002,10.15255 -4.94293,2.41601 -10.89791,3.11607 -16.00167,1.88114 z"
         id="path5205"
         transform="scale(0.26458333)" /><path
         style="fill:#a0a0a0;fill-opacity:1;stroke:none;stroke-width:2.01068"
         d="m 228.57996,230.63616 c -2.43626,-3.31886 -8.04315,-8.33417 -11.11993,-9.94668 -3.91308,-2.05081 -6.91503,-2.98956 -14.81879,-4.63404 -3.75489,-0.78125 -7.22397,-1.59192 -7.70905,-1.80148 -0.6015,-0.25985 -1.03444,-1.00758 -1.36139,-2.35127 -2.53182,-10.40514 -3.04378,-14.7447 -3.0567,-25.90993 -0.009,-7.47315 0.15663,-10.62019 0.74151,-14.11826 0.41396,-2.47581 0.90691,-4.79013 1.09544,-5.14294 0.18853,-0.3528 1.61239,-1.13957 3.16413,-1.74837 1.55174,-0.60881 3.81657,-1.73442 5.03295,-2.50138 l 2.2116,-1.39445 1.15584,2.00199 c 1.20543,2.08787 3.23757,4.07906 4.16296,4.07906 0.75138,0 1.03544,-0.94368 1.03544,-3.43977 0,-3.71123 1.2391,-9.64316 3.32878,-15.93587 2.27098,-6.83866 3.36029,-9.20012 5.8907,-12.77003 2.72403,-3.84306 2.4002,-3.79966 6.66081,-0.8929 3.88061,2.64751 8.67321,6.64543 8.67321,7.23506 0,0.18625 -0.87216,0.46942 -1.93814,0.62927 -2.71564,0.40724 -8.02506,2.40994 -10.35814,3.90707 -2.79886,1.79603 -5.16846,4.52963 -6.66535,7.68925 -1.28727,2.71713 -1.29496,2.77258 -1.2881,9.28106 0.007,6.4875 0.0209,6.58826 1.53355,10.97761 4.25,12.33254 13.04189,25.13586 23.55483,34.30207 l 2.58791,2.25639 -1.31341,2.21775 c -2.32781,3.93062 -6.37427,12.42779 -7.75076,16.27587 -0.73643,2.05874 -1.48223,3.74317 -1.65733,3.74317 -0.17511,0 -0.98176,-0.90372 -1.79257,-2.00825 z"
         id="path5207"
         transform="scale(0.26458333)" /><path
         style="fill:#a0a0a0;fill-opacity:1;stroke:none;stroke-width:2.01068"
         d="m 210.12995,261.23684 c -5.84802,-4.29101 -10.79126,-7.95157 -10.98498,-8.13457 -0.34119,-0.32233 -5.2801,-36.03704 -5.01951,-36.29763 0.25091,-0.25091 13.25562,2.33223 16.04819,3.18767 4.75567,1.45679 8.95581,3.89581 12.21804,7.09503 3.92467,3.84887 6.49735,7.33329 6.45699,8.7453 -0.0405,1.41751 -7.40718,32.52093 -7.79513,32.9125 -0.15996,0.16145 -5.07558,-3.21729 -10.9236,-7.5083 z"
         id="path5209"
         transform="scale(0.26458333)" /><path
         style="fill:#a0a0a0;fill-opacity:1;stroke:none;stroke-width:2.01068"
         d="m 249.40099,208.97175 c -11.84207,-5.73328 -25.66214,-23.16278 -29.89191,-37.69884 -3.93498,-13.52303 1.18731,-22.83287 14.42554,-26.21864 2.83612,-0.72536 15.28587,-2.04265 19.08921,-2.01981 l 1.71873,0.0103 6.89559,8.16334 c 5.67511,6.71846 7.12373,8.2058 8.1845,8.40323 0.7089,0.13193 5.84436,0.84043 11.41213,1.57443 5.56776,0.734 10.22965,1.44099 10.35976,1.57109 0.1301,0.1301 -0.96997,1.86648 -2.4446,3.85864 -2.62897,3.55161 -3.92012,6.26476 -3.92012,8.23751 0,0.54517 0.99111,2.76821 2.20246,4.94011 2.87597,5.15645 5.87158,11.07591 6.19202,12.2357 0.25168,0.91091 0.21015,0.92076 -3.88173,0.92076 -4.88114,0 -2.61744,-1.00897 -21.51515,9.58967 -7.85221,4.40385 -14.56869,8.007 -14.92551,8.007 -0.35682,0 -2.11224,-0.70853 -3.90092,-1.57451 z m 24.77976,-25.14961 c 0,-1.40086 2.14915,-4.53021 3.82072,-5.5633 1.84498,-1.14026 3.54533,-3.13781 3.54533,-4.165 0,-0.72851 -0.3322,-0.78705 -4.46587,-0.78705 -2.45622,0 -7.75057,-0.44737 -11.76522,-0.99416 -14.63269,-1.99293 -16.50913,-1.89377 -19.13352,1.01113 -1.32602,1.46774 -5.96712,10.04298 -5.96712,11.02528 0,0.27523 5.74827,0.41605 16.98284,0.41605 h 16.98284 z"
         id="path5211"
         transform="scale(0.26458333)" /><path
         style="fill:#a0a0a0;fill-opacity:1;stroke:none;stroke-width:2.01068"
         d="m 241.51937,263.4443 -4.21292,-2.31373 0.32894,-4.31937 c 0.55161,-7.24324 0.35922,-14.34297 -0.43,-15.86812 -0.86936,-1.68001 -2.20828,-2.95719 -3.64022,-3.47238 -0.61896,-0.22268 -1.12537,-0.65141 -1.12537,-0.95272 0,-0.30132 0.8028,-2.7308 1.784,-5.39885 2.15943,-5.87187 6.91246,-15.34872 9.42608,-18.79424 l 1.83713,-2.51823 3.27641,1.63355 c 5.80973,2.89661 4.26705,3.37927 22.31514,-6.9817 l 15.7707,-9.05357 h 4.05087 c 2.75385,0 4.17937,0.16378 4.4522,0.51153 0.86243,1.09927 10.40887,24.80791 10.27305,25.51317 -0.0794,0.41209 -1.06385,1.44571 -2.18773,2.29693 l -2.04344,1.54767 -21.53547,0.002 -21.53546,0.002 -0.25577,1.27883 c -0.14067,0.70335 -0.25576,1.87621 -0.25576,2.60636 0,2.17171 -1.17991,8.35017 -2.30158,12.05193 -0.57592,1.90067 -2.47519,6.78068 -4.2206,10.84447 -1.74541,4.06378 -3.59286,8.67776 -4.10545,10.25327 -0.51258,1.57552 -1.04893,2.99513 -1.19189,3.15469 -0.14297,0.15956 -2.15575,-0.75106 -4.47286,-2.02361 z"
         id="path5213"
         transform="scale(0.26458333)" /><path
         style="fill:#a0a0a0;fill-opacity:1;stroke:none;stroke-width:2.01068"
         d="m 262.22093,274.65776 c -9.59041,-5.02365 -13.83222,-7.32495 -13.99905,-7.59489 -0.25418,-0.41128 2.27268,-7.80275 3.8621,-11.29725 4.68916,-10.30955 6.94145,-17.08543 7.90686,-23.78727 l 0.52302,-3.6308 4.07118,-0.30885 c 4.38219,-0.33244 21.0528,0.0308 21.05587,0.45881 0.10908,15.21567 0.767,25.89139 2.22931,36.1741 0.51972,3.65451 0.78972,6.81255 0.60002,7.01787 -0.24097,0.2608 -21.61167,4.70893 -22.7709,4.73957 -0.0508,10e-4 -1.61604,-0.79574 -3.47841,-1.77129 z"
         id="path5215"
         transform="scale(0.26458333)" /><path
         style="fill:#a0a0a0;fill-opacity:1;stroke:none;stroke-width:2.01068"
         d="m 258.01636,284.24892 c -2.70088,-1.0786 -8.82391,-3.49108 -13.60673,-5.36107 l -8.69603,-3.39997 0.01,-4.5412 c 0.009,-4.07899 0.39465,-7.33276 0.93353,-7.87165 0.10803,-0.10802 6.43131,3.18966 14.05174,7.32819 13.8029,7.49613 13.85577,7.5299 13.97123,8.92487 0.14609,1.76501 -0.82681,6.62328 -1.35595,6.77107 -0.21827,0.061 -2.60666,-0.77164 -5.30755,-1.85024 z"
         id="path5217"
         transform="scale(0.26458333)" /><path
         style="fill:#a0a0a0;fill-opacity:1;stroke:none;stroke-width:2.01068"
         d="m 271.41698,289.56915 c -2.98305,-1.28542 -5.58912,-2.51139 -5.79127,-2.72439 -0.33049,-0.34822 0.44946,-7.76403 0.85972,-8.17429 0.087,-0.087 5.26583,-1.14573 11.50844,-2.35266 7.89798,-1.52697 11.4602,-2.06122 11.71184,-1.75651 0.1989,0.24084 0.66798,1.62205 1.04239,3.06936 l 0.68075,2.63146 -1.65317,3.3023 -1.65317,3.3023 -4.90714,2.55766 c -2.69893,1.40671 -5.23734,2.54061 -5.64091,2.51978 -0.40356,-0.0208 -3.17443,-1.08959 -6.15748,-2.37501 z"
         id="path5219"
         transform="scale(0.26458333)" /></g><g
       id="g11712"
       sodipodi:insensitive="true"><path
         d="m 2757.45,733.678 h 45.42 v -34.179 c -0.08,-8.677 -2.14,-15.613 -6.17,-20.807 -4.04,-5.194 -9.55,-7.857 -16.54,-7.989 -6.99,0.132 -12.5,2.795 -16.54,7.989 -4.03,5.194 -6.09,12.13 -6.17,20.807 z m -31.56,-193.035 v -34.369 l 103.87,-77.483 h -103.87 v -34.603 h 160.72 v 34.603 l -103.87,77.483 h 103.87 v 34.369 z m 0,67.936 v -34.603 h 160.72 v 34.603 z m 0,159.468 v -72.294 c 0.27,-17.78 5.33,-32.237 15.2,-43.371 9.86,-11.133 22.88,-16.873 39.07,-17.218 12.06,0.146 22.46,3.478 31.21,9.996 8.75,6.517 15.11,15.344 19.09,26.48 l 56.15,-39.518 v 39.284 l -52.18,36.755 v 25.517 h 52.18 v 34.369 z m 0,150 V 794.29 h 31.09 v 89.154 h 32.09 v -80.73 h 31.09 v 80.73 h 35.36 V 794.29 h 31.09 v 123.757 z m 0,150.003 V 944.29 h 31.09 v 89.15 h 32.09 v -80.726 h 31.09 v 80.726 h 35.36 v -89.15 h 31.09 v 123.76 z m 0,179.59 v -34.37 l 103.87,-77.48 h -103.87 v -34.6 h 160.72 v 34.6 l -103.87,77.48 h 103.87 v 34.37 z m 0,67.94 v -34.6 h 160.72 v 34.6 z m 0,354.06 v -34.37 l 103.87,-77.48 h -103.87 v -34.6 h 160.72 v 34.6 l -103.87,77.48 h 103.87 v 34.37 z m 0,151.41 v -123.76 h 31.09 v 89.15 h 32.09 v -80.73 h 31.09 v 80.73 h 35.36 v -89.15 h 31.09 v 123.76 z m -2.81,-1539.785 c 0.07,-12.25 2.44,-24.087 7.13,-35.51 4.68,-11.422 11.27,-21.264 19.75,-29.525 l 22.47,25.016 c -5.56,4.941 -9.94,10.965 -13.14,18.075 -3.19,7.109 -4.82,14.423 -4.89,21.944 0.13,9.246 2.54,17.673 7.23,25.28 4.69,7.608 10.93,13.694 18.72,18.259 7.78,4.564 16.38,6.905 25.79,7.022 9.48,-0.117 18.12,-2.458 25.94,-7.022 7.82,-4.565 14.08,-10.651 18.78,-18.259 4.7,-7.607 7.11,-16.034 7.24,-25.28 -0.02,-5.55 -0.92,-11.012 -2.7,-16.386 -1.77,-5.374 -4.31,-10.368 -7.61,-14.982 h -24.59 v 37.454 h -26.88 V 216.23 h 66.22 c 8.48,8.261 15.07,18.103 19.75,29.525 4.69,11.423 7.06,23.26 7.13,35.51 -0.19,15.727 -4.04,30.069 -11.55,43.025 -7.52,12.956 -17.54,23.324 -30.07,31.104 -12.53,7.78 -26.42,11.771 -41.66,11.971 -15.25,-0.2 -29.12,-4.191 -41.62,-11.971 -12.49,-7.78 -22.47,-18.148 -29.95,-31.104 -7.47,-12.956 -11.3,-27.298 -11.49,-43.025 z m 0,1128.995 c 0.07,-12.25 2.44,-24.08 7.13,-35.5 4.68,-11.43 11.27,-21.27 19.75,-29.53 l 22.47,25.02 c -5.56,4.94 -9.94,10.96 -13.14,18.07 -3.19,7.11 -4.82,14.42 -4.89,21.94 0.13,9.25 2.54,17.68 7.23,25.29 4.69,7.6 10.93,13.69 18.72,18.25 7.78,4.57 16.38,6.91 25.79,7.03 9.48,-0.12 18.12,-2.46 25.94,-7.03 7.82,-4.56 14.08,-10.65 18.78,-18.25 4.7,-7.61 7.11,-16.04 7.24,-25.29 -0.02,-5.55 -0.92,-11.01 -2.7,-16.38 -1.77,-5.38 -4.31,-10.37 -7.61,-14.98 h -24.59 v 37.45 h -26.88 v -71.12 h 66.22 c 8.48,8.26 15.07,18.1 19.75,29.53 4.69,11.42 7.06,23.25 7.13,35.5 -0.19,15.73 -4.04,30.07 -11.55,43.03 -7.52,12.96 -17.54,23.32 -30.07,31.1 -12.53,7.78 -26.42,11.77 -41.66,11.97 -15.25,-0.2 -29.12,-4.19 -41.62,-11.97 -12.49,-7.78 -22.47,-18.14 -29.95,-31.1 -7.47,-12.96 -11.3,-27.3 -11.49,-43.03 z"
         stroke="#ffffff"
         stroke-width="7"
         stroke-linejoin="round"
         stroke-miterlimit="10"
         fill="none"
         fill-rule="evenodd"
         id="path629"
         style="display:inline;overflow:hidden"
         transform="matrix(0.30974639,0,0,0.30974639,-465.8183,-65.892349)" /><path
         d="m 2950.61,734.515 h 45.42 v -34.18 c -0.08,-8.676 -2.14,-15.612 -6.17,-20.806 -4.04,-5.195 -9.55,-7.858 -16.54,-7.989 -6.99,0.131 -12.5,2.794 -16.54,7.989 -4.03,5.194 -6.09,12.13 -6.17,20.806 z M 2919.05,541.48 v -34.369 l 103.87,-77.483 h -103.87 v -34.603 h 160.73 v 34.603 l -103.88,77.483 h 103.88 v 34.369 z m 0,67.936 v -34.603 h 160.73 v 34.603 z m 0,159.468 V 696.59 c 0.27,-17.78 5.34,-32.237 15.2,-43.371 9.86,-11.134 22.88,-16.873 39.07,-17.218 12.06,0.146 22.47,3.478 31.21,9.995 8.75,6.518 15.11,15.345 19.09,26.481 l 56.16,-39.518 v 39.283 l -52.19,36.755 v 25.518 h 52.19 v 34.369 z m 0,150 V 795.127 h 31.09 v 89.154 h 32.09 v -80.73 h 31.09 v 80.73 h 35.36 v -89.154 h 31.1 v 123.757 z m 0,149.996 V 945.127 h 31.09 v 89.153 h 32.09 v -80.729 h 31.09 v 80.729 h 35.36 v -89.153 h 31.1 v 123.753 z m 0,179.6 v -34.37 l 103.87,-77.48 h -103.87 v -34.61 h 160.73 v 34.61 l -103.88,77.48 h 103.88 v 34.37 z m 0,67.94 v -34.61 h 160.73 v 34.61 z m 0,354.06 v -34.37 l 103.87,-77.48 h -103.87 v -34.61 h 160.73 v 34.61 l -103.88,77.48 h 103.88 v 34.37 z m 0,151.4 v -123.75 h 31.09 v 89.15 h 32.09 v -80.73 h 31.09 v 80.73 h 35.36 v -89.15 h 31.1 v 123.75 z m -2.81,-1539.779 c 0.07,-12.25 2.44,-24.086 7.13,-35.509 4.69,-11.423 11.27,-21.264 19.75,-29.525 l 22.48,25.016 c -5.57,4.94 -9.95,10.965 -13.15,18.074 -3.19,7.109 -4.82,14.424 -4.88,21.944 0.12,9.246 2.53,17.673 7.22,25.281 4.69,7.608 10.93,13.694 18.72,18.259 7.79,4.564 16.38,6.905 25.79,7.022 9.48,-0.117 18.13,-2.458 25.95,-7.022 7.81,-4.565 14.07,-10.651 18.77,-18.259 4.7,-7.608 7.12,-16.035 7.24,-25.281 -0.02,-5.55 -0.92,-11.011 -2.7,-16.386 -1.77,-5.374 -4.31,-10.368 -7.61,-14.981 h -24.59 v 37.453 h -26.88 v -71.12 h 66.22 c 8.48,8.261 15.07,18.102 19.75,29.525 4.69,11.423 7.07,23.259 7.13,35.509 -0.19,15.728 -4.04,30.07 -11.55,43.026 -7.51,12.956 -17.53,23.324 -30.06,31.104 -12.53,7.78 -26.42,11.77 -41.67,11.971 -15.25,-0.201 -29.12,-4.191 -41.61,-11.971 -12.5,-7.78 -22.48,-18.148 -29.96,-31.104 -7.47,-12.956 -11.3,-27.298 -11.49,-43.026 z m 0,1128.999 c 0.07,-12.25 2.44,-24.09 7.13,-35.51 4.69,-11.42 11.27,-21.26 19.75,-29.52 l 22.48,25.01 c -5.57,4.94 -9.95,10.97 -13.15,18.08 -3.19,7.11 -4.82,14.42 -4.88,21.94 0.12,9.25 2.53,17.67 7.22,25.28 4.69,7.61 10.93,13.7 18.72,18.26 7.79,4.56 16.38,6.91 25.79,7.02 9.48,-0.11 18.13,-2.46 25.95,-7.02 7.81,-4.56 14.07,-10.65 18.77,-18.26 4.7,-7.61 7.12,-16.03 7.24,-25.28 -0.02,-5.55 -0.92,-11.01 -2.7,-16.38 -1.77,-5.38 -4.31,-10.37 -7.61,-14.99 h -24.59 v 37.46 h -26.88 v -71.12 h 66.22 c 8.48,8.26 15.07,18.1 19.75,29.52 4.69,11.42 7.07,23.26 7.13,35.51 -0.19,15.73 -4.04,30.07 -11.55,43.03 -7.51,12.95 -17.53,23.32 -30.06,31.1 -12.53,7.78 -26.42,11.77 -41.67,11.97 -15.25,-0.2 -29.12,-4.19 -41.61,-11.97 -12.5,-7.78 -22.48,-18.15 -29.96,-31.1 -7.47,-12.96 -11.3,-27.3 -11.49,-43.03 z"
         stroke="#1f498a"
         stroke-width="7"
         stroke-linejoin="round"
         stroke-miterlimit="10"
         fill="#1f498a"
         fill-rule="evenodd"
         id="path633"
         style="display:inline;overflow:hidden"
         transform="matrix(0.30974639,0,0,0.30974639,-465.8183,-65.892349)" /></g><g
       id="g16241"><path
         d="m 1524.0483,232.54387 h 1192.58"
         stroke="#1f498a"
         stroke-width="4.58333"
         stroke-linejoin="round"
         stroke-miterlimit="10"
         fill="none"
         fill-rule="evenodd"
         id="path780"
         style="display:inline;overflow:hidden;stroke-width:4.81174;stroke-dasharray:none"
         transform="matrix(0.31173759,0,0,0.31173759,-475.10316,-71.742665)" /><path
         d="M 1526.4542,230.138 V 1818.72"
         stroke="#1f498a"
         stroke-width="4.58333"
         stroke-linejoin="round"
         stroke-miterlimit="10"
         fill="none"
         fill-rule="evenodd"
         id="path776"
         style="display:inline;overflow:hidden;stroke-width:4.81174;stroke-dasharray:none"
         transform="matrix(0.31173759,0,0,0.31173759,-475.10316,-71.742665)" /><path
         d="M 2714.34,967.59004 V 1476.9234"
         stroke="#1f498a"
         stroke-width="4.06043"
         stroke-linejoin="round"
         stroke-miterlimit="10"
         fill="none"
         fill-rule="evenodd"
         id="path778"
         style="display:inline;overflow:hidden;stroke-width:4.81174;stroke-dasharray:none"
         transform="matrix(0.31173759,0,0,0.31173759,-475.10316,-71.742665)" /><path
         d="M 2714.3411,230.138 V 792.20304"
         stroke="#1f498a"
         stroke-width="4.06043"
         stroke-linejoin="round"
         stroke-miterlimit="10"
         fill="none"
         fill-rule="evenodd"
         id="path13211"
         style="display:inline;overflow:hidden;stroke-width:4.81174;stroke-dasharray:none"
         transform="matrix(0.31173759,0,0,0.31173759,-475.10316,-71.742665)" /></g></g></svg>
