<?xml version="1.0" encoding="UTF-8" standalone="no"?>
<!-- Created with Inkscape (http://www.inkscape.org/) -->

<svg
   width="181.367"
   height="205.69"
   viewBox="0 0 170.03151 192.83431"
   id="svg3476"
   version="1.1"
   inkscape:version="1.3.2 (091e20e, 2023-11-25, custom)"
   sodipodi:docname="css.svg"
   xmlns:inkscape="http://www.inkscape.org/namespaces/inkscape"
   xmlns:sodipodi="http://sodipodi.sourceforge.net/DTD/sodipodi-0.dtd"
   xmlns="http://www.w3.org/2000/svg"
   xmlns:svg="http://www.w3.org/2000/svg"
   xmlns:rdf="http://www.w3.org/1999/02/22-rdf-syntax-ns#"
   xmlns:cc="http://creativecommons.org/ns#"
   xmlns:dc="http://purl.org/dc/elements/1.1/">
  <defs
     id="defs3478" />
  <sodipodi:namedview
     id="base"
     pagecolor="#ffffff"
     bordercolor="#666666"
     borderopacity="1.0"
     inkscape:pageopacity="0.0"
     inkscape:pageshadow="2"
     inkscape:zoom="0.35"
     inkscape:cx="-738.57143"
     inkscape:cy="248.57143"
     inkscape:document-units="px"
     inkscape:current-layer="layer1"
     showgrid="false"
     fit-margin-top="0"
     fit-margin-left="0"
     fit-margin-right="0"
     fit-margin-bottom="0"
     inkscape:window-width="1920"
     inkscape:window-height="1130"
     inkscape:window-x="-6"
     inkscape:window-y="-6"
     inkscape:window-maximized="1"
     units="px"
     inkscape:showpageshadow="2"
     inkscape:pagecheckerboard="0"
     inkscape:deskcolor="#d1d1d1" />
  <metadata
     id="metadata3481">
    <rdf:RDF>
      <cc:Work
         rdf:about="">
        <dc:format>image/svg+xml</dc:format>
        <dc:type
           rdf:resource="http://purl.org/dc/dcmitype/StillImage" />
      </cc:Work>
    </rdf:RDF>
  </metadata>
  <g
     inkscape:label="Calque 1"
     inkscape:groupmode="layer"
     id="layer1"
     transform="translate(-193.633,-548.36217)">
    <g
       id="g1"
       transform="translate(-36.093749,-47.165626)">
      <g
         id="g3013"
         transform="matrix(0.46875001,0,0,0.46875001,194.74253,548.36217)">
        <polygon
           id="polygon2989"
           points="107.644,470.877 74.633,100.62 437.367,100.62 404.321,470.819 255.778,512 "
           style="fill:#264de4" />
        <polygon
           id="polygon2991"
           points="256,130.894 256,480.523 376.03,447.246 404.27,130.894 "
           style="fill:#2965f1" />
        <polygon
           id="polygon2993"
           points="256,313.627 256,268.217 150.31,268.217 154.38,313.627 "
           style="fill:#ebebeb" />
        <polygon
           id="polygon2995"
           points="146.26,221.716 256,221.716 256,176.305 255.843,176.305 142.132,176.305 "
           style="fill:#ebebeb" />
        <polygon
           id="polygon2997"
           points="256,433.399 256,386.153 255.801,386.206 205.227,372.55 201.994,336.333 177.419,336.333 156.409,336.333 162.771,407.634 255.791,433.457 "
           style="fill:#ebebeb" />
        <polygon
           id="polygon3005"
           points="255.843,433.435 348.937,407.634 349.62,399.962 360.291,280.411 361.399,268.217 369.597,176.305 255.843,176.305 255.843,221.716 319.831,221.716 315.699,268.217 255.843,268.217 255.843,313.627 311.761,313.627 306.49,372.521 255.843,386.191 "
           style="fill:#ffffff" />
      </g>
    </g>
  </g>
</svg>
