<?xml version="1.0" encoding="UTF-8" standalone="no"?>
<!-- Created with Inkscape (http://www.inkscape.org/) -->

<svg
   width="200.85201mm"
   height="193.30099mm"
   viewBox="0 0 200.85201 193.301"
   version="1.1"
   id="svg5"
   inkscape:version="1.2.2 (732a01da63, 2022-12-09)"
   xml:space="preserve"
   sodipodi:docname="epdm.svg"
   xmlns:inkscape="http://www.inkscape.org/namespaces/inkscape"
   xmlns:sodipodi="http://sodipodi.sourceforge.net/DTD/sodipodi-0.dtd"
   xmlns="http://www.w3.org/2000/svg"
   xmlns:svg="http://www.w3.org/2000/svg"><sodipodi:namedview
     id="namedview7"
     pagecolor="#ffffff"
     bordercolor="#000000"
     borderopacity="0.25"
     inkscape:showpageshadow="2"
     inkscape:pageopacity="0.0"
     inkscape:pagecheckerboard="false"
     inkscape:deskcolor="#d1d1d1"
     inkscape:document-units="mm"
     showgrid="false"
     inkscape:zoom="0.86915208"
     inkscape:cx="443.53572"
     inkscape:cy="490.70814"
     inkscape:window-width="1920"
     inkscape:window-height="1130"
     inkscape:window-x="-6"
     inkscape:window-y="-6"
     inkscape:window-maximized="1"
     inkscape:current-layer="layer1" /><defs
     id="defs2" /><g
     inkscape:label="Layer 1"
     inkscape:groupmode="layer"
     id="layer1"><path
       style="fill:#ffffff;stroke-width:0.264584"
       d="m 168.01042,193.18543 c -0.21829,-0.0462 -0.81966,-0.15239 -1.33639,-0.236 l -0.93951,-0.15202 1.21702,-6.94321 1.21703,-6.94322 3.42665,0.0177 c 2.5942,0.0134 3.61948,0.11977 4.2204,0.43789 0.43657,0.23111 1.06377,0.70934 1.3938,1.06274 0.3339,0.35755 0.73775,1.2991 0.91053,2.12286 0.25948,1.23703 0.23672,1.82044 -0.13847,3.54979 -0.24693,1.13821 -0.75897,2.70322 -1.13786,3.4778 -0.42683,0.87259 -1.09697,1.70395 -1.76164,2.18543 -0.59001,0.4274 -1.67018,0.95451 -2.40038,1.17136 -0.73021,0.21685 -1.99065,0.38046 -2.80098,0.36358 -0.81033,-0.0169 -1.65192,-0.0685 -1.8702,-0.11468 z m 3.83645,-1.73285 c 0.58209,-0.15826 1.39639,-0.60409 1.80956,-0.99071 0.41318,-0.38663 0.93774,-1.06014 1.1657,-1.49671 0.22795,-0.43656 0.5731,-1.38906 0.76699,-2.11667 0.19388,-0.7276 0.35393,-1.95391 0.35566,-2.72512 0.002,-0.77121 -0.16984,-1.73671 -0.38126,-2.14555 -0.21142,-0.40884 -0.7266,-0.88508 -1.14484,-1.05833 -0.41824,-0.17324 -1.57738,-0.2793 -2.57588,-0.2357 l -1.81545,0.0793 -0.86948,4.8948 c -0.47821,2.69214 -0.87249,5.09487 -0.87617,5.33942 -0.004,0.25369 0.24894,0.49385 0.58861,0.55928 0.32742,0.0631 0.89297,0.13021 1.25677,0.14922 0.3638,0.019 1.13771,-0.0949 1.71979,-0.25321 z M 152.4,192.61941 c 0,-0.24574 0.42028,-2.83536 0.93395,-5.7547 0.51367,-2.91934 1.05789,-5.93297 1.20938,-6.69696 l 0.27544,-1.38906 h 2.45867 c 1.35226,0 3.09982,0.12159 3.88345,0.2702 0.90796,0.1722 1.66486,0.51054 2.08663,0.93274 0.57626,0.57685 0.66115,0.89263 0.65642,2.44178 -0.004,1.35888 -0.14812,2.03036 -0.60941,2.84213 -0.33219,0.58458 -0.9896,1.32711 -1.46092,1.65006 -0.47132,0.32295 -1.49042,0.70733 -2.26468,0.85416 -0.77426,0.14684 -2.03423,0.19334 -2.79995,0.10334 l -1.39222,-0.16362 -0.47047,2.67836 -0.47046,2.67837 h -1.01792 c -0.77898,0 -1.01791,-0.10488 -1.01791,-0.4468 z m 7.65843,-6.7676 c 0.35584,-0.18008 0.86782,-0.70556 1.13774,-1.16773 0.26992,-0.46217 0.50981,-1.31786 0.53309,-1.90154 0.0283,-0.7105 -0.12077,-1.24143 -0.45115,-1.60649 -0.41758,-0.46143 -0.80926,-0.54527 -2.54719,-0.54527 h -2.05374 l -0.28478,1.32788 c -0.15663,0.73034 -0.36148,1.9805 -0.45523,2.77813 l -0.17044,1.45024 1.82236,-0.004 c 1.0023,-0.002 2.11351,-0.15124 2.46934,-0.33132 z m 20.3874,6.7676 c 0,-0.24574 0.42028,-2.83536 0.93395,-5.7547 0.51368,-2.91934 1.0579,-5.93297 1.20939,-6.69696 l 0.27543,-1.38906 h 1.18028 1.18029 l 1.85091,3.88801 c 1.80725,3.79629 1.86224,3.87588 2.33102,3.37345 0.26406,-0.28302 1.75828,-2.03262 3.3205,-3.88802 l 2.84038,-3.37344 h 1.19848 c 0.84447,0 1.16411,0.0977 1.08212,0.33073 -0.064,0.1819 -0.64229,3.39645 -1.28508,7.14344 l -1.16871,6.81271 -1.08836,2.7e-4 -1.08836,2.6e-4 0.22819,-1.25677 c 0.1255,-0.69123 0.56618,-3.19154 0.97929,-5.55626 0.41311,-2.36472 0.72961,-4.29949 0.70335,-4.29949 -0.0263,0 -1.28688,1.4855 -2.80135,3.30111 -2.58582,3.09999 -2.81185,3.30149 -3.70976,3.3073 l -0.95616,0.006 -1.55242,-3.30493 c -1.06885,-2.27547 -1.60251,-3.16144 -1.71325,-2.84427 -0.0885,0.25335 -0.55813,2.7526 -1.04371,5.55388 l -0.88286,5.09324 h -1.01178 c -0.77322,0 -1.01178,-0.10535 -1.01178,-0.4468 z M 0.17639,179.39605 C 0.07939,179.29905 0,179.04914 0,178.84073 c 0,-0.20841 0.54602,-1.46849 1.21337,-2.80018 0.66735,-1.33168 2.33022,-4.10517 3.69527,-6.16329 1.36505,-2.05813 2.88692,-4.17149 3.38194,-4.69636 0.49501,-0.52488 1.09433,-0.95432 1.33181,-0.95432 0.27156,0 0.43155,0.2209 0.43117,0.59532 -3.4e-4,0.32742 -0.60832,1.66687 -1.35108,2.97656 -0.74276,1.30969 -1.75452,3.21134 -2.24835,4.22588 -0.49384,1.01454 -0.89788,2.05634 -0.89788,2.31511 0,0.31158 0.20106,0.47041 0.59531,0.47027 0.32743,-1.1e-4 1.36188,-0.36285 2.29878,-0.80607 0.93691,-0.44323 2.42519,-1.32172 3.30729,-1.9522 0.88211,-0.63048 2.21576,-1.79453 2.96367,-2.58678 0.74792,-0.79225 1.61112,-1.93299 1.91823,-2.53498 0.30711,-0.60199 0.55839,-1.45646 0.55839,-1.89882 0,-0.44612 -0.23101,-1.03529 -0.51875,-1.32304 -0.28531,-0.28531 -1.1811,-0.7113 -1.99065,-0.94664 -0.91217,-0.26517 -3.10337,-0.49552 -5.76206,-0.60573 -3.69046,-0.15298 -4.30184,-0.23892 -4.37373,-0.61482 -0.0605,-0.31635 0.26733,-0.55128 1.18757,-0.85102 0.69914,-0.22772 2.04507,-0.5362 2.99095,-0.6855 0.94589,-0.14931 2.79136,-0.2706 4.10104,-0.26955 1.30969,0.001 3.12914,0.17824 4.04323,0.39375 0.91408,0.21551 2.11629,0.62361 2.67156,0.90689 0.55527,0.28328 1.20637,0.81538 1.44688,1.18244 0.24051,0.36707 0.4372,1.1776 0.43708,1.80119 -1.3e-4,0.70253 -0.29325,1.75322 -0.77062,2.76229 -0.47862,1.01171 -1.49884,2.39535 -2.69367,3.6532 -1.05779,1.11357 -2.89927,2.6741 -4.09218,3.46784 -1.19291,0.79373 -3.31205,1.97734 -4.7092,2.63023 -1.39716,0.6529 -3.78639,1.604 -5.30942,2.11356 -1.52302,0.50956 -2.93429,0.92648 -3.13615,0.92648 -0.20186,0 -0.4464,-0.0794 -0.54341,-0.17639 z m 145.9635,-3.62641 c -0.6054,-0.19838 -1.46815,-0.62231 -1.91721,-0.94207 -0.44906,-0.31976 -1.13112,-1.1183 -1.5157,-1.77452 -0.50395,-0.85994 -0.73488,-1.69152 -0.82691,-2.97778 -0.0702,-0.98155 0.006,-2.41002 0.17036,-3.17438 0.16392,-0.76435 0.59665,-2.02095 0.96162,-2.79243 0.36497,-0.77149 1.12573,-1.92773 1.69058,-2.56944 0.56486,-0.6417 1.66464,-1.51991 2.44396,-1.95157 1.29402,-0.71674 1.63672,-0.78484 3.95015,-0.78484 2.3583,0 2.62316,0.0554 3.83645,0.80284 0.90232,0.55585 1.52334,1.20704 2.01861,2.11667 0.39343,0.72261 0.79515,1.94726 0.89269,2.72144 0.0989,0.78516 0.0444,2.06952 -0.12325,2.90446 -0.16533,0.82327 -0.64616,2.2353 -1.06852,3.13784 -0.42235,0.90254 -1.26725,2.18271 -1.87756,2.84482 -0.61031,0.66211 -1.72181,1.50168 -2.47001,1.86572 -0.88924,0.43265 -2.00176,0.70898 -3.21244,0.7979 -1.20008,0.0881 -2.23959,0.009 -2.95282,-0.22466 z m 5.85305,-2.39496 c 0.67102,-0.39324 1.62314,-1.27046 2.11582,-1.94937 0.49269,-0.67892 1.08457,-1.81889 1.31529,-2.53328 0.23072,-0.71439 0.49089,-1.90754 0.57815,-2.65144 0.0873,-0.7439 0.022,-1.85941 -0.14498,-2.47892 -0.16885,-0.62636 -0.6942,-1.51693 -1.18346,-2.00619 -0.49852,-0.49853 -1.39733,-1.02472 -2.07391,-1.21416 -0.92933,-0.26019 -1.52003,-0.26665 -2.66414,-0.0291 -0.80853,0.16784 -1.95137,0.62843 -2.53963,1.02351 -0.58827,0.39509 -1.4132,1.19193 -1.83318,1.77076 -0.41999,0.57883 -1.01798,1.74149 -1.32888,2.58369 -0.34415,0.93227 -0.56527,2.15174 -0.56527,3.11736 0,0.87234 0.16547,1.98211 0.36772,2.46615 0.20224,0.48404 0.64873,1.1489 0.99218,1.47747 0.34346,0.32856 0.98166,0.76495 1.41822,0.96975 0.52167,0.24472 1.39915,0.33747 2.55989,0.27057 1.31434,-0.0757 2.07825,-0.28469 2.98618,-0.81677 z m -85.8471,1.94219 c -0.65485,-0.29688 -1.47011,-0.80028 -1.81169,-1.11867 -0.34158,-0.31839 -0.84927,-1.02391 -1.1282,-1.56783 -0.27892,-0.54391 -0.58035,-1.68945 -0.66984,-2.54564 -0.10869,-1.03993 -0.0151,-2.22015 0.2819,-3.55517 0.29653,-1.33281 0.78308,-2.52213 1.4608,-3.57069 0.5589,-0.86473 1.41599,-1.87215 1.90463,-2.23871 0.48864,-0.36656 1.42422,-0.94797 2.07906,-1.29201 1.05137,-0.55237 1.5465,-0.62554 4.23334,-0.62554 2.61049,0 3.19304,0.0809 4.10104,0.56957 0.58208,0.31326 1.31229,0.84904 1.6227,1.19063 0.31039,0.34158 0.77255,1.0324 1.027,1.53515 0.25445,0.50274 0.52061,1.6363 0.59147,2.51902 0.0709,0.88271 -0.012,2.28344 -0.18419,3.11273 -0.17216,0.8293 -0.66939,2.22096 -1.10494,3.09258 -0.46387,0.92829 -1.33891,2.07656 -2.11238,2.77199 -0.72626,0.65296 -1.97402,1.43173 -2.7728,1.7306 -1.08555,0.40616 -2.06792,0.54192 -3.88981,0.53758 -1.87887,-0.004 -2.71033,-0.12952 -3.62809,-0.54559 z m 6.98382,-2.95869 c 0.64958,-0.37245 1.30628,-1.08137 1.77601,-1.91726 0.41223,-0.73356 0.88686,-2.15251 1.06201,-3.17501 0.17418,-1.01678 0.2318,-2.30045 0.12803,-2.85259 -0.10376,-0.55214 -0.51946,-1.37412 -0.92378,-1.82663 -0.61755,-0.69116 -0.97301,-0.84247 -2.22251,-0.94609 -0.81806,-0.0678 -1.91217,-0.0437 -2.43135,0.0537 -0.51918,0.0974 -1.36515,0.5469 -1.87994,0.99888 -0.51478,0.45199 -1.16425,1.26928 -1.44327,1.81619 -0.27901,0.54691 -0.64467,1.82621 -0.81257,2.84288 -0.1679,1.01667 -0.22087,2.29841 -0.1177,2.8483 0.11358,0.60546 0.53416,1.34642 1.06628,1.87854 0.83697,0.83697 0.9711,0.87851 2.8234,0.87436 1.52297,-0.003 2.16821,-0.13251 2.97539,-0.59531 z m -48.78799,2.80426 c -0.50932,-0.0506 -1.90094,-0.22137 -3.09248,-0.37953 -1.19154,-0.15817 -2.38217,-0.45491 -2.64583,-0.65944 -0.46111,-0.35768 -0.4598,-0.38701 0.0342,-0.76875 0.34247,-0.26465 1.13584,-0.39945 2.38125,-0.40459 1.02721,-0.004 3.35594,-0.11784 5.17495,-0.25242 1.81901,-0.13459 3.69496,-0.38114 4.16878,-0.54789 0.54938,-0.19335 0.91885,-0.53172 1.01981,-0.93398 0.10568,-0.42105 -0.0648,-1.00607 -0.51265,-1.7595 -0.36902,-0.62079 -1.87121,-2.55746 -3.33819,-4.30372 -1.46698,-1.74625 -2.96341,-3.76392 -3.32541,-4.48372 -0.362,-0.7198 -0.65818,-1.65825 -0.65818,-2.08544 0,-0.4272 0.24262,-1.16928 0.53915,-1.64907 0.30111,-0.48722 1.05783,-1.12345 1.71399,-1.4411 0.64618,-0.3128 2.03912,-0.69701 3.09545,-0.85379 1.40578,-0.20865 2.62449,-0.20247 4.5467,0.023 1.44436,0.16947 3.09541,0.44872 3.66899,0.62057 0.57359,0.17186 1.10738,0.48051 1.18619,0.68591 0.0788,0.20539 -0.0229,0.47867 -0.22597,0.60727 -0.20311,0.12861 -1.50038,0.23801 -2.88283,0.24313 -1.38245,0.005 -3.34698,0.12958 -4.36562,0.2766 -1.17664,0.16983 -2.03338,0.44838 -2.34919,0.7638 -0.37534,0.37487 -0.45641,0.71317 -0.33098,1.38109 0.0914,0.48654 0.67225,1.50556 1.29085,2.2645 0.6186,0.75894 2.12579,2.60199 3.3493,4.09567 1.22352,1.49368 2.4568,3.24077 2.74063,3.88242 0.34578,0.78169 0.46641,1.47259 0.3656,2.09384 -0.0828,0.50997 -0.42307,1.21938 -0.75626,1.57648 -0.33318,0.35709 -1.0379,0.87089 -1.56602,1.14176 -0.52813,0.27087 -1.71876,0.61557 -2.64584,0.766 -0.92708,0.15043 -2.57856,0.25536 -3.66997,0.23317 -1.09141,-0.0222 -2.40109,-0.0817 -2.91042,-0.13232 z m 23.54792,-1.22563 c 0,-0.77127 0.14287,-1.54517 0.3175,-1.7198 0.21692,-0.21692 1.4993,-0.3175 4.04812,-0.3175 2.54882,0 3.8312,-0.10058 4.04813,-0.3175 0.17462,-0.17462 0.3175,-0.50898 0.3175,-0.74302 0,-0.24502 -1.41212,-1.41345 -3.32902,-2.75454 -1.84792,-1.29283 -3.55434,-2.69854 -3.83547,-3.15959 -0.32068,-0.52591 -0.50682,-1.31756 -0.50744,-2.15822 -8e-4,-0.98532 0.17152,-1.58151 0.66806,-2.31223 0.36797,-0.54153 1.0169,-1.16448 1.44206,-1.38434 0.60584,-0.31329 1.8059,-0.39975 5.54867,-0.39975 h 4.77564 v 1.02266 c 0,0.63062 -0.20811,1.28721 -0.54287,1.71279 -0.53541,0.68067 -0.59599,0.69116 -4.41005,0.76329 -2.56694,0.0486 -3.90038,0.17309 -3.96594,0.37041 -0.0543,0.1635 1.43715,1.37916 3.31438,2.70145 1.87723,1.3223 3.62208,2.72306 3.87744,3.11279 0.25536,0.38973 0.52609,1.16934 0.60162,1.73247 0.0853,0.6362 -0.0334,1.47102 -0.31368,2.20483 -0.24805,0.64952 -0.80334,1.47742 -1.23396,1.83977 -0.43063,0.36235 -1.22575,0.78179 -1.76693,0.93209 -0.54118,0.1503 -2.79968,0.27394 -5.01887,0.27475 l -4.03489,0.001 z m 33.07291,1.16706 c 0,-0.13494 0.59666,-3.56027 1.3259,-7.61184 0.72925,-4.05157 1.39355,-7.69392 1.47623,-8.0941 0.14653,-0.70918 0.19671,-0.72761 1.9814,-0.72761 1.00708,0 1.83106,0.0636 1.83106,0.14137 0,0.0778 -0.53579,3.10977 -1.19063,6.73781 -0.65484,3.62804 -1.19062,6.66006 -1.19062,6.73781 0,0.0778 1.58458,0.14137 3.5213,0.14137 2.41347,0 3.65532,0.10405 3.94727,0.33073 0.32763,0.25438 0.38411,0.57505 0.24467,1.38906 l -0.18129,1.05834 -5.88264,0.0712 c -3.48918,0.0422 -5.88265,-0.0286 -5.88265,-0.17415 z m 14.02291,-0.25579 c 0,-0.27006 0.59491,-3.75264 1.32202,-7.73907 0.72711,-3.98643 1.38422,-7.51595 1.46025,-7.84337 0.12567,-0.54122 0.29265,-0.59532 1.83737,-0.59532 0.93452,0 1.75538,0.091 1.82413,0.20225 0.0687,0.11124 -0.52001,3.71289 -1.30836,8.00366 -0.78835,4.29078 -1.48867,7.95024 -1.55629,8.13214 -0.0811,0.21828 -0.71049,0.33073 -1.85102,0.33073 -1.50695,0 -1.7281,-0.0628 -1.7281,-0.49102 z m 8.01471,-0.0789 c 0.081,-0.34137 0.58421,-3.0016 1.1182,-5.91163 0.534,-2.91003 1.0263,-5.38058 1.09399,-5.49011 0.0677,-0.10954 0.88997,-0.19915 1.82726,-0.19915 1.45788,0 1.70418,0.0681 1.70418,0.47118 0,0.25914 -0.29982,2.07485 -0.66626,4.0349 -0.36644,1.96005 -0.7259,3.83161 -0.79879,4.15903 -0.12987,0.58335 -0.0843,0.59532 2.2669,0.59532 1.61459,0 2.65029,-0.12973 3.16636,-0.3966 0.42181,-0.21813 1.08209,-0.8098 1.46729,-1.31481 0.3852,-0.50503 0.92714,-1.64685 1.2043,-2.5374 0.27717,-0.89055 0.50395,-2.3806 0.50395,-3.31123 0,-1.49521 -0.0897,-1.79256 -0.77143,-2.55612 l -0.77142,-0.86407 -4.66286,-0.13229 c -3.75431,-0.10652 -4.7116,-0.20962 -4.91306,-0.52917 -0.13762,-0.21828 -0.25204,-0.79201 -0.25426,-1.27496 l -0.004,-0.87808 5.90867,0.0843 5.90867,0.0843 1.27727,0.79376 c 0.77191,0.4797 1.48232,1.19039 1.79554,1.79626 0.28505,0.55138 0.57548,1.74201 0.6454,2.64584 0.0784,1.01401 -0.0336,2.32816 -0.29262,3.43163 -0.23086,0.98356 -0.71229,2.36559 -1.06983,3.07118 -0.35755,0.70558 -1.25267,1.82466 -1.98917,2.48683 -0.7365,0.66218 -1.90394,1.41318 -2.59432,1.6689 -0.97992,0.36297 -2.35105,0.48994 -6.25122,0.57887 l -4.99599,0.11392 z m 20.03113,-7.78119 v -8.35116 l 0.85989,0.0829 0.8599,0.0829 0.13229,7.10341 0.13229,7.1034 2.49139,-4.39142 c 2.23668,-3.94247 2.56287,-4.39142 3.19058,-4.39142 0.38455,0 0.89909,0.14883 1.14342,0.33073 0.29732,0.22135 0.72969,1.66494 1.30734,4.36485 0.47471,2.21877 0.92264,4.03067 0.9954,4.02646 0.0728,-0.004 1.25845,-2.59347 2.63487,-5.75391 1.37642,-3.16044 2.77391,-6.37134 3.10552,-7.13532 0.50077,-1.15369 0.717,-1.38907 1.27603,-1.38907 0.37021,0 0.74118,0.1774 0.82438,0.39422 0.0832,0.21683 -1.30913,3.69941 -3.09408,7.73908 -1.78494,4.03967 -3.48485,7.61274 -3.77757,7.94017 -0.36922,0.41298 -0.83027,0.59531 -1.50534,0.59531 h -0.97312 l -0.89586,-4.36563 c -0.49272,-2.4011 -0.95679,-4.36346 -1.03128,-4.3608 -0.0745,0.003 -1.07479,1.6993 -2.22291,3.77032 -1.14812,2.07102 -2.32974,4.03337 -2.62581,4.3608 -0.40027,0.44264 -0.83183,0.59531 -1.68283,0.59531 h -1.1445 z m 35.98394,8.15271 c 2.7e-4,-0.10914 0.60479,-3.47266 1.34324,-7.47449 0.73844,-4.00183 1.41023,-7.67316 1.49287,-8.15851 l 0.15026,-0.88246 4.12891,0.0906 c 3.37996,0.0742 4.31099,0.18073 5.13275,0.58741 0.55211,0.27323 1.17719,0.832 1.38906,1.24172 0.21187,0.40971 0.38522,1.30857 0.38522,1.99746 0,0.73209 -0.23113,1.72996 -0.55625,2.40158 -0.30594,0.63199 -0.96918,1.46402 -1.47388,1.84897 -0.50469,0.38495 -1.42288,0.8282 -2.04041,0.985 -0.61754,0.1568 -1.14517,0.40415 -1.17251,0.54967 -0.0273,0.14552 0.72444,1.58692 1.67063,3.20312 0.94618,1.61619 1.72034,3.14178 1.72034,3.3902 0,0.3502 -0.19319,0.43305 -0.8599,0.36877 -0.78295,-0.0755 -0.99011,-0.3095 -2.3151,-2.61509 -0.80037,-1.39269 -1.71909,-2.97028 -2.0416,-3.50573 -0.57233,-0.95023 -0.62486,-0.97356 -2.19112,-0.97356 -1.05125,0 -1.64103,0.11407 -1.70999,0.33073 -0.0579,0.1819 -0.36835,1.78925 -0.6899,3.57188 l -0.58462,3.24115 h -0.8893 c -0.48912,0 -0.88903,-0.0893 -0.8887,-0.19844 z m 10.07031,-9.33512 c 0.58428,-0.29808 1.29535,-0.92412 1.58014,-1.39119 0.28479,-0.46708 0.51824,-1.27726 0.51879,-1.80041 5.3e-4,-0.63119 -0.1861,-1.12074 -0.55511,-1.45521 -0.47055,-0.4265 -1.05912,-0.51749 -3.82606,-0.59153 -3.2407,-0.0867 -3.27119,-0.082 -3.4071,0.52917 -0.0754,0.33917 -0.31823,1.61209 -0.53957,2.82871 -0.22133,1.21663 -0.40242,2.33605 -0.40242,2.48761 0,0.18436 0.92153,0.21918 2.78449,0.10519 2.02661,-0.124 3.07364,-0.31788 3.84684,-0.71234 z m 5.53401,9.33512 c -0.003,-0.10914 0.67385,-3.85961 1.50414,-8.33439 l 1.50963,-8.13595 h 0.71651 c 0.39408,0 0.77741,0.1587 0.85184,0.35266 0.0744,0.19396 -0.0895,1.59295 -0.36422,3.10886 -0.27474,1.51591 -0.50149,2.9678 -0.50389,3.22642 -0.003,0.31665 1.35613,-0.69875 4.16108,-3.10885 2.72238,-2.33916 4.37517,-3.57909 4.77081,-3.57909 0.33295,0 0.67448,0.18011 0.75895,0.40025 0.0845,0.22013 -0.007,0.59426 -0.20423,0.8314 -0.19681,0.23713 -2.17487,1.96951 -4.3957,3.84972 l -4.03786,3.41857 3.30775,3.58493 c 1.81927,1.97171 3.30776,3.8097 3.30776,4.08442 0,0.37514 -0.19163,0.49949 -0.76975,0.49949 -0.65136,0 -1.27022,-0.54967 -4.02344,-3.57356 -2.10378,-2.31061 -3.31619,-3.45608 -3.43055,-3.24115 -0.0973,0.18282 -0.44248,1.79093 -0.76711,3.57356 l -0.59024,3.24115 H 175.523 c -0.4939,0 -0.90047,-0.0893 -0.90349,-0.19844 z m 14.03246,-0.37907 c 0.002,-0.33721 0.0964,-0.75842 0.20921,-0.93602 0.14138,-0.22251 1.34477,-0.3459 3.87051,-0.39688 3.62402,-0.0731 3.67127,-0.0819 4.19087,-0.77854 0.34619,-0.46413 0.47115,-0.92127 0.36616,-1.33958 -0.0877,-0.34925 -1.48208,-1.93719 -3.09871,-3.52876 -1.61663,-1.59157 -3.10823,-3.21528 -3.31467,-3.60823 -0.20644,-0.39296 -0.37534,-1.26208 -0.37534,-1.93138 0,-0.6693 0.18061,-1.56616 0.40135,-1.99303 0.22075,-0.42688 0.75062,-0.95675 1.17749,-1.17749 0.5933,-0.30681 1.71808,-0.40136 4.77478,-0.40136 h 3.99866 l -0.0829,0.8599 -0.0829,0.8599 -3.73094,0.13229 c -2.60895,0.0925 -3.86213,0.24149 -4.16719,0.49542 -0.24596,0.20473 -0.43625,0.74917 -0.43625,1.24815 0,0.77793 0.34888,1.22438 2.88291,3.68922 1.58559,1.5423 3.15046,3.30855 3.47748,3.92498 0.48863,0.92109 0.56091,1.34528 0.40566,2.3806 -0.1233,0.82224 -0.45036,1.55265 -0.94161,2.10292 l -0.75269,0.84311 -4.38796,0.084 -4.38795,0.0839 0.004,-0.61312 z M 14.2875,157.79485 c 0,-0.19047 0.14883,-0.52998 0.33073,-0.75448 0.1819,-0.22449 1.52135,-1.34225 2.97656,-2.48391 1.45521,-1.14166 3.28844,-2.73691 4.07384,-3.54501 0.78539,-0.8081 1.71477,-2.08977 2.06526,-2.84817 0.50458,-1.0918 0.57748,-1.49063 0.3501,-1.9155 -0.15795,-0.29512 -0.61347,-0.70532 -1.01227,-0.91155 -0.39881,-0.20623 -1.42918,-0.50512 -2.28971,-0.6642 -0.86054,-0.15907 -2.66609,-0.28923 -4.01234,-0.28923 -1.34624,0 -2.75313,-0.11612 -3.1264,-0.25804 -0.37328,-0.14192 -0.67869,-0.36711 -0.67869,-0.50043 0,-0.13333 0.45439,-0.42422 1.00976,-0.64643 0.55537,-0.22222 2.00273,-0.54922 3.21635,-0.72668 1.23128,-0.18003 3.21161,-0.25744 4.48035,-0.17513 1.33439,0.0866 2.89774,0.38107 3.78413,0.71284 0.8709,0.32598 1.79507,0.90369 2.18281,1.36449 0.45498,0.54071 0.6716,1.11344 0.66985,1.77104 -10e-4,0.53454 -0.28014,1.5672 -0.61937,2.2948 -0.33924,0.72761 -1.26081,2.02883 -2.04794,2.8916 -0.78713,0.86278 -2.35779,2.25702 -3.49035,3.09831 -1.13256,0.8413 -3.13896,2.07016 -4.45867,2.73081 -1.3197,0.66065 -2.62548,1.20118 -2.90173,1.20118 -0.27625,0 -0.50227,-0.15584 -0.50227,-0.34631 z m 83.21146,-11.99871 c -0.58209,-0.0469 -1.95131,-0.21478 -3.04271,-0.37315 -1.0914,-0.15837 -2.93687,-0.52619 -4.10104,-0.81739 -1.16417,-0.2912 -2.83104,-0.76804 -3.70417,-1.05966 -0.87312,-0.29162 -2.54,-0.94729 -3.70416,-1.45704 -1.16417,-0.50976 -3.10146,-1.52137 -4.3051,-2.24804 -1.20363,-0.72666 -3.10863,-2.00623 -4.23333,-2.84348 -1.1247,-0.83726 -2.94772,-2.36871 -4.05116,-3.40323 l -2.00625,-1.88096 -5.1375,3.4311 c -4.05931,2.71103 -5.29859,3.41581 -5.90509,3.35824 -0.46779,-0.0444 -0.97352,-0.34994 -1.29484,-0.78227 l -0.52725,-0.7094 2.03933,-10.05436 2.03933,-10.05436 -0.79637,-2.8623 c -0.43801,-1.57428 -0.95162,-3.57669 -1.14137,-4.44982 -0.22634,-1.04155 -0.34497,-3.63479 -0.34495,-7.54063 4e-5,-4.752205 0.097,-6.406815 0.48089,-8.202094 0.26446,-1.236929 0.77723,-3.240897 1.13949,-4.453265 0.36227,-1.212365 1.11936,-3.266506 1.68244,-4.564752 0.56308,-1.298249 1.63656,-3.431268 2.38552,-4.740045 0.74895,-1.308774 2.16897,-3.42183 3.15559,-4.695677 0.98663,-1.273849 3.04394,-3.517937 4.57181,-4.986866 1.54383,-1.484278 4.04115,-3.51548 5.6214,-4.572169 1.5639,-1.045762 3.95063,-2.432779 5.30384,-3.082255 1.35321,-0.64948 3.69288,-1.591493 5.19926,-2.093366 1.50639,-0.501873 3.92952,-1.165185 5.38472,-1.474025 1.77881,-0.377516 4.08535,-0.610877 7.03869,-0.71213 3.37978,-0.115872 5.17979,-0.04433 7.80521,0.310232 1.87679,0.253461 4.63921,0.810582 6.1387,1.238049 1.4995,0.427464 3.64262,1.180633 4.7625,1.673709 1.11988,0.493073 2.88567,1.364077 3.92397,1.935565 1.0383,0.571488 2.79233,1.664356 3.89784,2.428596 1.10551,0.764242 2.9521,2.204951 4.10352,3.20158 l 2.09351,1.812052 5.12115,-3.69265 c 3.61232,-2.604687 5.33553,-3.693018 5.84876,-3.693894 0.40019,-7.93e-4 0.96573,0.236887 1.25678,0.52793 0.29104,0.291042 0.52847,0.797058 0.52763,1.124481 -7.9e-4,0.327422 -0.1194,1.309689 -0.26345,2.182816 -0.14406,0.873126 -0.86269,5.299832 -1.59696,9.837126 l -1.33505,8.249624 0.91628,2.738656 c 0.50395,1.506262 1.16533,4.029227 1.46973,5.606588 0.3044,1.577359 0.62486,4.431239 0.71213,6.341944 0.0918,2.01026 0.0324,4.57635 -0.14105,6.0902 -0.16485,1.43889 -0.48646,3.52248 -0.71469,4.63021 -0.22822,1.10773 -0.7721,3.14516 -1.20861,4.52761 -0.43652,1.38245 -1.4874,3.9423 -2.3353,5.68855 -0.8479,1.74625 -2.10406,4.00844 -2.79146,5.02709 -0.6874,1.01865 -1.99596,2.74893 -2.9079,3.84508 -0.91194,1.09615 -2.5326,2.82279 -3.60146,3.83699 -1.06886,1.01419 -3.00818,2.64238 -4.30959,3.61819 -1.30142,0.97581 -3.75074,2.48982 -5.44293,3.36448 -1.69219,0.87465 -4.34052,2.01317 -5.88517,2.53004 -1.54465,0.51688 -3.95612,1.17944 -5.35883,1.47236 -1.4027,0.29292 -3.70224,0.64466 -5.11007,0.78164 -1.40784,0.13698 -3.39315,0.23212 -4.4118,0.21141 -1.01864,-0.0207 -2.32833,-0.076 -2.91041,-0.12286 z m 8.34131,-4.06595 c 1.23311,-0.14924 3.13499,-0.46275 4.2264,-0.69668 1.0914,-0.23393 3.05862,-0.81125 4.3716,-1.28294 1.31297,-0.47169 3.34338,-1.33836 4.51201,-1.92594 1.16864,-0.58758 3.19001,-1.79192 4.49194,-2.67631 1.30194,-0.88439 2.72434,-1.90627 3.1609,-2.27086 0.43657,-0.36459 0.66994,-0.66348 0.51861,-0.6642 -0.15132,-7.9e-4 -0.92523,0.16732 -1.71979,0.37342 -0.79456,0.20611 -2.21856,0.51444 -3.16444,0.68519 -0.94589,0.17075 -3.02948,0.4088 -4.63021,0.52902 -1.64462,0.1235 -4.22347,0.11289 -5.92948,-0.0244 -1.66048,-0.13363 -4.1608,-0.53312 -5.55625,-0.88775 -1.39545,-0.35463 -3.42418,-1.01222 -4.50829,-1.46133 -1.08411,-0.4491 -2.69966,-1.22398 -3.5901,-1.72195 -0.89045,-0.49797 -2.38471,-1.46682 -3.32056,-2.15299 -0.93586,-0.68618 -2.57712,-2.0914 -3.64726,-3.12271 -1.07012,-1.03131 -2.6477,-2.74538 -3.50573,-3.80904 -0.85802,-1.06367 -1.56003,-2.15526 -1.56003,-2.42577 0,-0.27051 0.0783,-0.69596 0.17407,-0.94545 0.0957,-0.24949 2.8044,-2.1873 6.01927,-4.30625 4.2151,-2.77823 5.69762,-3.8829 5.31603,-3.96115 -0.29105,-0.0597 -7.29182,-1.46536 -15.55728,-3.12373 -8.26546,-1.65838 -15.17109,-3.01503 -15.34584,-3.01479 -0.20374,2.7e-4 -0.86368,2.68156 -1.83969,7.47449 -0.83709,4.11074 -2.17878,10.62922 -2.98155,14.48553 -0.80276,3.85631 -1.42756,7.16175 -1.38843,7.34543 0.0423,0.19845 1.59927,-0.68723 3.83732,-2.18282 2.52502,-1.68734 4.01101,-2.51677 4.50902,-2.51677 0.58002,0 1.29519,0.53908 3.26327,2.45977 1.38625,1.35287 3.56018,3.24009 4.83096,4.19382 1.27077,0.95373 3.19515,2.24022 4.27639,2.85886 1.08125,0.61865 2.92056,1.53754 4.08735,2.042 1.1668,0.50446 3.48066,1.26047 5.14192,1.68002 1.66126,0.41956 3.89381,0.8723 4.96122,1.00609 1.06741,0.1338 3.37263,0.25863 5.12269,0.2774 1.75007,0.0188 4.19085,-0.088 5.42396,-0.23721 z m 15.3389,-12.08021 c 1.38244,-0.2236 3.52557,-0.69909 4.7625,-1.05663 1.23692,-0.35756 3.3627,-1.08862 4.72394,-1.62461 l 2.47498,-0.97451 1.31315,-1.98438 c 0.72224,-1.09141 1.8356,-3.05594 2.47413,-4.36563 0.63854,-1.30969 1.51635,-3.45282 1.95068,-4.76251 0.43434,-1.30969 1.03337,-3.58271 1.33117,-5.05114 0.29781,-1.46843 0.6166,-4.02828 0.70843,-5.68855 0.0956,-1.72799 0.0355,-4.310435 -0.14055,-6.039865 -0.16913,-1.66166 -0.39571,-3.17882 -0.50352,-3.37146 -0.10781,-0.192637 -0.4774,1.46456 -0.82131,3.68266 -0.34391,2.218095 -0.72936,4.238545 -0.85656,4.489865 -0.12719,0.25133 -0.47227,0.58595 -0.76684,0.74359 -0.40173,0.21501 -1.40861,0.14682 -4.02883,-0.27281 -1.92129,-0.3077 -6.70794,-1.08372 -10.637,-1.7245 -3.92906,-0.64077 -10.41797,-1.696935 -14.41979,-2.347045 -4.00182,-0.6501 -7.87136,-1.26516 -8.59896,-1.36678 -0.7276,-0.10162 -1.70563,-0.34086 -2.1734,-0.53164 -0.55126,-0.22483 -0.91214,-0.59258 -1.02576,-1.04527 -0.0964,-0.38412 -0.0551,-0.96222 0.0918,-1.28467 0.14691,-0.32244 3.19812,-2.703849 6.78045,-5.292015 3.58234,-2.588166 6.51334,-4.805944 6.51334,-4.928396 0,-0.122452 -0.91181,-1.06282 -2.02625,-2.089707 -1.11444,-1.026886 -2.84169,-2.414165 -3.83833,-3.082845 -0.99665,-0.668677 -2.81926,-1.687753 -4.05023,-2.264609 -1.23098,-0.576859 -3.1387,-1.279154 -4.23937,-1.560661 -1.10068,-0.281504 -3.03946,-0.65067 -4.30842,-0.820366 -1.33254,-0.1782 -3.48394,-0.241837 -5.09281,-0.150643 -1.53209,0.08684 -3.97287,0.389591 -5.42396,0.672778 -1.45108,0.283187 -3.82896,0.895439 -5.28417,1.360561 -1.45521,0.46512 -4.00897,1.490861 -5.67503,2.279421 -1.66606,0.78856 -3.257,1.639126 -3.53543,1.890142 -0.27842,0.251018 -1.10331,1.645253 -1.83308,3.098302 -0.72977,1.453049 -1.77599,4.012897 -2.32493,5.688551 -0.54895,1.675654 -1.18866,4.25148 -1.42158,5.724057 -0.25982,1.64266 -0.41591,4.19902 -0.40388,6.614585 0.0108,2.16545 0.10973,4.47297 0.21986,5.12781 0.17523,1.04185 0.22325,1.10797 0.38428,0.52917 0.10122,-0.3638 0.53272,-2.44509 0.95889,-4.62508 0.54842,-2.80536 0.90908,-4.061765 1.23417,-4.299485 0.25263,-0.18472 0.65845,-0.33586 0.90181,-0.33586 0.24337,0 1.02428,0.11329 1.73537,0.25175 0.71109,0.13846 8.67476,1.752235 17.69705,3.586155 9.02229,1.83393 17.05901,3.45618 17.85937,3.60501 0.80037,0.14883 1.70848,0.43322 2.01803,0.63198 0.30955,0.19877 0.6424,0.6785 0.73967,1.06606 0.11138,0.44375 0.0333,0.92376 -0.21083,1.29636 -0.21322,0.32543 -3.37068,2.54525 -7.01656,4.93294 -3.64588,2.38768 -6.63201,4.47208 -6.63584,4.632 -0.004,0.15993 1.1539,1.41607 2.57272,2.79143 1.41883,1.37536 3.29406,2.98464 4.16719,3.57617 0.87312,0.59152 2.54,1.55367 3.70416,2.13809 1.16417,0.58443 3.06917,1.36195 4.23334,1.72784 1.16416,0.36588 3.00963,0.79825 4.10104,0.9608 1.0914,0.16256 2.52015,0.33602 3.175,0.38548 0.65484,0.0495 2.26219,0.0392 3.57187,-0.0227 1.30969,-0.062 3.51235,-0.29558 4.8948,-0.51918 z m 14.41121,-30.577155 c 0.0812,-0.47294 0.80132,-4.908029 1.6002,-9.855745 0.79887,-4.947716 1.81708,-11.234893 2.26268,-13.971507 0.44561,-2.736614 0.77271,-5.082606 0.7269,-5.213321 -0.0458,-0.130715 -1.8071,1.007003 -3.91399,2.528259 -2.63931,1.905696 -4.05605,2.765922 -4.5553,2.765922 -0.52187,0 -1.26373,-0.488501 -2.65159,-1.746026 -1.05984,-0.960314 -2.58183,-2.253645 -3.3822,-2.874065 -0.80036,-0.620422 -2.49829,-1.807588 -3.77318,-2.638148 -1.27489,-0.830561 -3.23826,-1.935309 -4.36305,-2.454996 -1.1248,-0.519688 -2.87341,-1.226621 -3.88582,-1.570961 -1.01241,-0.344343 -3.15669,-0.890645 -4.76507,-1.214003 -2.41197,-0.484916 -3.80512,-0.587585 -7.95142,-0.585982 -3.77147,0.0016 -5.61945,0.120539 -7.39873,0.476762 -1.30441,0.261152 -3.50706,0.833335 -4.89479,1.271526 -1.38773,0.438187 -3.83283,1.435515 -5.43356,2.216286 -1.60073,0.780768 -3.84655,2.063581 -4.99073,2.850696 -1.14417,0.787116 -2.95186,2.192199 -4.0171,3.122409 -1.06524,0.93021 -1.9448,1.773039 -1.95458,1.872951 -0.01,0.09991 1.019,-0.168801 2.28621,-0.597144 1.2672,-0.428343 3.73775,-1.09539 5.4901,-1.48233 2.80614,-0.619627 3.7856,-0.705579 8.21318,-0.720737 4.66997,-0.01598 5.22871,0.03501 7.86522,0.717834 1.56098,0.404273 3.7041,1.091487 4.7625,1.527138 1.0584,0.435653 2.7578,1.282197 3.77645,1.881209 1.01864,0.599012 2.32833,1.451731 2.91041,1.89493 0.58209,0.443202 1.76435,1.40675 2.62725,2.141218 0.86291,0.734469 2.32142,2.216773 3.24115,3.294007 1.14772,1.344276 1.67223,2.180443 1.67223,2.665864 0,0.391648 -0.26566,0.956378 -0.59531,1.265523 -0.32743,0.307047 -2.83771,2.159308 -5.57842,4.116135 -2.7407,1.95683 -4.97805,3.661133 -4.97189,3.787339 0.006,0.126207 7.01106,1.376777 15.56643,2.779047 8.55538,1.40227 15.63913,2.56313 15.74168,2.5797 0.10254,0.0166 0.25291,-0.35685 0.33414,-0.82979 z m -98.681,1.090775 c -1.01865,-0.12724 -2.92134,-0.535245 -4.22821,-0.906685 -1.30687,-0.37144 -3.28737,-1.13143 -4.40111,-1.68888 -1.11374,-0.55744 -2.78292,-1.52394 -3.70929,-2.14777 -0.92637,-0.62383 -2.64623,-2.096154 -3.82191,-3.271832 -1.17568,-1.175681 -2.64893,-2.896912 -3.27389,-3.824955 -0.62496,-0.928047 -1.65904,-2.79088 -2.29795,-4.13963 -0.63891,-1.348751 -1.40133,-3.387416 -1.69428,-4.530365 -0.29295,-1.142949 -0.65941,-3.23895 -0.81436,-4.65778 -0.1997,-1.828586 -0.19922,-3.330798 0.002,-5.159384 0.15585,-1.41883 0.46817,-3.294067 0.69405,-4.167194 0.22589,-0.873126 0.70508,-2.365021 1.06487,-3.315322 0.35979,-0.9503 1.18238,-2.654706 1.82797,-3.787569 0.64559,-1.132863 1.84909,-2.885162 2.67444,-3.893993 0.82536,-1.008834 2.17197,-2.414152 2.99247,-3.12293 0.8205,-0.708777 2.40974,-1.886559 3.53165,-2.617289 1.1219,-0.73073 2.96235,-1.712648 4.08988,-2.182043 1.12753,-0.469393 3.02568,-1.094295 4.21812,-1.388671 l 2.16806,-0.535232 0.18517,-1.482058 c 0.10184,-0.815135 0.4746,-2.480816 0.82834,-3.701519 0.35374,-1.220702 1.11121,-3.20009 1.68325,-4.398644 0.57205,-1.198551 1.73886,-3.11804 2.59292,-4.265529 0.85405,-1.147489 2.42138,-2.902254 3.48294,-3.899478 1.06156,-0.997222 2.75904,-2.349369 3.77219,-3.004772 1.01314,-0.6554 2.70843,-1.591919 3.7673,-2.081147 1.05887,-0.489226 3.10199,-1.209487 4.54028,-1.600575 2.28947,-0.622538 3.14816,-0.715784 6.89683,-0.748927 l 4.28178,-0.03786 1.2506,-1.706804 c 0.68783,-0.938743 2.01825,-2.56796 2.95648,-3.620484 0.93822,-1.052524 2.67537,-2.730642 3.86033,-3.729152 1.18495,-0.9985113 3.07347,-2.4304333 4.19672,-3.1820493 1.12324,-0.751616 3.20692,-1.948716 4.6304,-2.660222 1.42348,-0.7115061 3.78961,-1.7118523 5.25808,-2.2229918 1.46846,-0.511139 3.8272,-1.180078 5.24165,-1.48653001 1.41444,-0.306452 4.11086,-0.686016 5.99204,-0.843476 2.47824,-0.207436 4.38673,-0.205329 6.92898,0.0076 1.92977,0.161667 4.75882,0.577248 6.28679,0.92351201 1.52797,0.346264 3.73063,0.948078 4.89479,1.337364 1.16417,0.3892858 3.18823,1.215174 4.49792,1.835307 1.30969,0.6201328 3.45281,1.7928648 4.7625,2.6060708 1.30969,0.813207 3.54434,2.450858 4.96591,3.6392253 1.42155,1.188367 3.429,3.13313 4.46099,4.321695 1.03198,1.188565 2.66686,3.357236 3.63305,4.819268 0.96619,1.462033 2.33591,3.848158 3.04382,5.302501 l 1.2871,2.64426 5.32748,0.0055 c 4.5916,0.0048 5.69088,0.08902 7.95832,0.609982 1.44697,0.33245 3.64962,0.963863 4.89479,1.403135 1.24518,0.439276 3.09739,1.214636 4.11604,1.723023 1.01865,0.508387 2.84554,1.581266 4.05976,2.384175 1.21423,0.802908 3.33686,2.539337 4.71697,3.858734 1.38011,1.319395 3.26083,3.400275 4.17938,4.624176 0.91856,1.223901 2.26844,3.373847 2.99975,4.77766 0.73132,1.403813 1.74026,3.743014 2.2421,5.198224 0.50184,1.455211 1.13263,3.776933 1.40176,5.159384 0.36247,1.861952 0.48404,3.64526 0.46897,6.879177 -0.0159,3.397751 -0.14455,4.938504 -0.58055,6.949571 -0.3081,1.421164 -0.86002,3.477117 -1.22648,4.568785 -0.36646,1.091667 -1.21535,3.078082 -1.88641,4.414257 -0.67107,1.336177 -1.73444,3.209292 -2.36304,4.162479 -0.6286,0.953187 -1.91211,2.626039 -2.85225,3.717447 -0.94014,1.091408 -2.36576,2.546899 -3.16805,3.234423 -0.80229,0.687523 -2.36244,1.898441 -3.46699,2.690925 -1.10456,0.792487 -3.22937,2.032697 -4.72181,2.756027 -1.49244,0.72333 -3.66603,1.62333 -4.83019,1.99999 -1.16417,0.37667 -3.00964,0.87261 -4.10105,1.10208 -1.0914,0.229475 -3.41752,0.486945 -5.16915,0.572155 l -3.18478,0.15493 -0.30593,-3.675575 c -0.16826,-2.02156 -0.61453,-5.133044 -0.99171,-6.914402 -0.37718,-1.781358 -1.02634,-4.341206 -1.44258,-5.688551 -0.41624,-1.347345 -1.26158,-3.818031 -1.87852,-5.49041 l -1.12172,-3.040691 0.43331,-2.780151 c 0.23833,-1.529085 0.5653,-3.941124 0.7266,-5.360086 0.16131,-1.418963 0.2174,-2.984463 0.12464,-3.478893 -0.0927,-0.49443 -0.41002,-1.205827 -0.70505,-1.580885 -0.29501,-0.375056 -1.02405,-0.813236 -1.62008,-0.97373 -0.87431,-0.235426 -1.29331,-0.211256 -2.16863,0.12509 -0.59671,0.229294 -1.7315,0.93447 -2.52175,1.567059 l -1.43681,1.150164 -2.39965,-2.414512 c -1.32702,-1.335238 -3.51598,-3.159707 -4.89708,-4.081636 -1.37359,-0.916915 -3.32025,-2.081481 -4.3259,-2.587923 -1.00566,-0.50644 -2.80719,-1.315365 -4.00339,-1.797611 -1.19621,-0.482247 -3.23815,-1.181695 -4.53764,-1.554329 -1.2995,-0.372637 -3.61287,-0.919109 -5.14084,-1.214382 -1.52797,-0.295275 -3.93429,-0.659906 -5.34739,-0.810293 -1.41308,-0.150385 -4.27413,-0.273427 -6.35789,-0.273427 -2.08375,0 -5.22735,0.178117 -6.98578,0.395814 -1.75843,0.217697 -4.65835,0.763563 -6.44426,1.213032 -1.78592,0.44947 -4.31996,1.226632 -5.63122,1.727026 -1.31125,0.500394 -3.587,1.516062 -5.05721,2.257042 -1.47021,0.74098 -3.62562,1.968056 -4.78978,2.726837 -1.16417,0.758779 -3.00964,2.100711 -4.10105,2.982066 -1.0914,0.881357 -3.07085,2.726445 -4.39878,4.100199 -1.32792,1.37375 -3.15416,3.49544 -4.0583,4.714861 -0.90415,1.219424 -2.29316,3.320304 -3.08668,4.66862 -0.79353,1.348319 -2.02335,3.804535 -2.73294,5.45826 -0.70958,1.653723 -1.59186,4.008619 -1.9606,5.233099 -0.36874,1.224481 -0.85312,3.030191 -1.0764,4.012688 -0.22328,0.982495 -0.58622,3.161488 -0.80654,4.842203 -0.22033,1.680722 -0.40059,3.823662 -0.40059,4.762092 v 1.706235 l -5.35781,-0.0335 c -2.9468,-0.0184 -6.19125,-0.13758 -7.2099,-0.26482 z"
       id="path1841" /></g></svg>
