<?xml version="1.0" encoding="UTF-8" standalone="no"?>
<svg
   height="508.207"
   width="515.349"
   id="svg2"
   version="1.0"
   viewBox="-20.0958 -33.20425 74.795864 126.55974"
   sodipodi:docname="Inkscape.svg"
   inkscape:version="1.2.2 (732a01da63, 2022-12-09)"
   xmlns:inkscape="http://www.inkscape.org/namespaces/inkscape"
   xmlns:sodipodi="http://sodipodi.sourceforge.net/DTD/sodipodi-0.dtd"
   xmlns:xlink="http://www.w3.org/1999/xlink"
   xmlns="http://www.w3.org/2000/svg"
   xmlns:svg="http://www.w3.org/2000/svg">
  <sodipodi:namedview
     id="namedview866"
     pagecolor="#ffffff"
     bordercolor="#000000"
     borderopacity="0.25"
     inkscape:showpageshadow="2"
     inkscape:pageopacity="0.0"
     inkscape:pagecheckerboard="0"
     inkscape:deskcolor="#d1d1d1"
     showgrid="false"
     inkscape:zoom="0.295"
     inkscape:cx="593.22034"
     inkscape:cy="401.69492"
     inkscape:window-width="1920"
     inkscape:window-height="1130"
     inkscape:window-x="-6"
     inkscape:window-y="-6"
     inkscape:window-maximized="1"
     inkscape:current-layer="svg2" />
  <defs
     id="defs4">
    <linearGradient
       gradientUnits="userSpaceOnUse"
       id="WhiteTransparent">
      <stop
         id="stop7"
         offset="0"
         stop-color="#fff"
         stop-opacity="1" />
      <stop
         id="stop9"
         offset="1"
         stop-color="#fff"
         stop-opacity="0" />
    </linearGradient>
    <linearGradient
       gradientUnits="userSpaceOnUse"
       id="BlackTransparent">
      <stop
         id="stop12"
         offset="0"
         stop-color="#000"
         stop-opacity="1" />
      <stop
         id="stop14"
         offset="1"
         stop-color="#000"
         stop-opacity="0" />
    </linearGradient>
    <linearGradient
       gradientUnits="userSpaceOnUse"
       y2="64"
       x2="0"
       y1="128"
       x1="0"
       xlink:href="#BlackTransparent"
       id="liquidShade" />
    <linearGradient
       gradientUnits="userSpaceOnUse"
       y2="76"
       x2="0"
       y1="128"
       x1="0"
       xlink:href="#WhiteTransparent"
       id="liquidSpecular" />
    <linearGradient
       gradientUnits="userSpaceOnUse"
       y2="40"
       x2="60"
       y1="20"
       x1="80"
       xlink:href="#WhiteTransparent"
       id="sideSpecular" />
    <linearGradient
       gradientUnits="userSpaceOnUse"
       y2="50"
       x2="90"
       y1="20"
       x1="60"
       xlink:href="#WhiteTransparent"
       id="IcecapTip" />
    <linearGradient
       gradientUnits="userSpaceOnUse"
       y2="60"
       x2="58"
       y1="35"
       x1="33"
       xlink:href="#WhiteTransparent"
       id="shinySpecular" />
    <linearGradient
       y2="40"
       x2="60"
       y1="20"
       x1="82.119003"
       gradientUnits="userSpaceOnUse"
       id="linearGradient9175"
       xlink:href="#linearGradient5785" />
    <linearGradient
       id="linearGradient5785"
       gradientUnits="userSpaceOnUse">
      <stop
         offset="0"
         id="stop5787"
         stop-color="#c0cdf9"
         stop-opacity="1" />
      <stop
         offset="1"
         id="stop5789"
         stop-color="#07092d"
         stop-opacity=".288" />
    </linearGradient>
    <linearGradient
       gradientTransform="matrix(1.00918,0,0,1.00918,-0.39,-0.383)"
       id="shinySpecular-4"
       xlink:href="#WhiteTransparent-4"
       x1="33"
       y1="35"
       x2="58"
       y2="60"
       gradientUnits="userSpaceOnUse" />
    <linearGradient
       id="WhiteTransparent-4"
       gradientUnits="userSpaceOnUse">
      <stop
         offset="0"
         id="stop7606-4"
         stop-color="#fff"
         stop-opacity="1" />
      <stop
         offset="1"
         id="stop7608-7"
         stop-color="#fff"
         stop-opacity="0" />
    </linearGradient>
    <linearGradient
       id="IcecapTip-6"
       xlink:href="#WhiteTransparent-4"
       x1="60"
       y1="20"
       x2="90"
       y2="50"
       gradientUnits="userSpaceOnUse" />
    <linearGradient
       id="linearGradient8568">
      <stop
         id="stop8570"
         offset="0"
         stop-color="#fff"
         stop-opacity="1" />
      <stop
         id="stop8572"
         offset="1"
         stop-color="#fff"
         stop-opacity="0" />
    </linearGradient>
    <linearGradient
       id="linearGradient8738">
      <stop
         id="stop8740"
         offset="0"
         stop-color="#fff"
         stop-opacity="1" />
      <stop
         id="stop8742"
         offset="1"
         stop-color="#fff"
         stop-opacity="0" />
    </linearGradient>
    <linearGradient
       gradientUnits="userSpaceOnUse"
       y2="201.5"
       x2="231.75"
       y1="195.188"
       x1="231.625"
       id="linearGradient8912"
       xlink:href="#linearGradient8866" />
    <linearGradient
       id="linearGradient8866">
      <stop
         id="stop8868"
         offset="0"
         stop-color="#fff"
         stop-opacity="1" />
      <stop
         id="stop8870"
         offset="1"
         stop-color="#fff"
         stop-opacity="0" />
    </linearGradient>
    <linearGradient
       gradientUnits="userSpaceOnUse"
       y2="200.071"
       x2="231.37601"
       y1="195.621"
       x1="231.37601"
       id="linearGradient8910"
       xlink:href="#linearGradient8866" />
    <linearGradient
       id="linearGradient8916">
      <stop
         id="stop8918"
         offset="0"
         stop-color="#fff"
         stop-opacity="1" />
      <stop
         id="stop8920"
         offset="1"
         stop-color="#fff"
         stop-opacity="0" />
    </linearGradient>
    <linearGradient
       y2="201.5"
       x2="231.75"
       y1="195.188"
       x1="231.625"
       gradientUnits="userSpaceOnUse"
       id="linearGradient8990"
       xlink:href="#linearGradient8866" />
    <linearGradient
       y2="200.071"
       x2="231.37601"
       y1="195.621"
       x1="231.37601"
       gradientUnits="userSpaceOnUse"
       id="linearGradient8992"
       xlink:href="#linearGradient8866" />
    <linearGradient
       id="linearGradient8998">
      <stop
         id="stop9000"
         offset="0"
         stop-color="#fff"
         stop-opacity=".33" />
      <stop
         id="stop9002"
         offset="1"
         stop-color="#fff"
         stop-opacity="0" />
    </linearGradient>
    <linearGradient
       y2="201.5"
       x2="231.75"
       y1="195.188"
       x1="231.625"
       gradientUnits="userSpaceOnUse"
       id="linearGradient9023"
       xlink:href="#linearGradient8866" />
    <linearGradient
       y2="200.071"
       x2="231.37601"
       y1="195.621"
       x1="231.37601"
       gradientUnits="userSpaceOnUse"
       id="linearGradient9025"
       xlink:href="#linearGradient8866" />
    <linearGradient
       id="linearGradient9040">
      <stop
         id="stop9042"
         offset="0"
         stop-color="#fff"
         stop-opacity="1" />
      <stop
         id="stop9044"
         offset="1"
         stop-color="#fff"
         stop-opacity="0" />
    </linearGradient>
    <linearGradient
       id="linearGradient9286">
      <stop
         id="stop9288"
         offset="0"
         stop-color="#fff"
         stop-opacity="1" />
      <stop
         id="stop9290"
         offset="1"
         stop-color="#fff"
         stop-opacity="0" />
    </linearGradient>
    <linearGradient
       gradientUnits="userSpaceOnUse"
       y2="223.5"
       x2="153.5"
       y1="208.164"
       x1="95.5"
       id="linearGradient5905"
       xlink:href="#linearGradient5899-3" />
    <linearGradient
       id="linearGradient5899-3">
      <stop
         id="stop5901-1"
         offset="0"
         stop-color="#fff"
         stop-opacity="1" />
      <stop
         id="stop5903-7"
         offset="1"
         stop-color="#fff"
         stop-opacity="0" />
    </linearGradient>
    <linearGradient
       gradientTransform="matrix(0.88526,0,0,0.88526,5.177,9.23)"
       gradientUnits="userSpaceOnUse"
       y2="84.480003"
       x2="53.632"
       y1="76.246002"
       x1="57.224998"
       id="linearGradient5801"
       xlink:href="#linearGradient5793-6" />
    <linearGradient
       id="linearGradient5793-6">
      <stop
         id="stop5795-2"
         offset="0"
         stop-color="#eeeeec"
         stop-opacity="1" />
      <stop
         id="stop5797-1"
         offset="1"
         stop-color="#eeeeec"
         stop-opacity="0" />
    </linearGradient>
    <linearGradient
       id="linearGradient5805">
      <stop
         id="stop5807"
         offset="0"
         stop-color="#fff"
         stop-opacity="1" />
      <stop
         id="stop5809"
         offset="1"
         stop-color="#fff"
         stop-opacity="0" />
    </linearGradient>
    <linearGradient
       y2="187.66"
       x2="82.753998"
       y1="180.476"
       x1="73.711998"
       gradientTransform="matrix(0.4928,0,0,0.4928,-6,-9.723)"
       gradientUnits="userSpaceOnUse"
       id="linearGradient5822"
       xlink:href="#WhiteTransparent-4" />
    <linearGradient
       id="linearGradient10981-3">
      <stop
         id="stop10983-2"
         offset="0"
         stop-color="#729fcf"
         stop-opacity="1" />
      <stop
         id="stop10985-3"
         offset="1"
         stop-color="#729fcf"
         stop-opacity="0" />
    </linearGradient>
    <linearGradient
       xlink:href="#linearGradient10981-3"
       id="linearGradient1030"
       gradientUnits="userSpaceOnUse"
       gradientTransform="translate(-130.166,-83.353)"
       x1="180.813"
       y1="217.5"
       x2="153.701"
       y2="144.5" />
    <filter
       y="0"
       x="0"
       filterUnits="userSpaceOnUse"
       id="ShadowBlur">
      <feGaussianBlur
         id="feGaussianBlur24"
         result="blur"
         stdDeviation="3"
         in="SourceAlpha" />
    </filter>
    <filter
       id="filter6017"
       color-interpolation-filters="sRGB"
       x="-0.017245893"
       y="-0.01751878"
       width="1.0344918"
       height="1.0350376">
      <feGaussianBlur
         id="feGaussianBlur6019"
         stdDeviation=".805" />
    </filter>
    <filter
       id="filter6031"
       color-interpolation-filters="sRGB"
       x="-0.074767908"
       y="-0.075950984"
       width="1.1495358"
       height="1.151902">
      <feGaussianBlur
         id="feGaussianBlur6033"
         stdDeviation="3.49" />
    </filter>
    <filter
       id="filter8490"
       color-interpolation-filters="sRGB"
       x="-0.051759099"
       y="-0.0525781"
       width="1.1035182"
       height="1.1051562">
      <feGaussianBlur
         id="feGaussianBlur8492"
         stdDeviation="2.416" />
    </filter>
    <filter
       height="1.2284497"
       y="-0.11422483"
       width="1.1561644"
       x="-0.078082224"
       id="filter8732"
       color-interpolation-filters="sRGB">
      <feGaussianBlur
         id="feGaussianBlur8734"
         stdDeviation="1.958" />
    </filter>
    <filter
       height="1.3508965"
       y="-0.17544827"
       width="1.1485547"
       x="-0.074277368"
       id="filter8764"
       color-interpolation-filters="sRGB">
      <feGaussianBlur
         id="feGaussianBlur8766"
         stdDeviation="2.12" />
    </filter>
    <filter
       height="1.6336448"
       y="-0.31682241"
       width="1.1921769"
       x="-0.096088432"
       id="filter8906"
       color-interpolation-filters="sRGB">
      <feGaussianBlur
         id="feGaussianBlur8908"
         stdDeviation=".565" />
    </filter>
    <filter
       height="1.9463032"
       y="-0.47315162"
       width="1.1554836"
       x="-0.077741822"
       id="filter8980"
       color-interpolation-filters="sRGB">
      <feGaussianBlur
         id="feGaussianBlur8982"
         stdDeviation=".821" />
    </filter>
    <filter
       height="1.3313472"
       y="-0.16567358"
       width="1.1524501"
       x="-0.076225048"
       id="filter9068"
       color-interpolation-filters="sRGB">
      <feGaussianBlur
         id="feGaussianBlur9070"
         stdDeviation=".665" />
    </filter>
    <filter
       id="filter9298"
       color-interpolation-filters="sRGB"
       x="-0.011797257"
       y="-0.011963244"
       width="1.0235043"
       height="1.0239563">
      <feGaussianBlur
         id="feGaussianBlur9300"
         stdDeviation=".326" />
    </filter>
    <filter
       height="1.2446824"
       y="-0.12234119"
       width="1.1650254"
       x="-0.082512714"
       id="filter5983-5"
       color-interpolation-filters="sRGB">
      <feGaussianBlur
         id="feGaussianBlur5985-9"
         stdDeviation="3.687" />
    </filter>
    <filter
       id="filter5845"
       color-interpolation-filters="sRGB"
       x="-0.067755527"
       y="-0.053326244"
       width="1.1355111"
       height="1.1066525">
      <feGaussianBlur
         id="feGaussianBlur5847"
         stdDeviation="1.241" />
    </filter>
    <filter
       id="filter10997-7"
       color-interpolation-filters="sRGB"
       x="-0.059374374"
       y="-0.040290909"
       width="1.1187487"
       height="1.0805818">
      <feGaussianBlur
         id="feGaussianBlur10999-0"
         stdDeviation="2.77" />
    </filter>
    <radialGradient
       r="30.6"
       fy="250.897"
       fx="116.31"
       cy="250.897"
       cx="116.31"
       gradientTransform="matrix(1.57005,0,0,1.05093,-75.5,-22.096)"
       gradientUnits="userSpaceOnUse"
       id="radialGradient9177"
       xlink:href="#linearGradient8568" />
    <radialGradient
       gradientUnits="userSpaceOnUse"
       gradientTransform="matrix(2.00325,0,0,1.3409,-132.875,-95.166)"
       r="30.6"
       fy="251.994"
       fx="132.444"
       cy="251.994"
       cx="132.444"
       id="radialGradient8574"
       xlink:href="#linearGradient8568" />
    <radialGradient
       gradientUnits="userSpaceOnUse"
       gradientTransform="matrix(1,0,0,0.42336,0,97.164)"
       r="34.25"
       fy="168.5"
       fx="210.25"
       cy="168.5"
       cx="210.25"
       id="radialGradient8744"
       xlink:href="#linearGradient8738" />
    <radialGradient
       r="34.25"
       fy="182.082"
       fx="217.5"
       cy="182.082"
       cx="217.5"
       gradientTransform="matrix(1,0,0,0.42336,0,97.164)"
       gradientUnits="userSpaceOnUse"
       id="radialGradient8768"
       xlink:href="#linearGradient8738" />
    <radialGradient
       gradientUnits="userSpaceOnUse"
       gradientTransform="matrix(1,0,0,0.14775,0,174.57)"
       r="14.094"
       fy="204.832"
       fx="228.21899"
       cy="204.832"
       cx="228.21899"
       id="radialGradient8922"
       xlink:href="#linearGradient8916" />
    <radialGradient
       r="14.094"
       fy="204.832"
       fx="228.21899"
       cy="204.832"
       cx="228.21899"
       gradientTransform="matrix(1,0,0,0.14775,0,174.57)"
       gradientUnits="userSpaceOnUse"
       id="radialGradient8994"
       xlink:href="#linearGradient8916" />
    <radialGradient
       gradientUnits="userSpaceOnUse"
       gradientTransform="matrix(1,0,0,0.40708,0,115.76)"
       r="22.75"
       fy="187.869"
       fx="89.875"
       cy="187.869"
       cx="89.875"
       id="radialGradient9004"
       xlink:href="#linearGradient8998" />
    <radialGradient
       gradientUnits="userSpaceOnUse"
       gradientTransform="matrix(1.18508,-0.32836,0.12286,0.4434,-45.068,152.922)"
       r="10.469"
       fy="230.836"
       fx="90.280998"
       cy="230.836"
       cx="90.280998"
       id="radialGradient9046"
       xlink:href="#linearGradient9040" />
    <radialGradient
       r="54.783001"
       fy="21.226"
       fx="68.400002"
       cy="21.226"
       cx="68.400002"
       gradientTransform="matrix(1.72215,0,0,1.69498,-49.395,-14.078)"
       gradientUnits="userSpaceOnUse"
       id="radialGradient11553"
       xlink:href="#linearGradient9286" />
    <radialGradient
       gradientUnits="userSpaceOnUse"
       gradientTransform="matrix(1.35152,0,0,1.71757,-63.706,-153.956)"
       r="22.466"
       fy="214.55099"
       fx="181.22701"
       cy="214.55099"
       cx="181.22701"
       id="radialGradient5811"
       xlink:href="#linearGradient5805" />
    <clipPath
       id="clipoutline1"
       clipPathUnits="userSpaceOnUse">
      <path
         d="M 54.1,12.5 12.9,54.7 C -2.7,70.3 23,69 32.3,74.9 36.6,77.7 18.5,81.3 22.2,85 c 3.6,3.7 21.7,7.1 25.3,10.7 3.6,3.7 -7.3,7.6 -3.7,11.3 3.5,3.7 11.9,0.2 13.4,8.6 1.1,6.2 15.4,3.1 21.8,-2.2 4,-3.4 -6.9,-3.4 -3.3,-7.1 9,-9.1 17,-4.1 20.3,-12.5 1.8,-4.5 -13.6,-7.7 -9.5,-10.6 9.8,-6.9 45.8,-10.4 29.2,-27 L 73,12.5 c -5.3,-5 -14,-5 -18.9,0 z m -9.9,64.7 c 0.9,0 30.8,4 19.3,7.1 -4.4,1.2 -24.6,-7.1 -19.3,-7.1 z m 57.2,16.6 c 0,2.1 16.3,3.3 15.4,-0.5 -1.3,-6.4 -13.6,-5.9 -15.4,0.5 z m -69.5,11.1 c 3.7,3.2 9.3,-0.7 11.1,-5.2 -3.6,-4.7 -16.9,0.3 -11.1,5.2 z m 67.5,-6.7 c -4.6,4.2 0.8,8.6 5.3,5.7 1.2,-0.8 -0.1,-4.7 -5.3,-5.7 z"
         id="outline1" />
    </clipPath>
    <clipPath
       id="clipPath9086"
       clipPathUnits="userSpaceOnUse">
      <use
         height="300"
         width="400"
         y="0"
         x="0"
         class="low-specularity"
         xlink:href="#outline1"
         id="use9088"
         fill="#ffffff"
         fill-opacity="1" />
    </clipPath>
  </defs>
  <style
     id="style26"
     type="text/css">.low-specularity{opacity:.25}</style>
  <g
     id="g9139"
     transform="matrix(0.99658004,0,0,0.99626936,-46.47746,-35.522568)"
     display="inline">
    <g
       id="g6035"
       transform="translate(0,0.488)"
       opacity="0.783"
       fill="#000000"
       fill-opacity="1">
      <path
         id="path5987"
         d="m 54.1,12.988 -41.2,42.2 c -15.6,15.6 10.1,14.3 19.4,20.2 4.3,2.8 -13.8,6.4 -10.1,10.1 3.6,3.7 21.7,7.1 25.3,10.7 3.6,3.7 -7.3,7.6 -3.7,11.3 3.5,3.7 11.9,0.2 13.4,8.6 1.1,6.2 15.4,3.1 21.8,-2.2 4,-3.4 -6.9,-3.4 -3.3,-7.1 9,-9.1 17,-4.1 20.3,-12.5 1.8,-4.5 -13.6,-7.7 -9.5,-10.6 9.8,-6.9 45.8,-10.4 29.2,-27 L 73,12.988 c -5.3,-5 -14,-5 -18.9,0 z m 47.3,81.3 c 0,2.1 16.3,3.3 15.4,-0.5 -1.3,-6.4 -13.6,-5.9 -15.4,0.5 z m -69.5,11.1 c 3.7,3.2 9.3,-0.7 11.1,-5.2 -3.6,-4.7 -16.9,0.3 -11.1,5.2 z m 67.5,-6.7 c -4.6,4.2 0.8,8.6 5.3,5.7 1.2,-0.8 -0.1,-4.7 -5.3,-5.7 z"
         filter="url(#filter6017)" />
      <path
         d="m 54.1,13.965 -41.2,42.2 c -15.6,15.6 10.1,14.3 19.4,20.2 4.3,2.8 -13.8,6.4 -10.1,10.1 3.6,3.7 21.7,7.1 25.3,10.7 3.6,3.7 -7.3,7.6 -3.7,11.3 3.5,3.7 11.9,0.2 13.4,8.6 1.1,6.2 15.4,3.1 21.8,-2.2 4,-3.4 -6.9,-3.4 -3.3,-7.1 9,-9.1 17,-4.1 20.3,-12.5 1.8,-4.5 -13.6,-7.7 -9.5,-10.6 9.8,-6.9 45.8,-10.4 29.2,-27 L 73,13.965 c -5.3,-5 -14,-5 -18.9,0 z m 47.3,81.3 c 0,2.1 16.3,3.3 15.4,-0.5 -1.3,-6.4 -13.6,-5.9 -15.4,0.5 z m -69.5,11.1 c 3.7,3.2 9.3,-0.7 11.1,-5.2 -3.6,-4.7 -16.9,0.3 -11.1,5.2 z m 67.5,-6.7 c -4.6,4.2 0.8,8.6 5.3,5.7 1.2,-0.8 -0.1,-4.7 -5.3,-5.7 z"
         id="path6021"
         opacity="0.576"
         filter="url(#filter6031)" />
    </g>
    <path
       id="use7631"
       d="M 54.1,12.5 12.9,54.7 C -2.7,70.3 23,69 32.3,74.9 36.6,77.7 18.5,81.3 22.2,85 c 3.6,3.7 21.7,7.1 25.3,10.7 3.6,3.7 -7.3,7.6 -3.7,11.3 3.5,3.7 11.9,0.2 13.4,8.6 1.1,6.2 15.4,3.1 21.8,-2.2 4,-3.4 -6.9,-3.4 -3.3,-7.1 9,-9.1 17,-4.1 20.3,-12.5 1.8,-4.5 -13.6,-7.7 -9.5,-10.6 9.8,-6.9 45.8,-10.4 29.2,-27 L 73,12.5 c -5.3,-5 -14,-5 -18.9,0 z m 47.3,81.3 c 0,2.1 16.3,3.3 15.4,-0.5 -1.3,-6.4 -13.6,-5.9 -15.4,0.5 z m -69.5,11.1 c 3.7,3.2 9.3,-0.7 11.1,-5.2 -3.6,-4.7 -16.9,0.3 -11.1,5.2 z m 67.5,-6.7 c -4.6,4.2 0.8,8.6 5.3,5.7 1.2,-0.8 -0.1,-4.7 -5.3,-5.7 z"
       fill="#000000"
       fill-opacity="1" />
    <path
       id="use7639"
       d="M 54.1,12.5 12.9,54.7 C -2.7,70.3 23,69 32.3,74.9 36.6,77.7 18.5,81.3 22.2,85 c 3.6,3.7 21.7,7.1 25.3,10.7 3.6,3.7 -7.3,7.6 -3.7,11.3 3.5,3.7 11.9,0.2 13.4,8.6 1.1,6.2 15.4,3.1 21.8,-2.2 4,-3.4 -6.9,-3.4 -3.3,-7.1 9,-9.1 17,-4.1 20.3,-12.5 1.8,-4.5 -13.6,-7.7 -9.5,-10.6 9.8,-6.9 45.8,-10.4 29.2,-27 L 73,12.5 c -5.3,-5 -14,-5 -18.9,0 z m 47.3,81.3 c 0,2.1 16.3,3.3 15.4,-0.5 -1.3,-6.4 -13.6,-5.9 -15.4,0.5 z m -69.5,11.1 c 3.7,3.2 9.3,-0.7 11.1,-5.2 -3.6,-4.7 -16.9,0.3 -11.1,5.2 z m 67.5,-6.7 c -4.6,4.2 0.8,8.6 5.3,5.7 1.2,-0.8 -0.1,-4.7 -5.3,-5.7 z"
       fill="none" />
    <use
       clip-path="url(#clipPath9086)"
       transform="matrix(0.99054,0,0,0.99054,0.605,0.604)"
       height="300"
       width="400"
       y="0"
       x="0"
       class="low-specularity"
       xlink:href="#outline1"
       id="use7641"
       opacity=".67"
       fill="url(#linearGradient9175)"
       filter="url(#filter8490)"
       style="fill:url(#linearGradient9175)" />
    <path
       d="m 16.565,57.04 c -11.202,11.1 8.477,7.972 23.615,13.926 l 31.285,-55 c -4.743,-4.845 -10.798,-4.44 -15.138,0 z"
       id="path7643"
       opacity="0.505"
       fill="url(#shinySpecular-4)"
       stroke="none"
       style="fill:url(#shinySpecular-4)" />
    <path
       id="icecap-7"
       d="m 70.5,15.5 16.3,16.6 c 1.5,1.5 1.5,4.6 0.6,5.5 L 79.3,31 77.7,40.7 71,37.1 60.1,44 56.5,29.5 50.7,42.1 36.2,42 c -2.8,0 -2.4,-2.9 0.5,-5.8 5.7,-6.3 16.8,-17 20.3,-20.7 3.6,-3.7 9.9,-3.6 13.5,0 z"
       fill="url(#IcecapTip-6)"
       opacity="1"
       style="fill:url(#IcecapTip-6)" />
    <path
       transform="matrix(0.52965,0,0,0.52965,-11.722,-13.864)"
       id="path8566"
       d="m 113,203.5 c 0,0 3.34,5.1 3,7.5 -0.668,4.709 -10.81,7.058 -8.563,11.25 2.22,4.141 10.222,1.794 16.938,6.125 6.688,4.313 4.89,13.101 9.75,15.313 9.48,4.312 34.375,-7.438 33.125,-7.188 -1.25,0.25 -24.57,5.095 -29.82,0.845 -5.986,-4.845 -7.702,-8.23 -12.118,-11.095 -4.137,-2.685 -9.95,-3.78 -11.302,-5.979 -1.353,-2.198 2.71,-5.034 2.99,-9.271 0.169,-2.544 -4,-7.5 -4,-7.5 z"
       opacity="0.217"
       fill="url(#radialGradient9177)"
       fill-opacity="1"
       fill-rule="evenodd"
       stroke="none"
       style="fill:url(#radialGradient9177)" />
    <path
       d="m 113,203.5 c 0,0 3.34,5.1 3,7.5 -0.668,4.709 -10.81,7.058 -8.563,11.25 2.22,4.141 10.222,1.794 16.938,6.125 6.688,4.313 4.89,13.101 9.75,15.313 9.48,4.312 34.375,-7.438 33.125,-7.188 -41.34,0.157 -33.625,-10.495 -49.563,-17.5 -2.302,-1.012 -0.968,-3.763 -0.687,-8 0.169,-2.544 -4,-7.5 -4,-7.5 z"
       id="path8718"
       transform="matrix(0.52965,0,0,0.52965,-11.722,-13.864)"
       opacity="0.276"
       fill="url(#radialGradient8574)"
       fill-opacity="1"
       fill-rule="evenodd"
       stroke="none"
       filter="url(#filter8732)"
       style="fill:url(#radialGradient8574)" />
    <path
       transform="matrix(0.52965,0,0,0.52965,-11.722,-13.864)"
       id="path8736"
       d="M 183.25,181.75 C 220.354,168.095 232.274,166.22 244.5,154 230.34,165.954 200.401,172.366 176,183 Z"
       opacity="0.453"
       fill="url(#radialGradient8744)"
       fill-opacity="1"
       fill-rule="evenodd"
       stroke="none"
       style="fill:url(#radialGradient8744)" />
    <path
       d="m 183.25,181.75 c 61.104,-21.655 50.774,-21.53 61.25,-27.75 -19.428,7.437 -55.734,8.23 -68.5,29 z"
       id="path8746"
       transform="matrix(0.52965,0,0,0.52965,-11.722,-14.791)"
       opacity="0.512"
       fill="url(#radialGradient8768)"
       fill-opacity="1"
       fill-rule="evenodd"
       stroke="none"
       filter="url(#filter8764)"
       style="fill:url(#radialGradient8768)" />
    <ellipse
       ry="2.438"
       rx="7.9380002"
       cy="199.063"
       cx="229.938"
       transform="matrix(0.52965,0,0,0.52965,-12.384,-14.791)"
       id="path8864"
       style="fill:url(#linearGradient8912);marker:none"
       display="inline"
       overflow="visible"
       visibility="visible"
       opacity="0.286"
       fill="url(#linearGradient8912)"
       fill-opacity="1"
       fill-rule="nonzero"
       stroke="none"
       stroke-width="1"
       enable-background="accumulate" />
    <ellipse
       ry="2.438"
       rx="7.9380002"
       cy="199.063"
       cx="229.938"
       style="fill:url(#linearGradient8910);marker:none"
       id="path8874"
       transform="matrix(0.71315,0,0,1.14078,-54.578,-134.955)"
       display="inline"
       overflow="visible"
       visibility="visible"
       opacity="0.621"
       fill="url(#linearGradient8910)"
       fill-opacity="1"
       fill-rule="nonzero"
       stroke="none"
       stroke-width="1"
       filter="url(#filter8906)"
       enable-background="accumulate" />
    <path
       transform="matrix(0.52965,0,0,0.52965,-11.722,-14.239)"
       id="path8914"
       d="m 214.125,203.75 c 3.77,3.484 24.756,5.272 28.188,-1 -6.737,4.784 -21.717,3.103 -28.188,1 z"
       fill="url(#radialGradient8922)"
       fill-opacity="1"
       fill-rule="evenodd"
       stroke="none"
       filter="url(#filter8980)"
       style="fill:url(#radialGradient8922)" />
    <ellipse
       ry="3.082"
       rx="6.5079999"
       cy="199.063"
       cx="229.938"
       style="fill:url(#linearGradient8990);marker:none"
       id="path8984"
       transform="matrix(0.20425,-0.10356,0.23952,0.4724,5.755,30.287)"
       display="inline"
       overflow="visible"
       visibility="visible"
       opacity="0.286"
       fill="url(#linearGradient8990)"
       fill-opacity="1"
       fill-rule="nonzero"
       stroke="none"
       stroke-width="1"
       enable-background="accumulate" />
    <ellipse
       ry="2.1400001"
       rx="7.0560002"
       cy="199.063"
       cx="229.938"
       transform="matrix(0.27502,-0.13944,0.51588,1.01747,-65.353,-69.3)"
       id="path8986"
       style="fill:url(#linearGradient8992);marker:none"
       display="inline"
       overflow="visible"
       visibility="visible"
       opacity="0.621"
       fill="url(#linearGradient8992)"
       fill-opacity="1"
       fill-rule="nonzero"
       stroke="none"
       stroke-width="1"
       filter="url(#filter8906)"
       enable-background="accumulate" />
    <path
       d="m 217.058,201.94 c 3.769,3.485 26.97,8.912 25.255,0.81 -3.318,5.323 -18.785,1.293 -25.255,-0.81 z"
       id="path8988"
       transform="matrix(0.20425,-0.10356,0.23952,0.4724,6.26,30.65)"
       fill="url(#radialGradient8994)"
       fill-opacity="1"
       fill-rule="evenodd"
       stroke="none"
       filter="url(#filter8980)"
       style="fill:url(#radialGradient8994)" />
    <path
       transform="matrix(0.52965,0,0,0.52965,-11.722,-13.864)"
       id="path8996"
       d="m 68.25,186 c 0,-0.62 38.846,11.838 45.5,18.5 -5.471,-5.338 -33.16,-17.616 -37.375,-17.75 -4.215,-0.134 -7.625,-0.5 -8.125,-0.75 z"
       fill="url(#radialGradient9004)"
       fill-opacity="1"
       fill-rule="evenodd"
       stroke="none"
       style="fill:url(#radialGradient9004)" />
    <g
       transform="matrix(0.87901,-0.193,0.23383,0.69593,-20.21,36.726)"
       id="g9018"
       visibility="visible"
       fill-opacity="1"
       fill-rule="nonzero"
       stroke="none"
       stroke-width="1">
      <ellipse
         ry="2.438"
         rx="7.9380002"
         cy="199.063"
         cx="229.938"
         transform="matrix(0.52965,0,0,0.52965,-84.416,-4.728)"
         id="path9006"
         style="fill:url(#linearGradient9023);marker:none"
         display="inline"
         overflow="visible"
         opacity="0.286"
         fill="url(#linearGradient9023)"
         enable-background="accumulate" />
      <ellipse
         ry="2.438"
         rx="7.9380002"
         cy="199.063"
         cx="229.938"
         style="fill:url(#linearGradient9025);marker:none"
         id="path9008"
         transform="matrix(0.71315,0,0,1.14078,-126.61,-124.892)"
         display="inline"
         overflow="visible"
         opacity="0.621"
         fill="url(#linearGradient9025)"
         filter="url(#filter8906)"
         enable-background="accumulate" />
    </g>
    <path
       transform="matrix(0.52965,0,0,0.52965,-11.623,-14.427)"
       id="path9038"
       d="m 80.5,220.063 c 0,0 2.103,5.65 7.875,5.937 5.839,0.29 12.503,-7.007 13.063,-9.625 -1,2.25 -6.59,9.033 -13.813,8.938 -4.1,-0.054 -7.125,-5.25 -7.125,-5.25 z"
       opacity="0.616"
       fill="url(#radialGradient9046)"
       fill-opacity="1"
       fill-rule="evenodd"
       stroke="none"
       filter="url(#filter9068)"
       style="fill:url(#radialGradient9046)" />
    <path
       xlink:href="#use7639"
       id="87235"
       d="m 63.4,10.207 c -3.097,0 -6.11,1.12 -8.257,3.31 l -41.2,42.2 a 1.457,1.457 0 0 1 -0.013,0.012 c -3.766,3.765 -4.684,6.246 -4.451,7.638 0.116,0.696 0.48,1.29 1.209,1.924 0.728,0.633 1.814,1.248 3.138,1.803 2.649,1.11 6.21,1.99 9.711,2.949 3.5,0.959 6.941,1.976 9.543,3.627 a 1.457,1.457 0 0 1 0.016,0.01 c 0.396,0.258 0.759,0.573 1.021,1.027 a 2.36,2.36 0 0 1 0.26,1.57 c -0.207,1.013 -0.84,1.535 -1.477,2.02 -1.271,0.97 -3.034,1.772 -4.789,2.625 -1.755,0.852 -3.492,1.748 -4.37,2.463 -0.44,0.357 -0.6,0.66 -0.595,0.638 0.007,-0.021 -0.128,-0.263 0.083,-0.052 a 1.457,1.457 0 0 1 0.013,0.013 c 0.552,0.568 2.266,1.52 4.46,2.39 2.193,0.868 4.885,1.747 7.597,2.628 2.711,0.88 5.443,1.763 7.765,2.67 2.323,0.907 4.215,1.747 5.465,2.998 a 1.457,1.457 0 0 1 0.014,0.014 c 0.623,0.64 1.038,1.431 1.13,2.246 0.094,0.814 -0.117,1.572 -0.429,2.213 -0.623,1.28 -1.63,2.266 -2.543,3.216 -0.912,0.95 -1.73,1.864 -2.025,2.471 -0.148,0.304 -0.168,0.486 -0.155,0.608 0.014,0.121 0.045,0.261 0.323,0.546 A 1.457,1.457 0 0 1 44.859,106 c 1.193,1.26 3.786,1.432 6.723,2.12 1.469,0.343 3.02,0.873 4.336,2.01 1.316,1.14 2.295,2.865 2.715,5.214 a 1.457,1.457 0 0 1 0,0.002 c 0.176,0.995 0.706,1.485 1.97,1.88 1.265,0.396 3.18,0.456 5.297,0.145 4.231,-0.62 9.267,-2.69 12.164,-5.088 0.165,-0.142 0.124,-0.113 0.18,-0.185 a 9.917,9.917 0 0 0 -1.396,-0.832 c -0.89,-0.445 -1.93,-0.853 -2.733,-1.87 -0.402,-0.508 -0.702,-1.3 -0.584,-2.083 0.118,-0.784 0.547,-1.434 1.125,-2.028 a 1.457,1.457 0 0 1 0.008,-0.008 c 4.746,-4.798 9.437,-5.965 12.95,-6.896 1.756,-0.466 3.196,-0.894 4.31,-1.596 1.113,-0.702 1.987,-1.65 2.72,-3.518 a 1.457,1.457 0 0 1 0.004,-0.007 c 0.081,-0.203 0.079,-0.24 -0.03,-0.479 -0.11,-0.238 -0.404,-0.619 -0.874,-1.027 -0.94,-0.817 -2.51,-1.72 -4.062,-2.58 -1.552,-0.86 -3.068,-1.644 -4.164,-2.66 -0.549,-0.509 -1.1,-1.14 -1.166,-2.114 -0.066,-0.974 0.567,-1.867 1.306,-2.39 a 1.457,1.457 0 0 1 0.004,-0.002 c 2.746,-1.934 6.882,-3.417 11.393,-4.98 4.51,-1.565 9.375,-3.161 13.328,-5.01 3.953,-1.85 6.872,-3.997 7.797,-6.143 0.462,-1.073 0.54,-2.155 0.056,-3.559 -0.484,-1.404 -1.593,-3.115 -3.566,-5.088 a 1.457,1.457 0 0 1 -0.012,-0.011 L 72,13.559 71.998,13.557 c -2.36,-2.226 -5.5,-3.35 -8.598,-3.35 z m 45.94,79.998 c -2.64,0.095 -5.066,1.305 -6.1,3.19 0.293,0.11 0.552,0.22 1.02,0.328 1.375,0.316 3.32,0.542 5.21,0.584 1.892,0.041 3.762,-0.114 4.915,-0.434 0.52,-0.144 0.807,-0.316 0.931,-0.406 -0.26,-1.08 -0.893,-1.846 -1.921,-2.414 -1.074,-0.593 -2.548,-0.902 -4.055,-0.848 z m -70.51,9.088 c -2.09,-0.145 -4.72,0.673 -6.004,1.705 -0.642,0.516 -0.888,0.993 -0.912,1.31 -0.024,0.318 0.066,0.752 0.926,1.48 a 1.457,1.457 0 0 1 0.014,0.01 c 1.353,1.171 2.867,1.06 4.61,0.11 1.465,-0.798 2.767,-2.299 3.634,-3.875 -0.59,-0.381 -1.31,-0.673 -2.268,-0.74 z m 61.033,0.611 c -0.461,0.579 -0.728,1.1 -0.756,1.473 -0.037,0.508 0.135,0.904 0.53,1.277 0.74,0.699 2.327,0.986 3.957,0.11 a 1.983,1.983 0 0 0 -0.344,-0.815 c -0.502,-0.73 -1.654,-1.538 -3.387,-2.045 z"
       fill="none"
       stroke="url(#radialGradient11553)"
       stroke-width="1.004"
       stroke-miterlimit="4"
       stroke-dasharray="none"
       stroke-opacity="1"
       filter="url(#filter9298)"
       style="stroke:url(#radialGradient11553)" />
    <path
       d="m 95.5,172 c -5.09,1.502 -21.592,7.737 -19.25,12.5 2.244,4.563 40.611,6.401 46.5,20 2.568,5.93 -5.892,10.403 -3.75,16.5 1.65,4.695 14.412,16.49 22.486,22.068 6.333,4.374 14.651,-3.523 11.264,-10.068 -5.396,-10.428 18.443,-23.2 29.25,-29 6.305,-3.384 -13,-20 -13,-20 z"
       id="path5897"
       transform="matrix(0.4883,0,0,0.4883,-5.81,-7.704)"
       opacity="0.325"
       fill="url(#linearGradient5905)"
       fill-opacity="1"
       fill-rule="evenodd"
       stroke="none"
       filter="url(#filter5983-5)"
       style="fill:url(#linearGradient5905)" />
    <path
       d="m 41.742,78.533 c 2.232,1.64 6.637,0.65 9.282,1.842 6.35,2.859 14.155,6.045 12.719,0.404 l -1.616,1.342 -0.031,-2.557 -3.752,0.916 c 0,0 -2.907,-2.333 -4.239,-3.102 -0.278,-0.16 -1.708,1.293 -1.708,1.293 L 52.14,77.127 a 47.62,47.62 0 0 0 -5.315,-0.272 c -3.88,0.031 -6.499,0.638 -5.083,1.678 z"
       id="path5783"
       fill="url(#linearGradient5801)"
       fill-opacity="1"
       fill-rule="evenodd"
       stroke="none"
       style="fill:url(#linearGradient5801)" />
    <path
       d="m 182.75,187.25 c -1.76,6.478 21.628,15.28 19.875,19.75 -3.859,9.842 -24.976,3.138 -41.125,23.75 -2.313,2.953 3.25,13.5 2.5,12.25 -0.75,-1.25 -6.465,-9.963 -5,-14.25 4.594,-13.445 49.013,-18.457 40.875,-24.875 -4.68,-3.69 -21.506,-13.887 -17.125,-16.625 z"
       id="path5803"
       transform="matrix(0.4883,0,0,0.4883,-5.81,-7.704)"
       opacity="0.478"
       fill="url(#radialGradient5811)"
       fill-opacity="1"
       fill-rule="evenodd"
       stroke="none"
       filter="url(#filter5845)"
       style="fill:url(#radialGradient5811)" />
    <ellipse
       ry="1.063"
       rx="2.563"
       cy="201.188"
       cx="233.938"
       style="marker:none"
       id="path6041"
       transform="matrix(0.4883,0,0,0.4883,-6.36,-8.01)"
       display="inline"
       overflow="visible"
       visibility="visible"
       opacity="0.586"
       fill="#ffffff"
       fill-opacity="1"
       fill-rule="nonzero"
       stroke="none"
       stroke-width="1"
       enable-background="accumulate" />
    <ellipse
       ry="1.063"
       rx="2.563"
       cy="201.188"
       cx="233.938"
       transform="matrix(0.30966,0,0,0.4883,27.528,1.574)"
       id="path6043"
       style="marker:none"
       display="inline"
       overflow="visible"
       visibility="visible"
       opacity="0.586"
       fill="#ffffff"
       fill-opacity="1"
       fill-rule="nonzero"
       stroke="none"
       stroke-width="1"
       enable-background="accumulate" />
    <ellipse
       ry="1.063"
       rx="2.563"
       cy="201.188"
       cx="233.938"
       transform="matrix(0.54786,0,0,0.4883,-92.102,1.116)"
       id="path6045"
       style="marker:none"
       display="inline"
       overflow="visible"
       visibility="visible"
       opacity="0.586"
       fill="#ffffff"
       fill-opacity="1"
       fill-rule="nonzero"
       stroke="none"
       stroke-width="1"
       enable-background="accumulate" />
    <path
       style="fill:url(#linearGradient5822);marker:none"
       d="m 36.672,76.529 c -7.153,4.424 -18.274,6.034 -6.104,8.972 -1.45,-3.228 3.139,-2.872 6.104,-8.972 z"
       id="path5049"
       display="inline"
       overflow="visible"
       visibility="visible"
       opacity="0.251"
       fill="url(#linearGradient5822)"
       fill-opacity="1"
       fill-rule="nonzero"
       stroke="none"
       stroke-width="2.048"
       enable-background="accumulate" />
    <path
       transform="matrix(0.4883,0,0,0.4883,57.75,32.997)"
       id="path10207"
       d="m 8.834,171.647 c 0,0 22.592,-2.128 27.818,-8.646 3.058,-3.814 -12.151,-8.264 -8.868,-12 12.35,-14.054 22.73,-13.468 37.05,-19.354 14.32,-5.886 9.036,-8.769 4.404,-11.353 -7.932,-4.427 -25.587,-9.143 -19.747,-19.647 5.877,-10.57 57.343,-25.25 57.343,-25.25 15.596,-5.328 13.64,-14.964 6,-23 l -46,-45.75 c 0,0 2.283,43.389 -7,62 -11.471,23 -72.544,48.662 -47,51.5 9,1 13.32,4.07 17,11 7.577,14.269 -21,40.5 -21,40.5 z"
       style="fill:url(#linearGradient1030);marker:none"
       color="#000000"
       display="inline"
       overflow="visible"
       visibility="visible"
       opacity="0.363"
       fill="url(#linearGradient1030)"
       fill-opacity="1"
       fill-rule="nonzero"
       stroke="none"
       stroke-width="2"
       filter="url(#filter10997-7)"
       enable-background="accumulate" />
  </g>
</svg>
