<?xml version="1.0" encoding="utf-8"?>
<!-- Generator: Adobe Illustrator 21.0.0, SVG Export Plug-In . SVG Version: 6.00 Build 0)  -->
<svg version="1.1" id="svg4525" xmlns="http://www.w3.org/2000/svg" xmlns:xlink="http://www.w3.org/1999/xlink" x="0px" y="0px"
	 viewBox="0 0 512 512" style="enable-background:new 0 0 512 512;" xml:space="preserve">
<style type="text/css">
	.st0{fill:#FFFFFF;}
	.st1{fill:#D4B830;}
	.st2{opacity:0.986;fill:#EBEBEB;fill-opacity:0;enable-background:new    ;}
	.st3{opacity:0.986;fill:#EBEBEB;fill-opacity:0.9216;enable-background:new    ;}
	.st4{fill:#FDD83C;}
</style>
<rect x="112" y="129.9" class="st0" width="290.5" height="290.5"/>
<g id="g5193" transform="translate(4.988 -113.385)">
	<path id="path5113" class="st1" d="M103.2,582L69.5,210.4l363.6,0.1l-33.5,371.2l-148.6,42L103.2,582z M372.3,561.7l28.2-318.3
		H251.6l1.1,351L372.3,561.7z M237.7,290.1h-36.2l-0.4,190.5l-70.2-19.1L131,505l106.7,28.8V290.1L237.7,290.1z"/>
	<path id="path5159" class="st2" d="M225.7,530.2c-4.7-1.4-27.8-7.7-51.3-14l-42.7-11.5v-21.4c0-21,0-21.4,2.1-20.7
		c1.1,0.4,16.7,4.7,34.6,9.6l32.5,8.9l0.3-95l0.3-95H237v120.8c0,96-0.3,120.8-1.3,120.8C235,532.6,230.4,531.5,225.7,530.2
		L225.7,530.2z"/>
	<path id="path5157" class="st3" d="M131,505l-0.1-43.5c0,0,44.8,12.6,70.2,19.1l0.4-190.3h36.2v243.5L131,505L131,505z"/>
	<path id="path5117" class="st4" d="M251.6,243.3h148.9l-28.2,318.3l-120.7,32.8V243.3z M364.6,508.2l9.8-119l-72.3,8.1v-63.5
		l77.2-0.3l3.1-43.4l-116.4,0.6l1.6,158l70.3-12.1l-1,35.2l-70.9,18.9l0.7,43.1L364.6,508.2L364.6,508.2z"/>
</g>
<path d="M266.5,1h54.9v19.9h-31.9v4h31.9v45.9h-54.9V49.9h31.9v-4h-31.9V1L266.5,1z"/>
<path d="M248.9,70.4h-55.5V47.6h32.5V1.4h23.1V70.4z"/>
</svg>
