<?xml version="1.0" encoding="utf-8"?>
<!-- Generator: Adobe Illustrator 19.2.1, SVG Export Plug-In . SVG Version: 6.00 Build 0)  -->
<svg version="1.1" id="layer" xmlns="http://www.w3.org/2000/svg" xmlns:xlink="http://www.w3.org/1999/xlink" x="0px" y="0px"
	 viewBox="0 0 652 652" style="enable-background:new 0 0 652 652;" xml:space="preserve">
<style type="text/css">
	.st0{fill:#E23B3B;}
</style>
<path class="st0" d="M183.4,255.1c8.2,1.4,14.9,2.4,16.4,5.5c1.7,3.5-7.2,3.7-11.7,3.8c-21.5,0.4-34.5,0.8-35.2,7.4
	c-0.8,8.5,9.2,17.1,19.1,29.1c9.1,11,19.4,21.8,16.4,31.9c-3.7,12.6-20.7,15.2-37,15.2c-15.6,0-30.3-2.3-36.5-3.4
	c-7.7-1.4-6.6-4.8-4.5-5.9c2.3-1.2,15.4-1.3,24.5-1.7c7.5-0.4,29.3-0.4,32.7-5.5c4.2-6.1-6-16.8-15.4-27.8
	c-11.7-13.8-24.5-28.1-17.7-38.5C143.3,251.8,169,252.7,183.4,255.1 M77.9,277.4c13.5-0.7,30,1.4,39.2,7.7c4.6,3.1,7.8,8.9,5.9,15.6
	c-5.3,18.8-25.2,41.6-69.4,59.1c-14,5.6-25.1,7.7-27.5,6.2c-2.5-1.6,4.8-14,7-18.2c7.1-13.4,15.9-26.4,24.5-38.3
	c3.2-4.4,8-12,12.5-11.4c4,0.6-0.7,8.6-3.7,13.8c-5.1,8.6-19.2,32.6-14.6,34c10.3,3.2,58.6-29.8,51.5-48.1
	c-3.3-8.5-24.3-9.3-37.5-9.3c-6,0-19.1,1.3-19.9-2.9C45.1,281.8,65.9,278,77.9,277.4 M114.3,197.1c16.3-0.7,35.5,2.5,39.1,13.3
	c5.9,17.6-23.9,43.3-49.9,55.9c-6.4,3.1-10.2,4-11.8,3.7c-1.5-0.2-1.8-1.7-1.3-2.6c0.9-1.9,5.1-5.6,10.7-9.7
	c29.2-21.4,38.8-37,33.2-43.4c-3.5-4.1-18.4-6.9-33.7-6.9c-4.2,0-15.2,0.9-16.3-2.7C83.4,201.7,98.1,197.8,114.3,197.1 M418,396.7
	l-22.7,51.2c-1.2,2.7-3.4,4.2-6.1,4.2h-0.1h-4.1l-6.6-32.2l-15.8,28.2c-0.7,1.2-1.6,2.1-2.5,2.8c-1.1,0.8-2.4,1.1-3.8,1.1H356h-4.9
	v-59h3.9c0.6,0,1.2,0.1,1.8,0.6c0.6,0.5,0.8,1.3,0.8,1.9l-0.2,49.1l18.1-31.5h3.8c2.3-0.1,4.3,1.5,4.6,4l6,27.8l22.9-51.9h3
	c0.6,0,1.2,0.1,1.7,0.5c0.5,0.4,0.8,1.2,0.8,1.8C418.3,396,418.2,396.3,418,396.7 M624.3,399.4l0,0.2L624.3,399.4
	c-0.2,0-21.9,0.1-21.9,0.1c-4.5,0-7.2,2.9-7.2,6.5c0,2.1,1.2,4.1,3.2,6.1l15.7,15.5c0,0,5.6,4.7,5.6,10.8v0
	c0,4.4-1.3,13.7-12.6,13.8H583v-4.4l-0.1,0h0.1c0-0.7,0.7-1.7,1.4-1.8c0.2-0.1,21.6-0.1,21.7-0.1c4.4,0,7.2-2.9,7.2-6.5
	c0-2.1-1-4.4-2.9-6.3l-16.6-16.2c-1.7-1.5-5-5.2-5-9.8c0.1-4.4,1.2-13.7,12.6-13.8h24.4v4.4v0C625.7,398.3,625,399.3,624.3,399.4
	 M466.6,425.5c-4.1,17.2-15.7,23.6-26.7,23l-1.1-0.1c-10.6-1.4-18.4-9.5-14.3-26.4c4.3-17.2,16.6-23.6,27.4-23
	C462.8,400.1,470.6,408.6,466.6,425.5 M453.5,393L453.5,393c-19-1.5-31,11.7-35.2,28.5c-3.8,15.1,1.3,30.9,19.3,33
	c19.3,1.5,31.4-11.8,35.3-28.5C476.5,410.9,471.2,395.1,453.5,393 M581,395.3c0,1.4-0.8,2.1-0.8,2.1l-30.4,25.8l22.7,24.7
	c0,0,0.9,1.1,0.9,2.1c0,0.6-0.3,1.3-0.8,1.6c-0.5,0.3-1,0.4-1.6,0.4h-2.9l-24-26.1l-4.8,26.1h-6.5l11-59h2.9c0.7,0,1.3,0.2,1.9,0.6
	c0.5,0.4,1.1,1.2,0.9,2.5l-4,22.9l30.3-26h2.9c0.5,0,1.1,0.1,1.6,0.5C580.8,394.1,581.1,394.8,581,395.3 M510.7,419.9
	c-3.6,1-8.7,1.1-13.9,1.1c-1.9,0-4.5-0.1-6.8-0.1l3.9-21.5c3.1,0,13.1-0.2,16.5,0c1.3,0.1,2.6,0.2,3.3,0.3c2.8,0.5,4.6,1.1,5.8,2.2
	C524.5,407,519.9,417.5,510.7,419.9 M525.3,398.5c-4.6-5.2-12.4-5.4-21.4-5.4h-15.2l-11,59h6.5l4.6-25.4l11.8,0.1l14.7,25.3h3.3
	c0.6,0,1.1-0.1,1.6-0.4c0.5-0.4,0.8-1.1,0.7-1.6c0-0.8-0.8-2.1-0.8-2.1l-12.5-21.4c14.9-1.3,18.8-11.8,19.7-16
	C528.1,407.1,527.9,401.5,525.3,398.5 M102.9,392.9h30.3v6.3c-0.4,2.8-2,5.7-4.8,5.7h-22.9c-2.3,0-3.6,0.6-3.8,2
	c-0.1,0.9,0.3,1.5,1.9,2.6l20,14.2c4.3,3,6.5,7.8,5.4,14.4c-1.1,7.1-6.7,13.7-17.9,13.7H85.5v-8.2c0.4-2.7,1.7-3.8,4.1-3.8h21.9
	c3.9,0,5.1-0.9,5.4-3.1c0.2-1.6-0.7-2.5-2.7-3.9l-18.9-13.2c-5.3-3.7-6.7-9.3-6-14C90.3,398.9,96.2,392.9,102.9,392.9 M317.4,392.9
	h-31.7l-0.2,0.9c-0.7,4-0.4,8.6,5.9,8.6h23.5c9.3,0,12.9,6.7,10.6,19.4c-2.1,11.6-8.4,20.4-17.8,20.4h-12.8l6.1-33.2h-10.8
	c-1.5,0-2.5,1.1-2.6,2l-7.4,40.7h24.9c18.4,0,31.2-8.6,35.1-30.4C343.1,404.7,336.1,392.9,317.4,392.9 M244.7,446l-1.1,5.9h-41.5
	l10.8-59h11c1.2,0,1.9,1.1,1.7,2l-8.6,47.4h25C244.3,442.3,245.2,443.3,244.7,446 M275,394.9l-10.4,56.9h-13.1l10.8-59h11
	C274.5,392.9,275.2,394,275,394.9 M185,423.6c-2.2,13.7-8.5,20.6-20.5,20.6c-11.9,0-15.9-6.9-13.7-20.6c2.2-13.7,8.5-20.6,20.5-20.6
	C183.3,403,187.2,410,185,423.6 M173,392.9c-21.1,0-32.4,14-35.2,30.8c-2.7,16.8,4,30.7,25.1,30.7c21.1,0,32.4-14,35.2-30.7
	C200.8,406.9,194.1,392.9,173,392.9"/>
</svg>
