<?xml version="1.0" encoding="UTF-8" standalone="no"?>
<svg
   viewBox="0 0 535.07999 380.23"
   version="1.1"
   id="svg606"
   sodipodi:docname="Syspro.svg"
   width="535.08002"
   height="380.23001"
   inkscape:version="1.2.2 (732a01da63, 2022-12-09)"
   xmlns:inkscape="http://www.inkscape.org/namespaces/inkscape"
   xmlns:sodipodi="http://sodipodi.sourceforge.net/DTD/sodipodi-0.dtd"
   xmlns="http://www.w3.org/2000/svg"
   xmlns:svg="http://www.w3.org/2000/svg"
   xmlns:rdf="http://www.w3.org/1999/02/22-rdf-syntax-ns#"
   xmlns:cc="http://creativecommons.org/ns#"
   xmlns:dc="http://purl.org/dc/elements/1.1/">
  <sodipodi:namedview
     id="namedview608"
     pagecolor="#ffffff"
     bordercolor="#000000"
     borderopacity="0.25"
     inkscape:showpageshadow="2"
     inkscape:pageopacity="0.0"
     inkscape:pagecheckerboard="0"
     inkscape:deskcolor="#d1d1d1"
     showgrid="false"
     inkscape:zoom="0.62067694"
     inkscape:cx="275.50564"
     inkscape:cy="190.92058"
     inkscape:window-width="1920"
     inkscape:window-height="1130"
     inkscape:window-x="-6"
     inkscape:window-y="-6"
     inkscape:window-maximized="1"
     inkscape:current-layer="Layer_1-2" />
  <defs
     id="defs576">
    <style
       id="style574">.cls-1{fill:#008fb4;}.cls-2{fill:#82c341;}.cls-3{fill:#1fc0da;}</style>
  </defs>
  <title
     id="title578">Asset 2</title>
  <g
     id="Layer_2"
     data-name="Layer 2">
    <g
       id="Layer_1-2"
       data-name="Layer 1">
      <rect
         class="cls-1"
         x="342.06"
         width="50.549999"
         height="50.549999"
         id="rect580"
         y="0" />
      <polygon
         class="cls-1"
         points="164.7,227.77 265.89,227.77 265.89,177.22 215.25,177.22 215.25,126.72 164.7,126.72 "
         id="polygon582" />
      <polygon
         class="cls-2"
         points="265.97,227.77 367.16,227.77 367.16,76.09 316.61,76.09 316.61,177.22 265.97,177.22 "
         id="polygon584" />
      <polygon
         class="cls-3"
         points="215.25,76.01 215.34,76.01 316.52,76.01 316.52,25.46 164.7,25.46 164.7,126.64 215.25,126.64 "
         id="polygon586" />
      <path
         class="cls-1"
         d="m 23.37,361 q 6.51,5.36 17,5.36 9.13,0 14.79,-3.93 a 12.58,12.58 0 0 0 5.65,-10.94 10.47,10.47 0 0 0 -3.07,-7.93 20.24,20.24 0 0 0 -8.37,-4.51 145.25,145.25 0 0 0 -14.87,-3.29 83.82,83.82 0 0 1 -16.65,-4.5 26.16,26.16 0 0 1 -11.29,-8.5 q -4.36,-5.73 -4.37,-15 A 26.86,26.86 0 0 1 6.7,292.47 29.62,29.62 0 0 1 19.23,282 a 43.76,43.76 0 0 1 18.51,-3.72 44.13,44.13 0 0 1 19.16,4 33,33 0 0 1 13.29,11 29.88,29.88 0 0 1 5.29,16 H 59.33 A 17.84,17.84 0 0 0 52.61,296.84 Q 46.75,292.12 37.74,292.12 29,292.16 23.8,296 a 12.41,12.41 0 0 0 -5.21,10.65 10,10 0 0 0 3.07,7.72 19.44,19.44 0 0 0 8.22,4.29 Q 35,320 44.6,321.75 a 82.5,82.5 0 0 1 16.73,4.58 27.69,27.69 0 0 1 11.44,8.43 q 4.42,5.58 4.43,14.73 A 27.72,27.72 0 0 1 72.48,365.36 31.4,31.4 0 0 1 59.33,376.29 44.7,44.7 0 0 1 40.17,380.23 48,48 0 0 1 19.3,375.94 34,34 0 0 1 5.22,364 31.81,31.81 0 0 1 0,346.49 l 16.15,0.28 A 19.75,19.75 0 0 0 23.37,361 Z"
         id="path588" />
      <path
         class="cls-1"
         d="m 97.49,279.15 26.31,45.85 27,-45.89 h 18.44 L 132,342.34 v 37 h -16.49 v -37 L 78.19,279.15 Z"
         id="path590" />
      <path
         class="cls-1"
         d="m 194.63,361 q 6.51,5.36 17,5.36 9.13,0 14.79,-3.93 a 12.58,12.58 0 0 0 5.58,-10.94 10.47,10.47 0 0 0 -3.07,-7.93 20.24,20.24 0 0 0 -8.37,-4.51 145.25,145.25 0 0 0 -14.87,-3.29 83.82,83.82 0 0 1 -16.65,-4.5 26.25,26.25 0 0 1 -11.3,-8.5 q -4.35,-5.73 -4.36,-15 a 26.86,26.86 0 0 1 4.51,-15.29 29.62,29.62 0 0 1 12.6,-10.47 47.84,47.84 0 0 1 37.67,0.29 33,33 0 0 1 13.29,11 30,30 0 0 1 5.29,16 h -16.15 a 17.84,17.84 0 0 0 -6.72,-12.44 Q 218,292.16 209,292.16 q -8.72,0 -13.94,3.79 a 12.39,12.39 0 0 0 -5.21,10.65 10,10 0 0 0 3.07,7.72 19.44,19.44 0 0 0 8.22,4.29 q 5.15,1.42 14.72,3.14 a 82.5,82.5 0 0 1 16.73,4.58 27.69,27.69 0 0 1 11.41,8.43 q 4.42,5.58 4.43,14.73 a 27.72,27.72 0 0 1 -4.72,15.87 31.4,31.4 0 0 1 -13.15,10.93 44.7,44.7 0 0 1 -19.16,3.94 48,48 0 0 1 -20.87,-4.29 34,34 0 0 1 -14.05,-11.94 31.81,31.81 0 0 1 -5.22,-17.51 l 16.15,0.28 a 19.75,19.75 0 0 0 7.22,14.23 z"
         id="path592" />
      <path
         class="cls-1"
         d="m 319.08,283.23 a 28.67,28.67 0 0 1 12.15,11.15 35,35 0 0 1 0,33.59 28.67,28.67 0 0 1 -12.15,11.15 40,40 0 0 1 -18.16,3.94 h -23 v 36.31 H 261.46 V 279.29 h 39.46 a 40,40 0 0 1 18.16,3.94 z m -19.59,45.53 q 8.86,0 14.08,-4.79 5.22,-4.79 5.22,-12.8 0,-8.15 -5.15,-12.86 -5.15,-4.71 -14,-4.72 H 277.9 v 35.17 z"
         id="path594" />
      <path
         class="cls-1"
         d="m 407.28,283.23 a 29.08,29.08 0 0 1 12.22,11.15 31.8,31.8 0 0 1 4.36,16.79 29.92,29.92 0 0 1 -5.29,17.59 28.39,28.39 0 0 1 -14.15,10.72 l 21.16,39.89 h -18.3 l -19,-36.31 H 366 v 36.31 H 349.52 V 279.29 H 389 a 40.29,40.29 0 0 1 18.28,3.94 z m -19.59,45.53 q 8.87,0 14.09,-4.79 5.22,-4.79 5.21,-12.8 0,-8 -5.21,-12.79 -5.21,-4.79 -14.09,-4.79 H 366 v 35.17 z"
         id="path596" />
      <path
         class="cls-1"
         d="m 511.71,373.65 a 51.68,51.68 0 0 1 -50.47,0 45.46,45.46 0 0 1 -17.24,-18.16 58.8,58.8 0 0 1 0,-52.32 45.52,45.52 0 0 1 17.24,-18.17 51.75,51.75 0 0 1 50.47,0 45.59,45.59 0 0 1 17.23,18.16 58.8,58.8 0 0 1 0,52.32 45.53,45.53 0 0 1 -17.23,18.17 z M 470,361.14 a 31.65,31.65 0 0 0 33,0 31,31 0 0 0 11.22,-13 46.18,46.18 0 0 0 0,-37.6 31,31 0 0 0 -11.22,-13 31.71,31.71 0 0 0 -33,0 31,31 0 0 0 -11.22,13 46.18,46.18 0 0 0 0,37.6 31,31 0 0 0 11.22,13 z"
         id="path598" />
    </g>
  </g>
  <metadata
     id="metadata1233">
    <rdf:RDF>
      <cc:Work
         rdf:about="">
        <dc:title>Asset 2</dc:title>
      </cc:Work>
    </rdf:RDF>
  </metadata>
</svg>
