<svg xmlns="http://www.w3.org/2000/svg" viewBox="0 0 556.15 380.23"><defs><style>.cls-1{fill:#008fb4;}.cls-2{fill:#82c341;}.cls-3{fill:#1fc0da;}</style></defs><title>Asset 2</title><g id="Layer_2" data-name="Layer 2"><g id="Layer_1-2" data-name="Layer 1"><rect class="cls-1" x="342.06" width="50.55" height="50.55"/><polygon class="cls-1" points="215.25 177.22 215.25 126.72 164.7 126.72 164.7 227.77 265.89 227.77 265.89 177.22 215.25 177.22"/><polygon class="cls-2" points="316.61 76.09 316.61 177.22 265.97 177.22 265.97 227.77 367.16 227.77 367.16 76.09 316.61 76.09"/><polygon class="cls-3" points="164.7 25.46 164.7 126.64 215.25 126.64 215.25 76.01 215.34 76.01 316.52 76.01 316.52 25.46 164.7 25.46"/><path class="cls-1" d="M23.37,361q6.51,5.36,17,5.36,9.13,0,14.79-3.93a12.58,12.58,0,0,0,5.65-10.94,10.47,10.47,0,0,0-3.07-7.93,20.24,20.24,0,0,0-8.37-4.51,145.25,145.25,0,0,0-14.87-3.29,83.82,83.82,0,0,1-16.65-4.5,26.16,26.16,0,0,1-11.29-8.5q-4.36-5.73-4.37-15a26.86,26.86,0,0,1,4.51-15.29A29.62,29.62,0,0,1,19.23,282a43.76,43.76,0,0,1,18.51-3.72,44.13,44.13,0,0,1,19.16,4,33,33,0,0,1,13.29,11,29.88,29.88,0,0,1,5.29,16H59.33a17.84,17.84,0,0,0-6.72-12.44q-5.86-4.72-14.87-4.72Q29,292.16,23.8,296a12.41,12.41,0,0,0-5.21,10.65,10,10,0,0,0,3.07,7.72,19.44,19.44,0,0,0,8.22,4.29Q35,320,44.6,321.75a82.5,82.5,0,0,1,16.73,4.58,27.69,27.69,0,0,1,11.44,8.43q4.42,5.58,4.43,14.73a27.72,27.72,0,0,1-4.72,15.87,31.4,31.4,0,0,1-13.15,10.93,44.7,44.7,0,0,1-19.16,3.94,48,48,0,0,1-20.87-4.29A34,34,0,0,1,5.22,364,31.81,31.81,0,0,1,0,346.49l16.15.28A19.75,19.75,0,0,0,23.37,361Z"/><path class="cls-1" d="M97.49,279.15,123.8,325l27-45.89h18.44L132,342.34v37H115.51v-37L78.19,279.15Z"/><path class="cls-1" d="M194.63,361q6.51,5.36,17,5.36,9.13,0,14.79-3.93A12.58,12.58,0,0,0,232,351.49a10.47,10.47,0,0,0-3.07-7.93,20.24,20.24,0,0,0-8.37-4.51,145.25,145.25,0,0,0-14.87-3.29,83.82,83.82,0,0,1-16.65-4.5,26.25,26.25,0,0,1-11.3-8.5q-4.35-5.73-4.36-15a26.86,26.86,0,0,1,4.51-15.29A29.62,29.62,0,0,1,190.49,282a47.84,47.84,0,0,1,37.67.29,33,33,0,0,1,13.29,11,30,30,0,0,1,5.29,16H230.59a17.84,17.84,0,0,0-6.72-12.44Q218,292.16,209,292.16q-8.72,0-13.94,3.79a12.39,12.39,0,0,0-5.21,10.65,10,10,0,0,0,3.07,7.72,19.44,19.44,0,0,0,8.22,4.29q5.15,1.42,14.72,3.14a82.5,82.5,0,0,1,16.73,4.58A27.69,27.69,0,0,1,244,334.76q4.42,5.58,4.43,14.73a27.72,27.72,0,0,1-4.72,15.87,31.4,31.4,0,0,1-13.15,10.93,44.7,44.7,0,0,1-19.16,3.94,48,48,0,0,1-20.87-4.29A34,34,0,0,1,176.48,364a31.81,31.81,0,0,1-5.22-17.51l16.15.28A19.75,19.75,0,0,0,194.63,361Z"/><path class="cls-1" d="M319.08,283.23a28.67,28.67,0,0,1,12.15,11.15,35,35,0,0,1,0,33.59,28.67,28.67,0,0,1-12.15,11.15,40,40,0,0,1-18.16,3.94h-23v36.31H261.46V279.29h39.46A40,40,0,0,1,319.08,283.23Zm-19.59,45.53q8.86,0,14.08-4.79t5.22-12.8q0-8.15-5.15-12.86t-14-4.72H277.9v35.17Z"/><path class="cls-1" d="M407.28,283.23a29.08,29.08,0,0,1,12.22,11.15,31.8,31.8,0,0,1,4.36,16.79,29.92,29.92,0,0,1-5.29,17.59,28.39,28.39,0,0,1-14.15,10.72l21.16,39.89h-18.3l-19-36.31H366v36.31H349.52V279.29H389A40.29,40.29,0,0,1,407.28,283.23Zm-19.59,45.53q8.87,0,14.09-4.79t5.21-12.8q0-8-5.21-12.79t-14.09-4.79H366v35.17Z"/><path class="cls-1" d="M511.71,373.65a51.68,51.68,0,0,1-50.47,0A45.46,45.46,0,0,1,444,355.49a58.8,58.8,0,0,1,0-52.32A45.52,45.52,0,0,1,461.24,285a51.75,51.75,0,0,1,50.47,0,45.59,45.59,0,0,1,17.23,18.16,58.8,58.8,0,0,1,0,52.32A45.53,45.53,0,0,1,511.71,373.65ZM470,361.14a31.65,31.65,0,0,0,33,0,31,31,0,0,0,11.22-13,46.18,46.18,0,0,0,0-37.6,31,31,0,0,0-11.22-13,31.71,31.71,0,0,0-33,0,31,31,0,0,0-11.22,13,46.18,46.18,0,0,0,0,37.6A31,31,0,0,0,470,361.14Z"/><path class="cls-1" d="M542.82,279v1.51h-3.19v8.83h-1.7v-8.83h-3.19V279Z"/><path class="cls-1" d="M547.44,279l3.3,8.14L554,279h2.16v10.34h-1.64v-7.61l-3.1,7.61H550l-3.1-7.61v7.61h-1.64V279Z"/></g></g></svg>