<?xml version="1.0" encoding="UTF-8" standalone="no"?>
<!-- Created with Inkscape (http://www.inkscape.org/) -->

<svg
   version="1.1"
   id="svg2"
   width="340.51901"
   height="423.758"
   viewBox="0 0 340.51901 423.758"
   sodipodi:docname="resume.svg"
   inkscape:version="1.2.2 (732a01da63, 2022-12-09)"
   xmlns:inkscape="http://www.inkscape.org/namespaces/inkscape"
   xmlns:sodipodi="http://sodipodi.sourceforge.net/DTD/sodipodi-0.dtd"
   xmlns="http://www.w3.org/2000/svg"
   xmlns:svg="http://www.w3.org/2000/svg">
  <defs
     id="defs6" />
  <sodipodi:namedview
     id="namedview4"
     pagecolor="#ffffff"
     bordercolor="#000000"
     borderopacity="0.25"
     inkscape:showpageshadow="2"
     inkscape:pageopacity="0.0"
     inkscape:pagecheckerboard="0"
     inkscape:deskcolor="#d1d1d1"
     showgrid="false"
     inkscape:zoom="0.50895182"
     inkscape:cx="118.87176"
     inkscape:cy="232.83147"
     inkscape:window-width="1920"
     inkscape:window-height="1130"
     inkscape:window-x="761"
     inkscape:window-y="-6"
     inkscape:window-maximized="1"
     inkscape:current-layer="g8" />
  <g
     inkscape:groupmode="layer"
     inkscape:label="Image"
     id="g8">
    <path
       style="fill:#1d1347;stroke-width:0.90566;fill-opacity:1"
       d="M 32.688906,422.8695 C 16.514356,419.69299 3.2678563,405.56259 0.9204063,388.98114 c -1.23682,-8.73642 -1.22251,-345.51572 0.015,-354.11321 C 3.4026663,17.72748 16.387266,4.15034 33.397526,0.92441 36.512046,0.33376 71.432626,0 130.11783,0 c 78.06438,0 92.21286,0.19506 94.29148,1.29999 1.34508,0.715 27.61104,26.49299 58.36881,57.28443 43.50417,43.55178 56.12464,56.68672 56.83019,59.14686 1.23105,4.29241 1.2059,262.54527 -0.0264,271.24986 -2.40076,16.95797 -15.58791,30.74053 -32.47717,33.9435 -6.04525,1.14647 -268.565994,1.09371 -274.415864,-0.0552 z M 305.54431,402.64239 c 5.85722,-1.76277 9.94093,-5.11815 12.46322,-10.2404 l 2.13044,-4.32651 0.24447,-128.77992 0.24446,-128.77992 -41.45201,-0.28453 c -41.32275,-0.28363 -41.46896,-0.2913 -46.88597,-2.45801 -7.50545,-3.00204 -16.53723,-12.0302 -19.55452,-19.54668 -2.17849,-5.42689 -2.18168,-5.48793 -2.44235,-46.88552 l -0.26102,-41.45156 -87.15994,0.24401 -87.159944,0.24401 -4.49528,2.31364 c -2.72176,1.40084 -5.57048,3.84343 -7.22055,6.19115 l -2.72527,3.87751 -0.26609,177.20508 c -0.18288,121.79047 0.0312,178.23467 0.6845,180.49751 1.3729,4.7551 7.22395,10.39621 12.44875,12.00208 6.39946,1.96691 264.899694,2.1365 271.407104,0.17806 z M 60.036356,356.87012 c -4.0456,-2.46675 -5.57767,-7.64532 -3.53525,-11.94943 3.15992,-6.65903 -4.48782,-6.20371 104.198934,-6.20371 107.04994,0 101.22641,-0.3021 104.17732,5.40432 0.7556,1.46117 1.3723,3.5939 1.37043,4.73939 -0.005,3.01843 -3.24717,7.87287 -5.94278,8.89774 -1.45688,0.5539 -38.67658,0.88182 -99.84864,0.8797 -95.068534,-0.004 -97.598874,-0.0478 -100.420014,-1.76801 z m 1.9884,-51.62094 c -2.38652,-0.98712 -5.5225,-4.50814 -6.30107,-7.07472 -0.87489,-2.88407 1.02382,-7.99874 3.77179,-10.16029 2.27744,-1.79144 3.52511,-1.82549 66.883824,-1.82549 h 64.5631 l 2.75567,2.31875 c 3.53132,2.9714 4.41552,7.26874 2.37872,11.56096 -2.97434,6.26796 -0.446,6.05134 -69.88701,5.98741 -34.294534,-0.0316 -63.168794,-0.39455 -64.165024,-0.80662 z m 5.27591,-73.81594 c -5.00473,-2.17695 -6.20699,-5.13554 -5.99669,-14.75719 0.10167,-4.65226 0.81643,-10.98682 1.58833,-14.07679 5.02666,-20.12185 22.14114,-37.09082 42.151324,-41.79295 8.27595,-1.94473 41.53537,-1.94473 49.81132,0 20.02546,4.70572 36.98534,21.45331 42.0996,41.57265 0.78126,3.07346 1.3721,9.35816 1.3721,14.59484 0,10.48186 -1.16019,13.01644 -6.812,14.88171 -2.65622,0.87663 -3.70255,0.77863 -6.55188,-0.61368 -4.8052,-2.34804 -6.5575,-6.35034 -6.55924,-14.98144 -0.003,-15.06622 -7.72856,-27.05882 -21.69435,-33.67687 l -5.9297,-2.80993 h -20.87715 -20.87717 l -6.90091,3.4106 c -8.023894,3.96564 -13.817224,9.80747 -17.551384,17.69834 -1.95247,4.12589 -2.56926,7.09378 -3.08912,14.8643 -0.73192,10.94002 -1.91908,13.67685 -6.82109,15.72505 -3.68608,1.54013 -3.73302,1.53988 -7.36199,-0.0387 z m 54.044854,-77.7992 c -11.93521,-2.59274 -22.234434,-10.77956 -27.846744,-22.1353 -3.33464,-6.74719 -3.39854,-7.07322 -3.39854,-17.33856 0,-9.90158 0.15599,-10.7914 2.91175,-16.60933 12.443964,-26.2716 46.131594,-32.18026 65.815504,-11.54373 9.67038,10.13837 13.49926,23.58432 10.5461,37.0348 -3.35933,15.30035 -16.55417,27.96809 -32.11893,30.83587 -6.53943,1.20489 -9.44561,1.16036 -15.90914,-0.24375 z m 18.23076,-21.4676 c 4.137,-2.11054 8.69229,-7.52313 9.85828,-11.71361 3.88289,-13.9548 -5.39356,-26.63514 -19.48527,-26.63514 -11.68991,0 -20.37736,8.65256 -20.37736,20.29552 0,15.46642 16.09382,25.14986 30.00435,18.05323 z m 165.6183,-22.35921 c 0,-0.37583 -16.91321,-17.59286 -37.58491,-38.26006 l -37.5849,-37.57672 v 31.94952 c 0,34.37317 0.1503,35.62798 4.77854,39.89308 4.6726,4.30599 7.15681,4.59528 39.82523,4.63777 16.81132,0.0218 30.56604,-0.26775 30.56604,-0.64359 z"
       id="path2576" />
  </g>
</svg>
