<?xml version="1.0" encoding="UTF-8" standalone="no"?>
<!-- Created with Inkscape (http://www.inkscape.org/) -->

<svg
   version="1.1"
   id="svg1"
   width="515.16803"
   height="517.06097"
   viewBox="0 0 515.16803 517.06098"
   sodipodi:docname="telephone.svg"
   inkscape:version="1.3.2 (091e20e, 2023-11-25, custom)"
   xmlns:inkscape="http://www.inkscape.org/namespaces/inkscape"
   xmlns:sodipodi="http://sodipodi.sourceforge.net/DTD/sodipodi-0.dtd"
   xmlns="http://www.w3.org/2000/svg"
   xmlns:svg="http://www.w3.org/2000/svg">
  <defs
     id="defs1" />
  <sodipodi:namedview
     id="namedview1"
     pagecolor="#ffffff"
     bordercolor="#000000"
     borderopacity="0.25"
     inkscape:showpageshadow="2"
     inkscape:pageopacity="0.0"
     inkscape:pagecheckerboard="0"
     inkscape:deskcolor="#d1d1d1"
     inkscape:zoom="0.87941489"
     inkscape:cx="82.441178"
     inkscape:cy="183.07627"
     inkscape:window-width="1920"
     inkscape:window-height="1130"
     inkscape:window-x="-6"
     inkscape:window-y="-6"
     inkscape:window-maximized="1"
     inkscape:current-layer="g1" />
  <g
     inkscape:groupmode="layer"
     inkscape:label="Image"
     id="g1">
    <path
       style="fill:#000000"
       d="M 383.34957,516.71637 C 349.37374,513.05529 313.20726,500.78122 271.18115,478.64902 188.75448,435.24066 120.45567,373.33236 65.709759,292.40295 52.483139,272.85039 44.781999,259.4647 33.216029,235.92419 8.8509394,186.33328 -1.5220806,148.10013 0.17909935,114.15577 1.1151894,95.477745 7.5184994,77.509315 17.824789,64.639975 c 5.73033,-7.15539 43.52025,-45.12465 50.24057,-50.47899 23.48778,-18.7136297 46.731201,-18.8804397 69.221051,-0.49677 7.5629,6.18207 68.58647,67.40629 73.97464,74.21787 10.21471,12.913185 14.06704,28.722205 10.41533,42.742035 -3.60855,13.85417 -11.20718,23.75976 -38.23778,49.84685 -8.71002,8.40599 -15.8364,15.87132 -15.8364,16.58962 0,2.14344 9.86899,20.00982 16.44365,29.76886 12.80071,19.00062 25.50539,34.27964 45.66595,54.91922 27.46132,28.11379 53.26494,48.02436 82.12494,63.36919 l 7.30822,3.88577 22.5023,-22.22314 c 12.37627,-12.22272 24.8127,-23.68044 27.63651,-25.46161 14.92925,-9.41684 31.60075,-10.31196 47.91843,-2.57281 7.19441,3.41217 9.63419,5.65246 48.08658,44.15475 38.3282,38.37794 40.70192,40.96798 44.11859,48.13916 7.98255,16.7544 7.69053,30.28368 -1.0111,46.84289 -3.09031,5.88089 -8.08302,11.57882 -28.8142,32.88427 -13.79191,14.17395 -27.44426,27.5638 -30.33856,29.75523 -7.13461,5.40198 -19.72807,11.31725 -29.515,13.86348 -7.99998,2.08132 -27.24818,3.31441 -36.37894,2.33052 z m 34.28933,-28.482 c 12.85001,-4.67592 13.94684,-5.58323 45.59421,-37.71591 22.76169,-23.11074 25.21119,-26.68053 25.21119,-36.74164 0,-4.38923 -0.66193,-7.35784 -2.39761,-10.75264 -3.19491,-6.24893 -74.55769,-77.53936 -80.67792,-80.59613 -5.52714,-2.76055 -13.42841,-2.76865 -19.48836,-0.02 -3.22514,1.46285 -11.57886,9.04213 -28.8,26.13008 -13.34144,13.23826 -25.62137,24.74552 -27.28874,25.5717 -4.71675,2.33713 -10.18469,2.97533 -14.81336,1.72896 -2.32802,-0.62687 -10.17897,-4.34503 -17.44655,-8.26258 -28.33559,-15.27414 -54.69094,-35.56071 -82.9918,-63.8815 -33.45422,-33.47776 -52.91186,-58.98658 -67.45861,-88.43774 -5.35389,-10.83943 -6.26767,-13.51361 -6.59458,-19.29907 -0.27003,-4.77887 0.0841,-7.61267 1.22791,-9.82445 0.88407,-1.70961 12.23362,-13.61288 25.22122,-26.4517 26.30477,-26.00344 29.35824,-30.09841 29.42605,-39.46283 0.0752,-10.38199 -1.37669,-12.21845 -41.29171,-52.229415 -39.43058,-39.52536 -42.18503,-41.72979 -52.14172,-41.72979 -9.545391,0 -13.550581,2.99137 -40.959521,30.59158 -22.64685,22.80489 -25.69183,26.26669 -29.07225,33.05183 -2.07674,4.16842 -4.44127,10.762115 -5.25451,14.652635 -5.87345,28.09831 5.10649,72.42518 30.51287,123.18287 33.93048,67.78741 92.967291,137.67815 155.426041,184.00117 25.73985,19.09016 47.58947,32.63548 75.78947,46.98448 30.95487,15.75076 54.98194,24.70269 78.53695,29.26105 15.0537,2.91318 15.17651,2.92406 30.09463,2.66619 11.03867,-0.19082 14.7861,-0.65211 19.6367,-2.41716 z"
       id="path1" />
  </g>
</svg>
