<?xml version="1.0" encoding="UTF-8" standalone="no"?>
<svg
   width="423.75pt"
   height="132.75pt"
   viewBox="0 0 1184 371"
   version="1.1"
   id="svg341"
   sodipodi:docname="AutoCad.svg"
   inkscape:version="1.2.2 (732a01da63, 2022-12-09)"
   xmlns:inkscape="http://www.inkscape.org/namespaces/inkscape"
   xmlns:sodipodi="http://sodipodi.sourceforge.net/DTD/sodipodi-0.dtd"
   xmlns="http://www.w3.org/2000/svg"
   xmlns:svg="http://www.w3.org/2000/svg">
  <defs
     id="defs345" />
  <sodipodi:namedview
     id="namedview343"
     pagecolor="#ffffff"
     bordercolor="#000000"
     borderopacity="0.25"
     inkscape:showpageshadow="2"
     inkscape:pageopacity="0.0"
     inkscape:pagecheckerboard="0"
     inkscape:deskcolor="#d1d1d1"
     inkscape:document-units="pt"
     showgrid="false"
     inkscape:zoom="1.3333333"
     inkscape:cx="250.50001"
     inkscape:cy="88.875002"
     inkscape:window-width="1920"
     inkscape:window-height="1010"
     inkscape:window-x="4601"
     inkscape:window-y="-6"
     inkscape:window-maximized="1"
     inkscape:current-layer="svg341" />
  <g
     id="#e85984ff">
    <path
       fill="#e85984"
       opacity="1.00"
       d=" M 2.64 43.84 C 24.10 29.89 45.59 16.01 67.00 2.00 C 66.96 101.03 67.07 200.07 66.95 299.10 C 58.54 304.70 49.98 310.07 41.58 315.69 C 30.75 322.43 20.06 329.41 9.46 336.52 C 7.37 337.98 5.12 339.18 2.77 340.16 C 2.67 241.39 2.91 142.61 2.64 43.84 Z"
       id="path310" />
  </g>
  <g
     id="#e51050ff">
    <path
       fill="#e51050"
       opacity="1.00"
       d=" M 67.00 2.00 C 161.68 2.01 256.37 1.98 351.05 2.01 C 360.93 2.14 370.45 9.92 371.26 20.01 C 371.64 37.75 371.01 55.52 371.57 73.27 C 371.78 141.18 371.60 209.09 371.66 277.00 C 371.52 284.43 372.01 291.87 371.41 299.29 C 339.70 299.61 307.97 299.33 276.25 299.42 C 210.25 299.42 144.25 299.42 78.25 299.43 C 74.48 299.49 70.70 299.51 66.95 299.10 C 67.07 200.07 66.96 101.03 67.00 2.00 M 197.07 63.77 C 190.78 81.95 185.76 100.56 179.91 118.88 C 168.99 154.63 158.06 190.38 147.13 226.13 C 146.12 228.98 145.27 231.90 144.78 234.89 C 155.12 235.05 165.48 235.13 175.82 234.86 C 179.79 221.11 183.82 207.38 187.65 193.59 C 188.03 192.37 188.52 191.20 189.00 190.03 C 208.61 190.08 228.23 189.77 247.84 190.19 C 252.55 205.12 257.03 220.13 262.03 234.96 C 272.60 235.02 283.18 235.09 293.75 234.90 C 287.48 213.87 280.34 193.11 273.82 172.16 C 262.06 136.08 250.73 99.86 238.90 63.81 C 224.97 63.47 211.00 63.54 197.07 63.77 Z"
       id="path313" />
    <path
       fill="#e51050"
       opacity="1.00"
       d=" M 217.58 86.00 C 219.60 90.83 220.40 96.05 222.03 101.01 C 228.01 122.30 234.34 143.51 240.07 164.88 C 225.37 165.08 210.65 165.09 195.94 164.88 C 202.72 138.48 210.65 112.37 217.58 86.00 Z"
       id="path315" />
  </g>
  <g
     id="#231f20ff">
    <path
       fill="#231f20"
       opacity="1.00"
       d=" M 2.38 58.00 C 2.48 53.28 2.04 48.54 2.64 43.84 C 2.91 142.61 2.67 241.39 2.77 340.16 L 2.73 341.17 C 1.97 338.16 2.41 335.05 2.37 332.00 C 2.38 240.67 2.37 149.33 2.38 58.00 Z"
       id="path318" />
    <path
       fill="#231f20"
       opacity="1.00"
       d=" M 897.00 102.97 C 906.04 96.04 917.69 92.86 929.00 93.27 C 942.00 92.91 955.11 97.57 964.95 106.07 C 961.50 110.21 958.18 114.55 954.11 118.10 C 947.41 113.86 940.08 110.01 931.98 109.75 C 922.95 108.73 912.99 112.01 907.74 119.73 C 904.30 125.13 902.23 131.52 902.32 137.96 C 902.38 149.65 902.39 161.35 902.32 173.04 C 902.22 179.89 904.59 186.80 908.92 192.11 C 914.19 197.85 922.34 200.07 929.94 199.37 C 939.00 199.40 947.40 195.61 955.01 191.03 C 958.34 195.01 961.30 199.33 963.95 203.80 C 954.70 210.65 943.61 215.14 932.07 215.85 C 918.97 216.81 904.74 214.27 894.61 205.36 C 885.39 197.39 881.07 184.97 881.00 173.01 C 880.98 161.67 881.02 150.34 880.98 139.00 C 881.04 125.54 886.21 111.48 897.00 102.97 Z"
       id="path320"
       style="fill:#ffffff;fill-opacity:1" />
    <path
       fill="#231f20"
       opacity="1.00"
       d=" M 532.14 95.95 C 541.07 95.24 550.05 95.79 559.01 95.63 C 560.55 95.44 562.11 96.12 562.28 97.83 C 570.35 122.75 578.26 147.72 586.36 172.62 C 590.47 186.44 595.62 199.96 599.27 213.91 C 591.94 214.01 584.58 214.23 577.26 213.78 C 574.00 203.64 570.79 193.47 567.60 183.30 C 560.75 182.63 553.86 183.16 547.00 183.00 C 540.13 183.15 533.25 182.63 526.41 183.30 C 523.73 193.51 520.66 203.61 517.80 213.77 C 510.57 214.22 503.31 214.05 496.07 213.87 C 507.95 174.52 520.01 135.22 532.14 95.95 M 546.40 111.95 C 541.27 129.86 536.44 147.87 531.37 165.80 C 541.53 165.44 551.70 165.74 561.87 165.64 C 561.26 161.12 559.70 156.81 558.48 152.44 C 555.28 141.01 552.03 129.59 548.86 118.15 C 548.26 116.00 547.82 113.73 546.40 111.95 Z"
       id="path322"
       style="fill:#ffffff;fill-opacity:1" />
    <path
       fill="#231f20"
       opacity="1.00"
       d=" M 1007.13 95.92 C 1016.74 95.34 1026.40 95.62 1036.03 95.78 C 1039.91 105.61 1042.68 115.86 1046.06 125.88 C 1055.06 153.88 1064.02 181.89 1073.08 209.87 C 1073.46 211.20 1073.79 212.54 1074.14 213.89 C 1066.80 214.06 1059.45 214.15 1052.11 213.85 C 1048.83 203.71 1045.55 193.56 1042.61 183.31 C 1028.91 182.78 1015.12 182.80 1001.42 183.30 C 998.60 193.48 995.53 203.59 992.77 213.79 C 985.54 214.20 978.28 214.07 971.06 213.85 C 981.06 180.38 991.45 147.03 1001.58 113.61 C 1003.53 107.74 1004.99 101.72 1007.13 95.92 M 1021.41 111.95 C 1016.21 129.81 1011.52 147.82 1006.24 165.66 C 1016.44 165.61 1026.64 165.68 1036.84 165.63 C 1036.22 161.11 1034.68 156.80 1033.47 152.43 C 1030.31 141.26 1027.07 130.11 1024.06 118.90 C 1023.37 116.52 1022.95 113.96 1021.41 111.95 Z"
       id="path324"
       style="fill:#ffffff;fill-opacity:1" />
    <path
       fill="#231f20"
       opacity="1.00"
       d=" M 1094.84 95.84 C 1107.88 95.33 1120.95 95.81 1134.01 95.61 C 1146.33 95.36 1159.47 98.69 1168.51 107.49 C 1176.82 116.09 1181.57 128.03 1181.40 140.00 C 1181.35 148.66 1181.34 157.33 1181.40 166.00 C 1182.00 179.28 1176.47 192.69 1166.91 201.88 C 1156.48 211.46 1141.77 214.44 1128.00 214.33 C 1116.95 214.14 1105.88 214.62 1094.85 214.09 C 1094.34 182.74 1094.78 151.36 1094.64 120.00 C 1094.76 111.95 1094.35 103.88 1094.84 95.84 M 1115.87 112.07 C 1115.40 126.37 1115.82 140.69 1115.68 155.00 C 1115.83 169.03 1115.37 183.08 1115.90 197.11 C 1121.25 197.51 1126.62 197.31 1131.98 197.39 C 1142.00 197.39 1152.43 192.10 1156.58 182.65 C 1161.24 173.80 1159.91 163.60 1159.99 154.00 C 1159.79 144.41 1161.28 134.18 1156.60 125.34 C 1153.00 116.99 1143.92 112.02 1135.04 111.97 C 1128.65 111.98 1122.26 111.92 1115.87 112.07 Z"
       id="path326"
       style="fill:#ffffff;fill-opacity:1" />
    <path
       fill="#231f20"
       opacity="1.00"
       d=" M 724.32 102.06 C 730.54 101.32 736.85 101.63 743.10 101.90 C 743.63 109.15 743.11 116.42 743.31 123.69 C 749.77 123.97 756.27 123.18 762.71 124.06 C 762.70 129.26 762.72 134.47 762.68 139.68 C 756.22 139.93 749.73 139.20 743.30 140.03 C 743.30 156.70 743.32 173.37 743.29 190.04 C 743.09 193.59 744.72 197.39 748.14 198.85 C 752.84 200.85 758.03 199.42 762.94 199.35 C 764.03 204.17 764.90 209.06 765.15 214.00 C 755.03 216.75 743.63 217.82 733.92 213.13 C 727.26 210.15 722.91 203.13 722.37 195.97 C 722.10 177.27 722.64 158.56 722.12 139.87 C 717.53 139.48 712.92 139.77 708.33 139.67 C 708.36 134.50 708.36 129.33 708.33 124.16 C 713.04 123.28 717.83 123.84 722.59 123.70 C 723.72 116.53 723.58 109.26 724.32 102.06 Z"
       id="path328"
       style="fill:#ffffff;fill-opacity:1" />
    <path
       fill="#231f20"
       opacity="1.00"
       d=" M 811.44 121.57 C 821.21 120.62 831.40 121.25 840.32 125.71 C 849.66 129.93 857.06 138.27 859.87 148.16 C 862.76 157.13 862.40 166.66 862.26 175.96 C 861.97 186.75 858.02 197.62 850.35 205.34 C 843.20 211.89 833.75 216.22 823.97 216.37 C 817.70 216.41 811.25 216.81 805.20 214.81 C 797.12 212.27 789.32 207.55 784.69 200.28 C 780.93 194.69 778.60 188.19 777.56 181.56 C 777.00 176.06 777.47 170.52 777.30 165.01 C 776.94 154.51 779.63 143.55 786.19 135.19 C 792.25 127.35 801.86 123.10 811.44 121.57 M 812.37 138.45 C 806.77 140.27 802.45 144.95 800.47 150.41 C 797.14 157.85 798.63 166.14 798.28 174.01 C 798.17 182.45 800.53 192.08 807.87 197.13 C 813.26 200.67 820.30 201.10 826.40 199.32 C 832.34 197.67 836.74 192.52 838.83 186.88 C 841.93 179.30 840.81 170.97 841.01 163.00 C 841.17 155.39 838.79 147.27 833.03 142.04 C 827.41 137.23 819.27 136.64 812.37 138.45 Z"
       id="path330"
       style="fill:#ffffff;fill-opacity:1" />
    <path
       fill="#231f20"
       opacity="1.00"
       d=" M 613.90 123.90 C 620.89 123.53 627.92 123.54 634.93 123.89 C 635.13 145.62 634.91 167.35 635.02 189.08 C 634.80 194.00 638.37 198.66 643.13 199.84 C 649.72 201.46 656.73 198.99 661.93 194.89 C 664.32 192.76 667.62 190.51 667.69 186.97 C 667.86 165.95 667.38 144.91 667.91 123.90 C 674.82 123.63 681.81 123.32 688.70 124.06 C 688.67 153.97 688.65 183.89 688.71 213.80 C 682.81 214.14 676.88 214.13 670.98 213.84 C 670.37 210.90 669.93 207.93 669.52 204.96 C 666.10 206.99 663.38 210.01 659.83 211.84 C 650.00 217.24 637.40 217.88 627.40 212.56 C 618.74 208.20 613.48 198.57 613.69 188.99 C 613.83 167.29 613.40 145.58 613.90 123.90 Z"
       id="path332"
       style="fill:#ffffff;fill-opacity:1" />
  </g>
  <g
     id="#ffffffff">
    <path
       fill="#ffffff"
       opacity="1.00"
       d=" M 197.07 63.77 C 211.00 63.54 224.97 63.47 238.90 63.81 C 250.73 99.86 262.06 136.08 273.82 172.16 C 280.34 193.11 287.48 213.87 293.75 234.90 C 283.18 235.09 272.60 235.02 262.03 234.96 C 257.03 220.13 252.55 205.12 247.84 190.19 C 228.23 189.77 208.61 190.08 189.00 190.03 C 188.52 191.20 188.03 192.37 187.65 193.59 C 183.82 207.38 179.79 221.11 175.82 234.86 C 165.48 235.13 155.12 235.05 144.78 234.89 C 145.27 231.90 146.12 228.98 147.13 226.13 C 158.06 190.38 168.99 154.63 179.91 118.88 C 185.76 100.56 190.78 81.95 197.07 63.77 M 217.58 86.00 C 210.65 112.37 202.72 138.48 195.94 164.88 C 210.65 165.09 225.37 165.08 240.07 164.88 C 234.34 143.51 228.01 122.30 222.03 101.01 C 220.40 96.05 219.60 90.83 217.58 86.00 Z"
       id="path335" />
  </g>
  <g
     id="#770829ff">
    <path
       fill="#770829"
       opacity="1.00"
       d=" M 371.57 73.27 C 380.02 72.23 388.59 72.76 397.08 72.92 C 397.51 95.27 397.14 117.64 397.26 140.00 C 397.26 211.33 397.27 282.67 397.26 354.00 C 397.21 359.31 397.45 364.62 397.09 369.93 C 287.06 370.11 177.03 369.92 67.00 370.02 C 60.47 370.00 53.30 369.40 48.23 364.81 C 44.43 361.24 41.48 356.32 41.60 350.96 C 41.57 339.20 41.59 327.45 41.58 315.69 C 49.98 310.07 58.54 304.70 66.95 299.10 C 70.70 299.51 74.48 299.49 78.25 299.43 C 144.25 299.42 210.25 299.42 276.25 299.42 C 307.97 299.33 339.70 299.61 371.41 299.29 C 372.01 291.87 371.52 284.43 371.66 277.00 C 371.60 209.09 371.78 141.18 371.57 73.27 Z"
       id="path338" />
  </g>
</svg>
