<?xml version="1.0" encoding="UTF-8" standalone="no"?>
<svg
   height="533.33301"
   width="573.33301"
   viewBox="-343.4625 -532.5 1422.1884 2129.9987"
   version="1.1"
   id="svg493"
   sodipodi:docname="excel.svg"
   inkscape:version="1.2.2 (732a01da63, 2022-12-09)"
   xmlns:inkscape="http://www.inkscape.org/namespaces/inkscape"
   xmlns:sodipodi="http://sodipodi.sourceforge.net/DTD/sodipodi-0.dtd"
   xmlns="http://www.w3.org/2000/svg"
   xmlns:svg="http://www.w3.org/2000/svg">
  <defs
     id="defs497" />
  <sodipodi:namedview
     id="namedview495"
     pagecolor="#ffffff"
     bordercolor="#000000"
     borderopacity="0.25"
     inkscape:showpageshadow="2"
     inkscape:pageopacity="0.0"
     inkscape:pagecheckerboard="0"
     inkscape:deskcolor="#d1d1d1"
     showgrid="false"
     inkscape:zoom="0.295"
     inkscape:cx="593.22034"
     inkscape:cy="401.69492"
     inkscape:window-width="1920"
     inkscape:window-height="1130"
     inkscape:window-x="761"
     inkscape:window-y="-6"
     inkscape:window-maximized="1"
     inkscape:current-layer="svg493" />
  <path
     d="m 660.50735,479.25 -905.25,-159.75 v 1180.393 c 0,53.907 43.7,97.607 97.607,97.607 H 1414.9003 c 53.907,0 97.607,-43.7 97.607,-97.607 V 1065 Z"
     fill="#185c37"
     id="path464" />
  <path
     d="m 660.50735,-532.5 h -807.643 c -53.907,0 -97.607,43.7 -97.607,97.607 V 0 l 905.25,532.5 479.24995,159.75 372.75,-159.75 V 0 Z"
     fill="#21a366"
     id="path466" />
  <path
     d="m -244.74265,0 h 905.25 v 532.5 h -905.25 z"
     fill="#107c41"
     id="path468" />
  <path
     d="m 403.15035,-106.5 h -647.893 v 1331.25 h 647.893 c 53.834,-0.175 97.432,-43.773 97.607,-97.607 V -8.893 c -0.175,-53.834 -43.773,-97.432 -97.607,-97.607 z"
     opacity="0.1"
     id="path470" />
  <path
     d="m 349.90035,-53.25 h -594.643 V 1278 h 594.643 c 53.834,-0.175 97.432,-43.773 97.607,-97.607 V 44.357 c -0.175,-53.834 -43.773,-97.432 -97.607,-97.607 z"
     opacity="0.2"
     id="path472" />
  <path
     d="m 349.90035,-53.25 h -594.643 V 1171.5 h 594.643 c 53.834,-0.175 97.432,-43.773 97.607,-97.607 V 44.357 c -0.175,-53.834 -43.773,-97.432 -97.607,-97.607 z"
     opacity="0.2"
     id="path474" />
  <path
     d="m 296.65035,-53.25 h -541.393 V 1171.5 h 541.393 c 53.834,-0.175 97.432,-43.773 97.607,-97.607 V 44.357 c -0.175,-53.834 -43.773,-97.432 -97.607,-97.607 z"
     opacity="0.2"
     id="path476" />
  <linearGradient
     gradientTransform="matrix(1,0,0,-1,-777.24265,1599.5)"
     y2="404.98199"
     x2="967.987"
     y1="1729.0179"
     x1="203.513"
     gradientUnits="userSpaceOnUse"
     id="a">
    <stop
       offset="0"
       stop-color="#18884f"
       id="stop478" />
    <stop
       offset=".5"
       stop-color="#117e43"
       id="stop480" />
    <stop
       offset="1"
       stop-color="#0b6631"
       id="stop482" />
  </linearGradient>
  <path
     d="m -679.63565,-53.25 h 976.285 c 53.907,0 97.607,43.7 97.607,97.607 v 976.285 c 0,53.907 -43.7,97.607 -97.607,97.607 h -976.285 c -53.907,10e-4 -97.607,-43.699 -97.607,-97.606 V 44.357 c 0,-53.907 43.7,-97.607 97.607,-97.607 z"
     fill="url(#a)"
     id="path485"
     style="fill:url(#a)" />
  <path
     d="m -474.94265,849.764 205.332,-318.169 -188.132,-316.412 h 151.336 l 102.666,202.35 c 9.479,19.223 15.975,33.494 19.49,42.919 h 1.331 a 798.667,798.667 0 0 1 21.3,-44.677 l 109.748,-200.485 h 138.929 l -192.925,314.548 197.825,319.925 h -147.822 l -118.588,-222.105 a 186.298,186.298 0 0 1 -14.164,-29.66 h -1.757 a 140.458,140.458 0 0 1 -13.739,28.755 l -122.102,223.011 z"
     fill="#ffffff"
     id="path487" />
  <path
     d="M 1414.9003,-532.5 H 660.50735 V 0 h 851.99995 v -434.893 c 0,-53.907 -43.7,-97.607 -97.607,-97.607 z"
     fill="#33c481"
     id="path489" />
  <path
     d="M 660.50735,532.5 H 1512.5073 V 1065 H 660.50735 Z"
     fill="#107c41"
     id="path491" />
</svg>
