<?xml version="1.0" encoding="UTF-8" standalone="no"?>
<!-- Generator: Adobe Illustrator 26.0.1, SVG Export Plug-In . SVG Version: 6.00 Build 0)  -->

<svg
   version="1.1"
   id="Layer_1"
   x="0px"
   y="0px"
   viewBox="0 0 450 124.215"
   xml:space="preserve"
   sodipodi:docname="Fusion 360.svg"
   inkscape:version="1.2.2 (732a01da63, 2022-12-09)"
   width="450"
   height="124.215"
   xmlns:inkscape="http://www.inkscape.org/namespaces/inkscape"
   xmlns:sodipodi="http://sodipodi.sourceforge.net/DTD/sodipodi-0.dtd"
   xmlns:xlink="http://www.w3.org/1999/xlink"
   xmlns="http://www.w3.org/2000/svg"
   xmlns:svg="http://www.w3.org/2000/svg"><defs
   id="defs581" /><sodipodi:namedview
   id="namedview579"
   pagecolor="#ffffff"
   bordercolor="#000000"
   borderopacity="0.25"
   inkscape:showpageshadow="2"
   inkscape:pageopacity="0.0"
   inkscape:pagecheckerboard="0"
   inkscape:deskcolor="#d1d1d1"
   showgrid="false"
   inkscape:zoom="1.3350176"
   inkscape:cx="164.04278"
   inkscape:cy="28.838571"
   inkscape:window-width="1920"
   inkscape:window-height="1010"
   inkscape:window-x="4601"
   inkscape:window-y="-6"
   inkscape:window-maximized="1"
   inkscape:current-layer="Layer_1" />

<g
   id="g504">
</g>
<g
   id="g526">
	<g
   id="g524">
		<defs
   id="defs509">
			<filter
   id="Adobe_OpacityMaskFilter"
   filterUnits="userSpaceOnUse"
   x="68.829002"
   y="7.3499999"
   width="76.416"
   height="197.476">
				<feColorMatrix
   type="matrix"
   values="1 0 0 0 0  0 1 0 0 0  0 0 1 0 0  0 0 0 1 0"
   id="feColorMatrix506" />
			</filter>
		</defs>
		<mask
   maskUnits="userSpaceOnUse"
   x="68.829"
   y="7.35"
   width="76.416"
   height="197.476"
   id="SVGID_1_">
			<g
   style="filter:url(#Adobe_OpacityMaskFilter)"
   id="g511">
			</g>
		</mask>
		<g
   mask="url(#SVGID_1_)"
   id="g522">
			<g
   id="g520">
				<defs
   id="defs515">
					<path
   id="SVGID_1169_"
   d="m 141.361,9.924 c 0.599,-0.245 1.265,-0.473 1.991,-0.636 0.629,-0.147 1.255,-0.275 1.893,-0.401 h -0.009 c 0,0 0,-0.019 -0.009,-0.056 -0.009,-0.054 -0.047,-0.217 -0.075,-0.436 -0.007,-0.037 -0.007,-0.072 -0.007,-0.1 -0.009,-0.082 -0.019,-0.156 -0.019,-0.228 0,-0.109 0.009,-0.219 0.026,-0.326 0,-0.009 0,-0.009 0,-0.019 0.019,-0.119 0.047,-0.228 0.084,-0.338 0,0 0,-0.009 0.009,-0.035 -1.283,0.8 -2.585,1.674 -3.884,2.575 m -3.685,4.329 c -0.028,0.037 -0.056,0.074 -0.075,0.109 0.009,-0.009 0.019,-0.009 0.019,-0.009 l 0.019,-0.009 c 0,0 0.009,0 0.009,-0.007 h 0.019 l 0.016,-0.009 c 0.009,0 0.009,0 0.019,0 0.009,-0.009 0.009,-0.009 0.019,-0.009 0,0 0.009,-0.009 0.019,-0.009 h 0.009 l 0.019,-0.009 c 0,0 0.007,0 0.016,-0.009 h 0.009 c 0.009,0 0.009,-0.009 0.019,-0.009 0.01,0 0.009,0 0.019,0 0,0 0.009,-0.009 0.019,-0.009 0,0 0.009,0 0.019,0 0,-0.009 0.007,-0.009 0.007,-0.009 0.009,0 0.009,-0.009 0.019,-0.009 h 0.009 c 0.009,0 0.009,-0.007 0.019,-0.007 0.009,0 0.009,0 0.009,0 0.009,0 0.019,-0.009 0.019,-0.009 0.009,0 0.019,0 0.019,0 0.007,0 0.007,-0.009 0.016,-0.009 0.009,0 0.009,0 0.019,0 0,-0.009 0.009,-0.009 0.009,-0.009 0.009,0 0.009,0 0.019,0 l 0.009,-0.009 c 0.009,0 0.009,0 0.019,0 0,0 0.009,0 0.009,-0.009 0.007,0 0.016,0 0.016,0 0.009,0 0.019,0 0.019,-0.009 0.009,0 0.009,0 0.019,0 h 0.009 c 0.009,0 0.009,-0.009 0.019,-0.009 0,0 0,0 0.009,0 h 0.007 c 0.009,-0.009 0.009,-0.009 0.019,-0.009 0.009,0 0.009,0 0.019,0 0.009,-0.009 0.019,-0.009 0.019,-0.009 0.009,0 0.009,0 0.019,0 0,0 0.009,0 0.009,-0.009 h 0.009 0.007 c 0.009,0 0.009,0 0.009,0 0.009,-0.007 0.019,-0.007 0.028,-0.007 0.009,0 0.019,0 0.028,0 l 0.026,-0.009 c 0.009,0 0.009,0 0.028,-0.009 0.282,-0.047 0.482,-0.037 0.592,0.035 0.1,0.074 0.119,0.2 0.047,0.382 -0.009,0.019 -0.028,0.037 -0.037,0.056 0.554,-0.482 1.111,-0.964 1.684,-1.446 -0.869,0.212 -1.961,0.557 -2.998,1.092 m -5.068,2.213 c -1.456,1.155 -2.676,2.147 -3.559,2.874 -0.245,0.21 -0.498,0.41 -0.745,0.619 -0.482,0.401 -0.773,0.645 -0.773,0.645 l 0.019,0.019 C 73.393,66.964 70.373,128.044 70.373,128.044 c -4.248,34.761 1.293,57.012 4.385,66.092 v 0.009 c 0.892,2.629 1.584,4.148 1.765,4.539 0.035,0.072 0.054,0.128 0.054,0.128 1.637,4.458 3.64,5.694 3.64,5.694 0,0.009 -0.009,0.119 0,0.319 0.89,-0.2 0.799,-1.148 0.799,-1.148 0.147,-0.363 0.028,-1.446 0.028,-1.446 -0.864,-4.739 1.365,-6.721 1.365,-6.721 1.756,1.591 11.181,5.347 11.181,5.347 l -0.529,-0.391 -0.072,-0.054 -0.091,-0.072 c 0,0 -6.805,-3.312 -8.743,-5.65 0,0 -0.019,-0.019 -0.037,-0.037 -0.007,-0.009 -0.026,-0.016 -0.035,-0.035 -0.028,-0.019 -0.056,-0.047 -0.082,-0.082 -0.028,-0.019 -0.047,-0.056 -0.075,-0.084 -0.026,-0.035 -0.063,-0.072 -0.1,-0.116 -0.026,-0.047 -0.054,-0.091 -0.091,-0.137 -0.035,-0.054 -0.072,-0.109 -0.109,-0.163 -0.026,-0.065 -0.063,-0.128 -0.098,-0.191 -0.037,-0.065 -0.075,-0.147 -0.1,-0.219 -0.037,-0.082 -0.075,-0.154 -0.109,-0.245 -0.028,-0.084 -0.065,-0.193 -0.091,-0.293 -0.028,-0.091 -0.056,-0.172 -0.084,-0.272 -0.044,-0.21 -0.091,-0.426 -0.116,-0.673 0,-0.009 -0.009,-0.026 -0.009,-0.035 0,-0.009 0,-0.019 0,-0.028 -0.028,-0.263 -0.047,-0.538 -0.047,-0.845 0,-1.574 -0.727,-21.261 5.014,-55.277 2.636,-15.611 7.194,-33.723 12.18,-48.598 2.974,-8.878 6.104,-16.603 9.078,-21.943 h -1.199 c -7.916,14.32 -16.941,45.633 -21.088,70.559 -5.676,34.023 -4.902,53.712 -4.902,55.284 0.009,2.566 1.099,3.286 1.099,3.286 0,0 -3.638,-0.566 -4.201,-8.251 0,0 -4.532,-29.221 5.203,-73.007 0,0 4.958,-26.056 19.542,-49.499 0.154,-0.338 0.307,-0.682 0.473,-1.02 h -0.009 c 0.163,-0.354 0.345,-0.727 0.526,-1.099 -0.135,0.035 -0.245,0.082 -0.363,0.119 -0.035,0.107 -0.054,0.217 -0.091,0.326 -0.154,0.456 -0.382,0.939 -0.692,1.43 -0.3,0.489 -0.636,0.936 -0.999,1.309 -0.366,0.382 -0.738,0.701 -1.12,0.946 -0.373,0.238 -0.745,0.41 -1.092,0.491 -0.345,0.072 -0.673,0.065 -0.955,-0.044 -0.282,-0.109 -0.491,-0.31 -0.617,-0.573 -0.137,-0.275 -0.191,-0.61 -0.184,-1.001 0.019,-0.382 0.1,-0.81 0.265,-1.265 0.154,-0.463 0.391,-0.946 0.692,-1.437 0.3,-0.491 0.645,-0.929 0.999,-1.311 0.366,-0.382 0.738,-0.701 1.111,-0.936 0.072,-0.047 0.135,-0.082 0.21,-0.119 0.082,-0.219 0.21,-0.429 0.408,-0.582 0,0 2.012,-2.119 3.903,-2.511 l 1.174,-0.247 c 1.102,-2.164 2.294,-4.43 3.603,-6.749 0,0 -0.009,0 -0.019,0.009 0.219,-0.391 0.456,-0.792 0.682,-1.174 -0.2,0.063 -0.401,0.137 -0.592,0.219 -0.009,0.019 -0.019,0.044 -0.026,0.063 -0.175,0.491 -0.429,0.973 -0.71,1.421 -0.291,0.454 -0.619,0.864 -0.983,1.237 -0.354,0.363 -0.727,0.673 -1.118,0.918 -0.382,0.247 -0.773,0.419 -1.139,0.501 -0.373,0.072 -0.692,0.056 -0.946,-0.054 -0.254,-0.109 -0.445,-0.3 -0.564,-0.564 -0.128,-0.265 -0.182,-0.601 -0.156,-0.992 0.019,-0.391 0.119,-0.838 0.3,-1.33 0.182,-0.491 0.429,-0.973 0.72,-1.428 0.291,-0.445 0.62,-0.873 0.983,-1.237 0.354,-0.363 0.727,-0.682 1.118,-0.92 0.109,-0.072 0.219,-0.116 0.328,-0.182 0.091,-0.2 0.254,-0.445 0.582,-0.773 1.628,-1.628 3.757,-2.483 5.95,-3.065 1.099,-1.719 2.264,-3.458 3.503,-5.205 l -0.028,0.009 c 0.291,-0.436 0.601,-0.855 0.908,-1.29 -0.317,0.126 -0.626,0.254 -0.918,0.401 -0.191,0.345 -0.401,0.699 -0.638,1.036 -0.307,0.426 -0.645,0.836 -1.008,1.199 -0.356,0.366 -0.729,0.682 -1.102,0.939 -0.363,0.263 -0.736,0.454 -1.074,0.564 -0.345,0.109 -0.627,0.128 -0.836,0.063 -0.219,-0.063 -0.373,-0.217 -0.454,-0.436 -0.084,-0.219 -0.091,-0.51 -0.028,-0.855 0.063,-0.347 0.2,-0.757 0.419,-1.211 0.217,-0.463 0.489,-0.918 0.789,-1.346 0.31,-0.428 0.657,-0.836 1.011,-1.202 0.363,-0.363 0.736,-0.682 1.111,-0.946 0.163,-0.119 0.335,-0.228 0.508,-0.31 0.128,-0.245 0.366,-0.536 0.838,-1.018 2.073,-2.075 3.729,-2.438 6.23,-3.121 1.12,-1.374 2.285,-2.739 3.512,-4.104 -0.009,0 -0.026,0.009 -0.035,0.009 0.426,-0.473 0.873,-0.946 1.309,-1.418 -0.335,0.119 -0.664,0.245 -1.001,0.391 -0.144,0.282 -0.317,0.582 -0.564,0.918 -0.009,0.009 -0.019,0.028 -0.026,0.037 -0.009,0.009 -0.019,0.028 -0.028,0.037 -0.009,0.016 -0.019,0.026 -0.028,0.044 -0.009,0.009 -0.019,0.019 -0.028,0.037 l -0.009,0.009 c -0.007,0.007 -0.007,0.007 -0.007,0.016 -0.009,0 -0.009,0.009 -0.009,0.009 -0.009,0.009 -0.009,0.009 -0.019,0.019 0,0.009 -0.009,0.019 -0.019,0.019 0,0.009 -0.009,0.019 -0.019,0.028 l -0.019,0.026 c -0.007,0.009 -0.016,0.019 -0.016,0.028 -0.009,0.009 -0.009,0.009 -0.009,0.009 -0.009,0.009 -0.009,0.019 -0.019,0.019 0,0.009 -0.009,0.009 -0.009,0.019 l -0.009,0.009 c -0.009,0.007 -0.019,0.016 -0.019,0.026 -0.009,0.009 -0.019,0.019 -0.019,0.028 -0.007,0.009 -0.016,0.009 -0.016,0.019 -0.009,0.009 -0.019,0.019 -0.028,0.028 l -0.009,0.016 c -0.009,0 -0.009,0.009 -0.009,0.009 -0.009,0.009 -0.019,0.019 -0.019,0.019 l -0.009,0.019 c -0.009,0.009 -0.016,0.019 -0.016,0.019 -0.009,0.009 -0.019,0.016 -0.028,0.026 0,0.009 -0.009,0.009 -0.009,0.019 -0.009,0.009 -0.019,0.019 -0.019,0.028 -0.009,0 -0.019,0.009 -0.019,0.019 0,0 -0.009,0.009 -0.009,0.019 -0.009,0 -0.016,0.007 -0.016,0.007 -0.009,0.009 -0.009,0.009 -0.019,0.019 l -0.009,0.019 c -0.009,0.009 -0.019,0.019 -0.019,0.028 l -0.019,0.019 c -0.009,0.007 -0.019,0.007 -0.026,0.016 0,0.009 -0.009,0.009 -0.009,0.019 -0.009,0.009 -0.009,0.009 -0.019,0.019 0,0.009 -0.009,0.009 -0.009,0.019 -0.009,0 -0.019,0.009 -0.019,0.019 l -0.054,0.054 c 0,0.009 -0.009,0.019 -0.019,0.028 l -0.009,0.009 c -0.009,0.009 -0.019,0.019 -0.019,0.019 -0.009,0.007 -0.009,0.016 -0.019,0.016 -0.009,0.009 -0.009,0.009 -0.009,0.019 l -0.026,0.019 c 0,0.009 -0.009,0.019 -0.019,0.019 0,0.009 -0.009,0.019 -0.019,0.028 0,0.007 -0.009,0.007 -0.019,0.016 0,0 -0.009,0.009 -0.009,0.019 -0.009,0 -0.009,0.009 -0.016,0.009 0,0.009 -0.009,0.009 -0.009,0.019 -0.009,0.009 -0.019,0.009 -0.019,0.019 -0.009,0.009 -0.019,0.009 -0.019,0.016 -0.009,0.009 -0.019,0.019 -0.019,0.019 -0.009,0.009 -0.019,0.019 -0.028,0.019 0,0.009 -0.007,0.019 -0.016,0.028 0,0.009 -0.009,0.009 -0.009,0.019 -0.009,0 -0.009,0.009 -0.019,0.009 0,0.007 -0.009,0.007 -0.019,0.016 0,0.009 0,0.009 -0.009,0.019 l -0.035,0.037 c -0.009,0.009 -0.019,0.019 -0.028,0.019 l -0.019,0.026 -0.009,0.009 -0.019,0.019 c -0.009,0.009 -0.009,0.009 -0.016,0.019 l -0.009,0.009 c -0.009,0.009 -0.019,0.019 -0.028,0.026 0,0 -0.009,0.009 -0.019,0.019 0,0 -0.009,0.009 -0.019,0.009 -0.009,0.009 -0.009,0.019 -0.019,0.028 -0.007,0 -0.007,0.009 -0.016,0.009 l -0.009,0.019 c -0.009,0.009 -0.009,0.016 -0.019,0.016 l -0.019,0.019 c -0.009,0 -0.009,0.009 -0.019,0.019 l -0.016,0.019 c -0.009,0.009 -0.019,0.009 -0.019,0.019 l -0.028,0.019 c 0,0.007 -0.009,0.007 -0.019,0.016 0,0 0,0.009 -0.009,0.009 -0.009,0.009 -0.009,0.009 -0.019,0.019 l -0.007,0.009 c -0.009,0.009 -0.019,0.019 -0.028,0.028 -0.009,0.009 -0.019,0.009 -0.028,0.016 0,0.009 -0.009,0.019 -0.019,0.028 -0.009,0 -0.019,0.009 -0.026,0.019 0,0.009 -0.009,0.009 -0.009,0.009 0,0.009 -0.009,0.009 -0.009,0.009 -0.009,0.009 -0.009,0.009 -0.019,0.009 0,0.009 0,0.009 -0.009,0.019 -0.009,0.007 -0.019,0.016 -0.028,0.016 -0.009,0.009 -0.019,0.019 -0.026,0.028 l -0.028,0.028 c -0.009,0.009 -0.019,0.019 -0.028,0.026 0,0 0,0 -0.009,0.009 0,0 0,0 -0.009,0 0,0.009 0,0.009 -0.009,0.009 0,0 0,0.009 -0.007,0.009 l -0.037,0.028 c -0.009,0.019 -0.019,0.028 -0.028,0.037 l -0.035,0.026 c -0.019,0.009 -0.028,0.028 -0.047,0.037 0,0 0,0 0,0.009 h -0.009 c 0,0 0,0 -0.009,0.009 0,0 0,0 0,0.009 -0.009,0 -0.026,0.009 -0.035,0.016 -0.009,0.009 -0.019,0.019 -0.028,0.028 -0.009,0.009 -0.019,0.019 -0.028,0.019 -0.009,0.009 -0.019,0.019 -0.028,0.028 -0.007,0 -0.007,0.009 -0.016,0.009 l -0.009,0.016 -0.009,0.009 -0.019,0.009 c -0.009,0 -0.009,0.009 -0.019,0.019 -0.009,0.009 -0.019,0.009 -0.028,0.019 -0.007,0.009 -0.016,0.009 -0.026,0.019 0,0.009 -0.009,0.009 -0.019,0.016 -0.009,0.009 -0.009,0.009 -0.019,0.009 0,0.009 -0.009,0.009 -0.009,0.019 -0.009,0 -0.009,0 -0.019,0.009 0,0 -0.009,0.009 -0.016,0.009 0,0.009 -0.009,0.009 -0.019,0.019 -0.009,0.009 -0.009,0.009 -0.019,0.019 -0.009,0.009 -0.019,0.009 -0.028,0.016 0,0 -0.009,0.009 -0.019,0.019 -0.007,0 -0.007,0.009 -0.016,0.009 l -0.009,0.009 c -0.009,0 -0.019,0.009 -0.019,0.009 -0.009,0.009 -0.009,0.009 -0.019,0.019 l -0.019,0.019 -0.019,0.007 -0.016,0.019 c -0.009,0 -0.019,0.009 -0.028,0.019 0,0 -0.009,0 -0.009,0.009 -0.009,0 -0.019,0.009 -0.019,0.009 -0.009,0.009 -0.009,0.009 -0.019,0.009 0,0.009 -0.007,0.009 -0.016,0.019 -0.009,0 -0.009,0.009 -0.019,0.009 l -0.019,0.016 c -0.009,0.009 -0.019,0.009 -0.019,0.019 l -0.028,0.009 c 0,0.009 -0.007,0.009 -0.007,0.009 -0.009,0.009 -0.019,0.009 -0.019,0.019 -0.009,0 -0.009,0 -0.019,0.009 0,0 -0.009,0.009 -0.019,0.009 0,0.009 -0.009,0.009 -0.019,0.016 0,0 -0.009,0.009 -0.019,0.009 -0.007,0.009 -0.016,0.009 -0.016,0.019 -0.009,0 -0.009,0.009 -0.019,0.009 -0.009,0.009 -0.019,0.009 -0.019,0.009 -0.009,0.009 -0.009,0.009 -0.019,0.019 0,0 -0.009,0 -0.019,0.009 0,0 -0.009,0.009 -0.016,0.009 0,0.009 -0.009,0.009 -0.009,0.016 -0.009,0 -0.019,0 -0.028,0.009 -0.009,0.009 -0.009,0.009 -0.019,0.009 -0.009,0.009 -0.009,0.009 -0.019,0.019 -0.009,0 -0.009,0.009 -0.016,0.009 l -0.009,0.009 c -0.009,0 -0.019,0.009 -0.019,0.009 l -0.019,0.009 c -0.009,0.009 -0.009,0.009 -0.019,0.016 -0.009,0 -0.019,0.009 -0.019,0.009 -0.009,0.009 -0.016,0.009 -0.016,0.019 -0.009,0 -0.019,0 -0.028,0.009 l -0.009,0.009 c -0.009,0 -0.009,0.009 -0.019,0.009 l -0.019,0.009 -0.009,0.009 c -0.007,0.009 -0.016,0.009 -0.026,0.009 0,0.009 -0.009,0.009 -0.019,0.016 -0.009,0 -0.009,0.009 -0.019,0.009 -0.009,0.009 -0.009,0.009 -0.019,0.019 -0.009,0 -0.009,0 -0.019,0 0,0.009 -0.007,0.009 -0.007,0.009 -0.009,0.009 -0.009,0.009 -0.019,0.009 -0.009,0.009 -0.009,0.009 -0.019,0.009 -0.009,0.009 -0.009,0.009 -0.019,0.019 -0.009,0 -0.009,0 -0.019,0.009 -0.009,0 -0.019,0.007 -0.019,0.007 -0.007,0 -0.016,0.009 -0.016,0.009 -0.009,0.009 -0.009,0.009 -0.019,0.009 -0.009,0 -0.009,0.009 -0.019,0.009 l -0.009,0.009 c -0.009,0 -0.009,0.009 -0.019,0.009 -0.009,0 -0.009,0.009 -0.019,0.009 l -0.016,0.009 c -0.009,0.009 -0.019,0.009 -0.019,0.019 l -0.028,0.009 c 0,0 -0.009,0 -0.009,0.007 -0.009,0 -0.009,0 -0.019,0 0,0.009 -0.007,0.009 -0.007,0.009 -0.009,0 -0.009,0.009 -0.019,0.009 -0.009,0 -0.009,0.009 -0.019,0.009 -0.009,0.009 -0.019,0.009 -0.028,0.019 l -0.019,0.009 c -0.009,0 -0.016,0.009 -0.026,0.009 0,0 0,0 -0.009,0 l -0.019,0.019 h -0.009 l -0.037,0.016 c -0.007,0 -0.016,0.009 -0.026,0.019 l -0.037,0.009 c -0.009,0.009 -0.028,0.009 -0.037,0.019 -0.007,0 -0.016,0.009 -0.026,0.009 -0.019,0.009 -0.028,0.019 -0.037,0.019 -0.009,0.009 -0.019,0.009 -0.028,0.009 -0.009,0.009 -0.016,0.009 -0.035,0.016 h -0.009 l -0.009,0.009 c -0.009,0 -0.009,0 -0.019,0 0,0.009 0,0.009 -0.009,0.009 -0.009,0 -0.009,0 -0.019,0.009 -0.009,0 -0.016,0 -0.016,0.009 -0.009,0 -0.009,0 -0.019,0 -0.009,0.009 -0.019,0.009 -0.028,0.009 0,0 0,0 -0.009,0 l -0.009,0.009 c -0.009,0 -0.009,0.009 -0.019,0.009 h -0.007 c -0.009,0 -0.009,0 -0.019,0.009 h -0.019 c -0.009,0.009 -0.009,0.009 -0.019,0.009 l -0.019,0.007 c -0.009,0 -0.009,0 -0.019,0.009 -0.007,0 -0.016,0 -0.026,0 -0.009,0 -0.009,0.009 -0.019,0.009 -0.009,0 -0.019,0.009 -0.019,0.009 -0.009,0 -0.009,0 -0.019,0 0,0 0,0 -0.009,0 0,0 -0.007,0 -0.007,0.009 h -0.009 c -0.009,0 -0.019,0.009 -0.037,0.009 -0.009,0 -0.019,0 -0.028,0.009 -0.009,0 -0.019,0 -0.026,0 -0.019,0.009 -0.028,0.009 -0.037,0.009 -0.319,0.072 -0.554,0.054 -0.72,-0.037 -0.163,-0.091 -0.245,-0.263 -0.245,-0.491 -0.009,-0.235 0.063,-0.526 0.219,-0.864 0.144,-0.345 0.373,-0.736 0.682,-1.164 0.007,-0.009 0.016,-0.028 0.026,-0.035 0.009,-0.009 0.019,-0.028 0.028,-0.047 0.009,-0.009 0.019,-0.019 0.028,-0.037 0.019,-0.009 0.026,-0.026 0.035,-0.035 v -0.009 c 0.009,-0.009 0.009,-0.009 0.019,-0.019 0,0 0,0 0,-0.009 0.009,0 0.009,-0.009 0.019,-0.009 0,-0.009 0.009,-0.019 0.019,-0.028 0.009,-0.007 0.009,-0.016 0.019,-0.026 0.009,-0.009 0.016,-0.019 0.016,-0.028 0.009,-0.009 0.019,-0.019 0.028,-0.028 0,-0.009 0.009,-0.009 0.009,-0.016 0,0 0.009,0 0.009,-0.009 0.009,-0.009 0.009,-0.009 0.009,-0.019 0.009,0 0.009,-0.009 0.019,-0.009 0,-0.009 0.009,-0.019 0.016,-0.028 0,-0.009 0.009,-0.019 0.019,-0.019 0.009,-0.009 0.009,-0.016 0.019,-0.026 0.009,-0.009 0.009,-0.019 0.019,-0.028 0,0 0.009,-0.009 0.019,-0.019 0,0 0.009,-0.009 0.009,-0.019 l 0.009,-0.009 c 0.007,-0.007 0.007,-0.007 0.016,-0.016 0.009,-0.009 0.009,-0.009 0.019,-0.019 0,-0.009 0.009,-0.019 0.019,-0.028 0.009,-0.009 0.009,-0.009 0.019,-0.019 0.009,-0.009 0.009,-0.019 0.019,-0.026 l 0.007,-0.009 c 0.009,-0.009 0.009,-0.019 0.019,-0.019 0,-0.009 0.009,-0.009 0.009,-0.019 0.009,0 0.009,-0.009 0.019,-0.009 0,-0.009 0.009,-0.019 0.019,-0.028 0,-0.009 0.009,-0.016 0.019,-0.016 0.009,-0.009 0.009,-0.019 0.016,-0.028 0,-0.009 0.009,-0.009 0.019,-0.019 0,-0.009 0.009,-0.009 0.019,-0.019 0,0 0.009,-0.009 0.009,-0.019 0.009,0 0.009,-0.009 0.019,-0.016 l 0.009,-0.009 c 0.009,-0.009 0.019,-0.019 0.019,-0.019 l 0.016,-0.028 c 0.009,-0.009 0.009,-0.009 0.019,-0.019 l 0.019,-0.016 c 0,-0.009 0.009,-0.019 0.019,-0.019 0,-0.009 0.009,-0.009 0.009,-0.019 0.009,-0.009 0.019,-0.009 0.019,-0.019 0.007,-0.009 0.007,-0.009 0.016,-0.019 0.009,-0.009 0.009,-0.009 0.019,-0.019 0,-0.007 0.009,-0.007 0.019,-0.016 0,-0.009 0.009,-0.009 0.019,-0.019 0,-0.009 0.009,-0.009 0.009,-0.019 0.009,-0.009 0.016,-0.009 0.016,-0.019 0.009,-0.009 0.009,-0.009 0.019,-0.019 0.009,-0.007 0.009,-0.007 0.019,-0.016 0,0 0.009,-0.009 0.019,-0.019 0,0 0.009,-0.009 0.019,-0.019 0,-0.009 0.009,-0.009 0.019,-0.019 l 0.016,-0.019 c 0,-0.009 0.009,-0.009 0.009,-0.016 l 0.019,-0.019 c 0.009,-0.009 0.019,-0.009 0.019,-0.019 l 0.019,-0.009 c 0,-0.009 0.009,-0.019 0.009,-0.019 0.007,-0.009 0.016,-0.019 0.016,-0.019 0.009,-0.009 0.019,-0.016 0.019,-0.026 0.009,0 0.019,-0.009 0.028,-0.019 0,0 0.009,-0.009 0.019,-0.019 0,0 0.009,-0.009 0.019,-0.019 l 0.007,-0.009 c 0.009,-0.009 0.009,-0.009 0.019,-0.019 l 0.019,-0.016 c 0,0 0.009,-0.009 0.019,-0.019 0,0 0.009,-0.009 0.019,-0.019 0,-0.009 0.009,-0.009 0.019,-0.019 0,-0.009 0.007,-0.009 0.016,-0.019 0,-0.007 0.009,-0.007 0.019,-0.016 l 0.009,-0.009 c 0.009,-0.009 0.019,-0.019 0.019,-0.019 0.009,-0.009 0.009,-0.019 0.019,-0.019 0.009,-0.009 0.009,-0.009 0.019,-0.019 0.007,-0.009 0.007,-0.009 0.016,-0.019 0,-0.007 0.009,-0.007 0.019,-0.016 0,0 0.009,-0.009 0.019,-0.019 0.009,0 0.009,-0.009 0.019,-0.009 0,-0.009 0.009,-0.019 0.019,-0.019 0,-0.009 0.007,-0.019 0.016,-0.019 l 0.019,-0.016 c 0,0 0.009,-0.009 0.009,-0.019 0.009,0 0.019,-0.009 0.019,-0.009 0.009,-0.009 0.009,-0.009 0.019,-0.019 0.009,0 0.009,-0.009 0.019,-0.019 0.007,0 0.007,-0.009 0.016,-0.019 0,0 0.009,-0.009 0.019,-0.016 0.009,0 0.009,-0.009 0.019,-0.009 0.009,-0.009 0.009,-0.019 0.019,-0.019 l 0.009,-0.009 c 0,0 0,0 0,-0.009 0.009,0 0.009,0 0.009,0 0,0 0,-0.009 0.007,-0.009 0.009,-0.009 0.028,-0.028 0.047,-0.044 0.019,-0.009 0.037,-0.028 0.054,-0.047 0.009,-0.009 0.028,-0.028 0.047,-0.037 0.019,-0.016 0.037,-0.035 0.054,-0.044 0,-0.009 0.009,-0.009 0.009,-0.019 0.009,0 0.009,0 0.019,-0.009 l 0.009,-0.009 c 0.009,-0.009 0.009,-0.009 0.019,-0.019 0,0 0.009,-0.007 0.019,-0.007 0.009,-0.009 0.019,-0.019 0.019,-0.019 0.007,-0.009 0.016,-0.019 0.016,-0.019 0.009,-0.009 0.019,-0.009 0.028,-0.019 0,-0.009 0.009,-0.009 0.009,-0.019 0.009,0 0.009,-0.009 0.019,-0.009 0.009,0 0.009,-0.009 0.019,-0.009 0,-0.007 0.007,-0.007 0.007,-0.016 0.009,0 0.019,-0.009 0.028,-0.019 0.009,0 0.009,-0.009 0.019,-0.019 0.009,0 0.019,-0.009 0.019,-0.009 0.009,-0.009 0.019,-0.019 0.028,-0.019 0,-0.009 0.007,-0.009 0.007,-0.016 0.009,0 0.009,-0.009 0.019,-0.009 0,-0.009 0.009,-0.009 0.009,-0.009 0.009,-0.009 0.019,-0.009 0.019,-0.009 0.009,-0.009 0.019,-0.019 0.019,-0.019 0.009,-0.009 0.019,-0.019 0.026,-0.019 0.009,-0.009 0.009,-0.019 0.019,-0.019 l 0.019,-0.016 c 0.009,-0.009 0.019,-0.009 0.019,-0.009 0.009,-0.009 0.009,-0.009 0.019,-0.019 0,0 0.009,0 0.009,-0.009 0.009,0 0.009,-0.009 0.016,-0.009 0.009,-0.009 0.009,-0.009 0.019,-0.019 0.009,0 0.019,-0.009 0.028,-0.019 0,0 0.009,-0.009 0.019,-0.016 0.009,0 0.019,0 0.019,-0.009 0.009,-0.009 0.009,-0.009 0.016,-0.009 0,-0.009 0.009,-0.009 0.009,-0.019 0.009,0 0.009,0 0.019,-0.009 l 0.009,-0.009 c 0.009,-0.009 0.019,-0.009 0.028,-0.019 0.009,-0.009 0.019,-0.009 0.019,-0.009 0.009,-0.009 0.016,-0.016 0.026,-0.016 0.009,-0.009 0.009,-0.019 0.019,-0.019 0.009,-0.009 0.009,-0.009 0.009,-0.009 0.009,0 0.019,-0.009 0.019,-0.009 l 0.019,-0.009 c 0,-0.009 0,-0.009 0.009,-0.009 0.007,-0.009 0.016,-0.019 0.026,-0.019 0,-0.009 0.009,-0.009 0.019,-0.016 0.009,-0.009 0.019,-0.009 0.019,-0.019 l 0.028,-0.009 c 0,-0.009 0.009,-0.009 0.009,-0.009 0.007,-0.009 0.007,-0.009 0.016,-0.009 0,-0.009 0,-0.009 0.009,-0.009 0,-0.009 0.009,-0.009 0.009,-0.009 l 0.028,-0.019 C 126.1,23.45 126.1,23.45 126.11,23.443 l 0.026,-0.009 0.019,-0.019 c 0.009,0 0.009,-0.009 0.019,-0.009 l 0.009,-0.009 0.009,-0.009 c 0.009,0 0.009,0 0.019,0 l 0.016,-0.019 c 0.009,-0.009 0.019,-0.016 0.028,-0.016 l 0.019,-0.019 0.028,-0.009 0.009,-0.009 0.009,-0.009 c 0.007,0 0.007,0 0.016,0 0,-0.009 0,-0.009 0.009,-0.009 0.009,-0.009 0.009,-0.009 0.019,-0.019 0.01,-0.01 0.019,-0.009 0.028,-0.019 0.009,0 0.019,-0.007 0.028,-0.007 0.007,-0.009 0.016,-0.019 0.016,-0.019 0.091,-0.119 0.165,-0.256 0.21,-0.438 0,0 0.109,-0.783 1.893,-2.038 0,0 1.446,-1.008 3.638,-1.682 0,0 0.845,-0.3 2.711,-0.766 0.382,-0.363 0.773,-0.727 1.164,-1.099 -0.009,0.009 -0.019,0.019 -0.019,0.019 -0.009,0.007 -0.016,0.007 -0.026,0.016 -0.009,0.009 -0.019,0.009 -0.037,0.019 -0.009,0.009 -0.009,0.009 -0.028,0.019 l -0.009,0.009 c -0.007,0 -0.007,0.009 -0.016,0.009 l -0.009,0.009 c -0.009,0.009 -0.009,0.009 -0.019,0.009 l -0.028,0.016 c -0.009,0.009 -0.019,0.009 -0.028,0.019 -0.007,0 -0.016,0.009 -0.026,0.019 -0.009,0 -0.019,0.009 -0.019,0.019 -0.009,0 -0.019,0 -0.019,0 -0.009,0.009 -0.009,0.009 -0.019,0.019 l -0.009,0.009 c -0.007,0 -0.016,0.009 -0.016,0.009 -0.009,0 -0.019,0.007 -0.028,0.007 -0.009,0.009 -0.019,0.019 -0.028,0.019 -0.009,0.009 -0.019,0.009 -0.028,0.019 0,0 -0.016,0.009 -0.016,0.019 -0.009,0 -0.019,0 -0.019,0.009 -0.009,0 -0.009,0 -0.019,0.009 -0.009,0 -0.009,0.009 -0.019,0.009 l -0.009,0.009 c -0.009,0.007 -0.019,0.007 -0.026,0.016 l -0.028,0.009 c -0.009,0.009 -0.019,0.019 -0.028,0.019 -0.009,0.009 -0.009,0.009 -0.028,0.019 l -0.009,0.009 c -0.007,0 -0.007,0.009 -0.016,0.009 0,0 -0.009,0 -0.019,0.009 l -0.009,0.007 -0.028,0.019 c -0.009,0 -0.019,0.009 -0.026,0.009 -0.009,0.009 -0.019,0.009 -0.028,0.019 -0.009,0 -0.019,0.009 -0.019,0.019 -0.009,0 -0.019,0 -0.019,0 l -0.019,0.019 c 0,0 -0.009,0 -0.016,0 0,0.009 -0.009,0.009 -0.009,0.009 -0.019,0.007 -0.019,0.016 -0.028,0.016 -0.009,0.009 -0.019,0.009 -0.028,0.019 -0.009,0 -0.019,0.009 -0.026,0.019 -0.009,0 -0.019,0.009 -0.028,0.009 0,0.009 -0.009,0.009 -0.009,0.009 -0.009,0 -0.019,0.009 -0.019,0.009 l -0.009,0.009 c -0.009,0 -0.009,0 -0.019,0.007 -0.009,0.009 -0.026,0.009 -0.035,0.019 -0.009,0 -0.019,0.009 -0.028,0.019 -0.009,0 -0.019,0.009 -0.037,0.019 -0.009,0.009 -0.016,0.009 -0.026,0.019 h -0.009 l -0.009,0.009 h -0.009 l -0.009,0.009 c -0.009,0 -0.028,0.007 -0.037,0.016 -0.009,0.009 -0.026,0.019 -0.035,0.019 -0.019,0.009 -0.028,0.019 -0.047,0.028 -0.009,0 -0.019,0.009 -0.035,0.019 0,0 -0.009,0.009 -0.019,0.009 0,0 0,0.009 -0.009,0.009 0,0 -0.009,0 -0.009,0.007 -0.009,0 -0.009,0 -0.019,0 -0.009,0.009 -0.019,0.009 -0.028,0.019 -0.007,0 -0.016,0.009 -0.016,0.009 -0.009,0.009 -0.019,0.009 -0.028,0.019 -0.009,0 -0.019,0.009 -0.028,0.009 -0.009,0.009 -0.009,0.009 -0.019,0.009 0,0.009 -0.007,0.009 -0.016,0.009 0,0.009 -0.009,0.009 -0.009,0.009 -0.009,0 -0.019,0.009 -0.019,0.009 -0.009,0 -0.019,0.007 -0.028,0.007 0,0.009 -0.009,0.009 -0.019,0.019 -0.009,0 -0.016,0 -0.016,0.009 -0.009,0 -0.019,0.009 -0.028,0.009 -0.009,0 -0.009,0.009 -0.019,0.009 -0.01,0 -0.009,0.009 -0.019,0.009 0,0 -0.009,0.009 -0.019,0.009 0,0 -0.009,0.009 -0.016,0.009 l -0.019,0.009 c -0.009,0.007 -0.009,0.007 -0.019,0.007 -0.009,0.009 -0.019,0.009 -0.028,0.009 l -0.019,0.019 c 0,0 -0.009,0 -0.016,0 0,0.009 -0.009,0.009 -0.019,0.009 0,0.009 -0.009,0.009 -0.019,0.009 0,0.009 -0.009,0.009 -0.019,0.009 0,0.009 -0.009,0.009 -0.019,0.009 l -0.016,0.019 c -0.009,0 -0.009,0 -0.019,0.009 -0.009,0 -0.019,0 -0.028,0.007 0,0 -0.009,0 -0.009,0.009 -0.009,0 -0.019,0 -0.019,0 -0.009,0.009 -0.009,0.009 -0.019,0.009 -0.007,0.009 -0.007,0.009 -0.016,0.009 -0.009,0 -0.009,0.009 -0.019,0.009 -0.009,0.009 -0.019,0.009 -0.028,0.009 0,0.009 -0.009,0.009 -0.019,0.009 -0.009,0.009 -0.009,0.009 -0.016,0.019 -0.009,0 -0.009,0 -0.019,0 -0.009,0.009 -0.009,0.009 -0.019,0.009 l -0.009,0.007 c -0.009,0 -0.009,0.009 -0.019,0.009 -0.01,0 -0.019,0 -0.019,0.009 l -0.026,0.009 c -0.009,0 -0.019,0.009 -0.019,0.009 -0.009,0 -0.019,0.009 -0.028,0.009 l -0.009,0.009 c -0.009,0 -0.009,0 -0.019,0 0,0.009 -0.009,0.009 -0.009,0.009 -0.007,0 -0.007,0.009 -0.016,0.009 -0.009,0 -0.019,0.009 -0.028,0.009 -0.009,0.009 -0.019,0.009 -0.028,0.009 -0.009,0.007 -0.019,0.007 -0.028,0.016 -0.007,0 -0.016,0 -0.026,0.009 0,0 0,0 -0.009,0 0,0 0,0 -0.009,0.009 -0.009,0 -0.009,0 -0.009,0 -0.019,0.009 -0.028,0.009 -0.037,0.019 -0.007,0 -0.026,0.009 -0.035,0.009 -0.009,0.009 -0.019,0.019 -0.037,0.019 -0.009,0 -0.019,0.009 -0.028,0.019 -0.007,0 -0.007,0 -0.016,0 h -0.009 l -0.009,0.007 c -0.009,0 -0.009,0 -0.019,0.009 0,0 -0.009,0 -0.019,0 -0.009,0.009 -0.009,0.009 -0.019,0.009 -0.007,0.009 -0.016,0.009 -0.026,0.009 0,0.009 -0.009,0.009 -0.019,0.009 0,0 -0.009,0 -0.019,0.009 h -0.009 c -0.009,0 -0.009,0.009 -0.019,0.009 h -0.009 c -0.007,0.009 -0.007,0.009 -0.016,0.009 -0.009,0 -0.009,0.009 -0.019,0.009 -0.009,0 -0.019,0 -0.019,0.009 -0.009,0 -0.019,0 -0.019,0 -0.009,0 -0.009,0.009 -0.019,0.009 h -0.009 c -0.007,0.007 -0.007,0.007 -0.016,0.007 h -0.009 l -0.019,0.009 c -0.009,0 -0.019,0 -0.019,0.009 h -0.019 c -0.009,0 -0.019,0.009 -0.019,0.009 -0.007,0 -0.007,0 -0.016,0 l -0.009,0.009 c -0.009,0 -0.009,0 -0.019,0 0,0.009 0,0.009 -0.009,0.009 -0.009,0 -0.009,0 -0.019,0.009 -0.009,0 -0.009,0 -0.019,0 l -0.016,0.009 c 0,0 -0.009,0 -0.019,0 0,0 -0.009,0 -0.009,0.009 0,0 -0.009,0 -0.019,0 0,0 0,0 -0.009,0 l -0.009,0.009 c -0.009,0 -0.019,0 -0.019,0 l -0.016,0.007 c -0.009,0 -0.009,0 -0.019,0 l -0.019,0.009 h -0.009 c 0,0 -0.009,0 -0.009,0.009 -0.009,0 -0.009,0 -0.019,0 0,0 0,0 -0.007,0 -0.009,0 -0.009,0 -0.019,0.009 0,0 -0.009,0 -0.019,0 -0.01,0 -0.009,0 -0.019,0 -0.009,0.009 -0.009,0.009 -0.019,0.009 h -0.009 l -0.009,0.009 c 0,0 0,0 -0.007,0 0,0 0,0 -0.009,0 -0.009,0 -0.019,0 -0.028,0.009 -0.009,0 -0.019,0 -0.028,0 -0.009,0 -0.019,0.009 -0.019,0.009 h -0.026 c -0.019,0 -0.028,0.009 -0.037,0.009 -0.019,0 -0.028,0.009 -0.037,0.009 -0.016,0 -0.026,0 -0.035,0 -0.009,0 -0.028,0 -0.037,0.009 -0.009,0 -0.009,0 -0.019,0 -0.009,0 -0.009,0 -0.009,0 -0.007,0 -0.016,0 -0.035,0.007 -0.009,0 -0.019,0 -0.028,0 -0.009,0 -0.019,0 -0.028,0 h -0.072 c -0.009,0 -0.019,0 -0.028,0 0,0 -0.007,0 -0.016,0 -0.009,0 -0.019,-0.007 -0.019,-0.007 h -0.028 c 0,0 -0.009,0 -0.019,0 -0.009,-0.009 -0.009,-0.009 -0.019,-0.009 h -0.026 c 0,-0.009 -0.009,-0.009 -0.019,-0.009 l -0.009,-0.009 c -0.009,0 -0.009,0 -0.019,0 0,-0.009 -0.009,-0.009 -0.019,-0.009 l -0.009,-0.009 c -0.007,0 -0.007,0 -0.016,-0.009 -0.009,-0.009 -0.019,-0.009 -0.019,-0.009 -0.009,-0.009 -0.009,-0.009 -0.019,-0.009 0,-0.009 0,-0.009 -0.009,-0.019 0,0 0,0 -0.009,-0.007 V 18.76 h -0.009 c 0,-0.009 -0.009,-0.019 -0.009,-0.028 -0.009,-0.009 -0.009,-0.019 -0.016,-0.028 0,-0.009 0,-0.019 0,-0.019 -0.009,-0.026 -0.009,-0.035 -0.009,-0.054 v -0.009 c 0,0 0,-0.009 0,-0.019 0,-0.01 0,-0.009 0,-0.009 0,0 0,-0.016 0,-0.026 0,0 0.009,-0.019 0.009,-0.028 v -0.019 c 0.007,-0.009 0.007,-0.019 0.007,-0.028 0,0 0.009,-0.009 0.009,-0.016 0,-0.009 0.009,-0.019 0.009,-0.028 V 18.44 c 0.009,-0.009 0.009,-0.019 0.019,-0.028 0,-0.009 0,-0.009 0.009,-0.019 0,-0.009 0,-0.016 0.009,-0.026 0,-0.009 0.009,-0.019 0.009,-0.028 h 0.009 V 18.32 c 0.009,0 0.009,-0.009 0.019,-0.019 l 0.007,-0.026 c 0.009,-0.009 0.009,-0.019 0.019,-0.028 0.009,-0.009 0.009,-0.019 0.019,-0.028 0.01,-0.009 0.009,-0.028 0.019,-0.035 0.009,-0.009 0.019,-0.019 0.019,-0.028 0.009,-0.009 0.019,-0.028 0.026,-0.037 0.009,-0.009 0.009,-0.019 0.019,-0.026 l 0.009,-0.009 c 0.009,-0.009 0.009,-0.009 0.009,-0.009 0.019,-0.019 0.028,-0.047 0.047,-0.065 0.016,-0.016 0.035,-0.044 0.054,-0.072 0.019,-0.019 0.037,-0.037 0.054,-0.063 0.019,-0.019 0.047,-0.047 0.065,-0.074 0.009,0 0.009,-0.007 0.009,-0.007 h 0.009 v -0.009 c 0.009,-0.009 0.016,-0.028 0.026,-0.037 0.019,-0.009 0.028,-0.028 0.037,-0.037 0.019,-0.007 0.028,-0.016 0.037,-0.035 0.007,-0.019 0.026,-0.028 0.035,-0.037 l 0.256,-0.254 c 0.009,-0.009 0.016,-0.019 0.026,-0.028 l 0.037,-0.028 0.063,-0.063 c 0.019,-0.009 0.028,-0.028 0.047,-0.037 0.009,-0.009 0.019,-0.016 0.028,-0.026 0.016,-0.009 0.026,-0.028 0.035,-0.037 0.009,-0.009 0.019,-0.019 0.028,-0.028 h 0.009 c 0,-0.009 0.009,-0.009 0.009,-0.009 0.009,-0.007 0.009,-0.007 0.009,-0.007 0.016,-0.009 0.026,-0.019 0.035,-0.028 l 0.028,-0.028 c 0.009,-0.009 0.019,-0.019 0.037,-0.028 0,-0.009 0.016,-0.016 0.026,-0.026 h 0.009 c 0,-0.009 0,-0.009 0.009,-0.019 0.009,-0.01 0.009,-0.009 0.019,-0.009 0.009,-0.009 0.019,-0.028 0.037,-0.037 0.007,-0.009 0.026,-0.016 0.035,-0.035 0.019,0 0.028,-0.019 0.047,-0.028 0.009,-0.009 0.026,-0.028 0.035,-0.037 0.019,-0.009 0.028,-0.016 0.037,-0.026 0.019,-0.009 0.028,-0.019 0.037,-0.028 0.016,-0.019 0.026,-0.019 0.035,-0.037 0.019,-0.009 0.028,-0.019 0.037,-0.026 0.009,0 0.009,-0.009 0.019,-0.009 l 0.009,-0.009 c 0.007,0 0.007,-0.009 0.007,-0.009 0.009,-0.009 0.009,-0.009 0.019,-0.009 0.009,-0.009 0.009,-0.019 0.019,-0.019 l 0.028,-0.028 c 0.009,0 0.019,-0.009 0.026,-0.016 l 0.028,-0.019 0.009,-0.009 c 0.009,0 0.009,-0.009 0.019,-0.009 0,-0.009 0.009,-0.009 0.009,-0.019 0.009,0 0.009,0 0.019,-0.009 0.009,-0.009 0.009,-0.009 0.016,-0.019 0.009,0 0.019,-0.007 0.028,-0.016 h 0.009 c 0.009,-0.1 0.019,-0.191 0.037,-0.282 0,-0.009 0,-0.019 0,-0.028 0,0 0.026,-0.538 0.1,-0.892 -0.452,0.399 -0.887,0.771 -1.351,1.137" />
				</defs>
				<clipPath
   id="SVGID_00000082368919251104574590000018420500083403954104_">
					<use
   xlink:href="#SVGID_1169_"
   style="display:none;overflow:visible"
   id="use517" />
				</clipPath>
			</g>
		</g>
	</g>
</g>
<g
   id="g576"
   transform="translate(-25,-187.893)">
	<g
   id="g574">
		<g
   id="g532">
			<g
   id="g530">
				<path
   style="fill:#ff6902"
   d="m 47.314,187.893 h 95.95 c 3.682,0.186 7.438,2.826 7.624,6.731 0.223,5.43 0,10.897 0.074,16.364 0.074,26.144 0,52.326 0.037,78.47 -30.012,0.037 -60.062,-0.037 -90.074,0.037 -4.5,0.112 -9.037,0.335 -13.537,-0.037 -0.223,-33.806 -0.112,-67.611 -0.074,-101.379 z m 36.338,23.029 c 0,18.632 0.112,37.264 -0.037,55.896 4.76,0.521 9.632,0.669 14.355,-0.186 -0.26,-7.326 0,-14.69 -0.149,-22.054 6.062,-0.632 12.161,-0.149 18.26,-0.335 -0.074,-3.273 -0.074,-6.508 0,-9.781 -6.062,-0.037 -12.124,0.074 -18.223,-0.074 -0.074,-4.388 -0.037,-8.814 0,-13.24 7.215,0 14.467,-0.037 21.682,0.037 0.037,-3.459 0,-6.917 -0.037,-10.376 -11.938,0.15 -23.876,0.039 -35.851,0.113 z"
   id="path528" />
			</g>
		</g>
		<g
   id="g536">
			<path
   style="fill:#ff9548"
   d="m 25,201.513 c 7.289,-4.612 14.727,-8.963 22.128,-13.388 -0.037,33.806 -0.149,67.611 0.074,101.379 -3.421,2.008 -6.769,4.091 -10.19,6.099 -4.016,2.417 -7.996,4.872 -12.012,7.252 z"
   id="path534" />
		</g>
		<g
   id="g540">
			<path
   style="fill:#fffefe"
   d="m 83.574,210.922 c 11.975,-0.074 23.913,0.037 35.888,-0.074 0,3.459 0.037,6.917 0.037,10.376 -7.215,-0.037 -14.467,-0.037 -21.682,-0.037 -0.037,4.388 -0.037,8.814 0,13.24 6.062,0.112 12.161,0.037 18.223,0.074 -0.074,3.273 -0.074,6.508 0,9.781 -6.099,0.186 -12.198,-0.298 -18.26,0.335 0.149,7.326 -0.112,14.69 0.149,22.054 -4.723,0.855 -9.595,0.707 -14.355,0.186 0.112,-18.671 0,-37.303 0,-55.935 z"
   id="path538" />
		</g>
		<g
   id="g544">
			<path
   style="fill:#933b00"
   d="m 150.817,210.914 c 3.31,-0.037 6.657,-0.037 9.967,-0.037 -0.074,33.731 0,67.462 -0.037,101.231 H 43.821 c -3.05,-0.483 -6.025,-2.492 -6.62,-5.653 -0.595,-3.607 -0.149,-7.326 -0.186,-10.971 3.421,-2.008 6.806,-4.091 10.19,-6.099 4.5,0.372 9.037,0.149 13.537,0.037 30.012,-0.074 60.062,0 90.074,-0.037 0.001,-26.145 0.038,-52.327 0.001,-78.471 z"
   id="path542" />
		</g>
		<g
   id="g572">
			<path
   d="m 285.22,215.571 c 3.124,-2.343 7.884,1.302 6.583,4.909 -0.707,3.384 -5.95,4.277 -7.81,1.376 -1.599,-1.934 -0.93,-5.095 1.227,-6.285 z"
   id="path546"
   style="fill:#ffffff;fill-opacity:1" />
			<path
   d="m 193.101,218.509 c 8.145,0.037 16.289,-0.037 24.434,0.074 0,1.897 0,3.831 0.037,5.727 -5.727,0.074 -11.492,-0.149 -17.219,0.074 0.149,3.979 0,7.921 0.149,11.901 4.872,-0.112 9.707,-0.037 14.578,-0.037 0,1.934 0,3.831 0.037,5.764 -4.909,0.037 -9.818,0 -14.727,0.037 0.074,5.69 -0.074,11.38 0.112,17.07 -2.492,0.074 -4.946,0.074 -7.438,0.037 0.075,-13.573 0.037,-27.11 0.037,-40.647 z"
   id="path548"
   style="fill:#ffffff;fill-opacity:1" />
			<path
   d="m 376.559,223.753 c 6.434,-6.508 18.149,-8.405 25.289,-2.083 2.864,2.603 3.273,6.88 2.306,10.413 -0.893,2.715 -3.533,4.24 -6.099,5.169 3.087,1.116 6.136,3.05 7.438,6.174 1.041,4.5 0.558,10.041 -3.459,12.979 -7.624,5.839 -19.673,4.574 -26.107,-2.529 1.413,-1.376 2.826,-2.752 4.24,-4.165 2.752,2.566 6.173,4.76 10.078,4.612 3.198,0.186 7.14,-1.153 8.07,-4.537 0.372,-2.455 0.558,-5.43 -1.488,-7.252 -2.789,-2.603 -6.88,-2.12 -10.376,-2.194 -0.037,-1.711 -0.037,-3.421 -0.037,-5.132 3.533,-0.223 8.293,0.558 10.376,-3.05 1.041,-2.678 0.781,-6.694 -2.269,-7.959 -4.797,-2.157 -10.302,-0.037 -13.872,3.496 -1.376,-1.19 -2.789,-2.529 -4.09,-3.942 z"
   id="path550"
   style="fill:#ffffff;fill-opacity:1" />
			<g
   id="g554"
   style="fill:#ffffff;fill-opacity:1">
				<path
   d="m 418.133,223.381 c 4.835,-4.091 11.306,-5.281 17.442,-5.616 0,1.934 0.037,3.868 0.037,5.802 -4.76,0.483 -10.004,1.19 -13.5,4.835 -2.157,2.083 -3.05,4.983 -3.868,7.773 2.826,-2.045 5.913,-4.091 9.595,-3.868 5.132,-0.521 10.599,2.64 11.864,7.81 1.19,5.355 1.004,11.752 -3.05,15.88 -6.248,6.062 -18.037,5.281 -22.872,-2.12 -3.05,-4.426 -2.789,-10.004 -2.566,-15.099 0.187,-5.765 2.418,-11.641 6.918,-15.397 z m 0.153,19.115 c 0.112,3.012 0.149,6.211 1.822,8.814 2.492,3.682 8.665,3.942 11.454,0.446 1.897,-2.64 1.488,-6.136 1.302,-9.186 -0.149,-2.231 -1.897,-4.24 -4.128,-4.574 -4.091,-0.967 -7.959,1.451 -10.45,4.5 z"
   id="path552"
   style="fill:#ffffff;fill-opacity:1" />
			</g>
			<g
   id="g558"
   style="fill:#ffffff;fill-opacity:1">
				<path
   d="m 454.732,218.62 c 4.574,-1.227 9.744,-1.116 14.021,1.153 3.756,2.083 6.062,6.285 6.173,10.525 0.112,5.69 0.074,11.38 0.037,17.07 -0.037,5.095 -3.384,10.041 -8.256,11.603 -6.322,2.083 -14.541,1.19 -18.744,-4.463 -3.124,-4.277 -2.492,-9.818 -2.529,-14.802 0.112,-4.426 -0.483,-9 0.93,-13.277 1.19,-3.792 4.574,-6.693 8.368,-7.809 z m 2.64,5.356 c -2.975,1.041 -4.5,4.277 -4.5,7.289 -0.037,5.504 -0.149,11.045 0.037,16.549 0.298,4.723 5.578,7.475 9.855,6.099 3.235,-0.855 5.058,-4.388 4.983,-7.55 0,-4.723 -0.037,-9.409 0,-14.095 0.074,-2.789 -0.707,-5.913 -3.087,-7.624 -2.156,-1.338 -4.945,-1.598 -7.288,-0.668 z"
   id="path556"
   style="fill:#ffffff;fill-opacity:1" />
			</g>
			<path
   d="m 256.584,229.406 c 6.136,-3.31 13.946,-1.971 19.562,1.859 -1.153,1.376 -2.269,2.789 -3.421,4.165 -3.273,-1.934 -7.364,-3.384 -11.083,-1.934 -2.008,0.632 -2.417,3.645 -0.707,4.872 4.202,3.012 10.264,2.826 13.835,6.917 3.236,4.351 1.636,11.715 -3.831,13.426 -6.545,2.566 -14.318,1.302 -19.971,-2.864 1.227,-1.413 2.417,-2.864 3.607,-4.314 3.496,2.603 8.256,3.942 12.496,2.455 3.161,-0.93 2.566,-5.616 -0.372,-6.397 -4.202,-2.083 -9.483,-2.455 -12.645,-6.248 -2.788,-3.719 -1.635,-9.743 2.53,-11.937 z"
   id="path560"
   style="fill:#ffffff;fill-opacity:1" />
			<g
   id="g564"
   style="fill:#ffffff;fill-opacity:1">
				<path
   d="m 306.939,228.029 c 3.31,-0.744 6.843,-0.669 10.078,0.298 5.058,1.525 8.554,6.508 8.888,11.678 0.483,5.727 0.372,12.496 -4.314,16.587 -6.285,5.095 -17.256,4.686 -22.165,-2.194 -3.012,-4.612 -2.826,-10.45 -2.194,-15.694 0.745,-5.096 4.612,-9.596 9.707,-10.675 z m 1.674,5.467 c -4.983,2.045 -4.574,8.368 -4.388,12.83 -0.186,3.905 2.566,8.442 6.917,8.145 3.682,0.446 6.992,-2.64 7.326,-6.211 0.297,-3.682 0.707,-7.624 -0.595,-11.194 -1.339,-3.57 -5.876,-4.834 -9.26,-3.57 z"
   id="path562"
   style="fill:#ffffff;fill-opacity:1" />
			</g>
			<path
   d="m 338.328,231.377 c 5.095,-6.211 17.479,-5.021 19.041,3.682 0.707,7.996 0,16.066 0.335,24.099 -2.455,0 -4.909,0 -7.364,-0.037 0.037,-6.806 0.037,-13.574 0.037,-20.38 0,-1.934 -0.409,-4.388 -2.417,-5.244 -3.347,-1.562 -6.992,0.669 -9.037,3.31 0.186,7.438 0,14.876 0.112,22.314 -2.492,0.037 -4.946,0 -7.438,-0.074 0.186,-10.264 0.037,-20.566 0.074,-30.83 2.603,0.333 7.586,-1.378 6.657,3.16 z"
   id="path566"
   style="fill:#ffffff;fill-opacity:1" />
			<path
   d="m 220.808,228.29 c 2.455,0 4.909,0 7.364,0.037 -0.112,7.252 -0.074,14.504 -0.037,21.756 -0.335,2.343 1.636,4.574 4.016,4.426 2.901,0.112 5.318,-1.748 7.178,-3.793 0.037,-7.475 -0.037,-14.95 0.037,-22.425 2.417,-0.037 4.835,-0.037 7.252,-0.037 0,10.302 -0.074,20.603 0.037,30.905 -2.083,0.037 -4.202,0.037 -6.285,-0.037 -0.074,-0.818 -0.26,-2.417 -0.335,-3.236 -3.496,3.645 -9.149,5.318 -13.909,3.124 -3.161,-1.302 -5.207,-4.612 -5.207,-7.996 -0.297,-7.551 -0.111,-15.137 -0.111,-22.724 z"
   id="path568"
   style="fill:#ffffff;fill-opacity:1" />
			<path
   d="m 279.53,228.318 c 3.979,-0.26 7.996,-0.112 11.975,-0.074 -0.037,10.302 0,20.603 -0.037,30.905 -2.454,0 -4.872,0 -7.326,-0.037 0.186,-8.479 0.037,-16.959 0.112,-25.475 -1.562,0 -3.124,0.037 -4.686,0.037 0,-1.785 0,-3.571 -0.038,-5.356 z"
   id="path570"
   style="fill:#ffffff;fill-opacity:1" />
		</g>
	</g>
</g>
</svg>
