<?xml version="1.0" encoding="UTF-8" standalone="no"?>
<!-- Generator: Adobe Illustrator 27.0.0, SVG Export Plug-In . SVG Version: 6.00 Build 0)  -->

<svg
   version="1.1"
   id="Layer_1"
   x="0px"
   y="0px"
   viewBox="0 0 455.73499 145.52299"
   xml:space="preserve"
   sodipodi:docname="inventor.svg"
   inkscape:version="1.2.2 (732a01da63, 2022-12-09)"
   width="455.73499"
   height="145.52299"
   xmlns:inkscape="http://www.inkscape.org/namespaces/inkscape"
   xmlns:sodipodi="http://sodipodi.sourceforge.net/DTD/sodipodi-0.dtd"
   xmlns="http://www.w3.org/2000/svg"
   xmlns:svg="http://www.w3.org/2000/svg"><defs
   id="defs311" /><sodipodi:namedview
   id="namedview309"
   pagecolor="#ffffff"
   bordercolor="#000000"
   borderopacity="0.25"
   inkscape:showpageshadow="2"
   inkscape:pageopacity="0.0"
   inkscape:pagecheckerboard="0"
   inkscape:deskcolor="#d1d1d1"
   showgrid="false"
   inkscape:zoom="0.472"
   inkscape:cx="243.64407"
   inkscape:cy="251.05932"
   inkscape:window-width="1920"
   inkscape:window-height="1130"
   inkscape:window-x="761"
   inkscape:window-y="-6"
   inkscape:window-maximized="1"
   inkscape:current-layer="Layer_1" />

<g
   id="g294">
</g>
<g
   id="g306"
   transform="matrix(0.99978062,0,0,0.99999825,-22.078155,-177.23856)">
	<path
   style="fill:#705a01"
   d="m 47.785,177.24 121.329,26.836 h 12.473 V 322.76 H 44.762 c -4.696,0.104 -8.587,-3.618 -8.691,-8.313 -0.002,-0.064 -0.002,-0.128 -0.002,-0.191 v -11.717 z"
   id="path296" />
	<path
   style="fill:#dbae03"
   d="M 169.87,296.302 H 47.785 V 177.241 h 113.391 c 4.695,-0.104 8.587,3.618 8.691,8.313 0.001,0.064 0.002,0.128 0.002,0.191 v 110.557 z"
   id="path298" />
	<polygon
   style="fill:#eacd5d"
   points="22.083,192.737 22.083,311.798 47.974,296.302 47.974,177.241 "
   id="polygon300" />
	<polygon
   style="fill:#ffffff"
   points="125.647,269.843 92.197,269.843 92.197,257.937 100.701,257.937 100.701,215.605 92.008,215.605 92.008,203.887 125.458,203.887 125.458,215.605 117.143,215.605 117.143,257.937 125.647,257.937 "
   id="polygon302" />
	<path
   d="m 232.235,219.573 v 34.395 h 6.048 v 6.615 h -20.788 v -6.615 h 6.237 v -34.395 h -6.237 v -6.614 h 20.788 v 6.614 z m 43.845,16.064 v 24.757 h -8.505 v -24.19 c 0,-4.536 -2.079,-6.426 -5.669,-6.426 -3.114,0.172 -5.943,1.869 -7.56,4.536 v 26.269 h -8.693 v -36.096 h 7.371 l 0.567,3.78 c 2.613,-3.118 6.517,-4.861 10.583,-4.725 6.803,0 11.906,4.158 11.906,12.095 m 26.08,24.757 H 291.766 L 279.86,224.487 h 8.882 l 8.315,29.293 8.505,-29.293 h 8.504 z m 45.357,-15.497 H 324.46 c 0,6.993 3.402,10.016 9.638,10.016 3.428,-0.115 6.76,-1.16 9.639,-3.024 l 3.024,5.102 c -3.845,2.801 -8.473,4.321 -13.229,4.347 -10.961,0 -17.198,-7.37 -17.198,-17.008 v -3.78 c 0,-9.827 6.048,-17.198 16.064,-17.198 10.016,0 15.686,6.048 15.686,17.576 0.014,1.325 -0.049,2.65 -0.189,3.969 z m -7.182,-5.669 c 0,-6.425 -2.835,-9.827 -7.937,-9.827 -5.292,0 -7.938,3.402 -8.127,10.016 h 16.064 z m 44.412,-3.78 v 24.946 h -8.315 v -24.19 c 0,-4.536 -2.268,-6.426 -5.67,-6.426 -3.25,0.046 -6.247,1.759 -7.937,4.536 v 26.269 h -8.127 v -36.096 h 7.182 l 0.567,3.78 c 2.655,-3.173 6.64,-4.92 10.772,-4.725 6.614,0 11.717,4.158 11.717,12.095 z m 27.97,24.946 c -2.091,0.598 -4.251,0.916 -6.426,0.945 -6.992,0 -10.961,-3.023 -10.961,-9.827 v -20.788 h -5.481 v -6.237 h 5.67 l 0.756,-9.071 h 7.559 v 9.071 h 7.749 v 6.237 h -7.749 v 20.221 c 0,2.646 1.323,3.78 4.347,3.78 1.2,0.051 2.402,-0.012 3.591,-0.189 z m 36.852,-20.032 v 3.78 c 0,10.016 -6.048,17.008 -17.198,17.008 -11.15,0 -17.009,-6.992 -17.009,-17.008 v -3.78 c 0,-9.827 5.859,-17.009 17.009,-17.009 11.15,0 17.009,7.182 17.009,17.009 z m -25.702,0 v 3.78 c 0,6.992 2.835,10.772 8.505,10.772 5.669,0 8.693,-3.78 8.693,-10.772 v -3.78 c 0,-6.993 -3.024,-10.772 -8.693,-10.772 -5.67,0 -8.505,3.78 -8.505,10.583 z m 54.05,-16.253 -1.512,7.749 c -0.691,-0.064 -1.387,-0.064 -2.079,0 -4.158,0 -7.559,1.512 -9.449,6.992 v 21.544 h -8.504 v -35.907 h 6.048 l 1.323,5.67 c 1.576,-4.038 5.493,-6.675 9.827,-6.615 1.481,0.007 2.95,0.263 4.347,0.756 v -0.189 z"
   id="path304" />
</g>
</svg>
