<?xml version="1.0" encoding="UTF-8" standalone="no"?>
<svg
   height="573.33301"
   width="573.33301"
   viewBox="-287.9925 -446.5 1192.5016 1919.9489"
   version="1.1"
   id="svg1152"
   sodipodi:docname="powerpoint.svg"
   inkscape:version="1.2.2 (732a01da63, 2022-12-09)"
   xmlns:inkscape="http://www.inkscape.org/namespaces/inkscape"
   xmlns:sodipodi="http://sodipodi.sourceforge.net/DTD/sodipodi-0.dtd"
   xmlns="http://www.w3.org/2000/svg"
   xmlns:svg="http://www.w3.org/2000/svg">
  <defs
     id="defs1156" />
  <sodipodi:namedview
     id="namedview1154"
     pagecolor="#ffffff"
     bordercolor="#000000"
     borderopacity="0.25"
     inkscape:showpageshadow="2"
     inkscape:pageopacity="0.0"
     inkscape:pagecheckerboard="0"
     inkscape:deskcolor="#d1d1d1"
     showgrid="false"
     inkscape:zoom="0.417193"
     inkscape:cx="409.88224"
     inkscape:cy="880.88726"
     inkscape:window-width="1920"
     inkscape:window-height="1130"
     inkscape:window-x="761"
     inkscape:window-y="-6"
     inkscape:window-maximized="1"
     inkscape:current-layer="svg1152" />
  <path
     d="m 509.18385,535.8 -133.95,-982.3 h -10.002 c -487.076,1.422 -881.576,395.922 -882.998,882.998 V 446.5 Z"
     fill="#ed6c47"
     id="path1127" />
  <path
     d="m 385.23585,-446.5 h -10.002 v 893 l 446.5,178.6 446.50005,-178.6 V 436.498 C 1266.8119,-50.578 872.31185,-445.078 385.23585,-446.5 Z"
     fill="#ff8f6b"
     id="path1129" />
  <path
     d="m 1268.2339,446.5 v 9.823 c -1.398,487.185 -395.99205,881.779 -883.17705,883.177 h -19.646 c -487.185,-1.398 -881.779,-395.992 -883.177,-883.177 V 446.5 Z"
     fill="#d35230"
     id="path1131" />
  <path
     d="M 419.88385,-7.591 V 945.24 c -0.222,33.109 -20.286,62.852 -50.901,75.458 a 79.127,79.127 0 0 1 -30.809,6.251 h -645.192 c -12.502,-14.288 -24.557,-29.469 -35.72,-44.65 a 875.768,875.768 0 0 1 -175.028,-525.977 v -19.646 a 873.128,873.128 0 0 1 143.773,-481.327 c 9.823,-15.181 20.092,-30.362 31.255,-44.65 h 680.912 c 44.986,0.341 81.37,36.725 81.71,81.71 z"
     opacity="0.1"
     id="path1133" />
  <path
     d="m 375.23385,37.06 v 952.831 a 79.086,79.086 0 0 1 -6.251,30.808 c -12.606,30.615 -42.35,50.679 -75.459,50.901 h -559.911 a 763.717,763.717 0 0 1 -40.632,-44.65 c -12.502,-14.288 -24.557,-29.469 -35.72,-44.65 a 875.77,875.77 0 0 1 -175.028,-525.977 v -19.646 a 873.128,873.128 0 0 1 143.773,-481.327 h 667.518 c 44.986,0.34 81.37,36.724 81.71,81.71 z"
     opacity="0.2"
     id="path1135" />
  <path
     d="m 375.23385,37.06 v 863.531 c -0.34,44.985 -36.724,81.369 -81.709,81.71 h -636.263 a 875.77,875.77 0 0 1 -175.028,-525.977 v -19.646 a 873.128,873.128 0 0 1 143.773,-481.327 h 667.517 c 44.986,0.339 81.37,36.723 81.71,81.709 z"
     opacity="0.2"
     id="path1137" />
  <path
     d="m 330.58385,37.06 v 863.531 c -0.34,44.985 -36.724,81.369 -81.709,81.71 h -591.613 a 875.77,875.77 0 0 1 -175.028,-525.977 v -19.646 a 873.128,873.128 0 0 1 143.773,-481.327 h 622.867 c 44.986,0.339 81.37,36.723 81.71,81.709 z"
     opacity="0.2"
     id="path1139" />
  <linearGradient
     gradientTransform="matrix(1,0,0,-1,-651.71615,1341.5)"
     y2="339.89899"
     x2="811.65503"
     y1="1450.101"
     x1="170.645"
     gradientUnits="userSpaceOnUse"
     id="a">
    <stop
       offset="0"
       stop-color="#ca4c28"
       id="stop1141" />
    <stop
       offset=".5"
       stop-color="#c5401e"
       id="stop1143" />
    <stop
       offset="1"
       stop-color="#b62f14"
       id="stop1145" />
  </linearGradient>
  <path
     d="m -569.87315,-44.65 h 818.613 c 45.201,0 81.843,36.643 81.843,81.843 v 818.613 c 0,45.201 -36.643,81.844 -81.843,81.844 h -818.613 c -45.2,0 -81.843,-36.643 -81.843,-81.843 V 37.193 c 0,-45.2 36.643,-81.843 81.843,-81.843 z"
     fill="url(#a)"
     id="path1148"
     style="fill:url(#a)" />
  <path
     d="m -151.63615,173.644 a 224.99,224.99 0 0 1 149.042,43.668 156.272,156.272 0 0 1 51.883,126.493 176.015,176.015 0 0 1 -25.584,94.524 170.963,170.963 0 0 1 -72.646,64.207 246.66,246.66 0 0 1 -109.259,22.95 h -103.543 v 192.441 h -106.044 V 173.644 Z m -110.196,268.704 h 91.265 a 118.501,118.501 0 0 0 80.683,-24.066 89.3,89.3 0 0 0 27.281,-70.413 c 0,-59.98 -34.857,-89.97 -104.57,-89.97 h -94.658 v 184.449 z"
     fill="#ffffff"
     id="path1150" />
</svg>
