<?xml version="1.0" encoding="UTF-8" standalone="no"?>
<!-- Generator: Adobe Illustrator 19.0.0, SVG Export Plug-In . SVG Version: 6.00 Build 0)  -->

<svg
   version="1.1"
   id="layer"
   x="0px"
   y="0px"
   viewBox="-153 -46 586.40002 127.5"
   xml:space="preserve"
   sodipodi:docname="testout.svg"
   width="586.40002"
   height="127.5"
   inkscape:version="1.2.2 (732a01da63, 2022-12-09)"
   xmlns:inkscape="http://www.inkscape.org/namespaces/inkscape"
   xmlns:sodipodi="http://sodipodi.sourceforge.net/DTD/sodipodi-0.dtd"
   xmlns="http://www.w3.org/2000/svg"
   xmlns:svg="http://www.w3.org/2000/svg"><defs
   id="defs191" /><sodipodi:namedview
   id="namedview189"
   pagecolor="#ffffff"
   bordercolor="#000000"
   borderopacity="0.25"
   inkscape:showpageshadow="2"
   inkscape:pageopacity="0.0"
   inkscape:pagecheckerboard="0"
   inkscape:deskcolor="#d1d1d1"
   showgrid="false"
   inkscape:zoom="1.7219448"
   inkscape:cx="289.20787"
   inkscape:cy="191.93414"
   inkscape:window-width="1920"
   inkscape:window-height="1130"
   inkscape:window-x="761"
   inkscape:window-y="-6"
   inkscape:window-maximized="1"
   inkscape:current-layer="layer" />
<style
   type="text/css"
   id="style185">
	.st0{fill:#FAAF40;}
</style>
<path
   id="XMLID_1_"
   class="st0"
   d="m -45.9,41.2 c -0.3,2 -0.5,3.9 -0.5,5.5 0,9.2 5.6,12.1 15.9,12.1 12,0 18.6,-3.8 23.6,-9.2 l 7,16.6 c -7.2,9.4 -19.3,15.2 -38.6,15.2 -25.1,0 -35.7,-12.5 -35.7,-30.7 0,-3.2 0.2,-6.5 0.9,-9.9 l 2.4,-13.3 c 5,-27.8 17.8,-41.3 47.3,-41.3 24.9,0 33,8.9 33,26.1 0,4.8 -0.7,10.4 -1.7,16.6 L 5.3,41.2 Z m 28.3,-17.9 c 0.7,-3.2 1,-6.3 1,-8.9 0,-5.5 -2.2,-8.9 -10.2,-8.9 -11.8,0 -14.5,8.9 -16.1,17.8 z m 61.5,58 C 68,81.3 84.7,74.6 88,56.2 90,44.9 90.2,43 90.2,41.5 90.2,31.4 83.9,27.3 73.1,24.8 48.9,19.2 43,21.6 43,15.1 43,5.9 48.6,5.2 59.1,5.2 c 3.9,0 7.3,0.3 10.6,1 v 10.6 h 20.7 l 4.1,-23.2 c -6.3,-5.1 -16.4,-7.5 -33,-7.5 -21.3,0 -39.6,5.6 -43.2,25.1 -1.7,9.4 -2,11.9 -2,14 0,11.4 8.4,13.2 18.1,15.2 17.9,3.7 28.2,2.7 28.2,8.9 0,9.6 -4.1,11.4 -16.7,11.4 C 41.5,60.7 37,59.8 33.4,58 V 48.9 H 12.5 l -4.1,23 c 6.8,5.2 18.1,9.4 35.5,9.4 M 261.4,29.7 c -6.3,35.7 -24.6,51.6 -57.2,51.6 -27.2,0 -40.3,-10.9 -40.3,-35.3 0,-4.8 0.5,-10.2 1.5,-16.2 l 4.3,-24.2 c 6.3,-35.7 24.3,-51.6 57,-51.6 27.3,0 40.5,11.1 40.5,35.7 0,4.8 -0.5,10.1 -1.5,15.9 z M 234.3,5.5 c 1.2,-6.7 1.7,-11.8 1.7,-15.9 0,-10.9 -4.4,-13.1 -13.1,-13.1 -12,0 -17.8,6.5 -21.7,29 l -4.3,24.2 c -1.2,6.7 -1.9,12 -1.9,15.9 0,11.1 4.6,13.2 13.3,13.2 11.9,0 17.8,-6.8 21.7,-29 z m 91.9,44.6 c -0.9,4.8 -4.3,8.4 -14.7,8.4 -8.7,0 -12,-1 -12,-5.6 0,-0.9 0.2,-1.7 0.3,-2.7 L 307,9.4 314.4,7 l 3.2,-18.4 h -41.8 l -3.2,18.4 6,2.4 -7.3,41.3 c -0.5,2.7 -0.7,5.3 -0.7,7.7 0,16.4 11.8,23.1 35.5,23.1 27.2,0 40.6,-8.9 44.6,-30.7 l 7.4,-41.3 6.7,-2.4 3.2,-18.4 h -37.9 l -3.2,18.4 6.7,2.4 z M -147,-43 l -6,33.6 h 20.7 l 3,-10.6 h 10.3 l -13.7,77.4 -9.1,2.4 -3.2,18.4 h 48.7 l 3.2,-18.4 -8.4,-2.4 13.7,-77.4 h 10.4 l -0.8,10.6 h 20.6 l 6,-33.6 z m 298.1,99.1 c -3.2,2.1 -6.3,2.9 -9.8,2.9 -6.8,0 -9.2,-2.6 -9.2,-7.5 0,-1.4 0.2,-2.9 0.5,-4.6 l 7,-39.6 h 20 l 3.2,-18.8 h -20 l 4.4,-24.8 -28.7,5 -3.6,19.8 h -9.7 L 102,7.3 h 9.7 l -7,39.3 c -0.7,4.3 -1.2,8 -1.2,11.6 0,14.5 6.7,23.2 23.9,23.2 8.4,0 14.3,-2.1 20.4,-6.6 z m 259,-48.9 h 20 l 3.3,-18.8 h -20 l 4.4,-24.8 -28.7,5 -3.5,19.8 h -0.1 -9.7 l -3.3,18.8 h 9.7 l -7,39.3 c -0.7,4.3 -1.2,8 -1.2,11.6 0,14.5 6.7,23.2 23.9,23.2 8.4,0 14.3,-2.1 20.4,-6.6 L 421.6,56 c 0,0 -18.8,8.7 -19.1,-4.6 0,-1.4 0.2,-2.9 0.5,-4.6 z"
   sodipodi:nodetypes="cssccssccsscccsssccsccscssccccscscssccccccssccsscccssccsscccssccccccccsscccccccccccccccccccccccccccssccccccccccccssccccccccccccccssccccc" />
</svg>
