<?xml version="1.0" encoding="UTF-8" standalone="no"?>
<!-- Generator: Adobe Illustrator 19.2.1, SVG Export Plug-In . SVG Version: 6.00 Build 0)  -->

<svg
   version="1.1"
   id="layer"
   x="0px"
   y="0px"
   viewBox="0 0 600.09998 148.60001"
   xml:space="preserve"
   sodipodi:docname="github.svg"
   inkscape:version="1.2.2 (732a01da63, 2022-12-09)"
   width="600.09998"
   height="148.60001"
   xmlns:inkscape="http://www.inkscape.org/namespaces/inkscape"
   xmlns:sodipodi="http://sodipodi.sourceforge.net/DTD/sodipodi-0.dtd"
   xmlns="http://www.w3.org/2000/svg"
   xmlns:svg="http://www.w3.org/2000/svg"><defs
   id="defs11" /><sodipodi:namedview
   id="namedview9"
   pagecolor="#ffffff"
   bordercolor="#000000"
   borderopacity="0.25"
   inkscape:showpageshadow="2"
   inkscape:pageopacity="0.0"
   inkscape:pagecheckerboard="0"
   inkscape:deskcolor="#d1d1d1"
   showgrid="false"
   inkscape:zoom="1.0237865"
   inkscape:cx="540.15168"
   inkscape:cy="39.559029"
   inkscape:window-width="1920"
   inkscape:window-height="1130"
   inkscape:window-x="761"
   inkscape:window-y="-6"
   inkscape:window-maximized="1"
   inkscape:current-layer="layer" />
<style
   type="text/css"
   id="style2">
	.st0{fill:#24292E;}
	.st1{fill-rule:evenodd;clip-rule:evenodd;fill:#24292E;}
</style>
<path
   class="st0"
   d="m 367.9,114.5 h -0.2 c 0.1,0 0.1,0.1 0.2,0.1 h 0.1 z m 0,0.1 c -0.8,0 -2.9,0.4 -5.1,0.4 -6.9,0 -9.3,-3.2 -9.3,-7.4 V 79.8 h 14.1 c 0.8,0 1.4,-0.7 1.4,-1.7 V 63 c 0,-0.8 -0.7,-1.5 -1.4,-1.5 H 353.5 V 42.7 c 0,-0.7 -0.5,-1.1 -1.3,-1.1 H 333 c -0.8,0 -1.2,0.5 -1.2,1.1 V 62 c 0,0 -9.7,2.4 -10.3,2.5 -0.7,0.2 -1.1,0.8 -1.1,1.5 v 12.1 c 0,1 0.7,1.7 1.5,1.7 h 9.8 V 109 c 0,21.7 15.1,23.9 25.4,23.9 4.7,0 10.4,-1.5 11.3,-2 0.5,-0.2 0.8,-0.8 0.8,-1.4 v -13.3 c 0,-0.8 -0.5,-1.4 -1.3,-1.6 z M 578.5,95.1 c 0,-16.1 -6.5,-18.2 -13.3,-17.5 -5.3,0.3 -9.6,3 -9.6,3 v 31.3 c 0,0 4.3,3 10.8,3.2 9.1,0.2 12.1,-3.1 12.1,-20 z m 21.6,-1.4 c 0,30.5 -9.9,39.2 -27.1,39.2 -14.6,0 -22.4,-7.4 -22.4,-7.4 0,0 -0.3,4.1 -0.8,4.6 -0.3,0.5 -0.7,0.7 -1.3,0.7 h -13.1 c -0.9,0 -1.7,-0.7 -1.7,-1.5 l 0.2,-98.7 c 0,-0.8 0.7,-1.5 1.5,-1.5 h 18.9 c 0.8,0 1.5,0.7 1.5,1.5 v 33.5 c 0,0 7.3,-4.7 18,-4.7 l -0.1,-0.2 c 10.6,0 26.4,4 26.4,34.5 z M 522.6,61.6 h -18.7 c -1,0 -1.5,0.7 -1.5,1.7 v 48.3 c 0,0 -4.9,3.4 -11.6,3.4 -6.6,0 -8.6,-3 -8.6,-9.7 V 63.1 c 0,-0.8 -0.7,-1.5 -1.5,-1.5 h -19 c -0.8,0 -1.5,0.7 -1.5,1.5 v 45.5 c 0,19.5 10.9,24.4 25.9,24.4 12.4,0 22.4,-6.8 22.4,-6.8 0,0 0.5,3.5 0.7,4 0.2,0.4 0.8,0.8 1.4,0.8 h 11.9 c 1,0 1.5,-0.7 1.5,-1.5 l 0.2,-66.4 c 0.1,-0.8 -0.7,-1.5 -1.6,-1.5 z M 312,61.5 h -18.9 c -0.8,0 -1.5,0.8 -1.5,1.8 v 65.2 c 0,1.8 1.2,2.4 2.7,2.4 h 17.1 c 1.8,0 2.2,-0.8 2.2,-2.4 V 63 c -0.1,-0.8 -0.8,-1.5 -1.6,-1.5 z m -9.4,-30.1 c -6.8,0 -12.3,5.4 -12.3,12.3 0,6.8 5.4,12.3 12.3,12.3 6.7,0 12.1,-5.4 12.1,-12.3 0,-6.8 -5.4,-12.3 -12.1,-12.3 z m 146.6,-2.2 h -18.8 c -0.8,0 -1.5,0.7 -1.5,1.5 V 67 H 399.5 V 30.7 c 0,-0.8 -0.7,-1.5 -1.5,-1.5 h -18.9 c -0.8,0 -1.5,0.7 -1.5,1.5 v 98.7 c 0,0.8 0.8,1.5 1.5,1.5 H 398 c 0.8,0 1.5,-0.7 1.5,-1.5 V 87.2 h 29.4 l -0.2,42.2 c 0,0.8 0.7,1.5 1.5,1.5 h 18.9 c 0.8,0 1.5,-0.7 1.5,-1.5 V 30.7 c 0.1,-0.8 -0.6,-1.5 -1.4,-1.5 z M 281.5,72.9 v 51 c 0,0.3 -0.1,1 -0.5,1.1 0,0 -11.1,7.9 -29.4,7.9 -22.1,0 -48.4,-6.9 -48.4,-52.6 0,-45.7 22.9,-55.1 45.3,-55 19.4,0 27.2,4.4 28.4,5.2 0.3,0.5 0.5,0.8 0.5,1.2 l -3.6,15.9 c 0,0.8 -0.8,1.8 -1.8,1.5 -3.2,-1 -8,-2.9 -19.3,-2.9 -13.1,0 -27.1,3.7 -27.1,33.2 0,29.4 13.3,32.9 22.9,32.9 8.2,0 11.1,-1 11.1,-1 V 90.9 h -13.1 c -1,0 -1.7,-0.7 -1.7,-1.5 V 73 c 0,-0.8 0.7,-1.5 1.7,-1.5 h 33.3 c 1,-0.1 1.7,0.6 1.7,1.4 z m 0,0"
   id="path4"
   style="fill:#1c1347;fill-opacity:1" />
<path
   class="st1"
   d="M 76.2,0 C 34.1,0 0,34.1 0,76.2 c 0,33.7 21.8,62.2 52.1,72.3 3.8,0.6 5.3,-1.6 5.3,-3.6 0,-1.8 -0.1,-7.8 -0.1,-14.2 -19.1,3.5 -24.1,-4.7 -25.6,-8.9 -0.9,-2.2 -4.6,-9 -7.8,-10.8 -2.7,-1.4 -6.5,-5 -0.1,-5.1 6,-0.1 10.3,5.5 11.7,7.8 6.9,11.5 17.8,8.3 22.2,6.3 0.7,-4.9 2.7,-8.3 4.9,-10.2 -16.9,-1.9 -34.7,-8.5 -34.7,-37.6 0,-8.3 3,-15.2 7.8,-20.5 -0.8,-1.9 -3.4,-9.7 0.8,-20.2 0,0 6.4,-2 21,7.8 6.1,-1.7 12.6,-2.6 19,-2.6 6.5,0 12.9,0.9 19,2.6 14.6,-9.9 20.9,-7.8 20.9,-7.8 4.2,10.5 1.5,18.3 0.8,20.2 4.9,5.3 7.8,12.1 7.8,20.5 0,29.2 -17.8,35.7 -34.8,37.6 2.8,2.4 5.2,6.9 5.2,14.1 0,10.2 -0.1,18.4 -0.1,20.9 0,2 1.4,4.4 5.2,3.6 31,-10.5 51.9,-39.6 51.9,-72.3 C 152.4,34.1 118.3,0 76.2,0 Z m 0,0"
   id="path6"
   style="fill:#1c1347;fill-opacity:1" />
</svg>
