<?xml version="1.0" encoding="UTF-8" standalone="no"?>
<svg
   width="112.346"
   height="35.694"
   version="1.1"
   id="svg1246"
   sodipodi:docname="instagram.svg"
   inkscape:version="1.2.2 (732a01da63, 2022-12-09)"
   xmlns:inkscape="http://www.inkscape.org/namespaces/inkscape"
   xmlns:sodipodi="http://sodipodi.sourceforge.net/DTD/sodipodi-0.dtd"
   xmlns:xlink="http://www.w3.org/1999/xlink"
   xmlns="http://www.w3.org/2000/svg"
   xmlns:svg="http://www.w3.org/2000/svg">
  <sodipodi:namedview
     id="namedview1248"
     pagecolor="#ffffff"
     bordercolor="#000000"
     borderopacity="0.25"
     inkscape:showpageshadow="2"
     inkscape:pageopacity="0.0"
     inkscape:pagecheckerboard="0"
     inkscape:deskcolor="#d1d1d1"
     showgrid="false"
     inkscape:zoom="3.9333333"
     inkscape:cx="54.152543"
     inkscape:cy="30.381356"
     inkscape:window-width="1920"
     inkscape:window-height="1130"
     inkscape:window-x="761"
     inkscape:window-y="-6"
     inkscape:window-maximized="1"
     inkscape:current-layer="svg1246" />
  <defs
     id="defs1234">
    <radialGradient
       xlink:href="#B"
       id="A"
       cx="673.84497"
       cy="1118.777"
       fx="673.84497"
       fy="1118.777"
       r="646.02502"
       gradientTransform="matrix(1.0070894,-0.16908936,0.10282533,0.61126605,-712.34381,-507.71826)" />
    <linearGradient
       id="B"
       gradientUnits="userSpaceOnUse">
      <stop
         offset="0"
         stop-color="#fed576"
         id="stop1224" />
      <stop
         offset=".263"
         stop-color="#f47133"
         id="stop1226" />
      <stop
         offset=".609"
         stop-color="#bc3081"
         id="stop1228" />
      <stop
         offset="1"
         stop-color="#4c63d2"
         id="stop1230" />
    </linearGradient>
    <radialGradient
       xlink:href="#B"
       id="C"
       gradientTransform="matrix(1.0070894,-0.16908936,0.10282533,0.61126605,-712.34381,-507.71826)"
       cx="673.84497"
       cy="1118.777"
       fx="673.84497"
       fy="1118.777"
       r="646.02502" />
  </defs>
  <path
     d="m 40.199085,12.177277 c 1.4,-1.374 2.268,-1.416 2.268,-1.416 a 2.28,2.28 0 0 1 0.936,0.192 c 0.663,0.23 0.7,0.592 0.7,0.592 v 10.07 c 0.086,2.816 -0.616,3.897 -1.454,4.65 a 1.777,1.777 0 0 1 -0.909,0.438 0.181,0.181 0 0 1 -0.225,-0.172 2.04,2.04 0 0 1 0.124,-0.569 c 0.423,-1.087 0.388,-2.955 0.388,-2.955 l 0.04,-10.84 c 0,0 0.033,-0.2 -0.136,-0.118 -1.652,1.42 -1.86,3.426 -1.913,4.398 -0.027,1.457 0.592,2.21 0.592,2.21 a 0.447,0.447 0 0 1 0.142,0.349 0.237,0.237 0 0 1 -0.258,0.258 c -0.622,-0.06 -1.614,-0.76 -1.966,-1.61 a 3.358,3.358 0 0 1 -0.296,-1.303 6.859,6.859 0 0 1 1.975,-4.173 z m 72.139995,9.613 c 0,3.234 -1.96,3.183 -1.96,3.183 -1.866,0.065 -2.342,-1.904 -2.458,-3.906 -0.09,-1.507 0,-3.183 0,-3.183 0,0 0,-0.077 -0.065,0 -0.625,1.13 -1.048,2.85 -1.256,4.178 a 14.656,14.656 0 0 0 -0.166,1.777 0.296,0.296 0 0 1 -0.127,0.296 c -1.013,0.465 -1.664,-0.195 -1.895,-0.933 -0.296,-0.7 -0.486,-4.904 -0.486,-5.123 0,-0.219 -0.175,-0.068 -0.175,-0.068 -1.404,2.33 -1.416,5.784 -1.416,6.477 0,0.693 -1.185,0.48 -1.185,0.48 -1.013,-0.077 -0.974,-0.57 -0.974,-0.57 l -0.047,-0.835 c -0.351995,0.65 -1.003995,1.48 -2.009995,1.424 -1.522,-0.098 -1.815,-1.673 -1.84,-1.94 0,0 -0.758,1.96 -2.84,1.94 -1.416,-0.024 -1.984,-1.48 -1.984,-1.48 0,0 -0.57,1.53 -1.96,1.48 -1.39,-0.05 -2.54,-1.66 -2.452,-3.746 a 13.655,13.655 0 0 1 0.421,-3.13 c 0,0 0.113,-0.2 -0.077,-0.222 -0.19,-0.022 -1.392,0.02 -1.392,0.02 0,0 -0.68,2.727 -3.554,6.118 l 0.02,2.24 c 0,2.23 -0.278,5.22 -3.3,5.464 -2.612,-0.178 -2.464,-2.19 -2.464,-2.19 -0.062,-0.592 0.31,-1.682 1.87,-3.145 l 2.18,-2.026 -0.062,-0.936 c -0.998,1.65 -2.523,1.558 -2.523,1.558 0,0 -1.185,0.24 -2.17,-1.513 -0.296,0.592 -0.954,1.626 -2.037,1.507 -1.522,-0.17 -1.824,-1.685 -1.848,-1.955 0,0 -0.76,1.978 -2.855,1.955 -1.42,-0.024 -1.993,-1.495 -1.993,-1.495 a 4.715,4.715 0 0 1 -0.358,-1.019 l -0.062,0.184 c -0.323,0.826 -1.12,2.262 -2.345,2.28 -2.25,0 -2.345,-3.488 -2.345,-3.488 -0.657,1.56 -1.928,3.53 -4.297,3.518 -2.369,-0.012 -2.665,-0.868 -2.665,-0.992 a 0.871,0.871 0 0 1 0.231,-0.652 c 0.272,-0.394 0.5,-0.557 0.7,-0.557 a 1.294,1.294 0 0 1 0.53,0.296 1.842,1.842 0 0 0 1.099,0.503 c 0.746,-0.027 0.91,-0.625 0.962,-1.235 0.052,-0.61 -0.38,-1.262 -0.977,-1.806 l -1.054,-0.962 -1.978,3.258 c -1.152,1.875 -2.295,2.165 -2.736,2.106 -0.6,-0.083 -1.185,-0.705 -1.22,-2.526 l 0.136,-5.09 c 0,-0.163 -0.148,-0.083 -0.148,-0.083 -2.277,2.416 -2.96,7.386 -2.96,7.483 a 0.406,0.406 0 0 1 -0.406,0.204 c -0.204,0 0.068,0 -0.746,-0.04 -0.814,-0.04 -0.758,-1.567 -0.758,-1.567 l 0.053,-7.403 c 0,-0.246 0.243,-0.352 1.016,-0.148 0.773,0.204 0.746,0.444 0.746,0.444 l -0.027,4.3 c 1.993,-5.878 3.497,-4.957 4.407,-4.507 0.91,0.45 0.773,1.096 0.773,1.096 l -0.136,4.37 c -0.04,1.14 0.12,1.587 0.38,1.63 0.646,0.154 2.914,-4.223 2.914,-4.223 -1.004,-1.087 -0.456,-2.414 0.326,-2.988 a 2.508,2.508 0 0 1 1.185,-0.435 c 0,0 1.016,-0.053 0.99,0.803 0.027,0.936 -1.016,2.073 -1.016,2.073 2.02,1.44 2.96,2.2 3.118,3.314 a 2.032,2.032 0 0 1 -0.059,0.88 c 1.436,-1.25 1.546,-2.647 1.546,-2.647 l 0.024,-4.673 -2.13,-0.027 c 0,0 -0.163,0 -0.2,-0.41 a 1.359,1.359 0 0 1 0.394,-1.06 l 2.032,0.027 0.08,-2.443 c 0.068,-0.49 0.38,-0.557 1.273,-0.326 0.893,0.231 0.888,0.435 0.888,0.435 l -0.1,2.458 2.535,0.136 c 0.3,0.027 0.394,0.1 0.326,0.6 a 0.743,0.743 0 0 1 -0.367,0.625 l -2.52,0.053 -0.175,5.42 c 0,0.84 0.04,2.825 0.826,2.8 1.1,0.053 1.747,-2.405 1.747,-2.405 v -0.02 a 9.924,9.924 0 0 1 0.05,-1.359 c 0.207,-1.975 1.1,-4.288 3.11,-4.288 a 2.159,2.159 0 0 1 1.88,1.185 l 0.033,-0.444 c 0,0 -0.044,-0.536 0.805,-0.403 0.849,0.133 1.14,0.468 1.12,0.737 l -0.068,5.473 c 0.113,1.185 0.317,1.878 0.918,1.83 0.518,-0.077 0.888,-0.785 1.108,-1.386 -0.752,-6.254 2.665,-7.013 2.665,-7.013 0,0 1.516,-0.1 2.206,1.152 l 0.02,-0.42 c 0,0 -0.068,-0.554 0.734,-0.4 a 3.554,3.554 0 0 1 0.69,0.178 c 0.355,0.133 0.468,0.222 0.468,0.554 l -0.068,6.177 c 0,0 1.777,-2.393 2.23,-4.72 a 1.481,1.481 0 0 1 -0.592,-1.131 c 0.044,-0.666 0.38,-1.463 1.36,-1.463 0.98,0 1.06,0.868 0.915,1.46 0,0 0.823,-0.1 1.537,-0.296 0.714,-0.196 1.67,-0.296 1.738,0.82 a 1.27,1.27 0 0 1 -0.133,0.711 c 0,0 -0.566,2.47 -0.477,3.468 0.089,0.998 0.355,2.505 1.137,2.328 0.782,-0.177 1.048,-1.285 1.048,-1.285 a 9.023,9.023 0 0 1 -0.157,-2.772 c 0.207,-1.96 1.084,-4.255 3.098,-4.255 a 2.15,2.15 0 0 1 1.872,1.185 l 0.024,-0.444 c 0,0 -0.044,-0.533 0.803,-0.4 0.847,0.133 1.137,0.465 1.113,0.73 l -0.068,5.43 c 0.113,1.185 0.314,1.866 0.912,1.818 0.598,-0.048 1.063,-0.992 1.364995,-1.777 v -0.296 l 0.018,-5.766 a 0.388,0.388 0 0 1 0.346,-0.349 l 0.693,0.107 c 0.97,0.145 0.835,0.515 0.835,0.515 v 3.258 c 0.72,-2.212 1.066,-3.056 1.392,-3.62 0.278,-0.48 1.185,-0.166 1.185,-0.166 0,0 0.99,0.264 1,1.185 -0.03,1.504 0.184,3.953 0.184,3.953 0,0 0.038,0.05 0.056,0.033 a 0.098,0.098 0 0 0 0.015,-0.053 20.271,20.271 0 0 1 1.451,-4.839 c 0.358,-0.672 1.395,-0.195 1.395,-0.195 1.244,0.426 1.075,1.164 1.075,1.164 -0.367,6.323 0.415,6.722 0.877,6.764 0.462,0.042 0.705,-0.557 0.805,-0.84 0.1,-0.283 0.23,-0.906 0.296,-1.152 a 0.37,0.37 0 0 1 0.32,-0.258 0.352,0.352 0 0 1 0.296,0.296 z m -41.969995,-4.845 c -0.435,0.018 -1.46,0.296 -1.644,3.15 -0.184,2.854 0.572,3.586 1.208,3.67 0.636,0.084 1.777,-0.94 1.83,-3.97 0.053,-3.03 -1.395,-2.85 -1.395,-2.85 z m 8.93,0 c -0.444,0.018 -1.558,0.406 -1.81,3.163 -0.187,2.884 0.592,3.63 1.226,3.717 0.634,0.087 1.777,-0.95 1.857,-4.022 0.08,-3.072 -1.273,-2.843 -1.273,-2.843 z m 1.48,8.846 c -2.523,2.18 -2.742,3.737 -2.742,3.737 0,0 -0.25,1.276 0.965,1.34 1.46,0.148 1.706,-1.626 1.744,-3.178 l 0.047,-1.883 z m 13.85,-8.745 c -0.435,0.018 -1.46,0.296 -1.644,3.15 -0.184,2.854 0.572,3.586 1.208,3.67 0.636,0.084 1.777,-0.94 1.83,-3.97 0.053,-3.03 -1.395,-2.85 -1.395,-2.85 z"
     fill="#16375f"
     id="path1236"
     style="fill:#1c1347;fill-opacity:1" />
  <g
     transform="matrix(0.114556,0,0,0.114556,-3.6184804,31.16873)"
     id="g1244">
    <path
       d="m 187.796,-195.814 c -2.745,0 -5.46,0.14 -8.135,0.414 -2.675,0.274 -5.313,0.68 -7.906,1.213 -2.593,0.533 -5.14,1.193 -7.636,1.972 l -7.326,2.69 -6.975,3.368 -6.582,4.005 -6.15,4.6 -5.675,5.155 -5.16,5.67 -4.605,6.143 -4.01,6.576 -3.37,6.967 c -1.013,2.383 -1.914,4.826 -2.694,7.32 -0.78,2.494 -1.44,5.04 -1.974,7.63 -0.534,2.59 -0.94,5.225 -1.215,7.898 -0.275,2.673 -0.413,5.385 -0.413,8.127 0,2.742 0.14,5.454 0.413,8.127 a 78.99,78.99 0 0 0 1.215,7.899 c 0.534,2.6 1.194,5.136 1.974,7.63 0.78,2.494 1.68,4.936 2.694,7.32 l 3.37,6.967 4.01,6.575 4.605,6.144 5.16,5.67 5.675,5.155 6.15,4.6 6.582,4.005 6.975,3.368 7.326,2.69 7.636,1.972 a 79.21,79.21 0 0 0 7.906,1.214 80.02,80.02 0 0 0 8.135,0.413 c 2.745,0 5.46,-0.14 8.134,-0.413 a 79.21,79.21 0 0 0 7.906,-1.214 l 7.637,-1.972 7.326,-2.69 6.974,-3.368 6.583,-4.005 6.15,-4.6 5.676,-5.155 5.16,-5.67 4.605,-6.144 4.01,-6.575 3.37,-6.967 2.694,-7.32 c 0.78,-2.494 1.44,-5.04 1.974,-7.63 l 1.215,-7.9 c 0.274,-2.673 0.414,-5.385 0.414,-8.127 0,-2.742 -0.14,-5.454 -0.414,-8.127 a 78.97,78.97 0 0 0 -1.215,-7.898 c -0.534,-2.6 -1.194,-5.135 -1.974,-7.63 l -2.694,-7.32 -3.37,-6.967 -4.01,-6.576 -4.605,-6.143 -5.16,-5.67 -5.676,-5.155 -6.15,-4.6 -6.583,-4.005 -6.974,-3.368 -7.326,-2.69 -7.637,-1.972 -7.906,-1.213 a 80,80 0 0 0 -8.134,-0.414 z m 0,27.526 c 1.815,0 3.606,0.09 5.37,0.268 l 5.2,0.787 5.023,1.28 4.81,1.747 4.573,2.19 4.3,2.605 4.02,2.997 3.706,3.362 3.365,3.702 3,4.016 2.608,4.306 2.19,4.57 c 0.658,1.564 1.242,3.167 1.75,4.806 0.508,1.639 0.935,3.314 1.28,5.02 0.345,1.706 0.6,3.442 0.787,5.205 l 0.268,5.366 c 0,1.813 -0.09,3.603 -0.268,5.367 -0.178,1.764 -0.44,3.5 -0.787,5.205 -0.347,1.705 -0.775,3.38 -1.28,5.02 l -1.75,4.806 -2.19,4.57 -2.608,4.305 -3,4.017 -3.365,3.702 -3.706,3.362 -4.02,2.997 -4.3,2.605 -4.573,2.19 -4.81,1.747 -5.023,1.28 -5.2,0.786 a 53.78,53.78 0 0 1 -5.371,0.268 53.8,53.8 0 0 1 -5.372,-0.268 l -5.2,-0.786 c -1.707,-0.346 -3.383,-0.774 -5.024,-1.28 l -4.81,-1.747 -4.573,-2.19 -4.3,-2.605 -4.02,-2.997 -3.706,-3.362 -3.365,-3.702 -3,-4.017 -2.608,-4.305 -2.19,-4.57 -1.75,-4.806 -1.28,-5.02 -0.787,-5.205 a 53.63,53.63 0 0 1 -0.268,-5.367 53.61,53.61 0 0 1 0.268,-5.366 c 0.177,-1.763 0.44,-3.5 0.787,-5.205 a 52.11,52.11 0 0 1 1.281,-5.019 l 1.75,-4.806 2.19,-4.57 2.608,-4.306 3,-4.016 3.365,-3.702 3.706,-3.362 4.02,-2.997 4.3,-2.605 4.573,-2.19 a 51.97,51.97 0 0 1 4.811,-1.747 l 5.024,-1.28 c 1.707,-0.346 3.445,-0.61 5.2,-0.787 a 53.8,53.8 0 0 1 5.372,-0.268 z"
       fill="url(#C)"
       id="path1238"
       style="fill:#1c1347;fill-opacity:1" />
    <path
       d="m 270.86,-218.5 a 19.009,19.134 0 0 0 -1.898,0.096 19.009,19.134 0 0 0 -1.879,0.286 19.009,19.134 0 0 0 -1.841,0.473 19.009,19.134 0 0 0 -1.785,0.656 19.009,19.134 0 0 0 -1.711,0.833 19.009,19.134 0 0 0 -1.62,0.999 19.009,19.134 0 0 0 -1.513,1.158 19.009,19.134 0 0 0 -1.39,1.303 19.009,19.134 0 0 0 -1.254,1.437 19.009,19.134 0 0 0 -1.105,1.556 19.009,19.134 0 0 0 -0.945,1.658 19.009,19.134 0 0 0 -0.777,1.746 19.009,19.134 0 0 0 -0.599,1.815 19.009,19.134 0 0 0 -0.416,1.866 19.009,19.134 0 0 0 -0.229,1.898 19.009,19.134 0 0 0 -0.048,1.354 19.009,19.134 0 0 0 0.095,1.911 19.009,19.134 0 0 0 0.284,1.891 19.009,19.134 0 0 0 0.47,1.853 19.009,19.134 0 0 0 0.652,1.797 19.009,19.134 0 0 0 0.827,1.723 19.009,19.134 0 0 0 0.993,1.631 19.009,19.134 0 0 0 1.15,1.522 19.009,19.134 0 0 0 1.295,1.4 19.009,19.134 0 0 0 1.428,1.262 19.009,19.134 0 0 0 1.546,1.113 19.009,19.134 0 0 0 1.649,0.952 19.009,19.134 0 0 0 1.734,0.782 19.009,19.134 0 0 0 1.803,0.603 19.009,19.134 0 0 0 1.854,0.418 19.009,19.134 0 0 0 1.886,0.231 19.009,19.134 0 0 0 1.345,0.048 19.009,19.134 0 0 0 1.898,-0.095 19.009,19.134 0 0 0 1.879,-0.286 19.009,19.134 0 0 0 1.841,-0.473 19.009,19.134 0 0 0 1.785,-0.656 19.009,19.134 0 0 0 1.711,-0.832 19.009,19.134 0 0 0 1.62,-1 19.009,19.134 0 0 0 1.513,-1.157 19.009,19.134 0 0 0 1.39,-1.304 19.009,19.134 0 0 0 1.254,-1.437 19.009,19.134 0 0 0 1.105,-1.556 19.009,19.134 0 0 0 0.945,-1.659 19.009,19.134 0 0 0 0.777,-1.746 19.009,19.134 0 0 0 0.599,-1.815 19.009,19.134 0 0 0 0.416,-1.866 19.009,19.134 0 0 0 0.229,-1.898 19.009,19.134 0 0 0 0.048,-1.354 19.009,19.134 0 0 0 -0.095,-1.91 19.009,19.134 0 0 0 -0.284,-1.891 19.009,19.134 0 0 0 -0.47,-1.853 19.009,19.134 0 0 0 -0.652,-1.797 19.009,19.134 0 0 0 -0.827,-1.723 19.009,19.134 0 0 0 -0.993,-1.631 19.009,19.134 0 0 0 -1.151,-1.523 19.009,19.134 0 0 0 -1.294,-1.4 19.009,19.134 0 0 0 -1.428,-1.262 19.009,19.134 0 0 0 -1.546,-1.112 19.009,19.134 0 0 0 -1.649,-0.952 19.009,19.134 0 0 0 -1.734,-0.782 19.009,19.134 0 0 0 -1.803,-0.603 19.009,19.134 0 0 0 -1.854,-0.419 19.009,19.134 0 0 0 -1.886,-0.23 19.009,19.134 0 0 0 -1.345,-0.048 z"
       fill="url(#C)"
       id="path1240"
       style="fill:#1c1347;fill-opacity:1" />
    <path
       d="m 172.658,-272.08 c -8.682,-0.014 -16.43,0.022 -23.39,0.12 l -18.66,0.5 c -5.528,0.24 -10.412,0.553 -14.796,0.958 -2.192,0.202 -4.26,0.428 -6.22,0.677 a 136,136 0 0 0 -5.579,0.821 c -1.765,0.3 -3.44,0.624 -5.046,0.976 -1.606,0.352 -3.14,0.732 -4.62,1.14 a 81.54,81.54 0 0 0 -4.305,1.316 c -1.394,0.47 -2.754,0.968 -4.097,1.5 -2.686,1.064 -5.306,2.258 -8.004,3.596 -2.076,1.03 -3.994,2.073 -5.816,3.177 -1.822,1.104 -3.548,2.27 -5.238,3.54 a 69.42,69.42 0 0 0 -5.027,4.182 c -1.682,1.532 -3.4,3.217 -5.185,5.1 -2.243,2.353 -4.192,4.547 -5.922,6.7 -0.865,1.076 -1.675,2.14 -2.438,3.21 a 62.1,62.1 0 0 0 -2.163,3.232 c -0.68,1.09 -1.324,2.2 -1.94,3.342 a 67.2,67.2 0 0 0 -1.773,3.538 c -1.138,2.444 -2.2,5.076 -3.26,8.014 a 91.85,91.85 0 0 0 -2.111,6.598 c -0.633,2.274 -1.196,4.653 -1.698,7.226 -0.502,2.573 -0.94,5.34 -1.325,8.4 a 203.95,203.95 0 0 0 -0.994,10.089 c -0.28,3.706 -0.512,7.784 -0.702,12.323 l -0.45,15.092 -0.242,18.397 -0.07,22.237 0.205,32.337 0.64,24.5 0.493,9.57 0.616,7.93 a 138.68,138.68 0 0 0 0.741,6.396 c 0.27,1.888 0.56,3.54 0.872,4.97 a 112.08,112.08 0 0 0 2.244,8.636 97.95,97.95 0 0 0 2.83,8.06 c 1.042,2.59 2.182,5.088 3.422,7.492 1.24,2.404 2.58,4.714 4.02,6.933 1.44,2.219 2.98,4.347 4.624,6.384 a 75.68,75.68 0 0 0 5.233,5.844 c 1.847,1.86 3.795,3.63 5.848,5.312 a 82.35,82.35 0 0 0 6.47,4.79 c 2.073,1.386 4.124,2.655 6.19,3.82 2.066,1.165 4.15,2.222 6.292,3.183 2.142,0.961 4.338,1.826 6.632,2.604 2.294,0.778 4.684,1.47 7.21,2.084 2.526,0.614 5.2,1.153 8.03,1.623 2.83,0.47 5.855,0.873 9.087,1.22 3.232,0.347 6.68,0.634 10.385,0.874 3.705,0.24 7.665,0.432 11.92,0.586 6.573,0.238 16.523,0.377 27.997,0.43 l 37.145,-0.075 35.174,-0.493 13.374,-0.376 8.713,-0.448 c 1.87,-0.152 3.7,-0.332 5.466,-0.543 1.766,-0.211 3.508,-0.452 5.204,-0.726 1.696,-0.274 3.354,-0.58 4.983,-0.92 a 101.43,101.43 0 0 0 4.804,-1.123 c 1.576,-0.4 3.13,-0.855 4.668,-1.338 1.538,-0.483 3.06,-1.005 4.573,-1.565 a 100.05,100.05 0 0 0 4.522,-1.801 c 1.503,-0.64 3.004,-1.324 4.51,-2.05 2.313,-1.114 4.175,-2.043 5.81,-2.95 a 40.27,40.27 0 0 0 4.434,-2.824 c 1.396,-1.028 2.784,-2.198 4.384,-3.672 1.6,-1.474 3.413,-3.25 5.658,-5.496 1.973,-1.972 3.637,-3.686 5.072,-5.245 1.435,-1.559 2.644,-2.962 3.704,-4.314 a 45.89,45.89 0 0 0 2.82,-4.002 c 0.847,-1.35 1.627,-2.752 2.422,-4.307 1.196,-2.34 2.26,-4.507 3.213,-6.598 a 84.1,84.1 0 0 0 2.534,-6.148 67.86,67.86 0 0 0 1.951,-6.295 c 0.564,-2.19 1.05,-4.502 1.47,-7.038 0.42,-2.536 0.775,-5.296 1.083,-8.378 0.308,-3.082 0.57,-6.488 0.8,-10.315 l 0.61,-12.847 0.524,-15.977 0.374,-17.8 0.144,-18.612 -0.334,-36.555 -0.447,-16.373 -0.61,-14.058 -0.76,-10.96 c -0.276,-3.05 -0.574,-5.452 -0.89,-7.076 a 119.55,119.55 0 0 0 -1.172,-5.357 110.16,110.16 0 0 0 -1.385,-5.153 101.93,101.93 0 0 0 -1.598,-4.947 c -0.568,-1.615 -1.17,-3.196 -1.8,-4.743 -0.63,-1.547 -1.312,-3.058 -2.022,-4.537 -0.71,-1.479 -1.454,-2.922 -2.235,-4.332 -0.781,-1.41 -1.595,-2.785 -2.446,-4.126 -0.851,-1.341 -1.737,-2.648 -2.66,-3.92 a 75.09,75.09 0 0 0 -2.87,-3.715 73.91,73.91 0 0 0 -3.082,-3.508 73.62,73.62 0 0 0 -3.293,-3.302 c -1.133,-1.066 -2.3,-2.098 -3.504,-3.096 a 75.68,75.68 0 0 0 -3.716,-2.889 78.06,78.06 0 0 0 -3.928,-2.682 81.34,81.34 0 0 0 -4.138,-2.476 85.61,85.61 0 0 0 -4.35,-2.268 c -2.442,-1.187 -4.7,-2.24 -6.917,-3.174 a 75.03,75.03 0 0 0 -6.658,-2.467 c -2.27,-0.715 -4.633,-1.328 -7.233,-1.857 -2.6,-0.529 -5.435,-0.97 -8.644,-1.345 -3.209,-0.375 -6.792,-0.678 -10.89,-0.93 -4.098,-0.252 -8.707,-0.45 -13.97,-0.61 l -17.886,-0.4 -22.637,-0.267 -28.988,-0.178 z m 15.055,27.502 41.803,0.238 15.77,0.304 c 4.343,0.122 7.657,0.265 9.6,0.43 2.53,0.213 4.94,0.48 7.245,0.8 a 99.46,99.46 0 0 1 6.6,1.139 c 2.1,0.44 4.103,0.94 6.02,1.504 1.917,0.564 3.748,1.196 5.505,1.895 1.757,0.699 3.437,1.468 5.054,2.31 a 51.47,51.47 0 0 1 4.67,2.755 c 1.5,0.995 2.946,2.067 4.35,3.222 1.404,1.155 2.765,2.393 4.094,3.717 1.403,1.397 2.697,2.82 3.89,4.288 a 46.9,46.9 0 0 1 3.293,4.579 46.35,46.35 0 0 1 2.742,5.015 c 0.828,1.76 1.572,3.62 2.24,5.597 0.668,1.977 1.263,4.078 1.79,6.323 a 97.53,97.53 0 0 1 1.386,7.195 c 0.4,2.56 0.742,5.29 1.032,8.213 0.29,2.923 0.53,6.04 0.728,9.375 0.158,2.675 0.296,6.205 0.413,10.374 l 0.293,14.215 0.224,34.82 -0.255,34.787 -0.306,14.174 -0.421,10.309 c -0.292,4.827 -0.6,8.885 -0.968,12.417 -0.185,1.766 -0.385,3.4 -0.607,4.933 a 82.37,82.37 0 0 1 -0.739,4.326 62.61,62.61 0 0 1 -0.905,3.9 57,57 0 0 1 -1.109,3.657 63.83,63.83 0 0 1 -1.349,3.596 89.01,89.01 0 0 1 -1.625,3.717 c -0.507,1.095 -1.04,2.16 -1.604,3.197 a 51.6,51.6 0 0 1 -1.776,3.02 c -0.62,0.977 -1.27,1.926 -1.95,2.845 a 47.23,47.23 0 0 1 -2.126,2.672 46.51,46.51 0 0 1 -2.307,2.5 c -0.8,0.805 -1.63,1.582 -2.49,2.332 -0.86,0.75 -1.752,1.47 -2.675,2.164 -0.923,0.694 -1.878,1.36 -2.865,1.998 -0.987,0.638 -2.005,1.25 -3.056,1.834 -1.051,0.584 -2.135,1.142 -3.25,1.673 a 62.94,62.94 0 0 1 -3.449,1.514 69.71,69.71 0 0 1 -3.65,1.355 c -2.5,0.852 -5.137,1.6 -7.913,2.245 a 106.2,106.2 0 0 1 -8.752,1.638 c -1.13,0.165 -3.727,0.32 -7.447,0.464 l -14.176,0.394 -40.19,0.522 -42.066,0.066 -16.52,-0.176 -10.727,-0.334 -7.91,-0.556 c -2.456,-0.207 -4.74,-0.437 -6.88,-0.698 -2.14,-0.261 -4.133,-0.552 -6.008,-0.88 a 80.49,80.49 0 0 1 -5.295,-1.1 61.05,61.05 0 0 1 -4.74,-1.358 C 96.844,6.377 95.405,5.827 94.005,5.222 92.605,4.617 91.245,3.954 89.898,3.23 88.551,2.506 87.218,1.72 85.87,0.863 c -1.017,-0.646 -2,-1.3 -2.946,-1.993 -0.946,-0.693 -1.86,-1.384 -2.74,-2.108 -0.88,-0.724 -1.725,-1.47 -2.54,-2.238 A 46.45,46.45 0 0 1 75.3,-7.854 c -0.75,-0.818 -1.467,-1.66 -2.155,-2.532 a 45.31,45.31 0 0 1 -1.973,-2.7 47.01,47.01 0 0 1 -1.797,-2.88 c -0.57,-0.99 -1.112,-2.014 -1.627,-3.07 a 55.36,55.36 0 0 1 -1.465,-3.277 c -0.46,-1.128 -0.896,-2.292 -1.306,-3.494 -0.82,-2.405 -1.54,-4.965 -2.166,-7.695 -0.626,-2.73 -1.16,-5.63 -1.612,-8.72 -0.452,-3.09 -0.816,-6.366 -1.106,-9.848 -0.214,-2.565 -0.384,-6.56 -0.514,-11.6 l -0.272,-17.925 0.1,-45.695 0.787,-43.664 0.6,-15.384 0.34,-5.085 c 0.118,-1.358 0.24,-2.364 0.365,-2.968 0.412,-1.987 0.827,-3.836 1.256,-5.567 a 91.2,91.2 0 0 1 1.337,-4.863 c 0.466,-1.518 0.957,-2.94 1.482,-4.287 a 47.04,47.04 0 0 1 1.691,-3.841 c 0.606,-1.22 1.257,-2.388 1.964,-3.525 0.707,-1.137 1.47,-2.24 2.302,-3.337 0.832,-1.097 1.728,-2.18 2.703,-3.278 0.975,-1.098 2.028,-2.207 3.17,-3.35 a 68.3,68.3 0 0 1 4.154,-3.845 52.29,52.29 0 0 1 4.24,-3.249 c 1.443,-1 2.923,-1.89 4.464,-2.708 1.541,-0.818 3.143,-1.557 4.828,-2.222 1.685,-0.665 3.455,-1.26 5.33,-1.8 a 74.71,74.71 0 0 1 5.97,-1.413 c 2.112,-0.414 4.355,-0.775 6.75,-1.09 2.395,-0.315 4.943,-0.587 7.667,-0.823 1.9,-0.164 5.174,-0.31 9.485,-0.433 l 15.69,-0.31 41.738,-0.255 z"
       fill="url(#A)"
       id="path1242"
       style="fill:#1c1347;fill-opacity:1" />
  </g>
</svg>
