<?xml version="1.0" encoding="UTF-8" standalone="no"?>
<svg
   height="223.567"
   width="882.24298"
   viewBox="-40.125525 -16.3118 255.67001 27.350852"
   version="1.1"
   id="svg1371"
   sodipodi:docname="LinkedIn.svg"
   inkscape:version="1.2.2 (732a01da63, 2022-12-09)"
   xmlns:inkscape="http://www.inkscape.org/namespaces/inkscape"
   xmlns:sodipodi="http://sodipodi.sourceforge.net/DTD/sodipodi-0.dtd"
   xmlns="http://www.w3.org/2000/svg"
   xmlns:svg="http://www.w3.org/2000/svg">
  <defs
     id="defs1375" />
  <sodipodi:namedview
     id="namedview1373"
     pagecolor="#ffffff"
     bordercolor="#000000"
     borderopacity="0.25"
     inkscape:showpageshadow="2"
     inkscape:pageopacity="0.0"
     inkscape:pagecheckerboard="0"
     inkscape:deskcolor="#d1d1d1"
     showgrid="false"
     inkscape:zoom="0.59"
     inkscape:cx="511.86441"
     inkscape:cy="517.79661"
     inkscape:window-width="1920"
     inkscape:window-height="1130"
     inkscape:window-x="761"
     inkscape:window-y="-6"
     inkscape:window-maximized="1"
     inkscape:current-layer="svg1371" />
  <path
     d="m -40.125525,-25.443304 h 9.993 v 36.4 h 18.5 v 9.222 h -28.493 z m 32.911,14.689 h 9.6 v 30.916 h -9.6 z m 4.8,-15.37 c 4.961553,8.91e-4 7.444562,5.999423 3.936324,9.507031 -3.508237,3.507608 -9.506324,1.023522 -9.506324,-3.938031 0,-3.076064 2.493936,-5.569552 5.57,-5.569 m 44.958,0.674 h 9.6 V 1.8146956 l 10.88,-12.5829996 h 11.77 l -12.6,14.3129996 12.335,16.6300004 h -12.066 l -10.191,-15.2820004 h -0.126 V 20.172696 h -9.6 z m -34.835,14.699 h 9.219 v 4.2249996 h 0.131 c 1.876281,-3.214537 5.370592,-5.1342926 9.09,-4.9939996 9.735,0 11.527,6.4049996 11.527,14.7259996 V 20.159696 h -9.6 V 5.1286956 c 0,-3.588 -0.066,-8.2 -5,-8.2 -4.99,0 -5.76,3.90700005 -5.76,7.939 V 20.155696 h -9.6 z"
     id="path1367"
     sodipodi:nodetypes="cccccccccccccsscccccccccccccccccccsccsssccc"
     style="fill:#1c1347;fill-opacity:1" />
  <path
     d="m 95.010475,1.1076956 c 0.0775,-3.286097 -2.60796,-5.96972 -5.894,-5.89 -3.48983,-0.217146 -6.5091,2.404239 -6.784,5.89 z m 8.131995,13.7000004 c -3.230475,3.917452 -8.050415,6.175786 -13.127995,6.151 -9.6,0 -17.286,-6.408 -17.286,-16.3310004 0,-9.923 7.685,-16.3279996 17.286,-16.3279996 8.973,0 14.599995,6.3999996 14.599995,16.3279996 v 3.01 H 82.332475 c 0.57361,3.5296164 3.65993,6.0972204 7.235,6.0190004 2.77628,-0.0172 5.35496,-1.439223 6.851,-3.7780004 z m 21.482,-18.0890004 c -4.8,0 -7.68,3.20500005 -7.68,7.875 0,4.67 2.879,7.8780004 7.68,7.8780004 4.801,0 7.687,-3.2000004 7.687,-7.8780004 0,-4.67799995 -2.881,-7.875 -7.687,-7.875 m 16.525,23.4370004 h -8.838 v -4.1 h -0.131 c -2.24751,3.022937 -5.77737,4.823374 -9.544,4.868 -9.22399,0 -15.3,-6.657 -15.3,-16.0710004 0,-8.646 5.377,-16.5849996 14.216,-16.5849996 3.97301,0 7.684,1.087 9.861,4.0999996 h 0.126 V -25.453304 h 9.609 z m 64.809,0.018 h -9.6 V 5.1396956 c 0,-3.585 -0.064,-8.2 -4.993,-8.2 -5,0 -5.76499,3.90600005 -5.76499,7.939 V 20.172696 h -9.6 v -30.916 h 9.216 v 4.2249996 h 0.129 c 1.87919,-3.213047 5.37333,-5.1320706 9.09299,-4.9939996 9.73,0 11.524,6.3999996 11.524,14.7259996 z m -40.79,-35.143 c -4.96358,8.91e-4 -7.44952,-5.999402 -3.9408,-9.509385 3.50873,-3.509982 9.50991,-1.026191 9.5108,3.937385 5.5e-4,3.076778 -2.49322,5.571448 -5.57,5.572 m 4.8,35.143 h -9.60999 v -30.917 h 9.61 z m 40.77601,-55.2 h -55.21 c -2.60935,-0.02945 -4.74915,2.06069 -4.78101,4.67 v 55.439 c 0.0308,2.610568 2.1704,4.702773 4.78101,4.675 h 55.21 c 2.61577,0.03281 4.76379,-2.059279 4.8,-4.675 v -55.443 c -0.0373,-2.614465 -2.1855,-4.704481 -4.8,-4.67"
     id="path1369"
     sodipodi:nodetypes="ccccccsssccccccsssccccccsscccccccsssccccccccccssccccccccccccccc"
     style="fill:#1c1347;fill-opacity:1" />
</svg>
