<?xml version="1.0" encoding="UTF-8" standalone="no"?>
<svg
   height="529.586"
   width="529.604"
   viewBox="-11.493675 -16.3118 43.962362 64.788757"
   version="1.1"
   id="svg316"
   sodipodi:docname="LinkedIn.svg"
   inkscape:version="1.2.2 (732a01da63, 2022-12-09)"
   xmlns:inkscape="http://www.inkscape.org/namespaces/inkscape"
   xmlns:sodipodi="http://sodipodi.sourceforge.net/DTD/sodipodi-0.dtd"
   xmlns="http://www.w3.org/2000/svg"
   xmlns:svg="http://www.w3.org/2000/svg">
  <defs
     id="defs320" />
  <sodipodi:namedview
     id="namedview318"
     pagecolor="#ffffff"
     bordercolor="#000000"
     borderopacity="0.25"
     inkscape:showpageshadow="2"
     inkscape:pageopacity="0.0"
     inkscape:pagecheckerboard="0"
     inkscape:deskcolor="#d1d1d1"
     showgrid="false"
     inkscape:zoom="0.44563081"
     inkscape:cx="552.02646"
     inkscape:cy="398.31178"
     inkscape:window-width="1920"
     inkscape:window-height="1130"
     inkscape:window-x="761"
     inkscape:window-y="-6"
     inkscape:window-maximized="1"
     inkscape:current-layer="svg316" />
  <path
     d="m 33.297026,38.892621 h -9.6 v -15.034 c 0,-3.585 -0.064,-8.2 -4.993,-8.2 -5,0 -5.765,3.906 -5.765,7.939 v 15.294 H 3.3390261 V 7.9756206 h 9.2159999 v 4.2250004 h 0.129 c 1.879195,-3.2130474 5.373325,-5.1320714 9.093,-4.9940004 9.73,0 11.524,6.4000004 11.524,14.7260004 z M -7.4929739,3.7496206 c -4.9635761,8.91e-4 -7.4495221,-5.999402 -3.9407991,-9.509385 3.5087231,-3.5099823 9.5099081,-1.026191 9.5107991,3.937385 5.52e-4,3.076778 -2.493222,5.571448 -5.57,5.572 m 4.8,35.1430004 H -12.302974 V 7.9756206 h 9.6100001 z m 40.7759999,-55.2 h -55.21 c -2.609339,-0.02945 -4.749154,2.060689 -4.781,4.67 v 55.439 c 0.03076,2.610568 2.170399,4.702773 4.781,4.675 h 55.21 c 2.615766,0.03281 4.763788,-2.059279 4.8,-4.675 v -55.443 c -0.0373,-2.614466 -2.185496,-4.704482 -4.8,-4.67"
     id="path312"
     sodipodi:nodetypes="ccsssccccccccccssccccccccccccccc"
     style="fill:#1d1347;fill-opacity:1" />
</svg>
