<?xml version="1.0" encoding="UTF-8" standalone="no"?>
<!-- Created with Inkscape (http://www.inkscape.org/) -->

<svg
   version="1.1"
   id="svg2"
   width="510.935"
   height="511.19199"
   viewBox="0 0 510.935 511.19199"
   sodipodi:docname="download.svg"
   inkscape:version="1.2.2 (732a01da63, 2022-12-09)"
   xmlns:inkscape="http://www.inkscape.org/namespaces/inkscape"
   xmlns:sodipodi="http://sodipodi.sourceforge.net/DTD/sodipodi-0.dtd"
   xmlns="http://www.w3.org/2000/svg"
   xmlns:svg="http://www.w3.org/2000/svg">
  <defs
     id="defs6" />
  <sodipodi:namedview
     id="namedview4"
     pagecolor="#ffffff"
     bordercolor="#000000"
     borderopacity="0.25"
     inkscape:showpageshadow="2"
     inkscape:pageopacity="0.0"
     inkscape:pagecheckerboard="0"
     inkscape:deskcolor="#d1d1d1"
     showgrid="false"
     inkscape:zoom="0.4609375"
     inkscape:cx="133.42373"
     inkscape:cy="257.08475"
     inkscape:window-width="1920"
     inkscape:window-height="1130"
     inkscape:window-x="-6"
     inkscape:window-y="-6"
     inkscape:window-maximized="1"
     inkscape:current-layer="g8" />
  <g
     inkscape:groupmode="layer"
     inkscape:label="Image"
     id="g8">
    <path
       style="fill:#000000"
       d="M 22.9625,510.07457 C 13.6571,507.13661 7.77628,502.38314 3.39485,494.25804 0.29508,488.50971 0,487.22368 0,479.4625 c 0,-7.7627 0.29474,-9.04659 3.39796,-14.80139 3.77166,-6.99438 6.88259,-10.00781 14.4571,-14.004 l 5.10744,-2.69461 h 232.5 232.5 l 6.2955,3.4136 c 10.9311,5.92707 16.6537,15.56462 16.6773,28.0864 0.024,12.92895 -6.6171,23.36094 -18.3863,28.88018 l -5.5865,2.61982 -230,0.18749 c -182.89403,0.14909 -230.81923,-0.0712 -234,-1.07542 z M 246.74854,386.0722 c -2.31768,-0.75758 -6.14268,-2.52307 -8.5,-3.9233 -2.35732,-1.40024 -30.88388,-29.24001 -63.39235,-61.86615 -65.19323,-65.42921 -63.54273,-63.46218 -64.23032,-76.54862 -0.547,-10.41086 1.70904,-16.16301 9.32715,-23.78111 7.6181,-7.61811 13.37025,-9.87415 23.78111,-9.32715 12.39726,0.65137 13.63416,1.57504 48.45971,36.18758 l 31.23134,31.04032 0.26866,-127.44564 0.26866,-127.44563 2.69461,-5.10744 c 3.99619,-7.57451 7.00962,-10.68544 14.004,-14.4571 C 246.41591,0.29474 247.6998,0 255.4625,0 c 7.76118,0 9.04721,0.29508 14.79554,3.39485 6.83975,3.68831 11.00353,8.21528 14.47552,15.73815 l 2.22894,4.8295 0.26507,126.94921 0.26508,126.94921 31.23492,-31.04389 c 34.46578,-34.25498 36.11507,-35.50175 47.86429,-36.18249 10.71373,-0.62075 16.96587,1.7304 24.34565,9.15529 7.50791,7.55382 9.96471,13.98044 9.35675,24.47596 -0.72744,12.55846 0.65874,10.92393 -65.21843,76.90327 -53.32818,53.41089 -60.77486,60.50765 -65.97417,62.87405 -7.01594,3.19322 -16.23222,4.02982 -22.35312,2.02909 z"
       id="path293" />
    <path
       style="fill:#000000"
       d="M 22.9625,510.07457 C 13.6571,507.13661 7.77628,502.38314 3.39485,494.25804 0.29508,488.50971 0,487.22368 0,479.4625 c 0,-7.7627 0.29474,-9.04659 3.39796,-14.80139 3.77166,-6.99438 6.88259,-10.00781 14.4571,-14.004 l 5.10744,-2.69461 h 232.5 232.5 l 6.2955,3.4136 c 10.9311,5.92707 16.6537,15.56462 16.6773,28.0864 0.024,12.92895 -6.6171,23.36094 -18.3863,28.88018 l -5.5865,2.61982 -230,0.18749 c -182.89403,0.14909 -230.81923,-0.0712 -234,-1.07542 z M 246.74854,386.0722 c -2.31768,-0.75758 -6.14268,-2.52307 -8.5,-3.9233 -2.35732,-1.40024 -30.88388,-29.24001 -63.39235,-61.86615 -65.19323,-65.42921 -63.54273,-63.46218 -64.23032,-76.54862 -0.547,-10.41086 1.70904,-16.16301 9.32715,-23.78111 7.6181,-7.61811 13.37025,-9.87415 23.78111,-9.32715 12.39726,0.65137 13.63416,1.57504 48.45971,36.18758 l 31.23134,31.04032 0.26866,-127.44564 0.26866,-127.44563 2.69461,-5.10744 c 3.99619,-7.57451 7.00962,-10.68544 14.004,-14.4571 C 246.41591,0.29474 247.6998,0 255.4625,0 c 7.76118,0 9.04721,0.29508 14.79554,3.39485 6.83975,3.68831 11.00353,8.21528 14.47552,15.73815 l 2.22894,4.8295 0.26507,126.94921 0.26508,126.94921 31.23492,-31.04389 c 34.46578,-34.25498 36.11507,-35.50175 47.86429,-36.18249 10.71373,-0.62075 16.96587,1.7304 24.34565,9.15529 7.50791,7.55382 9.96471,13.98044 9.35675,24.47596 -0.72744,12.55846 0.65874,10.92393 -65.21843,76.90327 -53.32818,53.41089 -60.77486,60.50765 -65.97417,62.87405 -7.01594,3.19322 -16.23222,4.02982 -22.35312,2.02909 z"
       id="path295" />
  </g>
</svg>
