<?xml version="1.0" encoding="UTF-8" standalone="no"?>
<!-- Created with Inkscape (http://www.inkscape.org/) -->

<svg
   version="1.1"
   id="svg2"
   width="512"
   height="512"
   viewBox="0 0 512 512"
   sodipodi:docname="menu.svg"
   inkscape:version="1.2.2 (732a01da63, 2022-12-09)"
   xmlns:inkscape="http://www.inkscape.org/namespaces/inkscape"
   xmlns:sodipodi="http://sodipodi.sourceforge.net/DTD/sodipodi-0.dtd"
   xmlns="http://www.w3.org/2000/svg"
   xmlns:svg="http://www.w3.org/2000/svg">
  <defs
     id="defs6" />
  <sodipodi:namedview
     id="namedview4"
     pagecolor="#ffffff"
     bordercolor="#000000"
     borderopacity="0.25"
     inkscape:showpageshadow="2"
     inkscape:pageopacity="0.0"
     inkscape:pagecheckerboard="0"
     inkscape:deskcolor="#d1d1d1"
     showgrid="false"
     inkscape:zoom="0.65186406"
     inkscape:cx="310.64759"
     inkscape:cy="152.63919"
     inkscape:window-width="1920"
     inkscape:window-height="1130"
     inkscape:window-x="761"
     inkscape:window-y="-6"
     inkscape:window-maximized="1"
     inkscape:current-layer="svg2" />
  <path
     style="fill:#e3c502;fill-opacity:1"
     d="M 28.6559,483.02532 C 12.577012,477.88831 1.9085662,464.53547 0.32377068,447.56426 -0.34030983,440.45278 1.8312639,430.66671 5.4363642,424.52465 10.944737,415.13997 21.765868,407.46814 32.799221,405.12526 c 7.50646,-1.59396 438.833869,-1.60297 446.401559,-0.009 21.33,4.49178 35.61975,24.78947 32.0644,45.54547 -2.09848,12.25081 -8.66428,22.21095 -18.55987,28.15479 -10.97884,6.5945 5.70354,6.16422 -237.20531,6.11815 -212.940504,-0.0404 -221.213124,-0.11 -226.8441,-1.90903 z M 27.328848,294.07076 C 16.576934,290.19057 8.7633137,282.93773 3.6026372,272.04737 0.80597064,266.14568 0.5,264.55803 0.5,255.94814 c 0,-9.0293 0.2060255,-9.96873 3.7658844,-17.17162 C 8.612659,229.98142 14.9869,223.62697 23.807788,219.29528 L 29.5,216.5 H 256 482.5 l 6.58912,3.2243 c 8.21246,4.01866 14.96841,11.06503 19.2259,20.05237 2.88843,6.09733 3.18498,7.6127 3.18498,16.27519 0,9.0293 -0.20603,9.96873 -3.76588,17.17162 C 503.36796,282.0578 496.5437,288.86229 488,292.90044 l -5.5,2.59956 -225,0.21848 c -217.408448,0.2111 -225.174476,0.1555 -230.171152,-1.64772 z M 31.5,106.58897 C 19.129673,103.5188 7.276697,93.445265 2.9023528,82.28458 -0.24643611,74.250773 -0.28854032,60.835386 2.8104431,53 7.4568146,41.252239 16.65091,32.732526 28.697553,29.011697 c 6.442855,-1.989995 8.893393,-2.011569 227.157787,-1.999828 180.86801,0.0097 221.54603,0.252647 225.64466,1.347485 14.88643,3.976512 25.22239,14.509621 29.08416,29.638907 5.55459,21.761302 -8.80643,44.131429 -31.38338,48.885799 C 471.16016,108.5773 38.361955,108.29202 31.5,106.58897 Z"
     id="path293" />
</svg>
