<?xml version="1.0" encoding="UTF-8" standalone="no"?>
<!-- Created with Inkscape (http://www.inkscape.org/) -->

<svg
   version="1.1"
   id="svg2"
   width="4in"
   height="2.3670001in"
   viewBox="0 0 384 227.23201"
   sodipodi:docname="{a} logo.svg"
   inkscape:version="1.2.2 (732a01da63, 2022-12-09)"
   xml:space="preserve"
   xmlns:inkscape="http://www.inkscape.org/namespaces/inkscape"
   xmlns:sodipodi="http://sodipodi.sourceforge.net/DTD/sodipodi-0.dtd"
   xmlns="http://www.w3.org/2000/svg"
   xmlns:svg="http://www.w3.org/2000/svg"><defs
     id="defs6" /><sodipodi:namedview
     id="namedview4"
     pagecolor="#1c1347"
     bordercolor="#000000"
     borderopacity="0.25"
     inkscape:showpageshadow="2"
     inkscape:pageopacity="0"
     inkscape:pagecheckerboard="0"
     inkscape:deskcolor="#d1d1d1"
     showgrid="false"
     inkscape:zoom="0.79069204"
     inkscape:cx="135.32449"
     inkscape:cy="205.51617"
     inkscape:window-width="1920"
     inkscape:window-height="1130"
     inkscape:window-x="-6"
     inkscape:window-y="-6"
     inkscape:window-maximized="1"
     inkscape:current-layer="svg2"
     inkscape:document-units="in" /><g
     id="g8496"
     transform="translate(0,-78.395867)"><path
       style="fill:#d71e94;fill-opacity:1;stroke-width:0.137931"
       d="m 65.343002,305.45907 c -11.0554,-0.91288 -21.0252,-5.14346 -27.7204,-11.7628 -3.5224,-3.48252 -6.533,-8.10774 -8.182,-12.57016 -2.2992,-6.22218 -2.6698,-13.76174 -1.0878,-22.13792 0.9168,-4.8536 1.7346,-7.7927 4.1116,-14.7764 3.2084,-9.42628 4.4932,-13.83124 5.118,-17.54622 0.6924,-4.11816 0.8804,-8.8477 0.4224,-10.62804 -0.9118,-3.54472 -3.5852,-6.31742 -8.4272,-8.74056 -3.7922,-1.89774 -9.7708,-3.54886 -16.3362,-4.51156 -3.9326004,-0.57662 -9.2446004,-1.0386 -11.9420004,-1.0386 H 2e-6 v -9.70316 -9.70316 l 1.8275996,-0.0922 c 10.0964004,-0.50918 22.1194004,-3.9001 28.8148004,-8.12672 4.8648,-3.07118 7.137,-5.99788 7.5468,-9.7214 0.2494,-2.26706 -0.17,-7.589 -0.8698,-11.02314 -0.7482,-3.67336 -2.232,-8.4806 -5.5794,-18.07546 -3.1884,-9.13938 -4.7144,-17.71388 -4.2932,-24.12522 0.3616,-5.50369 1.6076,-9.71217 4.1444,-13.999246 3.3538,-5.66768 8.0906,-10.0657 14.2526,-13.23352 6.7136,-3.45136 13.5566,-5.16494 21.9492,-5.49634 3.3224,-0.1312 9.5664,0.0358 12.4138,0.33214 4.2926,0.4466 11.1036,1.80176 11.1036,2.2092 0,0.24566 -2.8984,21.221956 -2.9362,21.249516 -0.02,0.012 -0.8674,-0.0916 -1.8914,-0.2297 -4.895,-0.66028 -7.8042,-0.86252 -12.5518,-0.87256 -4.299,-0.01 -4.7176,0.012 -6.0144,0.29908 -3.7688,0.83522 -6.587,2.25496 -9.0208,4.54448 -1.3492,1.26934 -2.153,2.2883 -2.9064,3.68507 -1.9672,3.64708 -2.3056,8.11978 -1.0816,14.28918 0.857,4.31918 1.8742,7.7365 4.1144,13.82286 3.4314,9.32334 4.8934,14.02806 5.5196,17.76336 0.6624,3.9499 0.7284,9.09846 0.158,12.33526 -1.3132,7.45462 -5.897,13.3121 -13.3802,17.09882 -4.5444,2.29954 -9.6376,3.71768 -15.8714,4.4191 -1.7556,0.1976 -5.9342,0.48738 -7.0688,0.4903 l -0.5174,0.001 v 2.1129 2.1129 l 3.0954,0.1664 c 10.533,0.56612 18.1114,2.64036 24.1564,6.6116 5.8232,3.82556 9.1134,8.95638 9.864,15.3823 0.2044,1.74952 0.084,6.54702 -0.2204,8.78634 -0.6496,4.77836 -2.1208,9.73786 -5.7492,19.37932 -2.492,6.62204 -3.4886,10.0596 -4.479,15.44826 -0.4718,2.56778 -0.5998,6.6547 -0.273,8.71822 0.5892,3.72048 2.223,6.81536 4.9254,9.32968 2.943,2.73836 6.4988,4.37954 10.6804,4.92966 2.5332,0.33328 8.019,0.0626 15.5862,-0.7689 1.5932,-0.175 2.9116,-0.30456 2.9298,-0.28778 0.076,0.0704 2.96,21.33876 2.9012,21.3977 -0.2852,0.2852 -7.536,1.66222 -10.4516,1.98486 -3.6626,0.40532 -12.0746,0.55248 -15.4846,0.27092 z m 241.898398,0.066 c -3.7918,-0.26884 -6.9044,-0.66088 -9.862,-1.24214 -2.673,-0.52532 -4.6898,-1.02984 -4.6898,-1.17318 0,-0.0716 0.6518,-4.86108 1.4482,-10.64316 0.7966,-5.78206 1.4484,-10.56222 1.4484,-10.62254 0,-0.0604 0.2018,-0.0752 0.4482,-0.033 0.8972,0.1536 7.1142,0.77426 9.7472,0.97296 3.4934,0.26364 7.1338,0.26178 8.908,-0.004 4.1538,-0.6235 7.5928,-2.33854 10.4924,-5.23264 3.0094,-3.00364 4.3962,-6.10724 4.7362,-10.59898 0.2128,-2.80974 -0.062,-5.48528 -1.025,-9.96366 -0.8038,-3.741 -1.8096,-7.0018 -3.721,-12.065 -2.0822,-5.51606 -4.3266,-12.17406 -4.9516,-14.68966 -0.779,-3.13536 -1.1756,-6.2007 -1.2756,-9.86208 -0.116,-4.24604 0.26,-6.62532 1.5478,-9.7931 2.5558,-6.28726 9.2384,-11.45418 18.1884,-14.0633 4.4286,-1.29102 9.3026,-2.01912 15.3532,-2.29362 l 2.1036,-0.0954 v -2.11866 -2.11864 l -0.4484,-0.002 c -1.149,-0.006 -5.4578,-0.3013 -7.069,-0.48588 -8.4482,-0.96792 -15.2356,-3.36224 -20.3438,-7.17652 -4.678,-3.49306 -7.523,-7.82654 -8.7398,-13.31196 -1.0384,-4.68238 -0.8204,-10.67298 0.6068,-16.66144 0.4462,-1.87246 2.3938,-7.79346 3.9982,-12.1553 2.228,-6.05694 2.818,-7.77248 3.5102,-10.2069 0.7226,-2.54148 1.389,-5.43196 1.7968,-7.7931 1.2054,-6.9812 -0.024,-11.94858 -3.9032,-15.76345 -2.8542,-2.80722 -6.7044,-4.58676 -11.1198,-5.13956 -2.9218,-0.3658 -11.1644,0.035 -16.9088,0.82232 -1.0242,0.1404 -1.872,0.24696 -1.8844,0.2369 -0.028,-0.0232 -2.9432,-21.127676 -2.9432,-21.308216 0,-0.2481 4.9076,-1.31792 8.276,-1.80406 5.7318,-0.82732 14.4942,-0.98318 20.0096,-0.35594 12.0774,1.37348 22.4432,6.57822 28.7096,14.41546 6.6202,8.279476 8.391,17.709766 5.7632,30.689646 -0.8424,4.16054 -1.7254,7.22282 -3.8558,13.3718 -4.4768,12.92136 -5.507,17.13178 -5.7892,23.6627 -0.154,3.54958 0.048,4.936 0.9904,6.82018 1.7534,3.5053 6.5882,7.0501 13.1376,9.63218 6.9352,2.73416 15.0536,4.51426 22.2414,4.87674 l 1.8276,0.0922 v 9.70316 9.70316 h -1.2994 c -1.5644,0 -4.775,0.2091 -7.5972,0.49478 -9.4966,0.96132 -17.954,3.24996 -22.617,6.12036 -3.5638,2.1937 -5.5082,4.3949 -6.364,7.20418 -0.612,2.00862 -0.4182,7.288 0.4392,11.97378 0.5646,3.08486 1.7296,6.98066 5.0934,17.03448 2.378,7.1068 3.194,10.05048 3.9888,14.38822 0.6934,3.78462 0.9154,5.71014 1.0044,8.71524 0.198,6.7038 -1.0542,12.3486 -3.8996,17.56792 -3.7156,6.81514 -8.9978,11.81612 -16.2658,15.39948 -4.013,1.97848 -7.9222,3.2744 -12.276,4.0695 -3.8126,0.6963 -4.9148,0.7804 -10.7586,0.82092 -3.0344,0.021 -5.8276,0.016 -6.2068,-0.01 z M 169.4482,281.60471 c -11.9842,-0.49514 -21.2744,-3.65248 -28.1672,-9.57274 -6.819,-5.85694 -10.4868,-13.65152 -11.3632,-24.1472 -0.2028,-2.4308 -0.084,-7.94964 0.221,-10.2069 1.8074,-13.40212 8.9366,-23.1338 21.57,-29.44358 11.5632,-5.7753 26.7126,-8.06836 46.4292,-7.0277 4.8096,0.25386 10.7772,0.91416 14.2252,1.57396 0.5968,0.1142 1.1626,0.20764 1.2574,0.20764 0.2186,4e-5 0.2428,-6.7503 0.032,-9.03444 -0.7496,-8.13996 -4.4638,-13.90796 -11.3102,-17.56476 -5.2472,-2.8026 -12.1312,-4.47156 -21.1016,-5.11594 -1.0242,-0.0736 -9.4034,-0.33236 -18.6208,-0.57508 -9.2172,-0.24272 -16.769,-0.44748 -16.7816,-0.45502 -0.058,-0.034 2.4324,-23.0203 2.501,-23.089 0.106,-0.1056 24.9174,0.22686 29.3842,0.39364 26.3204,0.9828 43.4306,8.31462 52.8746,22.65694 3.8574,5.85838 6.355,12.81664 7.3856,20.5768 0.12,0.91034 0.2864,2.15172 0.368,2.75862 0.1,0.73628 0.186,11.21392 0.261,31.4894 0.062,16.71226 0.15,30.42386 0.196,30.47018 0.046,0.0464 4.7864,0.66064 10.5336,1.3651 5.747,0.70448 10.713,1.31912 11.0356,1.36586 l 0.5862,0.085 v 10.47432 10.4743 l -0.9312,0.004 c -0.512,0.002 -9.931,0.27404 -20.931,0.60318 -11,0.32914 -20.0316,0.5492 -20.0702,0.489 -0.038,-0.0602 -0.3356,-6.21264 -0.6596,-13.67214 -0.324,-7.45948 -0.6244,-13.9196 -0.6674,-14.3558 l -0.078,-0.7931 H 216.33 c -0.7132,0 -1.2968,0.0278 -1.2968,0.0618 0,0.48984 -0.511,3.69254 -0.7822,4.90234 -2.1432,9.55908 -8.5484,16.95352 -18.2598,21.0796 -4.1348,1.7567 -9.4816,3.06738 -14.975,3.6707 -1.6582,0.1822 -8.388,0.53134 -9.0174,0.46794 -0.114,-0.012 -1.262,-0.0644 -2.5518,-0.1178 z m 11.4028,-20.96662 c 9.186,-0.62226 15.8116,-2.86822 21.9076,-7.4261 3.795,-2.83744 6.3804,-5.95744 8.415,-10.1548 1.116,-2.30216 1.647,-3.81834 2.1502,-6.13794 0.3682,-1.69778 0.3748,-1.8171 0.4326,-7.80512 l 0.058,-6.08102 -1.149,-0.1576 c -4.3482,-0.59676 -9.1284,-0.82962 -19.3558,-0.94288 -7.7374,-0.0856 -10.4286,-0.002 -14.4138,0.44508 -13.2844,1.49224 -21.107,6.1976 -23.629,14.21326 -0.5744,1.82538 -0.8194,3.6285 -0.8226,6.0525 0,2.61726 0.2488,4.3243 0.9476,6.41346 0.7658,2.28892 1.685,3.8126 3.3544,5.56006 2.7994,2.93004 6.9284,4.89278 11.9426,5.67688 2.9826,0.46642 6.5664,0.58784 10.1614,0.3443 z"
       id="path7040" /></g></svg>
