<?xml version="1.0" encoding="UTF-8" standalone="no"?>
<!-- Created with Inkscape (http://www.inkscape.org/) -->

<svg
   width="4in"
   height="4in"
   viewBox="0 0 101.6 101.6"
   version="1.1"
   id="svg5"
   inkscape:version="1.3.2 (091e20e, 2023-11-25, custom)"
   xml:space="preserve"
   sodipodi:docname="reddit.svg"
   xmlns:inkscape="http://www.inkscape.org/namespaces/inkscape"
   xmlns:sodipodi="http://sodipodi.sourceforge.net/DTD/sodipodi-0.dtd"
   xmlns="http://www.w3.org/2000/svg"
   xmlns:svg="http://www.w3.org/2000/svg"><sodipodi:namedview
     id="namedview7"
     pagecolor="#ffffff"
     bordercolor="#000000"
     borderopacity="0.25"
     inkscape:showpageshadow="2"
     inkscape:pageopacity="0.0"
     inkscape:pagecheckerboard="false"
     inkscape:deskcolor="#d1d1d1"
     inkscape:document-units="mm"
     showgrid="false"
     inkscape:zoom="0.83784788"
     inkscape:cx="62.660539"
     inkscape:cy="164.7077"
     inkscape:window-width="1920"
     inkscape:window-height="1130"
     inkscape:window-x="-6"
     inkscape:window-y="-6"
     inkscape:window-maximized="1"
     inkscape:current-layer="layer1" /><defs
     id="defs2" /><g
     inkscape:label="Layer 1"
     inkscape:groupmode="layer"
     id="layer1"><path
       style="fill:#000000;stroke-width:1.04965"
       d="m 47.807048,94.545851 c -1.029076,-0.02911 -2.081539,-0.08717 -2.338809,-0.129021 -0.25727,-0.04184 -0.872556,-0.110345 -1.367304,-0.152214 -1.079994,-0.09139 -2.378257,-0.247962 -3.310313,-0.399204 -0.376008,-0.06101 -0.910338,-0.143055 -1.187395,-0.182314 -0.27706,-0.03926 -0.55232,-0.09089 -0.611688,-0.114717 -0.05938,-0.02383 -0.367015,-0.08679 -0.683653,-0.139907 -0.543528,-0.09117 -0.912288,-0.168591 -2.01543,-0.423137 -0.25727,-0.05937 -0.670056,-0.154391 -0.917305,-0.211172 -0.669711,-0.153801 -1.080051,-0.263892 -1.24114,-0.332989 -0.07916,-0.03395 -0.288406,-0.08376 -0.464994,-0.110687 -0.176587,-0.02692 -0.370888,-0.07331 -0.43178,-0.103056 -0.0609,-0.02976 -0.288822,-0.10561 -0.506511,-0.168555 -0.836591,-0.241909 -1.407591,-0.421486 -1.513592,-0.476017 -0.06067,-0.03122 -0.222586,-0.08079 -0.359817,-0.110183 -0.13723,-0.02938 -0.281894,-0.07581 -0.321473,-0.103174 -0.03958,-0.02736 -0.31484,-0.125388 -0.611689,-0.217847 -0.296848,-0.09246 -0.57049,-0.195862 -0.60809,-0.229779 -0.0376,-0.03391 -0.113666,-0.06167 -0.169032,-0.06167 -0.05538,0 -0.218904,-0.05127 -0.363415,-0.113937 -0.144511,-0.06266 -0.369094,-0.159806 -0.499069,-0.215867 -0.129978,-0.05606 -0.269386,-0.101935 -0.309794,-0.101935 -0.06364,0 -0.290476,-0.09137 -0.893152,-0.359779 -0.605513,-0.269665 -0.829832,-0.359779 -0.895594,-0.359779 -0.04175,0 -0.07591,-0.03238 -0.07591,-0.07196 0,-0.03958 -0.052,-0.07196 -0.115527,-0.07196 -0.06354,0 -0.44873,-0.161901 -0.855977,-0.35978 -0.407249,-0.197879 -0.776246,-0.359779 -0.819996,-0.359779 -0.04376,0 -0.07955,-0.03238 -0.07955,-0.07196 0,-0.03958 -0.05757,-0.07196 -0.127915,-0.07196 -0.07035,0 -0.19238,-0.04515 -0.271171,-0.100329 -0.07879,-0.05518 -0.563654,-0.316971 -1.077472,-0.581754 -0.513818,-0.264782 -0.94501,-0.511055 -0.958202,-0.547272 -0.01319,-0.03622 -0.057,-0.06585 -0.09732,-0.06585 -0.07012,0 -1.998974,-1.133206 -2.073577,-1.218222 -0.01978,-0.02256 -0.100749,-0.0798 -0.179908,-0.127223 -0.852629,-0.510759 -1.115431,-0.686166 -1.115431,-0.744489 0,-0.03781 -0.03484,-0.06874 -0.07744,-0.06874 -0.04258,0 -0.261175,-0.138902 -0.485752,-0.308672 -0.224577,-0.169769 -0.489282,-0.360316 -0.588232,-0.423438 -0.09895,-0.06312 -0.260867,-0.186995 -0.359816,-0.275273 -0.09895,-0.08828 -0.260852,-0.213438 -0.359785,-0.278133 -0.185903,-0.12157 -0.442095,-0.325486 -0.644987,-0.513382 -0.0641,-0.05937 -0.277139,-0.237274 -0.473417,-0.395356 -1.417437,-1.14161 -3.59804,-3.355199 -4.744837,-4.816625 -0.15736,-0.200533 -0.303188,-0.380796 -0.324061,-0.400584 -0.02088,-0.01978 -0.127589,-0.168211 -0.237146,-0.329829 -0.109556,-0.161618 -0.2553439,-0.3559 -0.3239721,-0.431736 -0.3311947,-0.365979 -1.7432743,-2.598609 -1.7432743,-2.756278 0,-0.04398 -0.026285,-0.07995 -0.058417,-0.07995 -0.058468,0 -0.8017841,-1.445328 -1.0916849,-2.122699 C 6.740545,71.937801 6.6270439,71.678759 6.573009,71.560034 6.3351922,71.037493 6.2482095,70.812011 6.2482095,70.718067 c 0,-0.05537 -0.027754,-0.131417 -0.061675,-0.169015 C 6.1526137,70.511456 6.0492023,70.237843 5.9567322,69.941025 5.8642623,69.644207 5.7639021,69.36737 5.73371,69.325829 5.7035176,69.284288 5.6567819,69.1062 5.6298523,68.930072 5.6029226,68.753945 5.556589,68.57746 5.526887,68.537885 5.4971894,68.498327 5.449032,68.321477 5.4198733,68.144908 5.3907148,67.96834 5.339316,67.774059 5.3056536,67.713173 5.2719913,67.652287 5.2098767,67.392 5.1676212,67.134757 5.1253657,66.877516 5.0434785,66.408003 4.9856495,66.091396 4.9278208,65.774792 4.8452902,65.272899 4.8022484,64.97608 4.7043045,64.300654 4.70243,60.36549 4.7997294,59.687321 c 0.039747,-0.27703 0.1115722,-0.786035 0.1596127,-1.13112 l 0.087346,-0.62743 -0.9758894,-0.9556 C 2.8946654,55.821489 2.0867296,54.778822 1.6027189,53.788035 c -0.077038,-0.1577 -0.1805482,-0.33001 -0.2300231,-0.38291 -0.049475,-0.0529 -0.089954,-0.139815 -0.089954,-0.193144 0,-0.05333 -0.046594,-0.188633 -0.1035419,-0.300674 -0.164287,-0.32322 -0.3282377,-0.722808 -0.3282377,-0.799996 0,-0.03896 -0.0483755,-0.163591 -0.1075017,-0.276948 C 0.684335,51.721006 0.63575929,51.557314 0.63551549,51.470604 0.63527163,51.383904 0.60455979,51.294094 0.56726709,51.271049 0.52997404,51.248004 0.47731373,51.076095 0.45024411,50.889033 0.42317443,50.701972 0.37472226,50.515624 0.342572,50.47493 0.31042174,50.43424 0.25094883,50.142813 0.21040963,49.827326 0.16987015,49.51184 0.10547414,49.075623 0.06730569,48.857955 -0.01977021,48.361378 -0.02307676,46.694227 0.06159529,45.97972 0.19751171,44.832799 0.27285258,44.355365 0.33979121,44.2168 c 0.0382365,-0.07915 0.0898051,-0.296964 0.1145954,-0.484026 0.0247907,-0.187062 0.0755869,-0.358969 0.11287935,-0.382016 0.0372928,-0.02304 0.068005,-0.112846 0.0682485,-0.199555 2.4384e-4,-0.08671 0.045767,-0.244519 0.10116292,-0.350687 0.0553959,-0.10617 0.12408082,-0.299384 0.15263387,-0.429372 0.028553,-0.129989 0.0777703,-0.285975 0.10937229,-0.346637 0.0316013,-0.06066 0.22590266,-0.466478 0.43177996,-0.901812 0.7506094,-1.587183 1.9449924,-3.069128 3.2345558,-4.013312 0.257269,-0.188365 0.5310193,-0.3905 0.6083343,-0.449186 0.077315,-0.05868 0.1825612,-0.106699 0.2338808,-0.106699 0.05132,0 0.093307,-0.0274 0.093307,-0.06089 0,-0.06174 1.4519405,-0.802582 1.5729301,-0.802582 0.036173,0 0.1585312,-0.04838 0.2719001,-0.107486 0.1133687,-0.05912 0.2608854,-0.107691 0.3278144,-0.107935 0.06693,-2.42e-4 0.139434,-0.02914 0.1611228,-0.06424 0.021687,-0.03508 0.161229,-0.08562 0.3100914,-0.11228 0.1488613,-0.02667 0.367807,-0.07862 0.4865471,-0.115435 1.2546728,-0.389098 5.0512867,-0.542574 5.4633647,-0.220854 0.04279,0.03341 0.231837,0.08082 0.420088,0.105352 0.361945,0.04717 1.012372,0.228278 1.221952,0.340251 0.06873,0.03671 0.17575,0.06676 0.237828,0.06676 0.06209,0 0.264917,0.06653 0.450748,0.147842 0.185832,0.08132 0.402646,0.174074 0.481804,0.206137 0.448925,0.181837 1.759949,0.84748 1.949803,0.98997 0.122476,0.09192 0.245226,0.167125 0.272777,0.167125 0.06677,0 0.505557,0.309244 0.536015,0.377769 0.01319,0.02969 0.06177,0.05528 0.107946,0.05689 0.04618,0.0016 0.196076,0.09874 0.333111,0.215867 0.327969,0.280305 0.404573,0.271697 1.045708,-0.117506 0.667069,-0.404945 1.2498,-0.724546 2.051435,-1.125119 0.336428,-0.168111 0.628205,-0.327756 0.64839,-0.354767 0.02018,-0.02701 0.125432,-0.07137 0.233881,-0.09858 0.108448,-0.02722 0.197178,-0.07835 0.197178,-0.113638 0,-0.03529 0.04047,-0.06432 0.08995,-0.06451 0.04947,-1.93e-4 0.310508,-0.113525 0.580074,-0.251846 0.269567,-0.138322 0.53673,-0.251496 0.593698,-0.251496 0.05698,0 0.103573,-0.03238 0.103573,-0.07196 0,-0.03957 0.03416,-0.07196 0.07591,-0.07196 0.06577,0 0.290082,-0.09012 0.895594,-0.359779 0.07916,-0.03526 0.305845,-0.132967 0.503743,-0.217139 0.1979,-0.08418 0.461862,-0.199272 0.586584,-0.255774 0.124721,-0.0565 0.258649,-0.102732 0.297616,-0.102732 0.03897,0 0.16361,-0.04837 0.27698,-0.107486 0.113368,-0.05912 0.256319,-0.107691 0.317668,-0.107933 0.06135,-2.45e-4 0.142306,-0.02779 0.179908,-0.06122 0.0376,-0.03343 0.278857,-0.134254 0.536126,-0.22406 0.25727,-0.0898 0.569808,-0.208168 0.694528,-0.263025 0.124721,-0.05486 0.276631,-0.09975 0.337579,-0.09975 0.06095,0 0.129086,-0.02957 0.151418,-0.0657 0.02233,-0.03614 0.172617,-0.088 0.333965,-0.115252 0.161347,-0.02726 0.379765,-0.09463 0.485375,-0.14973 0.10561,-0.05509 0.258404,-0.100372 0.339542,-0.10062 0.08114,-2.43e-4 0.178289,-0.03096 0.215891,-0.06827 0.0376,-0.03731 0.197898,-0.100113 0.356218,-0.139561 0.158318,-0.03945 0.433579,-0.108278 0.611688,-0.152946 0.178109,-0.04467 0.37652,-0.109173 0.440911,-0.143341 0.06439,-0.03417 0.242503,-0.08475 0.395799,-0.112408 0.153297,-0.02766 0.311106,-0.07478 0.350686,-0.104715 0.03958,-0.02994 0.217689,-0.07613 0.395798,-0.102625 0.178108,-0.02651 0.388603,-0.07685 0.467762,-0.111874 0.07916,-0.03502 0.305844,-0.100178 0.503743,-0.144766 0.1979,-0.0446 0.57031,-0.129972 0.827579,-0.18972 1.009263,-0.234395 2.257892,-0.487679 3.130407,-0.635005 0.316638,-0.05346 0.640473,-0.116511 0.719633,-0.140103 0.07916,-0.0236 0.419185,-0.07731 0.755614,-0.119352 0.336429,-0.04206 0.951716,-0.121869 1.367305,-0.177371 0.415588,-0.0555 1.144216,-0.135461 1.619175,-0.177685 0.769803,-0.06844 1.579441,-0.171002 2.026788,-0.256756 0.155741,-0.02985 0.155741,-0.02985 0.190813,-5.480694 0.02216,-3.443678 0.06302,-5.570073 0.110994,-5.774642 0.04176,-0.178091 0.108156,-0.501892 0.147555,-0.719559 0.03939,-0.217666 0.109895,-0.525278 0.156659,-0.683581 0.232586,-0.78736 0.382284,-1.229755 0.437061,-1.291608 0.0333,-0.0376 0.06054,-0.11515 0.06054,-0.172339 0,-0.09055 0.187279,-0.518486 0.634687,-1.450267 0.06652,-0.138515 0.190032,-0.348987 0.274493,-0.467714 0.08446,-0.118727 0.175698,-0.288723 0.202749,-0.377768 0.02704,-0.08905 0.0794,-0.161901 0.116297,-0.161901 0.03692,0 0.06712,-0.03537 0.06712,-0.07859 0,-0.04323 0.05667,-0.15281 0.125937,-0.243518 0.06927,-0.09071 0.17451,-0.237398 0.233881,-0.325979 0.05938,-0.08859 0.142426,-0.197563 0.18457,-0.242185 0.04214,-0.04462 0.107173,-0.135967 0.144516,-0.202994 0.242933,-0.436064 2.015335,-2.225155 2.534183,-2.5580446 0.107345,-0.068872 0.25994,-0.1842341 0.339099,-0.2563595 0.07916,-0.072125 0.305844,-0.2272561 0.503743,-0.3447355 0.558048,-0.3312745 0.645006,-0.3857922 0.683652,-0.4286119 0.01978,-0.021927 0.171237,-0.1092141 0.336546,-0.1939724 0.165312,-0.084759 0.359613,-0.1871084 0.431782,-0.2274445 0.07217,-0.040336 0.293132,-0.1415747 0.491032,-0.2249745 0.197899,-0.0834 0.456967,-0.1945621 0.575706,-0.2470271 0.118739,-0.052465 0.394,-0.1518287 0.611689,-0.2208084 0.217688,-0.068979 0.448484,-0.151019 0.512875,-0.1823099 0.06439,-0.03129 0.242501,-0.077628 0.395799,-0.1029714 0.153295,-0.025343 0.343488,-0.075272 0.422648,-0.1109521 0.145782,-0.06571 0.737928,-0.1671871 1.655157,-0.2836478 0.64955,-0.082474 2.384315,-0.083681 2.986479,-0.00208 0.257269,0.034863 0.758885,0.1004419 1.1147,0.1457285 0.355817,0.045287 0.679652,0.1082442 0.719634,0.1399051 0.03998,0.031661 0.258388,0.080017 0.485348,0.1074581 0.226961,0.027441 0.428632,0.075739 0.448158,0.1073282 0.01952,0.03159 0.196813,0.078833 0.393974,0.104984 0.197161,0.026152 0.377909,0.07899 0.40166,0.1174183 0.02376,0.038429 0.114139,0.070069 0.200858,0.070313 0.08671,2.439e-4 0.250426,0.048814 0.363796,0.107934 0.113369,0.059119 0.259094,0.1076901 0.323836,0.1079338 0.06474,2.439e-4 0.204582,0.045762 0.31076,0.1011525 0.106182,0.05539 0.294565,0.1230024 0.418636,0.1502503 0.124073,0.027249 0.312459,0.094862 0.418638,0.1502504 0.106182,0.05539 0.247811,0.1009076 0.31474,0.1011522 0.06694,2.439e-4 0.141704,0.032824 0.166164,0.072399 0.02446,0.039576 0.09924,0.072155 0.166165,0.072399 0.06694,2.438e-4 0.208562,0.045762 0.31474,0.1011522 0.106181,0.05539 0.292013,0.1224418 0.412964,0.1490046 0.120952,0.026563 0.238389,0.078185 0.260967,0.1147157 0.02258,0.036531 0.09582,0.06662 0.162742,0.066863 0.06694,2.439e-4 0.214446,0.048815 0.327815,0.1079339 0.113369,0.059119 0.238009,0.1074901 0.276978,0.1074901 0.03897,0 0.172897,0.045596 0.297619,0.1013258 0.463802,0.2072415 2.446108,0.8341008 2.637663,0.8341008 0.0659,0 0.143596,0.02378 0.172663,0.05284 0.05111,0.05112 0.310629,0.11653 1.374424,0.346448 2.861831,0.618532 5.865012,0.871412 5.865012,0.493857 0,-0.04379 0.05667,-0.147529 0.125936,-0.230534 0.06926,-0.083 0.206895,-0.257573 0.305845,-0.387928 0.585406,-0.7712123 2.02976,-2.0735855 2.299639,-2.0735855 0.04134,0 0.07515,-0.02822 0.07515,-0.062711 0,-0.068459 1.42422,-0.801038 1.556976,-0.8008659 0.04495,5.83e-5 0.174485,-0.048265 0.287852,-0.1073846 0.11337,-0.059119 0.272512,-0.10769 0.353651,-0.1079339 0.08114,-2.438e-4 0.17829,-0.031138 0.21589,-0.068655 0.066,-0.065844 0.499278,-0.1603584 1.327724,-0.2896228 0.515952,-0.080505 1.9519,-0.080739 2.410773,-3.931e-4 0.98153,0.1718605 1.56618,0.3176047 2.014973,0.5023019 0.847242,0.3486753 1.933806,0.9438985 2.29603,1.2577731 0.115001,0.099651 0.228342,0.1812278 0.251871,0.1812829 0.539123,0.00126 3.029259,3.5704038 3.029259,4.3418718 0,0.06094 0.02864,0.128504 0.06367,0.150142 0.03501,0.02163 0.08678,0.193543 0.115046,0.382015 0.02825,0.188471 0.08125,0.398477 0.117754,0.466679 0.205305,0.383611 0.202116,3.649978 -0.0038,3.900487 -0.03481,0.04235 -0.08625,0.231201 -0.114313,0.419672 -0.02806,0.188472 -0.07967,0.360378 -0.114679,0.382014 -0.03502,0.02164 -0.06367,0.08921 -0.06367,0.150143 0,0.06094 -0.05153,0.229025 -0.114542,0.373522 -0.233424,0.535389 -0.632081,1.343194 -0.680067,1.378037 -0.02725,0.01978 -0.07229,0.108833 -0.100081,0.197879 -0.02779,0.08904 -0.08073,0.1619 -0.117645,0.1619 -0.03691,0 -0.06712,0.0369 -0.06712,0.08198 0,0.322383 -2.258234,2.580381 -2.580649,2.580381 -0.04509,0 -0.08199,0.03019 -0.08199,0.06711 0,0.03691 -0.07287,0.08984 -0.161918,0.117632 -0.08905,0.0278 -0.178109,0.07282 -0.197899,0.10007 -0.03485,0.04799 -0.842735,0.446596 -1.37818,0.679996 -0.14451,0.063 -0.312614,0.114532 -0.37356,0.114532 -0.06095,0 -0.128519,0.02864 -0.150157,0.06366 -0.02163,0.03501 -0.193564,0.08661 -0.382055,0.114669 -0.188491,0.02806 -0.377402,0.07953 -0.419801,0.11437 -0.256245,0.210597 -3.680581,0.211349 -3.95041,8.66e-4 -0.04093,-0.03193 -0.218529,-0.08007 -0.394676,-0.107 -0.176145,-0.02694 -0.354255,-0.07298 -0.395798,-0.102323 -0.04154,-0.02935 -0.310314,-0.131991 -0.597269,-0.228088 -0.286953,-0.0961 -0.521734,-0.196671 -0.521734,-0.2235 0,-0.02683 -0.08873,-0.07104 -0.197178,-0.09826 -0.108447,-0.02722 -0.213695,-0.0712 -0.233881,-0.09775 -0.02018,-0.02657 -0.165265,-0.113044 -0.322398,-0.192195 -1.066751,-0.537347 -3.348453,-2.806834 -3.348453,-3.330528 0,-0.132007 -0.474303,-0.219926 -1.367304,-0.253451 -0.534328,-0.02006 -1.165806,-0.07178 -1.403285,-0.114926 -0.23748,-0.04315 -0.707041,-0.10955 -1.043469,-0.147557 -0.772586,-0.08728 -1.821371,-0.249808 -2.518717,-0.390326 -0.296848,-0.05982 -0.734027,-0.144946 -0.971505,-0.189175 -0.237479,-0.04423 -0.496548,-0.108413 -0.575707,-0.142627 -0.07916,-0.03422 -0.273462,-0.08268 -0.43178,-0.107712 -0.15832,-0.02503 -0.385004,-0.07487 -0.503744,-0.110766 -0.11874,-0.03589 -0.394,-0.113227 -0.611689,-0.171849 -0.763855,-0.205704 -1.476629,-0.412505 -1.619176,-0.469781 -0.07916,-0.03181 -0.386802,-0.131292 -0.68365,-0.221079 -0.296849,-0.08979 -0.570489,-0.191 -0.608091,-0.224917 -0.0376,-0.03392 -0.134751,-0.06186 -0.21589,-0.06212 -0.08114,-2.44e-4 -0.234398,-0.04577 -0.340577,-0.101148 -0.106181,-0.05538 -0.292013,-0.122441 -0.412963,-0.149005 -0.120952,-0.02657 -0.238387,-0.07819 -0.260967,-0.114715 -0.02258,-0.03654 -0.112006,-0.06661 -0.198725,-0.06686 -0.08671,-2.44e-4 -0.244543,-0.04577 -0.350722,-0.101148 -0.106181,-0.05539 -0.300479,-0.123688 -0.43178,-0.151776 -0.131301,-0.02809 -0.271112,-0.07597 -0.310691,-0.106407 -0.03958,-0.03044 -0.185307,-0.079 -0.323835,-0.107933 -0.13853,-0.02893 -0.284255,-0.07497 -0.323835,-0.102336 -0.03958,-0.02735 -0.314839,-0.123612 -0.61169,-0.213906 -0.296847,-0.0903 -0.60449,-0.191808 -0.683651,-0.225588 -0.07916,-0.03378 -0.257268,-0.08323 -0.395798,-0.109896 -0.13853,-0.02666 -0.284256,-0.07303 -0.323835,-0.103049 -0.03958,-0.03002 -0.233881,-0.07804 -0.43178,-0.106727 -0.1979,-0.02868 -0.408393,-0.07752 -0.467762,-0.108532 -0.05938,-0.03101 -0.43178,-0.07616 -0.827579,-0.100341 -2.467973,-0.150792 -4.044324,0.73276 -4.671703,2.618512 -0.311072,0.935008 -0.399258,11.050568 -0.09684,11.10763 0.609912,0.115082 1.194849,0.18672 1.818041,0.222662 0.395798,0.02283 0.86536,0.07194 1.043468,0.109145 0.17811,0.0372 0.631479,0.10048 1.007487,0.140611 0.851538,0.09089 2.034036,0.280738 3.778076,0.606575 0.316638,0.05915 0.770008,0.142747 1.007487,0.185753 0.237479,0.043 0.480355,0.09956 0.539725,0.125695 0.115437,0.0508 0.721549,0.19274 1.367304,0.320199 0.217689,0.04297 0.428181,0.102937 0.467762,0.133257 0.03958,0.03032 0.216444,0.07899 0.393031,0.108145 0.176587,0.02916 0.370888,0.07918 0.431779,0.111161 0.108063,0.05676 0.427162,0.144317 1.082219,0.296951 0.178108,0.0415 0.356218,0.100437 0.395798,0.13097 0.03958,0.03054 0.209423,0.07819 0.37743,0.10589 0.168008,0.02771 0.321999,0.07712 0.342204,0.109808 0.02021,0.03268 0.165929,0.08126 0.323835,0.107934 0.157903,0.02667 0.30363,0.07525 0.323835,0.107934 0.02021,0.03268 0.16593,0.08126 0.323835,0.107933 0.157904,0.02667 0.305372,0.07806 0.327705,0.114195 0.02233,0.03613 0.09537,0.06589 0.162295,0.06614 0.06694,2.44e-4 0.208562,0.04577 0.31474,0.101148 0.106182,0.05539 0.300479,0.123691 0.43178,0.151778 0.1313,0.02809 0.271112,0.07444 0.310692,0.102991 0.03957,0.02856 0.282456,0.126993 0.539725,0.218738 0.257268,0.09175 0.498526,0.194161 0.536127,0.22759 0.0376,0.03343 0.112241,0.06077 0.165865,0.06077 0.05363,0 0.249547,0.0671 0.435379,0.149113 0.313246,0.138243 0.633087,0.276207 0.985548,0.425121 1.332989,0.563185 4.379581,2.103313 5.469693,2.765069 0.6585,0.399744 0.934104,0.367368 1.474769,-0.173242 0.08686,-0.08684 0.502586,-0.359779 0.54801,-0.359779 0.02755,0 0.150301,-0.0752 0.272776,-0.167127 0.189856,-0.14249 1.50088,-0.808132 1.949803,-0.989969 0.07916,-0.03207 0.295973,-0.124826 0.481806,-0.206137 0.185832,-0.08132 0.388668,-0.147842 0.450746,-0.147842 0.06209,0 0.169102,-0.03004 0.23783,-0.06676 0.209579,-0.111973 0.860007,-0.293083 1.221953,-0.340251 0.188251,-0.02453 0.37729,-0.07194 0.420088,-0.105351 0.412078,-0.321721 4.208691,-0.168244 5.463364,0.220854 0.118739,0.03682 0.337686,0.08876 0.486547,0.115434 0.148861,0.02666 0.288402,0.07719 0.310091,0.112281 0.02169,0.03508 0.0893,0.0638 0.150247,0.0638 0.06095,0 0.229049,0.05153 0.37356,0.114517 0.74304,0.323849 0.931132,0.411577 1.162291,0.542104 0.138528,0.07823 0.340925,0.176123 0.449771,0.217555 0.108845,0.04142 0.197898,0.104544 0.197898,0.140246 0,0.03571 0.04198,0.06492 0.09331,0.06492 0.05133,0 0.156566,0.0475 0.233881,0.105567 0.07733,0.05807 0.367258,0.272801 0.644316,0.477203 1.086634,0.801668 3.130402,3.173448 3.130402,3.63281 0,0.04939 0.0243,0.100588 0.054,0.11377 0.0485,0.02156 0.2131,0.345971 0.48674,0.959413 0.26515,0.59441 0.32285,0.753123 0.32285,0.888087 0,0.08073 0.0296,0.165051 0.0657,0.187382 0.0361,0.02233 0.0884,0.178047 0.11608,0.346038 0.0277,0.167989 0.0784,0.340341 0.11274,0.383004 0.0343,0.04266 0.098,0.301705 0.1416,0.575647 0.0436,0.273944 0.10933,0.676169 0.1461,0.893836 0.092,0.543962 0.0859,3.256123 -0.008,3.741707 -0.0422,0.217667 -0.10776,0.590038 -0.14565,0.827492 -0.0379,0.237456 -0.0992,0.512687 -0.13616,0.611626 -0.037,0.09895 -0.0892,0.293221 -0.11607,0.431735 -0.0268,0.138516 -0.0737,0.284227 -0.10413,0.323802 -0.0304,0.03958 -0.0794,0.184224 -0.10878,0.32144 -0.0294,0.137217 -0.0769,0.299117 -0.10567,0.359779 -0.0287,0.06066 -0.10096,0.223627 -0.16052,0.362143 -0.27789,0.646233 -0.43854,0.991248 -0.56957,1.22325 -0.0782,0.138514 -0.176136,0.340891 -0.217572,0.449724 -0.04143,0.108833 -0.10104,0.197879 -0.13246,0.197879 -0.03141,0 -0.07744,0.08096 -0.102269,0.17989 -0.02483,0.09894 -0.07693,0.17989 -0.115746,0.17989 -0.03882,0 -0.07059,0.03536 -0.07059,0.07859 0,0.04323 -0.05667,0.152811 -0.125937,0.243517 -0.06928,0.0907 -0.17451,0.237398 -0.233881,0.325979 -0.05938,0.08859 -0.142425,0.197564 -0.184569,0.242185 -0.04215,0.04461 -0.107173,0.135968 -0.144517,0.202995 -0.170346,0.305768 -1.21596,1.418667 -1.965483,2.09196 -0.434232,0.390068 -0.426261,0.320923 -0.192727,1.671791 0.247235,1.430124 0.269939,1.722582 0.268129,3.453886 -0.0018,1.723656 -0.02578,2.03872 -0.260078,3.417904 -0.05715,0.336395 -0.138822,0.822098 -0.181495,1.07934 -0.04266,0.257242 -0.105136,0.517528 -0.138794,0.578414 -0.03366,0.06089 -0.08505,0.255167 -0.114221,0.431736 -0.02916,0.176569 -0.07733,0.353414 -0.107022,0.39299 -0.0297,0.03958 -0.07603,0.21606 -0.102969,0.392187 -0.02693,0.176128 -0.07367,0.354219 -0.103854,0.395757 -0.03018,0.04154 -0.130552,0.318378 -0.223022,0.615196 -0.09247,0.296818 -0.195881,0.570431 -0.229801,0.608027 -0.03391,0.0376 -0.06169,0.113655 -0.06169,0.169016 0,0.09395 -0.08698,0.319425 -0.324801,0.841966 -0.05403,0.118727 -0.167154,0.377768 -0.251375,0.575647 -0.255519,0.600335 -1.020886,2.085125 -1.08801,2.110706 -0.03461,0.01319 -0.06295,0.05727 -0.06295,0.09794 0,0.152721 -1.420138,2.393205 -1.743274,2.750282 -0.06863,0.07583 -0.214417,0.270118 -0.323972,0.431735 -0.109558,0.161619 -0.216273,0.310042 -0.237146,0.329829 -0.02088,0.01979 -0.166701,0.200051 -0.324062,0.400585 -1.136348,1.448107 -3.394384,3.739254 -4.747789,4.817405 -0.197899,0.15765 -0.392201,0.322101 -0.43178,0.365445 -0.03958,0.04335 -0.282457,0.236808 -0.539725,0.429919 -0.524646,0.39381 -0.541204,0.406677 -0.791597,0.615098 -0.173274,0.144229 -0.821222,0.598423 -1.065701,0.74703 -0.0651,0.03958 -0.151509,0.107486 -0.191999,0.150906 -0.113576,0.121798 -0.755988,0.532675 -0.832845,0.532675 -0.03759,0 -0.06836,0.03019 -0.06836,0.06711 0,0.03692 -0.07286,0.08984 -0.161918,0.117632 -0.08905,0.02779 -0.178108,0.07077 -0.197899,0.09551 -0.04329,0.05413 -1.22089,0.799081 -1.26317,0.799081 -0.0163,0 -0.248793,0.134149 -0.516655,0.298109 -0.832122,0.509347 -3.01666,1.643214 -3.167655,1.644145 -0.04946,3.05e-4 -0.08996,0.03294 -0.08996,0.07252 0,0.03958 -0.03491,0.07196 -0.07758,0.07196 -0.04267,0 -0.326028,0.116117 -0.62968,0.258039 -0.64106,0.299621 -0.949866,0.43626 -1.667526,0.73784 -0.09895,0.04158 -0.331952,0.142131 -0.517786,0.223443 -0.185832,0.08131 -0.386318,0.14784 -0.445524,0.14784 -0.0592,0 -0.12612,0.02989 -0.148699,0.06642 -0.02258,0.03654 -0.140015,0.08816 -0.260966,0.114715 -0.120952,0.02657 -0.306785,0.09361 -0.412965,0.149006 -0.106181,0.05539 -0.229829,0.100911 -0.27478,0.101148 -0.04495,2.42e-4 -0.174484,0.04882 -0.287853,0.107933 -0.113369,0.05912 -0.260886,0.107691 -0.327812,0.107934 -0.06694,2.44e-4 -0.139437,0.02916 -0.161124,0.06424 -0.02169,0.03508 -0.151766,0.08487 -0.289061,0.110623 -0.137295,0.02576 -0.340049,0.09399 -0.450567,0.151625 -0.110515,0.05764 -0.27189,0.104996 -0.358608,0.105244 -0.08671,2.45e-4 -0.175944,0.03001 -0.198277,0.06614 -0.02233,0.03613 -0.169801,0.08752 -0.327705,0.114195 -0.157905,0.02667 -0.304215,0.07618 -0.325134,0.110037 -0.02092,0.03385 -0.183406,0.08334 -0.36108,0.109976 -0.177672,0.02663 -0.339005,0.07427 -0.358516,0.105826 -0.01951,0.03156 -0.172935,0.08007 -0.340942,0.107766 -0.168006,0.02771 -0.33785,0.07543 -0.37743,0.106063 -0.03958,0.03062 -0.216443,0.07954 -0.393031,0.108695 -0.176586,0.02916 -0.370889,0.08008 -0.431779,0.113161 -0.0609,0.03308 -0.272632,0.0956 -0.470531,0.138917 -0.197899,0.04332 -0.554117,0.128376 -0.791597,0.18901 -0.237479,0.06064 -0.62608,0.150315 -0.86356,0.199286 -0.237479,0.04898 -0.480355,0.110045 -0.539725,0.135716 -0.05937,0.02568 -0.318437,0.0832 -0.575707,0.127846 -1.03727,0.179999 -1.48045,0.266187 -1.583194,0.307895 -0.05937,0.0241 -0.35082,0.07822 -0.647669,0.120269 -0.29685,0.04205 -0.847369,0.124113 -1.223377,0.18237 -0.995615,0.154254 -2.28304,0.307242 -3.310314,0.393372 -0.494748,0.04148 -1.093844,0.107816 -1.331322,0.147408 -0.451254,0.07524 -4.512335,0.214446 -5.757069,0.197351 -0.395799,-0.0055 -1.561604,-0.0337 -2.59068,-0.06282 z m 5.972958,-9.386127 c 0.752018,-0.02085 1.61018,-0.06976 1.90703,-0.108672 0.296847,-0.03892 0.879751,-0.103455 1.295339,-0.143421 1.309386,-0.125894 2.775433,-0.337354 4.209857,-0.60722 1.296577,-0.243932 1.588183,-0.303268 1.691138,-0.344115 0.05937,-0.02355 0.286055,-0.08011 0.503744,-0.125672 0.94023,-0.196806 1.191597,-0.256606 1.259357,-0.299606 0.03958,-0.02511 0.216446,-0.0696 0.393032,-0.09884 0.176587,-0.02925 0.370889,-0.07934 0.431781,-0.111326 0.0609,-0.03198 0.248342,-0.09274 0.416556,-0.135015 0.168215,-0.04227 0.443474,-0.111454 0.611689,-0.153729 0.168214,-0.04227 0.355481,-0.102927 0.416152,-0.134763 0.06067,-0.03184 0.21667,-0.08126 0.346672,-0.109807 0.130003,-0.02855 0.32324,-0.09722 0.429417,-0.152618 0.106182,-0.05539 0.246023,-0.100911 0.310763,-0.101148 0.06475,-2.45e-4 0.210467,-0.04882 0.323835,-0.107933 0.113369,-0.05912 0.256319,-0.107691 0.317668,-0.107934 0.06135,-2.45e-4 0.142308,-0.02768 0.179909,-0.06098 0.0376,-0.03329 0.287191,-0.132475 0.554647,-0.220408 0.267455,-0.08793 0.575097,-0.206208 0.683651,-0.26283 0.108554,-0.05662 0.238289,-0.103153 0.288302,-0.10339 0.05001,-2.44e-4 0.147161,-0.03126 0.21589,-0.06892 0.06873,-0.03766 0.238301,-0.116269 0.376831,-0.174689 1.359413,-0.573291 3.685514,-1.689287 3.730099,-1.789595 0.01319,-0.02968 0.05728,-0.05397 0.09795,-0.05397 0.04067,0 0.342025,-0.161901 0.669658,-0.35978 0.327631,-0.197879 0.628978,-0.359779 0.669658,-0.359779 0.04067,0 0.08475,-0.026 0.09795,-0.05776 0.01319,-0.03178 0.23448,-0.184588 0.491749,-0.339598 0.55527,-0.334563 1.300443,-0.837377 1.665512,-1.123828 0.144226,-0.113165 0.281611,-0.205755 0.305297,-0.205755 0.02369,0 0.11618,-0.06206 0.205535,-0.137921 0.08936,-0.07585 0.583451,-0.472512 1.097989,-0.881459 0.514538,-0.408946 1.388893,-1.198076 1.943009,-1.75362 0.94323,-0.945657 1.274824,-1.309872 1.962876,-2.155981 0.03219,-0.03958 0.13803,-0.184412 0.235215,-0.321859 0.09718,-0.137446 0.209085,-0.287285 0.248663,-0.332974 0.03958,-0.04569 0.12054,-0.155621 0.179908,-0.244296 0.05938,-0.08867 0.197,-0.28664 0.305845,-0.439927 0.108845,-0.153289 0.1979,-0.29235 0.1979,-0.309027 0,-0.01667 0.113342,-0.202402 0.251871,-0.412727 0.13853,-0.210325 0.251871,-0.420924 0.251871,-0.467998 0,-0.04707 0.02429,-0.09638 0.05398,-0.109575 0.05933,-0.02635 0.425011,-0.753881 0.663107,-1.319191 0.08335,-0.197879 0.182776,-0.416007 0.220969,-0.484727 0.03819,-0.06872 0.06964,-0.16586 0.06988,-0.215867 2.43e-4,-0.05 0.04577,-0.177785 0.101158,-0.283954 0.05539,-0.106171 0.124081,-0.299384 0.152635,-0.429373 0.02855,-0.129988 0.07797,-0.285975 0.109818,-0.346638 0.443509,-0.8448 0.720117,-4.145061 0.503779,-6.01068 -0.11583,-0.998864 -0.571935,-2.858197 -0.743121,-3.029366 -0.02902,-0.02902 -0.05275,-0.09912 -0.05275,-0.155802 0,-0.05667 -0.04623,-0.205089 -0.102743,-0.329798 -0.0565,-0.124708 -0.172136,-0.388643 -0.25695,-0.586522 -0.443155,-1.033924 -1.357049,-2.642124 -1.763225,-3.102788 -0.03958,-0.04489 -0.120539,-0.15406 -0.179907,-0.242601 -0.156376,-0.233214 -0.593463,-0.814889 -0.680846,-0.906072 -0.04112,-0.04291 -0.220496,-0.252984 -0.398606,-0.46683 -0.505995,-0.60752 -2.284472,-2.359489 -2.878135,-2.83524 -0.295045,-0.236443 -0.586938,-0.479296 -0.648651,-0.53967 -0.06172,-0.06037 -0.243362,-0.199492 -0.403665,-0.309149 -0.160303,-0.109655 -0.360256,-0.263462 -0.44434,-0.34179 -0.08409,-0.07833 -0.173863,-0.142414 -0.199507,-0.142414 -0.02564,0 -0.164628,-0.09259 -0.308853,-0.205756 -0.367003,-0.287967 -1.112536,-0.790757 -1.665513,-1.123227 -0.257268,-0.15468 -0.483953,-0.303134 -0.503744,-0.3299 -0.01978,-0.02676 -0.108843,-0.07141 -0.197898,-0.09919 -0.08905,-0.0278 -0.161918,-0.08072 -0.161918,-0.117633 0,-0.03691 -0.03624,-0.06711 -0.08055,-0.06711 -0.04429,0 -0.272766,-0.116759 -0.507709,-0.259464 -0.549052,-0.333498 -2.514329,-1.320873 -2.632109,-1.3224 -0.04946,-6.41e-4 -0.08996,-0.03354 -0.08996,-0.07312 0,-0.03958 -0.05168,-0.07196 -0.114835,-0.07196 -0.06316,0 -0.200787,-0.04681 -0.305843,-0.104015 -0.105061,-0.05721 -0.304354,-0.152011 -0.442882,-0.210669 -0.138531,-0.05866 -0.41379,-0.174885 -0.61169,-0.258284 -0.197898,-0.08341 -0.416049,-0.182881 -0.484775,-0.221069 -0.06873,-0.03818 -0.160985,-0.06943 -0.205015,-0.06943 -0.04403,0 -0.1821,-0.04787 -0.306821,-0.106376 -0.284391,-0.133402 -1.152319,-0.456653 -1.486124,-0.553492 -0.13853,-0.04019 -0.282636,-0.102441 -0.320238,-0.138339 -0.0376,-0.03589 -0.129858,-0.06526 -0.205014,-0.06526 -0.07516,0 -0.238692,-0.04576 -0.363415,-0.101676 -0.124721,-0.05592 -0.469641,-0.1726 -0.766491,-0.259288 -0.296849,-0.08668 -0.678486,-0.202835 -0.848085,-0.258105 -0.169597,-0.05527 -0.370081,-0.10049 -0.445523,-0.10049 -0.07544,0 -0.154869,-0.02864 -0.176509,-0.06366 -0.02163,-0.03501 -0.193564,-0.08661 -0.382054,-0.114668 -0.18849,-0.02806 -0.375095,-0.07628 -0.414674,-0.107162 -0.03958,-0.03088 -0.233881,-0.07957 -0.43178,-0.108206 -0.1979,-0.02863 -0.392201,-0.07318 -0.43178,-0.09898 -0.03958,-0.0258 -0.266265,-0.08522 -0.503744,-0.132026 -0.23748,-0.04681 -0.674656,-0.137505 -0.971505,-0.201549 -3.696872,-0.79759 -7.011139,-1.119963 -11.514136,-1.119963 -4.502997,0 -7.817264,0.322373 -11.514136,1.119963 -0.296849,0.06405 -0.734026,0.157112 -0.971505,0.206819 -0.237479,0.04971 -0.480356,0.110166 -0.539725,0.134355 -0.05938,0.0242 -0.269864,0.08111 -0.467763,0.126504 -0.197899,0.04539 -0.527636,0.120852 -0.732749,0.1677 -0.205112,0.04684 -0.396716,0.108957 -0.425783,0.138021 -0.02906,0.02906 -0.111088,0.05285 -0.182269,0.05285 -0.07118,0 -0.268179,0.04522 -0.437776,0.100491 -0.169598,0.05527 -0.551236,0.170303 -0.848085,0.25563 -0.296849,0.08533 -0.589364,0.181699 -0.650032,0.21416 -0.06067,0.03247 -0.222586,0.08306 -0.359817,0.112458 -0.137231,0.02938 -0.281893,0.07871 -0.321473,0.109602 -0.03958,0.03089 -0.185305,0.08941 -0.323835,0.130029 -0.338495,0.09927 -1.205357,0.422584 -1.486124,0.554287 -0.124722,0.05851 -0.26279,0.106375 -0.306822,0.106375 -0.04402,0 -0.136286,0.03082 -0.205013,0.06848 -0.06873,0.03766 -0.238302,0.116268 -0.376832,0.17469 -0.138529,0.05842 -0.413789,0.174654 -0.611687,0.258296 -0.197901,0.08364 -0.445772,0.199312 -0.55083,0.257046 -0.10506,0.05773 -0.242685,0.104974 -0.305844,0.104974 -0.06316,0 -0.114832,0.03238 -0.114832,0.07196 0,0.03957 -0.03774,0.07196 -0.08387,0.07196 -0.109935,0 -2.031862,0.955237 -2.063036,1.025372 -0.01319,0.02968 -0.05728,0.05397 -0.09795,0.05397 -0.04067,0 -0.342027,0.161902 -0.669658,0.359781 -0.327632,0.197878 -0.628979,0.359779 -0.669659,0.359779 -0.04067,0 -0.08475,0.02599 -0.09795,0.05776 -0.01319,0.03178 -0.234482,0.184587 -0.491749,0.339598 -0.555272,0.334562 -1.300444,0.837378 -1.665514,1.123826 -0.144225,0.113167 -0.295348,0.205756 -0.335828,0.205756 -0.04048,0 -0.0844,0.02543 -0.09759,0.05649 -0.01319,0.03106 -0.31544,0.281109 -0.671659,0.555641 -0.356218,0.274531 -0.663863,0.517343 -0.683651,0.539583 -0.01979,0.02224 -0.197228,0.168859 -0.394306,0.32582 -0.486726,0.38765 -2.224922,2.119523 -2.705746,2.695908 -0.214595,0.257241 -0.408186,0.483903 -0.430202,0.50369 -0.04939,0.04438 -0.49649,0.644604 -0.643622,0.86403 -0.05937,0.08855 -0.140329,0.197714 -0.179908,0.242602 -0.384968,0.436612 -1.303283,2.039392 -1.715903,2.994855 -0.05982,0.138515 -0.175867,0.403876 -0.257888,0.589689 -0.08203,0.185814 -0.149128,0.382792 -0.149128,0.437732 0,0.05494 -0.02374,0.123625 -0.05274,0.152635 -0.170098,0.17008 -0.62514,2.021432 -0.744584,3.029365 -0.08794,0.742154 -0.08794,2.927598 0,3.669752 0.119444,1.007932 0.574486,2.859284 0.744584,3.029364 0.02902,0.02902 0.05274,0.09912 0.05274,0.155803 0,0.05667 0.04624,0.20509 0.102743,0.329798 0.05651,0.124708 0.172137,0.388644 0.256952,0.586522 0.443153,1.033925 1.357046,2.642125 1.763223,3.102788 0.03958,0.04489 0.120539,0.15406 0.179908,0.242603 0.237258,0.353835 0.619984,0.843142 0.872817,1.115876 0.146753,0.158302 0.340371,0.384963 0.430263,0.50369 0.301875,0.398716 2.11231,2.153713 2.746467,2.662371 0.345381,0.277029 0.62799,0.527975 0.628018,0.557657 3e-5,0.02969 0.03507,0.05397 0.0779,0.05397 0.065,0 0.667482,0.445425 0.785717,0.580894 0.01978,0.02267 0.08456,0.06281 0.143927,0.0892 0.05938,0.02638 0.399396,0.257612 0.755615,0.513848 0.356219,0.256236 0.874354,0.602077 1.151414,0.768537 0.277058,0.166458 0.514537,0.329521 0.52773,0.362362 0.01319,0.03284 0.05728,0.05971 0.09795,0.05971 0.04067,0 0.342026,0.1619 0.669659,0.359779 0.327631,0.197879 0.631677,0.35978 0.675654,0.35978 0.04398,0 0.07996,0.02888 0.07996,0.06415 0,0.03529 0.08873,0.08643 0.197179,0.113639 0.108447,0.02722 0.213694,0.0712 0.233881,0.09775 0.07359,0.09675 2.04383,1.032139 3.203089,1.520683 0.1979,0.08341 0.409456,0.178763 0.470125,0.211919 0.06067,0.03315 0.214119,0.08308 0.341,0.110946 0.126882,0.02786 0.249168,0.08056 0.271748,0.117083 0.02258,0.03654 0.09582,0.06661 0.162742,0.06686 0.06694,2.43e-4 0.214445,0.04882 0.327814,0.107934 0.11337,0.05912 0.242902,0.107691 0.287855,0.107934 0.04495,2.44e-4 0.17215,0.0476 0.282666,0.105244 0.110517,0.05764 0.313271,0.125871 0.450566,0.151625 0.137294,0.02576 0.267371,0.07554 0.28906,0.110623 0.02169,0.03508 0.0942,0.06399 0.161122,0.06424 0.06694,2.43e-4 0.208099,0.04552 0.313707,0.100609 0.10561,0.05509 0.324029,0.122473 0.485376,0.14973 0.161346,0.02726 0.309322,0.07539 0.328832,0.106947 0.01951,0.03156 0.180843,0.07919 0.358516,0.105826 0.177673,0.02663 0.340159,0.07613 0.361079,0.109975 0.02092,0.03385 0.175498,0.08428 0.343503,0.112077 0.168008,0.02779 0.337852,0.07097 0.37743,0.09593 0.03958,0.02497 0.233882,0.08342 0.431781,0.129871 0.197899,0.04647 0.570309,0.137653 0.827578,0.202644 0.25727,0.065 0.645872,0.150582 0.863561,0.190199 0.217688,0.03962 0.460565,0.100297 0.539726,0.134851 0.07916,0.03456 0.338226,0.09886 0.575706,0.142904 0.237478,0.04405 0.690848,0.12843 1.007487,0.187517 0.316638,0.05909 0.818582,0.137974 1.115432,0.175305 0.296849,0.03734 0.604492,0.08816 0.683652,0.112944 0.188066,0.0589 1.455585,0.225965 2.410772,0.317767 0.415589,0.03993 1.014684,0.106774 1.331322,0.148527 0.74738,0.09854 4.094699,0.201454 5.433232,0.167047 0.573908,-0.01476 1.658757,-0.04388 2.410773,-0.06473 z m -4.701421,-4.42471 c -0.52763,-0.03258 -1.159108,-0.0953 -1.403286,-0.139369 -1.415067,-0.255416 -1.988393,-0.375179 -2.602858,-0.543712 -0.23748,-0.06514 -0.561315,-0.149271 -0.719634,-0.186967 -0.158319,-0.0377 -0.352621,-0.09803 -0.43178,-0.134065 -0.07916,-0.03605 -0.35442,-0.133546 -0.611688,-0.216679 -0.257269,-0.08314 -0.532529,-0.180399 -0.611688,-0.216146 -0.07916,-0.03575 -0.273461,-0.118151 -0.431781,-0.183124 -0.715901,-0.293799 -1.420467,-0.624006 -1.475248,-0.691406 -0.01979,-0.02435 -0.116942,-0.06919 -0.21589,-0.09965 -0.09896,-0.03046 -0.196101,-0.07533 -0.215891,-0.09972 -0.01978,-0.02438 -0.181707,-0.118923 -0.359816,-0.210087 -0.17811,-0.09117 -0.409402,-0.220654 -0.513984,-0.287756 -0.104586,-0.0671 -0.363649,-0.228135 -0.575707,-0.357846 -0.421413,-0.257773 -1.235552,-0.818435 -1.467087,-1.01032 -0.0803,-0.06656 -0.306988,-0.249516 -0.503744,-0.406588 -0.845118,-0.674665 -2.305525,-2.13286 -2.634379,-2.630386 -0.06476,-0.09797 -0.203459,-0.275273 -0.308225,-0.394001 -0.232601,-0.263599 -1.102604,-1.5568 -1.17,-1.739124 -0.02677,-0.07245 -0.06725,-0.147919 -0.08993,-0.167707 -0.02267,-0.01978 -0.167316,-0.29502 -0.32142,-0.611625 -0.154105,-0.316607 -0.307926,-0.631873 -0.341826,-0.700594 -0.0727,-0.147374 -0.0807,-0.371671 -0.01559,-0.436782 0.04445,-0.04445 0.612798,0.360385 0.66159,0.471248 0.01319,0.02998 0.05499,0.05451 0.09287,0.05451 0.08072,0 0.519768,0.298952 0.5548,0.377768 0.01319,0.02969 0.06755,0.05397 0.120797,0.05397 0.05324,0 0.140095,0.04047 0.193,0.08995 0.0529,0.04946 0.222851,0.154705 0.377657,0.233857 0.154806,0.07915 0.316229,0.176292 0.358719,0.215868 0.04249,0.03958 0.433473,0.245131 0.868851,0.456791 0.435378,0.21166 0.948407,0.462606 1.140064,0.557659 0.191658,0.09505 0.379639,0.172822 0.417738,0.172822 0.0723,0 0.653666,0.242108 0.869984,0.362303 0.06873,0.03819 0.160984,0.06944 0.205015,0.06944 0.04403,0 0.1821,0.04604 0.306821,0.102301 0.124721,0.05627 0.45345,0.172877 0.73051,0.259132 0.277057,0.08625 0.56851,0.183452 0.64767,0.215999 0.132161,0.05433 0.470274,0.154042 1.223376,0.360758 5.219011,1.432552 11.876503,1.671715 17.163259,0.61657 1.388277,-0.277076 2.354954,-0.503561 2.417892,-0.566492 0.02906,-0.02906 0.111088,-0.05285 0.182268,-0.05285 0.07118,0 0.26818,-0.04468 0.437777,-0.09929 0.169598,-0.0546 0.551235,-0.174027 0.848084,-0.265369 0.296849,-0.09135 0.57049,-0.192373 0.60809,-0.224511 0.0376,-0.03214 0.11856,-0.05953 0.179909,-0.06088 0.06135,-0.0014 0.241078,-0.065 0.399397,-0.14147 0.158319,-0.07646 0.328771,-0.140127 0.378784,-0.14147 0.05001,-0.0014 0.147162,-0.03368 0.21589,-0.07187 0.06873,-0.03819 0.286877,-0.137081 0.484776,-0.219762 0.985477,-0.411727 3.07871,-1.52725 3.333444,-1.776455 0.05231,-0.05117 0.127479,-0.09302 0.167059,-0.09302 0.03958,0 0.114257,-0.04047 0.16595,-0.08994 0.05168,-0.04946 0.166438,-0.138514 0.254989,-0.197878 0.243239,-0.163066 0.823271,-0.597597 0.86412,-0.647358 0.113855,-0.138694 0.559842,-0.42386 0.600039,-0.383667 0.06718,0.06717 0.05914,0.290731 -0.01576,0.438364 -0.179236,0.35329 -0.36839,0.797115 -0.36839,0.86438 0,0.04183 -0.02429,0.08687 -0.05398,0.100049 -0.02969,0.01319 -0.165617,0.246877 -0.302074,0.5193 -0.216471,0.432166 -0.971052,1.629325 -1.21108,1.921404 -0.04598,0.05595 -0.236326,0.296019 -0.422983,0.533473 -0.740068,0.941481 -2.078785,2.291857 -2.871132,2.896139 -0.76594,0.58414 -1.186456,0.881548 -1.246458,0.881548 -0.03803,0 -0.07995,0.02428 -0.09314,0.05397 -0.03641,0.08192 -0.475597,0.377769 -0.5608,0.377769 -0.04118,0 -0.07488,0.02496 -0.07488,0.05547 0,0.03051 -0.153821,0.135744 -0.341826,0.233857 -0.188004,0.09812 -0.358018,0.197616 -0.377808,0.221119 -0.01979,0.0235 -0.473159,0.254221 -1.007487,0.51271 -0.861248,0.416641 -1.126034,0.537762 -1.691138,0.773578 -0.07916,0.03303 -0.35442,0.130586 -0.611688,0.216782 -0.257271,0.0862 -0.5174,0.182383 -0.57807,0.213748 -0.06067,0.03137 -0.222586,0.07922 -0.359817,0.106343 -0.137229,0.02712 -0.314277,0.07792 -0.393435,0.112887 -0.344979,0.152369 -2.48337,0.578537 -3.598169,0.717093 -0.787052,0.09782 -3.21069,0.140404 -4.269641,0.07501 z M 35.933095,62.309283 c -0.911234,-0.184785 -1.08588,-0.228746 -1.147816,-0.288925 -0.0376,-0.03654 -0.116,-0.06643 -0.17422,-0.06643 -1.116895,0 -4.18316,-3.065948 -4.18316,-4.182727 0,-0.05822 -0.02989,-0.136606 -0.06644,-0.174204 -0.06471,-0.06658 -0.166073,-0.489207 -0.292546,-1.219653 -0.126892,-0.732866 -0.07966,-1.616738 0.144206,-2.698346 0.04504,-0.217667 0.111803,-0.426519 0.14834,-0.464116 0.03654,-0.0376 0.06644,-0.115989 0.06644,-0.174203 0,-1.123374 3.067091,-4.182728 4.193305,-4.182728 0.06381,0 0.134859,-0.03052 0.157907,-0.06781 0.02304,-0.0373 0.194975,-0.08994 0.382055,-0.11701 0.187083,-0.02707 0.385606,-0.08561 0.441164,-0.13008 0.138979,-0.111263 2.609488,-0.111263 2.748468,0 0.05557,0.04448 0.254081,0.103012 0.441163,0.13008 0.187081,0.02707 0.359006,0.07973 0.382056,0.11701 0.02305,0.03729 0.09411,0.06781 0.157906,0.06781 1.126215,0 4.193306,3.059354 4.193306,4.182728 0,0.05821 0.02989,0.136606 0.06644,0.174203 0.0647,0.06658 0.166073,0.489208 0.292546,1.219653 0.07969,0.460195 0.08015,1.47844 8.88e-4,1.942809 -0.100092,0.586429 -0.217075,1.070867 -0.290813,1.204286 -0.03797,0.06871 -0.06905,0.167403 -0.06905,0.219294 0,0.3549 -0.983702,1.879932 -1.628504,2.524668 -0.664119,0.664051 -2.171566,1.628336 -2.545543,1.628336 -0.06324,0 -0.145734,0.02989 -0.183334,0.06643 -0.06271,0.06093 -0.281699,0.115114 -1.183798,0.292906 -0.396507,0.07816 -1.658028,0.0757 -2.050956,-0.004 z m 27.633927,0 c -0.911233,-0.184785 -1.08588,-0.228746 -1.147816,-0.288925 -0.0376,-0.03654 -0.116001,-0.06643 -0.17422,-0.06643 -1.116895,0 -4.183159,-3.065948 -4.183159,-4.182727 0,-0.05822 -0.02989,-0.136606 -0.06644,-0.174204 -0.06471,-0.06658 -0.166074,-0.489207 -0.292548,-1.219653 -0.126891,-0.732866 -0.07965,-1.616738 0.144204,-2.698346 0.04504,-0.217667 0.111805,-0.426519 0.148344,-0.464116 0.03654,-0.0376 0.06644,-0.115989 0.06644,-0.174203 0,-1.123374 3.06709,-4.182728 4.193304,-4.182728 0.0638,0 0.13486,-0.03052 0.157908,-0.06781 0.02305,-0.0373 0.194973,-0.08994 0.382054,-0.11701 0.187082,-0.02707 0.385605,-0.08561 0.441163,-0.13008 0.138981,-0.111263 2.609489,-0.111263 2.748469,0 0.05557,0.04448 0.254082,0.103012 0.441163,0.13008 0.187082,0.02707 0.359005,0.07973 0.382054,0.11701 0.02304,0.03729 0.09411,0.06781 0.157909,0.06781 1.126213,0 4.193305,3.059354 4.193305,4.182728 0,0.05821 0.02989,0.136606 0.06644,0.174203 0.06471,0.06658 0.166074,0.489208 0.292546,1.219653 0.07969,0.460195 0.08015,1.47844 8.88e-4,1.942809 -0.100092,0.586429 -0.217074,1.070867 -0.29081,1.204286 -0.03797,0.06871 -0.06905,0.167403 -0.06905,0.219294 0,0.3549 -0.9837,1.879932 -1.628503,2.524668 -0.66412,0.664051 -2.171567,1.628336 -2.545544,1.628336 -0.06324,0 -0.145734,0.02989 -0.183335,0.06643 -0.06271,0.06093 -0.281698,0.115114 -1.183797,0.292906 -0.396507,0.07816 -1.658028,0.0757 -2.050955,-0.004 z M 6.8316814,52.59538 c 0.029714,-0.057 0.2341519,-0.476022 0.4543069,-0.931143 0.5065576,-1.047198 0.9731195,-1.899797 1.0565866,-1.930817 0.035501,-0.01319 0.064536,-0.05875 0.064536,-0.101224 0,-0.166332 2.1870271,-3.300115 2.4736901,-3.544544 0.04641,-0.03958 0.152386,-0.160151 0.235495,-0.267944 0.740787,-0.960818 3.191251,-3.415755 4.162552,-4.170148 0.11832,-0.0919 0.266079,-0.215656 0.328353,-0.27502 0.198533,-0.189252 0.805796,-0.682669 0.871422,-0.708054 0.06744,-0.02609 -0.244657,-0.297656 -0.346803,-0.30177 -0.03334,-0.0014 -0.190147,-0.06501 -0.348466,-0.14147 -0.158319,-0.07647 -0.342614,-0.140128 -0.409543,-0.141472 -0.06694,-0.0014 -0.13996,-0.032 -0.162294,-0.06814 -0.02233,-0.03613 -0.176821,-0.0887 -0.343306,-0.11683 -0.166485,-0.02813 -0.35252,-0.07715 -0.413412,-0.108963 -0.668162,-0.348991 -3.529291,-0.318611 -4.7523478,0.05047 -1.6008423,0.483072 -3.1859494,1.635809 -3.6708375,2.669538 -0.097461,0.207773 -0.201937,0.377769 -0.2321729,0.377769 -0.030235,0 -0.054974,0.03416 -0.054974,0.0759 0,0.07389 -0.2322247,0.640583 -0.3531904,0.861885 -0.033159,0.06066 -0.084337,0.222563 -0.1137308,0.359779 -0.029393,0.137217 -0.078177,0.281865 -0.1084087,0.32144 -0.40969,0.536317 -0.4143926,4.534603 -0.00622,5.291121 0.03273,0.06066 0.083936,0.221501 0.1137914,0.357418 0.029856,0.135917 0.080629,0.296755 0.1128308,0.357417 0.032202,0.06066 0.1902389,0.385528 0.3511944,0.721921 0.2787087,0.582497 0.4272829,0.856014 0.5081224,0.935428 0.020142,0.01979 0.1172937,0.157164 0.21589,0.30528 0.1834338,0.275564 0.271671,0.304943 0.3669362,0.122172 z M 95.133947,52.311841 c 0.03352,0 0.06098,-0.04625 0.06098,-0.102797 0,-0.05653 0.04047,-0.146835 0.08996,-0.200662 0.04946,-0.05382 0.124706,-0.161375 0.167181,-0.238996 0.261897,-0.478607 0.400453,-0.758317 0.533276,-1.076557 0.0826,-0.197879 0.177291,-0.409412 0.210448,-0.470075 0.03316,-0.06066 0.08249,-0.222563 0.109613,-0.359779 0.02712,-0.137217 0.07777,-0.314244 0.112527,-0.393396 0.432687,-0.98521 0.415749,-4.217977 -0.02752,-5.252781 -0.05087,-0.118728 -0.153052,-0.402055 -0.227096,-0.629614 -0.07405,-0.227561 -0.156793,-0.413748 -0.183886,-0.413748 -0.02709,0 -0.07153,-0.08872 -0.09874,-0.197158 -0.02722,-0.108436 -0.07121,-0.213672 -0.09776,-0.233856 -0.06974,-0.05302 -0.372102,-0.491146 -0.372102,-0.539166 0,-0.371795 -1.807434,-1.718789 -2.878535,-2.145235 -1.409404,-0.561135 -4.542813,-0.717908 -5.400018,-0.270176 -0.0609,0.03181 -0.246926,0.08084 -0.413413,0.108962 -0.166485,0.02813 -0.320971,0.08069 -0.343305,0.11683 -0.02233,0.03613 -0.09537,0.0668 -0.162296,0.06814 -0.06694,0.0014 -0.25122,0.06501 -0.409541,0.14147 -0.15832,0.07646 -0.315129,0.140127 -0.348465,0.141471 -0.10215,0.0041 -0.414243,0.275686 -0.346804,0.30177 0.06563,0.02538 0.672889,0.518803 0.87142,0.708054 0.06228,0.05937 0.210035,0.183322 0.328355,0.275463 1.009624,0.786238 3.629939,3.408329 4.362736,4.365694 0.09088,0.118727 0.185146,0.232058 0.209487,0.251846 0.07968,0.06477 1.403657,1.826054 1.649759,2.194654 0.796501,1.192966 2.156869,3.649286 2.159932,3.900034 0.002,0.172189 0.247505,0.241407 0.317895,0.08967 0.03573,-0.07703 0.09241,-0.140055 0.125935,-0.140055 z M 88.86214,20.657871 c 2.049871,-0.44531 3.263053,-2.079692 3.263053,-4.395944 0,-1.072364 -0.09167,-1.494068 -0.515765,-2.372578 -0.368454,-0.763256 -1.692081,-1.860119 -2.257288,-1.870571 -0.06694,-0.0013 -0.140008,-0.03189 -0.162398,-0.06811 -0.02239,-0.03622 -0.291466,-0.08751 -0.597945,-0.113981 -0.306479,-0.02646 -0.628249,-0.0591 -0.715044,-0.07254 -0.296082,-0.04582 -1.675164,0.115917 -1.874381,0.219826 -0.109271,0.05699 -0.23406,0.103825 -0.277311,0.104067 -0.04324,2.43e-4 -0.221359,0.08098 -0.395798,0.179402 -0.174439,0.09843 -0.365738,0.201602 -0.425108,0.229276 -0.140298,0.0654 -0.965586,0.8906 -1.030989,1.030884 -0.02768,0.05936 -0.130863,0.250642 -0.2293,0.425064 -0.09844,0.174421 -0.178977,0.347618 -0.178977,0.384883 0,0.03726 -0.04736,0.169786 -0.105244,0.294494 -0.117085,0.252249 -0.239837,1.27365 -0.213174,1.773795 0.04016,0.753354 0.119184,1.36896 0.180591,1.406908 0.03622,0.02239 0.06688,0.09546 0.06812,0.16238 0.0061,0.334334 0.515123,1.127701 1.047399,1.632751 0.485595,0.460756 0.50152,0.47224 0.929341,0.670107 0.1979,0.09152 0.411729,0.194066 0.475176,0.227862 0.06344,0.03379 0.273941,0.08437 0.467762,0.112371 0.193822,0.02801 0.400979,0.07933 0.460348,0.11404 0.144889,0.08471 1.591984,0.03313 2.086938,-0.07438 z"
       id="path1" /></g></svg>
