<?xml version="1.0" encoding="UTF-8"?>
<svg id="Layer_1" data-name="Layer 1" xmlns="http://www.w3.org/2000/svg" xmlns:xlink="http://www.w3.org/1999/xlink" viewBox="0 0 1920 1080">
  <defs>
    <style>
      .cls-1 {
        fill: url(#hasanabi_1);
      }

      .cls-1, .cls-2, .cls-3 {
        stroke-width: 0px;
      }

      .cls-2 {
        fill: none;
      }

      .cls-3 {
        fill: #beaaff;
        fill-rule: evenodd;
        opacity: .5;
      }
    </style>
    <pattern id="hasanabi_1" data-name="hasanabi 1" x="0" y="0" width="205.72" height="225.6" patternUnits="userSpaceOnUse" viewBox="0 0 205.72 225.6">
      <g>
        <rect class="cls-2" width="205.72" height="225.6"/>
        <path class="cls-3" d="M193.22,215.81v-5.91h-5.69v5.91h5.69ZM181.36,238.22c1.84-2.06,2.76-4.77,2.76-8.13s-.92-6.07-2.76-8.13c-1.84-2.06-4.34-3.08-7.5-3.08-2.85,0-4.98.99-6.38,2.98v-11.95h-5.26v31.05h5.26v-2.72c.63.95,1.51,1.7,2.63,2.24s2.34.82,3.67.82c3.22,0,5.75-1.03,7.59-3.08ZM178.86,230.09c0,2.01-.53,3.62-1.6,4.83-1.06,1.21-2.49,1.81-4.27,1.81s-3.21-.6-4.27-1.81c-1.06-1.21-1.6-2.82-1.6-4.83s.53-3.62,1.6-4.83c1.06-1.21,2.49-1.81,4.27-1.81s3.21.6,4.27,1.81c1.06,1.21,1.6,2.82,1.6,4.83ZM153.37,240.95h5.91l-11.65-30.19h-5.35l-11.6,30.19h5.87l2.59-7.03h11.65l2.59,7.03ZM149.06,229.09h-8.11l4.05-11.04,4.05,11.04ZM122.74,240.95h5.31v-13.46c0-2.56-.74-4.64-2.22-6.23-1.48-1.6-3.44-2.39-5.89-2.39-3.25,0-5.51,1.24-6.77,3.71v-3.36h-5.31v21.74h5.31v-11.86c0-1.61.47-2.93,1.4-3.97.93-1.04,2.15-1.55,3.64-1.55,1.35,0,2.44.47,3.28,1.4.83.93,1.25,2.15,1.25,3.64v12.34ZM98.25,240.95h5.22v-13.97c0-2.44-.87-4.41-2.61-5.89-1.74-1.48-4-2.22-6.79-2.22s-5.01.73-6.75,2.18c-1.74,1.45-2.68,3.29-2.83,5.5h4.74c.06-1.04.5-1.91,1.32-2.63.82-.72,1.9-1.08,3.26-1.08s2.47.34,3.26,1.01c.79.68,1.19,1.55,1.19,2.61,0,.98-.53,1.47-1.6,1.47h-4.01c-2.44,0-4.41.62-5.91,1.85-1.5,1.24-2.24,2.9-2.24,5,0,1.9.68,3.46,2.03,4.68,1.35,1.22,3.09,1.83,5.22,1.83,1.55,0,2.91-.32,4.08-.97,1.16-.65,1.98-1.52,2.44-2.61v3.23ZM98.25,231.77c0,1.67-.47,3.02-1.4,4.05-.93,1.04-2.22,1.55-3.86,1.55-1.01,0-1.82-.26-2.44-.78-.62-.52-.93-1.19-.93-2.03,0-.95.35-1.71,1.04-2.29.69-.57,1.6-.86,2.72-.86h4.87v.35ZM70.1,226.64c-.45-.35-.67-.83-.67-1.47,0-.72.29-1.29.86-1.7.57-.42,1.34-.63,2.29-.63s1.75.27,2.5.82c.75.55,1.19,1.29,1.34,2.24h4.83c-.12-2.13-.98-3.83-2.59-5.11-1.61-1.28-3.68-1.92-6.21-1.92-2.24,0-4.11.6-5.59,1.81-1.48,1.21-2.22,2.76-2.22,4.66,0,1.44.29,2.62.88,3.54.59.92,1.32,1.55,2.2,1.9.88.35,1.83.64,2.87.88,1.04.24,1.99.42,2.87.54.88.12,1.61.38,2.2.8.59.42.88,1,.88,1.75,0,.66-.32,1.22-.97,1.66-.65.45-1.47.67-2.48.67-1.18,0-2.14-.3-2.89-.91-.75-.6-1.18-1.42-1.29-2.46h-4.83c.11,2.33.98,4.18,2.61,5.54,1.62,1.37,3.76,2.05,6.41,2.05s4.56-.62,6.1-1.85c1.54-1.24,2.31-2.87,2.31-4.92,0-1.32-.22-2.44-.67-3.34-.45-.91-1.02-1.57-1.73-2.01-.7-.43-1.49-.76-2.35-.99-.86-.23-1.73-.39-2.59-.47-.86-.09-1.65-.2-2.35-.35-.7-.14-1.28-.39-1.73-.73ZM55.63,240.95h5.22v-13.97c0-2.44-.87-4.41-2.61-5.89-1.74-1.48-4-2.22-6.79-2.22s-5.01.73-6.75,2.18c-1.74,1.45-2.68,3.29-2.83,5.5h4.74c.06-1.04.5-1.91,1.32-2.63.82-.72,1.9-1.08,3.26-1.08s2.47.34,3.26,1.01c.79.68,1.19,1.55,1.19,2.61,0,.98-.53,1.47-1.6,1.47h-4.01c-2.44,0-4.41.62-5.91,1.85-1.5,1.24-2.24,2.9-2.24,5,0,1.9.68,3.46,2.03,4.68,1.35,1.22,3.09,1.83,5.22,1.83,1.55,0,2.91-.32,4.08-.97,1.16-.65,1.98-1.52,2.44-2.61v3.23ZM55.63,231.77c0,1.67-.47,3.02-1.4,4.05-.93,1.04-2.22,1.55-3.86,1.55-1.01,0-1.82-.26-2.44-.78-.62-.52-.93-1.19-.93-2.03,0-.95.35-1.71,1.04-2.29.69-.57,1.6-.86,2.72-.86h4.87v.35ZM31.65,240.95h5.69v-30.19h-5.69v12.25h-13.46v-12.25h-5.69v30.19h5.69v-12.98h13.46v12.98ZM193.05,219.22h-5.31v21.74h5.31v-21.74Z"/>
        <path class="cls-3" d="M296.08,159.41v-5.91h-5.69v5.91h5.69ZM284.22,181.82c1.84-2.06,2.76-4.77,2.76-8.13s-.92-6.07-2.76-8.13c-1.84-2.06-4.34-3.08-7.5-3.08-2.85,0-4.98.99-6.38,2.98v-11.95h-5.26v31.05h5.26v-2.72c.63.95,1.51,1.7,2.63,2.24s2.34.82,3.67.82c3.22,0,5.75-1.03,7.59-3.08ZM281.72,173.69c0,2.01-.53,3.62-1.6,4.83-1.06,1.21-2.49,1.81-4.27,1.81s-3.21-.6-4.27-1.81c-1.06-1.21-1.6-2.82-1.6-4.83s.53-3.62,1.6-4.83c1.06-1.21,2.49-1.81,4.27-1.81s3.21.6,4.27,1.81c1.06,1.21,1.6,2.82,1.6,4.83ZM256.23,184.55h5.91l-11.65-30.19h-5.35l-11.6,30.19h5.87l2.59-7.03h11.65l2.59,7.03ZM251.92,172.69h-8.11l4.05-11.04,4.05,11.04ZM225.61,184.55h5.31v-13.46c0-2.56-.74-4.64-2.22-6.23-1.48-1.6-3.44-2.39-5.89-2.39-3.25,0-5.51,1.24-6.77,3.71v-3.36h-5.31v21.74h5.31v-11.86c0-1.61.47-2.93,1.4-3.97.93-1.04,2.15-1.55,3.64-1.55,1.35,0,2.44.47,3.28,1.4.83.93,1.25,2.15,1.25,3.64v12.34ZM201.11,184.55h5.22v-13.97c0-2.44-.87-4.41-2.61-5.89-1.74-1.48-4-2.22-6.79-2.22s-5.01.73-6.75,2.18c-1.74,1.45-2.68,3.29-2.83,5.5h4.74c.06-1.04.5-1.91,1.32-2.63.82-.72,1.9-1.08,3.26-1.08s2.47.34,3.26,1.01c.79.68,1.19,1.55,1.19,2.61,0,.98-.53,1.47-1.6,1.47h-4.01c-2.44,0-4.41.62-5.91,1.85-1.5,1.24-2.24,2.9-2.24,5,0,1.9.68,3.46,2.03,4.68,1.35,1.22,3.09,1.83,5.22,1.83,1.55,0,2.91-.32,4.08-.97,1.16-.65,1.98-1.52,2.44-2.61v3.23ZM201.11,175.37c0,1.67-.47,3.02-1.4,4.05-.93,1.04-2.22,1.55-3.86,1.55-1.01,0-1.82-.26-2.44-.78-.62-.52-.93-1.19-.93-2.03,0-.95.35-1.71,1.04-2.29.69-.57,1.6-.86,2.72-.86h4.87v.35ZM172.96,170.24c-.45-.35-.67-.83-.67-1.47,0-.72.29-1.29.86-1.7.57-.42,1.34-.63,2.29-.63s1.75.27,2.5.82c.75.55,1.19,1.29,1.34,2.24h4.83c-.12-2.13-.98-3.83-2.59-5.11-1.61-1.28-3.68-1.92-6.21-1.92-2.24,0-4.11.6-5.59,1.81-1.48,1.21-2.22,2.76-2.22,4.66,0,1.44.29,2.62.88,3.54.59.92,1.32,1.55,2.2,1.9.88.35,1.83.64,2.87.88,1.04.24,1.99.42,2.87.54.88.12,1.61.38,2.2.8.59.42.88,1,.88,1.75,0,.66-.32,1.22-.97,1.66-.65.45-1.47.67-2.48.67-1.18,0-2.14-.3-2.89-.91-.75-.6-1.18-1.42-1.29-2.46h-4.83c.11,2.33.98,4.18,2.61,5.54,1.62,1.37,3.76,2.05,6.41,2.05s4.56-.62,6.1-1.85c1.54-1.24,2.31-2.87,2.31-4.92,0-1.32-.22-2.44-.67-3.34-.45-.91-1.02-1.57-1.73-2.01-.7-.43-1.49-.76-2.35-.99-.86-.23-1.73-.39-2.59-.47-.86-.09-1.65-.2-2.35-.35-.7-.14-1.28-.39-1.73-.73ZM158.49,184.55h5.22v-13.97c0-2.44-.87-4.41-2.61-5.89-1.74-1.48-4-2.22-6.79-2.22s-5.01.73-6.75,2.18c-1.74,1.45-2.68,3.29-2.83,5.5h4.74c.06-1.04.5-1.91,1.32-2.63.82-.72,1.9-1.08,3.26-1.08s2.47.34,3.26,1.01c.79.68,1.19,1.55,1.19,2.61,0,.98-.53,1.47-1.6,1.47h-4.01c-2.44,0-4.41.62-5.91,1.85-1.5,1.24-2.24,2.9-2.24,5,0,1.9.68,3.46,2.03,4.68,1.35,1.22,3.09,1.83,5.22,1.83,1.55,0,2.91-.32,4.08-.97,1.16-.65,1.98-1.52,2.44-2.61v3.23ZM158.49,175.37c0,1.67-.47,3.02-1.4,4.05-.93,1.04-2.22,1.55-3.86,1.55-1.01,0-1.82-.26-2.44-.78-.62-.52-.93-1.19-.93-2.03,0-.95.35-1.71,1.04-2.29.69-.57,1.6-.86,2.72-.86h4.87v.35ZM134.51,184.55h5.69v-30.19h-5.69v12.25h-13.46v-12.25h-5.69v30.19h5.69v-12.98h13.46v12.98ZM295.91,162.82h-5.31v21.74h5.31v-21.74Z"/>
        <path class="cls-3" d="M90.36,159.41v-5.91h-5.69v5.91h5.69ZM78.5,181.82c1.84-2.06,2.76-4.77,2.76-8.13s-.92-6.07-2.76-8.13c-1.84-2.06-4.34-3.08-7.5-3.08-2.85,0-4.98.99-6.38,2.98v-11.95h-5.26v31.05h5.26v-2.72c.63.95,1.51,1.7,2.63,2.24s2.34.82,3.67.82c3.22,0,5.75-1.03,7.59-3.08ZM76,173.69c0,2.01-.53,3.62-1.6,4.83-1.06,1.21-2.49,1.81-4.27,1.81s-3.21-.6-4.27-1.81c-1.06-1.21-1.6-2.82-1.6-4.83s.53-3.62,1.6-4.83c1.06-1.21,2.49-1.81,4.27-1.81s3.21.6,4.27,1.81c1.06,1.21,1.6,2.82,1.6,4.83ZM50.51,184.55h5.91l-11.65-30.19h-5.35l-11.6,30.19h5.87l2.59-7.03h11.65l2.59,7.03ZM46.19,172.69h-8.11l4.05-11.04,4.05,11.04ZM19.88,184.55h5.31v-13.46c0-2.56-.74-4.64-2.22-6.23-1.48-1.6-3.44-2.39-5.89-2.39-3.25,0-5.51,1.24-6.77,3.71v-3.36h-5.31v21.74h5.31v-11.86c0-1.61.47-2.93,1.4-3.97.93-1.04,2.15-1.55,3.64-1.55,1.35,0,2.44.47,3.28,1.4.83.93,1.25,2.15,1.25,3.64v12.34ZM-4.62,184.55H.6v-13.97c0-2.44-.87-4.41-2.61-5.89-1.74-1.48-4-2.22-6.79-2.22s-5.01.73-6.75,2.18c-1.74,1.45-2.68,3.29-2.83,5.5h4.74c.06-1.04.5-1.91,1.32-2.63.82-.72,1.9-1.08,3.26-1.08s2.47.34,3.26,1.01c.79.68,1.19,1.55,1.19,2.61,0,.98-.53,1.47-1.6,1.47h-4.01c-2.44,0-4.41.62-5.91,1.85-1.5,1.24-2.24,2.9-2.24,5,0,1.9.68,3.46,2.03,4.68,1.35,1.22,3.09,1.83,5.22,1.83,1.55,0,2.91-.32,4.08-.97,1.16-.65,1.98-1.52,2.44-2.61v3.23ZM-4.62,175.37c0,1.67-.47,3.02-1.4,4.05-.93,1.04-2.22,1.55-3.86,1.55-1.01,0-1.82-.26-2.44-.78-.62-.52-.93-1.19-.93-2.03,0-.95.35-1.71,1.04-2.29.69-.57,1.6-.86,2.72-.86h4.87v.35ZM-32.76,170.24c-.45-.35-.67-.83-.67-1.47,0-.72.29-1.29.86-1.7.57-.42,1.34-.63,2.29-.63s1.75.27,2.5.82c.75.55,1.19,1.29,1.34,2.24h4.83c-.12-2.13-.98-3.83-2.59-5.11-1.61-1.28-3.68-1.92-6.21-1.92-2.24,0-4.11.6-5.59,1.81-1.48,1.21-2.22,2.76-2.22,4.66,0,1.44.29,2.62.88,3.54.59.92,1.32,1.55,2.2,1.9.88.35,1.83.64,2.87.88,1.04.24,1.99.42,2.87.54.88.12,1.61.38,2.2.8.59.42.88,1,.88,1.75,0,.66-.32,1.22-.97,1.66-.65.45-1.47.67-2.48.67-1.18,0-2.14-.3-2.89-.91-.75-.6-1.18-1.42-1.29-2.46h-4.83c.11,2.33.98,4.18,2.61,5.54,1.62,1.37,3.76,2.05,6.41,2.05s4.56-.62,6.1-1.85c1.54-1.24,2.31-2.87,2.31-4.92,0-1.32-.22-2.44-.67-3.34-.45-.91-1.02-1.57-1.73-2.01-.7-.43-1.49-.76-2.35-.99-.86-.23-1.73-.39-2.59-.47-.86-.09-1.65-.2-2.35-.35-.7-.14-1.28-.39-1.73-.73ZM-47.23,184.55h5.22v-13.97c0-2.44-.87-4.41-2.61-5.89-1.74-1.48-4-2.22-6.79-2.22s-5.01.73-6.75,2.18c-1.74,1.45-2.68,3.29-2.83,5.5h4.74c.06-1.04.5-1.91,1.32-2.63.82-.72,1.9-1.08,3.26-1.08s2.47.34,3.26,1.01c.79.68,1.19,1.55,1.19,2.61,0,.98-.53,1.47-1.6,1.47h-4.01c-2.44,0-4.41.62-5.91,1.85-1.5,1.24-2.24,2.9-2.24,5,0,1.9.68,3.46,2.03,4.68,1.35,1.22,3.09,1.83,5.22,1.83,1.55,0,2.91-.32,4.08-.97,1.16-.65,1.98-1.52,2.44-2.61v3.23ZM-47.23,175.37c0,1.67-.47,3.02-1.4,4.05-.93,1.04-2.22,1.55-3.86,1.55-1.01,0-1.82-.26-2.44-.78-.62-.52-.93-1.19-.93-2.03,0-.95.35-1.71,1.04-2.29.69-.57,1.6-.86,2.72-.86h4.87v.35ZM-71.21,184.55h5.69v-30.19h-5.69v12.25h-13.46v-12.25h-5.69v30.19h5.69v-12.98h13.46v12.98ZM90.19,162.82h-5.31v21.74h5.31v-21.74Z"/>
        <path class="cls-3" d="M193.22,103.01v-5.91h-5.69v5.91h5.69ZM181.36,125.42c1.84-2.06,2.76-4.77,2.76-8.13s-.92-6.07-2.76-8.13c-1.84-2.06-4.34-3.08-7.5-3.08-2.85,0-4.98.99-6.38,2.98v-11.95h-5.26v31.05h5.26v-2.72c.63.95,1.51,1.7,2.63,2.24s2.34.82,3.67.82c3.22,0,5.75-1.03,7.59-3.08ZM178.86,117.29c0,2.01-.53,3.62-1.6,4.83-1.06,1.21-2.49,1.81-4.27,1.81s-3.21-.6-4.27-1.81c-1.06-1.21-1.6-2.82-1.6-4.83s.53-3.62,1.6-4.83c1.06-1.21,2.49-1.81,4.27-1.81s3.21.6,4.27,1.81c1.06,1.21,1.6,2.82,1.6,4.83ZM153.37,128.15h5.91l-11.65-30.19h-5.35l-11.6,30.19h5.87l2.59-7.03h11.65l2.59,7.03ZM149.06,116.29h-8.11l4.05-11.04,4.05,11.04ZM122.74,128.15h5.31v-13.46c0-2.56-.74-4.64-2.22-6.23-1.48-1.6-3.44-2.39-5.89-2.39-3.25,0-5.51,1.24-6.77,3.71v-3.36h-5.31v21.74h5.31v-11.86c0-1.61.47-2.93,1.4-3.97.93-1.04,2.15-1.55,3.64-1.55,1.35,0,2.44.47,3.28,1.4.83.93,1.25,2.15,1.25,3.64v12.34ZM98.25,128.15h5.22v-13.97c0-2.44-.87-4.41-2.61-5.89-1.74-1.48-4-2.22-6.79-2.22s-5.01.73-6.75,2.18c-1.74,1.45-2.68,3.29-2.83,5.5h4.74c.06-1.04.5-1.91,1.32-2.63.82-.72,1.9-1.08,3.26-1.08s2.47.34,3.26,1.01c.79.68,1.19,1.55,1.19,2.61,0,.98-.53,1.47-1.6,1.47h-4.01c-2.44,0-4.41.62-5.91,1.85-1.5,1.24-2.24,2.9-2.24,5,0,1.9.68,3.46,2.03,4.68,1.35,1.22,3.09,1.83,5.22,1.83,1.55,0,2.91-.32,4.08-.97,1.16-.65,1.98-1.52,2.44-2.61v3.23ZM98.25,118.97c0,1.67-.47,3.02-1.4,4.05-.93,1.04-2.22,1.55-3.86,1.55-1.01,0-1.82-.26-2.44-.78-.62-.52-.93-1.19-.93-2.03,0-.95.35-1.71,1.04-2.29.69-.57,1.6-.86,2.72-.86h4.87v.35ZM70.1,113.84c-.45-.35-.67-.83-.67-1.47,0-.72.29-1.29.86-1.7.57-.42,1.34-.63,2.29-.63s1.75.27,2.5.82c.75.55,1.19,1.29,1.34,2.24h4.83c-.12-2.13-.98-3.83-2.59-5.11-1.61-1.28-3.68-1.92-6.21-1.92-2.24,0-4.11.6-5.59,1.81-1.48,1.21-2.22,2.76-2.22,4.66,0,1.44.29,2.62.88,3.54.59.92,1.32,1.55,2.2,1.9.88.35,1.83.64,2.87.88,1.04.24,1.99.42,2.87.54.88.12,1.61.38,2.2.8.59.42.88,1,.88,1.75,0,.66-.32,1.22-.97,1.66-.65.45-1.47.67-2.48.67-1.18,0-2.14-.3-2.89-.91-.75-.6-1.18-1.42-1.29-2.46h-4.83c.11,2.33.98,4.18,2.61,5.54,1.62,1.37,3.76,2.05,6.41,2.05s4.56-.62,6.1-1.85c1.54-1.24,2.31-2.87,2.31-4.92,0-1.32-.22-2.44-.67-3.34-.45-.91-1.02-1.57-1.73-2.01-.7-.43-1.49-.76-2.35-.99-.86-.23-1.73-.39-2.59-.47-.86-.09-1.65-.2-2.35-.35-.7-.14-1.28-.39-1.73-.73ZM55.63,128.15h5.22v-13.97c0-2.44-.87-4.41-2.61-5.89-1.74-1.48-4-2.22-6.79-2.22s-5.01.73-6.75,2.18c-1.74,1.45-2.68,3.29-2.83,5.5h4.74c.06-1.04.5-1.91,1.32-2.63.82-.72,1.9-1.08,3.26-1.08s2.47.34,3.26,1.01c.79.68,1.19,1.55,1.19,2.61,0,.98-.53,1.47-1.6,1.47h-4.01c-2.44,0-4.41.62-5.91,1.85-1.5,1.24-2.24,2.9-2.24,5,0,1.9.68,3.46,2.03,4.68,1.35,1.22,3.09,1.83,5.22,1.83,1.55,0,2.91-.32,4.08-.97,1.16-.65,1.98-1.52,2.44-2.61v3.23ZM55.63,118.97c0,1.67-.47,3.02-1.4,4.05-.93,1.04-2.22,1.55-3.86,1.55-1.01,0-1.82-.26-2.44-.78-.62-.52-.93-1.19-.93-2.03,0-.95.35-1.71,1.04-2.29.69-.57,1.6-.86,2.72-.86h4.87v.35ZM31.65,128.15h5.69v-30.19h-5.69v12.25h-13.46v-12.25h-5.69v30.19h5.69v-12.98h13.46v12.98ZM193.05,106.42h-5.31v21.74h5.31v-21.74Z"/>
        <path class="cls-3" d="M296.08,46.61v-5.91h-5.69v5.91h5.69ZM284.22,69.02c1.84-2.06,2.76-4.77,2.76-8.13s-.92-6.07-2.76-8.13c-1.84-2.06-4.34-3.08-7.5-3.08-2.85,0-4.98.99-6.38,2.98v-11.95h-5.26v31.05h5.26v-2.72c.63.95,1.51,1.7,2.63,2.24s2.34.82,3.67.82c3.22,0,5.75-1.03,7.59-3.08ZM281.72,60.89c0,2.01-.53,3.62-1.6,4.83-1.06,1.21-2.49,1.81-4.27,1.81s-3.21-.6-4.27-1.81c-1.06-1.21-1.6-2.82-1.6-4.83s.53-3.62,1.6-4.83c1.06-1.21,2.49-1.81,4.27-1.81s3.21.6,4.27,1.81c1.06,1.21,1.6,2.82,1.6,4.83ZM256.23,71.75h5.91l-11.65-30.19h-5.35l-11.6,30.19h5.87l2.59-7.03h11.65l2.59,7.03ZM251.92,59.89h-8.11l4.05-11.04,4.05,11.04ZM225.61,71.75h5.31v-13.46c0-2.56-.74-4.64-2.22-6.23-1.48-1.6-3.44-2.39-5.89-2.39-3.25,0-5.51,1.24-6.77,3.71v-3.36h-5.31v21.74h5.31v-11.86c0-1.61.47-2.93,1.4-3.97.93-1.04,2.15-1.55,3.64-1.55,1.35,0,2.44.47,3.28,1.4.83.93,1.25,2.15,1.25,3.64v12.34ZM201.11,71.75h5.22v-13.97c0-2.44-.87-4.41-2.61-5.89-1.74-1.48-4-2.22-6.79-2.22s-5.01.73-6.75,2.18c-1.74,1.45-2.68,3.29-2.83,5.5h4.74c.06-1.04.5-1.91,1.32-2.63.82-.72,1.9-1.08,3.26-1.08s2.47.34,3.26,1.01c.79.68,1.19,1.55,1.19,2.61,0,.98-.53,1.47-1.6,1.47h-4.01c-2.44,0-4.41.62-5.91,1.85-1.5,1.24-2.24,2.9-2.24,5,0,1.9.68,3.46,2.03,4.68,1.35,1.22,3.09,1.83,5.22,1.83,1.55,0,2.91-.32,4.08-.97,1.16-.65,1.98-1.52,2.44-2.61v3.23ZM201.11,62.57c0,1.67-.47,3.02-1.4,4.05-.93,1.04-2.22,1.55-3.86,1.55-1.01,0-1.82-.26-2.44-.78-.62-.52-.93-1.19-.93-2.03,0-.95.35-1.71,1.04-2.29.69-.57,1.6-.86,2.72-.86h4.87v.35ZM172.96,57.44c-.45-.35-.67-.83-.67-1.47,0-.72.29-1.29.86-1.7.57-.42,1.34-.63,2.29-.63s1.75.27,2.5.82c.75.55,1.19,1.29,1.34,2.24h4.83c-.12-2.13-.98-3.83-2.59-5.11-1.61-1.28-3.68-1.92-6.21-1.92-2.24,0-4.11.6-5.59,1.81-1.48,1.21-2.22,2.76-2.22,4.66,0,1.44.29,2.62.88,3.54.59.92,1.32,1.55,2.2,1.9.88.35,1.83.64,2.87.88,1.04.24,1.99.42,2.87.54.88.12,1.61.38,2.2.8.59.42.88,1,.88,1.75,0,.66-.32,1.22-.97,1.66-.65.45-1.47.67-2.48.67-1.18,0-2.14-.3-2.89-.91-.75-.6-1.18-1.42-1.29-2.46h-4.83c.11,2.33.98,4.18,2.61,5.54,1.62,1.37,3.76,2.05,6.41,2.05s4.56-.62,6.1-1.85c1.54-1.24,2.31-2.87,2.31-4.92,0-1.32-.22-2.44-.67-3.34-.45-.91-1.02-1.57-1.73-2.01-.7-.43-1.49-.76-2.35-.99-.86-.23-1.73-.39-2.59-.47-.86-.09-1.65-.2-2.35-.35-.7-.14-1.28-.39-1.73-.73ZM158.49,71.75h5.22v-13.97c0-2.44-.87-4.41-2.61-5.89-1.74-1.48-4-2.22-6.79-2.22s-5.01.73-6.75,2.18c-1.74,1.45-2.68,3.29-2.83,5.5h4.74c.06-1.04.5-1.91,1.32-2.63.82-.72,1.9-1.08,3.26-1.08s2.47.34,3.26,1.01c.79.68,1.19,1.55,1.19,2.61,0,.98-.53,1.47-1.6,1.47h-4.01c-2.44,0-4.41.62-5.91,1.85-1.5,1.24-2.24,2.9-2.24,5,0,1.9.68,3.46,2.03,4.68,1.35,1.22,3.09,1.83,5.22,1.83,1.55,0,2.91-.32,4.08-.97,1.16-.65,1.98-1.52,2.44-2.61v3.23ZM158.49,62.57c0,1.67-.47,3.02-1.4,4.05-.93,1.04-2.22,1.55-3.86,1.55-1.01,0-1.82-.26-2.44-.78-.62-.52-.93-1.19-.93-2.03,0-.95.35-1.71,1.04-2.29.69-.57,1.6-.86,2.72-.86h4.87v.35ZM134.51,71.75h5.69v-30.19h-5.69v12.25h-13.46v-12.25h-5.69v30.19h5.69v-12.98h13.46v12.98ZM295.91,50.02h-5.31v21.74h5.31v-21.74Z"/>
        <path class="cls-3" d="M90.36,46.61v-5.91h-5.69v5.91h5.69ZM78.5,69.02c1.84-2.06,2.76-4.77,2.76-8.13s-.92-6.07-2.76-8.13c-1.84-2.06-4.34-3.08-7.5-3.08-2.85,0-4.98.99-6.38,2.98v-11.95h-5.26v31.05h5.26v-2.72c.63.95,1.51,1.7,2.63,2.24s2.34.82,3.67.82c3.22,0,5.75-1.03,7.59-3.08ZM76,60.89c0,2.01-.53,3.62-1.6,4.83-1.06,1.21-2.49,1.81-4.27,1.81s-3.21-.6-4.27-1.81c-1.06-1.21-1.6-2.82-1.6-4.83s.53-3.62,1.6-4.83c1.06-1.21,2.49-1.81,4.27-1.81s3.21.6,4.27,1.81c1.06,1.21,1.6,2.82,1.6,4.83ZM50.51,71.75h5.91l-11.65-30.19h-5.35l-11.6,30.19h5.87l2.59-7.03h11.65l2.59,7.03ZM46.19,59.89h-8.11l4.05-11.04,4.05,11.04ZM19.88,71.75h5.31v-13.46c0-2.56-.74-4.64-2.22-6.23-1.48-1.6-3.44-2.39-5.89-2.39-3.25,0-5.51,1.24-6.77,3.71v-3.36h-5.31v21.74h5.31v-11.86c0-1.61.47-2.93,1.4-3.97.93-1.04,2.15-1.55,3.64-1.55,1.35,0,2.44.47,3.28,1.4.83.93,1.25,2.15,1.25,3.64v12.34ZM-4.62,71.75H.6v-13.97c0-2.44-.87-4.41-2.61-5.89-1.74-1.48-4-2.22-6.79-2.22s-5.01.73-6.75,2.18c-1.74,1.45-2.68,3.29-2.83,5.5h4.74c.06-1.04.5-1.91,1.32-2.63.82-.72,1.9-1.08,3.26-1.08s2.47.34,3.26,1.01c.79.68,1.19,1.55,1.19,2.61,0,.98-.53,1.47-1.6,1.47h-4.01c-2.44,0-4.41.62-5.91,1.85-1.5,1.24-2.24,2.9-2.24,5,0,1.9.68,3.46,2.03,4.68,1.35,1.22,3.09,1.83,5.22,1.83,1.55,0,2.91-.32,4.08-.97,1.16-.65,1.98-1.52,2.44-2.61v3.23ZM-4.62,62.57c0,1.67-.47,3.02-1.4,4.05-.93,1.04-2.22,1.55-3.86,1.55-1.01,0-1.82-.26-2.44-.78-.62-.52-.93-1.19-.93-2.03,0-.95.35-1.71,1.04-2.29.69-.57,1.6-.86,2.72-.86h4.87v.35ZM-32.76,57.44c-.45-.35-.67-.83-.67-1.47,0-.72.29-1.29.86-1.7.57-.42,1.34-.63,2.29-.63s1.75.27,2.5.82c.75.55,1.19,1.29,1.34,2.24h4.83c-.12-2.13-.98-3.83-2.59-5.11-1.61-1.28-3.68-1.92-6.21-1.92-2.24,0-4.11.6-5.59,1.81-1.48,1.21-2.22,2.76-2.22,4.66,0,1.44.29,2.62.88,3.54.59.92,1.32,1.55,2.2,1.9.88.35,1.83.64,2.87.88,1.04.24,1.99.42,2.87.54.88.12,1.61.38,2.2.8.59.42.88,1,.88,1.75,0,.66-.32,1.22-.97,1.66-.65.45-1.47.67-2.48.67-1.18,0-2.14-.3-2.89-.91-.75-.6-1.18-1.42-1.29-2.46h-4.83c.11,2.33.98,4.18,2.61,5.54,1.62,1.37,3.76,2.05,6.41,2.05s4.56-.62,6.1-1.85c1.54-1.24,2.31-2.87,2.31-4.92,0-1.32-.22-2.44-.67-3.34-.45-.91-1.02-1.57-1.73-2.01-.7-.43-1.49-.76-2.35-.99-.86-.23-1.73-.39-2.59-.47-.86-.09-1.65-.2-2.35-.35-.7-.14-1.28-.39-1.73-.73ZM-47.23,71.75h5.22v-13.97c0-2.44-.87-4.41-2.61-5.89-1.74-1.48-4-2.22-6.79-2.22s-5.01.73-6.75,2.18c-1.74,1.45-2.68,3.29-2.83,5.5h4.74c.06-1.04.5-1.91,1.32-2.63.82-.72,1.9-1.08,3.26-1.08s2.47.34,3.26,1.01c.79.68,1.19,1.55,1.19,2.61,0,.98-.53,1.47-1.6,1.47h-4.01c-2.44,0-4.41.62-5.91,1.85-1.5,1.24-2.24,2.9-2.24,5,0,1.9.68,3.46,2.03,4.68,1.35,1.22,3.09,1.83,5.22,1.83,1.55,0,2.91-.32,4.08-.97,1.16-.65,1.98-1.52,2.44-2.61v3.23ZM-47.23,62.57c0,1.67-.47,3.02-1.4,4.05-.93,1.04-2.22,1.55-3.86,1.55-1.01,0-1.82-.26-2.44-.78-.62-.52-.93-1.19-.93-2.03,0-.95.35-1.71,1.04-2.29.69-.57,1.6-.86,2.72-.86h4.87v.35ZM-71.21,71.75h5.69v-30.19h-5.69v12.25h-13.46v-12.25h-5.69v30.19h5.69v-12.98h13.46v12.98ZM90.19,50.02h-5.31v21.74h5.31v-21.74Z"/>
        <path class="cls-3" d="M193.22-9.79v-5.91h-5.69v5.91h5.69ZM181.36,12.62c1.84-2.06,2.76-4.77,2.76-8.13s-.92-6.07-2.76-8.13c-1.84-2.06-4.34-3.08-7.5-3.08-2.85,0-4.98.99-6.38,2.98v-11.95h-5.26V15.35h5.26v-2.72c.63.95,1.51,1.7,2.63,2.24s2.34.82,3.67.82c3.22,0,5.75-1.03,7.59-3.08ZM178.86,4.49c0,2.01-.53,3.62-1.6,4.83-1.06,1.21-2.49,1.81-4.27,1.81s-3.21-.6-4.27-1.81c-1.06-1.21-1.6-2.82-1.6-4.83s.53-3.62,1.6-4.83c1.06-1.21,2.49-1.81,4.27-1.81s3.21.6,4.27,1.81c1.06,1.21,1.6,2.82,1.6,4.83ZM153.37,15.35h5.91l-11.65-30.19h-5.35l-11.6,30.19h5.87l2.59-7.03h11.65l2.59,7.03ZM149.06,3.49h-8.11l4.05-11.04,4.05,11.04ZM122.74,15.35h5.31V1.9c0-2.56-.74-4.64-2.22-6.23-1.48-1.6-3.44-2.39-5.89-2.39-3.25,0-5.51,1.24-6.77,3.71v-3.36h-5.31V15.35h5.31V3.49c0-1.61.47-2.93,1.4-3.97.93-1.04,2.15-1.55,3.64-1.55,1.35,0,2.44.47,3.28,1.4.83.93,1.25,2.15,1.25,3.64v12.34ZM98.25,15.35h5.22V1.38c0-2.44-.87-4.41-2.61-5.89-1.74-1.48-4-2.22-6.79-2.22s-5.01.73-6.75,2.18c-1.74,1.45-2.68,3.29-2.83,5.5h4.74c.06-1.04.5-1.91,1.32-2.63.82-.72,1.9-1.08,3.26-1.08s2.47.34,3.26,1.01c.79.68,1.19,1.55,1.19,2.61,0,.98-.53,1.47-1.6,1.47h-4.01c-2.44,0-4.41.62-5.91,1.85-1.5,1.24-2.24,2.9-2.24,5,0,1.9.68,3.46,2.03,4.68,1.35,1.22,3.09,1.83,5.22,1.83,1.55,0,2.91-.32,4.08-.97,1.16-.65,1.98-1.52,2.44-2.61v3.23ZM98.25,6.17c0,1.67-.47,3.02-1.4,4.05-.93,1.04-2.22,1.55-3.86,1.55-1.01,0-1.82-.26-2.44-.78-.62-.52-.93-1.19-.93-2.03,0-.95.35-1.71,1.04-2.29.69-.57,1.6-.86,2.72-.86h4.87v.35ZM70.1,1.04c-.45-.35-.67-.83-.67-1.47,0-.72.29-1.29.86-1.7.57-.42,1.34-.63,2.29-.63s1.75.27,2.5.82c.75.55,1.19,1.29,1.34,2.24h4.83c-.12-2.13-.98-3.83-2.59-5.11-1.61-1.28-3.68-1.92-6.21-1.92-2.24,0-4.11.6-5.59,1.81-1.48,1.21-2.22,2.76-2.22,4.66,0,1.44.29,2.62.88,3.54.59.92,1.32,1.55,2.2,1.9.88.35,1.83.64,2.87.88,1.04.24,1.99.42,2.87.54.88.12,1.61.38,2.2.8.59.42.88,1,.88,1.75,0,.66-.32,1.22-.97,1.66-.65.45-1.47.67-2.48.67-1.18,0-2.14-.3-2.89-.91-.75-.6-1.18-1.42-1.29-2.46h-4.83c.11,2.33.98,4.18,2.61,5.54,1.62,1.37,3.76,2.05,6.41,2.05s4.56-.62,6.1-1.85c1.54-1.24,2.31-2.87,2.31-4.92,0-1.32-.22-2.44-.67-3.34-.45-.91-1.02-1.57-1.73-2.01-.7-.43-1.49-.76-2.35-.99-.86-.23-1.73-.39-2.59-.47-.86-.09-1.65-.2-2.35-.35-.7-.14-1.28-.39-1.73-.73ZM55.63,15.35h5.22V1.38c0-2.44-.87-4.41-2.61-5.89-1.74-1.48-4-2.22-6.79-2.22s-5.01.73-6.75,2.18c-1.74,1.45-2.68,3.29-2.83,5.5h4.74c.06-1.04.5-1.91,1.32-2.63.82-.72,1.9-1.08,3.26-1.08s2.47.34,3.26,1.01c.79.68,1.19,1.55,1.19,2.61,0,.98-.53,1.47-1.6,1.47h-4.01c-2.44,0-4.41.62-5.91,1.85-1.5,1.24-2.24,2.9-2.24,5,0,1.9.68,3.46,2.03,4.68,1.35,1.22,3.09,1.83,5.22,1.83,1.55,0,2.91-.32,4.08-.97,1.16-.65,1.98-1.52,2.44-2.61v3.23ZM55.63,6.17c0,1.67-.47,3.02-1.4,4.05-.93,1.04-2.22,1.55-3.86,1.55-1.01,0-1.82-.26-2.44-.78-.62-.52-.93-1.19-.93-2.03,0-.95.35-1.71,1.04-2.29.69-.57,1.6-.86,2.72-.86h4.87v.35ZM31.65,15.35h5.69V-14.84h-5.69V-2.59h-13.46v-12.25h-5.69V15.35h5.69V2.37h13.46v12.98ZM193.05-6.38h-5.31V15.35h5.31V-6.38Z"/>
      </g>
    </pattern>
  </defs>
  <rect class="cls-1" width="1920" height="1080"/>
</svg>