<?xml version="1.0" encoding="UTF-8" standalone="no"?>
<svg
   height="400"
   style="clip-rule:evenodd;fill-rule:evenodd;stroke-linejoin:round;stroke-miterlimit:2"
   version="1.1"
   viewBox="0 0 400 400"
   width="400"
   xml:space="preserve"
   id="svg1"
   sodipodi:docname="yt.svg"
   inkscape:version="1.3.2 (091e20e, 2023-11-25, custom)"
   xmlns:inkscape="http://www.inkscape.org/namespaces/inkscape"
   xmlns:sodipodi="http://sodipodi.sourceforge.net/DTD/sodipodi-0.dtd"
   xmlns="http://www.w3.org/2000/svg"
   xmlns:svg="http://www.w3.org/2000/svg"><defs
     id="defs1" /><sodipodi:namedview
     id="namedview1"
     pagecolor="#ffffff"
     bordercolor="#000000"
     borderopacity="0.25"
     inkscape:showpageshadow="2"
     inkscape:pageopacity="0.0"
     inkscape:pagecheckerboard="0"
     inkscape:deskcolor="#d1d1d1"
     inkscape:zoom="0.44433594"
     inkscape:cx="-354.46154"
     inkscape:cy="76.518681"
     inkscape:window-width="1920"
     inkscape:window-height="1130"
     inkscape:window-x="-6"
     inkscape:window-y="-6"
     inkscape:window-maximized="1"
     inkscape:current-layer="svg1" /><path
     d="M 391.64373,103.72247 C 387.04451,86.511495 373.49135,72.959125 356.28038,68.359116 325.08345,59.999725 200.00039,59.999725 200.00039,59.999725 c 0,0 -125.083837,0 -156.280773,8.359391 C 26.511771,72.959125 12.956275,86.511495 8.3570476,103.72247 0,134.91628 0,200.00235 0,200.00235 c 0,0 0,65.0845 8.3570476,96.27518 4.5992274,17.21098 18.1547234,30.76725 35.3625694,35.36647 31.196936,8.35627 156.280773,8.35627 156.280773,8.35627 0,0 125.08306,0 156.27999,-8.35627 17.21097,-4.59922 30.76413,-18.15549 35.36335,-35.36647 C 400,265.08685 400,200.00235 400,200.00235 c 0,0 0,-65.08607 -8.35627,-96.27988 z M 159.99797,260.00324 V 140.00067 l 103.9213,60.00168 z"
     style="fill:#f0f0ff;fill-opacity:1;fill-rule:nonzero;stroke-width:0.781252"
     id="path1" /></svg>
